<svg width="194" height="252" viewBox="0 0 194 252" fill="none" xmlns="http://www.w3.org/2000/svg">
<g clip-path="url(#clip0_38_1651)">
<path d="M96.81 251.2C114.68 238.12 155.51 205.73 176.16 169.06C196.21 133.45 194.42 59.83 192.51 27.65C189.35 27.81 186.28 27.81 183.73 27.81C178.58 27.81 172.61 27.62 166 27.23C136.13 25.5 112.63 10.25 100 2.06C98.97 1.39 97.85 0.67 96.81 0C95.84 0.62 94.8 1.29 93.84 1.91L93.64 2.04C81.01 10.24 57.5 25.49 27.63 27.22C21.02 27.6 15.06 27.8 9.89996 27.8C7.28996 27.8 4.25996 27.8 1.10996 27.64C-0.81004 59.82 -2.61004 133.41 17.46 169.06C38.11 205.73 78.94 238.13 96.81 251.21V251.2ZM31.51 155.1C35.51 155.1 38.58 153.64 40.91 150.64C43.33 147.52 44.6 143.15 44.71 137.66L46.21 68.65C44.13 64.83 41.98 62.03 39.81 60.31C37.73 58.67 35.4 57.87 32.69 57.87C31.78 57.87 30.24 57.25 30.24 54.92C30.24 52.59 31.78 51.96 32.69 51.96L40.64 52.13C42.24 52.24 44.23 52.3 46.66 52.3L55.45 52.13C56.52 52.02 57.87 51.96 59.44 51.96C61.49 51.96 63.19 52.74 64.34 54.22C65.19 55.32 66.68 57.77 68.88 61.7L103.68 127L134.04 57.33C134.84 55.47 135.7 54.16 136.67 53.34C137.76 52.42 139.17 51.96 140.87 51.96C141.92 51.96 143.11 52.02 144.49 52.13C145.7 52.24 147.15 52.29 148.78 52.29L158.62 52.12C160.25 52.01 162.54 51.95 165.43 51.95C166.34 51.95 167.88 52.57 167.88 54.91C167.88 57.25 166.34 57.86 165.43 57.86C160.68 57.86 157.27 58.77 155.29 60.55C153.4 62.26 152.54 65.08 152.73 68.93L156.77 145.31C157.03 149.35 157.53 151.33 157.9 152.27C158.31 153.31 159 153.97 160.09 154.34C161.06 154.68 163.07 155.08 167.11 155.08C167.49 155.08 169.39 155.22 169.39 158.03C169.39 160.84 167.49 160.98 167.11 160.98C163.2 160.98 160.2 160.92 157.93 160.81L145.55 160.64L132.98 160.81C130.9 160.92 128 160.98 124.2 160.98C123.29 160.98 121.75 160.36 121.75 158.03C121.75 155.7 123.29 155.08 124.2 155.08C129.84 155.08 131.95 154.23 132.71 153.72C134.07 152.82 134.36 150.3 134.37 148.33L134.2 145.53L131.1 85.11L99.69 158.75C99.13 159.86 98.01 160.49 96.61 160.49C95.21 160.49 94.08 159.85 93.52 158.74L54.49 84.52L53.31 137.74C53.21 143.32 54.29 147.7 56.55 150.76C58.7 153.68 61.69 155.1 65.67 155.1C66.58 155.1 68.12 155.72 68.12 158.05C68.12 160.38 66.58 161 65.67 161C62.55 161 60.2 160.94 58.47 160.83L49.31 160.67L38.78 160.84C37.04 160.95 34.63 161.01 31.51 161.01C30.6 161.01 29.06 160.39 29.06 158.06C29.06 155.73 30.6 155.11 31.51 155.11V155.1Z" fill="#F2F5FA"/>
</g>
<defs>
<clipPath id="clip0_38_1651">
<rect width="193.61" height="251.2" fill="white"/>
</clipPath>
</defs>
</svg>
