<svg width="194" height="252" viewBox="0 0 194 252" fill="none" xmlns="http://www.w3.org/2000/svg">
<g clip-path="url(#clip0_38_1650)">
<path d="M96.8102 251.2C114.68 238.12 155.51 205.73 176.16 169.06C196.21 133.45 194.42 59.83 192.51 27.65C189.35 27.81 186.28 27.81 183.73 27.81C178.58 27.81 172.61 27.62 166 27.23C136.13 25.5 112.63 10.25 100 2.06C98.9702 1.39 97.8502 0.67 96.8102 0C95.8402 0.62 94.8002 1.29 93.8402 1.91L93.6402 2.04C81.0102 10.24 57.5002 25.49 27.6302 27.22C21.0202 27.6 15.0602 27.8 9.9002 27.8C7.2902 27.8 4.2602 27.8 1.1102 27.64C-0.809796 59.82 -2.6098 133.41 17.4602 169.06C38.1102 205.73 78.9402 238.13 96.8102 251.21V251.2ZM31.5102 155.1C35.5102 155.1 38.5802 153.64 40.9102 150.64C43.3302 147.52 44.6002 143.15 44.7102 137.66L46.2102 68.65C44.1302 64.83 41.9802 62.03 39.8102 60.31C37.7302 58.67 35.4002 57.87 32.6902 57.87C31.7802 57.87 30.2402 57.25 30.2402 54.92C30.2402 52.59 31.7802 51.96 32.6902 51.96L40.6402 52.13C42.2402 52.24 44.2302 52.3 46.6602 52.3L55.4502 52.13C56.5202 52.02 57.8702 51.96 59.4402 51.96C61.4902 51.96 63.1902 52.74 64.3402 54.22C65.1902 55.32 66.6802 57.77 68.8802 61.7L103.68 127L134.04 57.33C134.84 55.47 135.7 54.16 136.67 53.34C137.76 52.42 139.17 51.96 140.87 51.96C141.92 51.96 143.11 52.02 144.49 52.13C145.7 52.24 147.15 52.29 148.78 52.29L158.62 52.12C160.25 52.01 162.54 51.95 165.43 51.95C166.34 51.95 167.88 52.57 167.88 54.91C167.88 57.25 166.34 57.86 165.43 57.86C160.68 57.86 157.27 58.77 155.29 60.55C153.4 62.26 152.54 65.08 152.73 68.93L156.77 145.31C157.03 149.35 157.53 151.33 157.9 152.27C158.31 153.31 159 153.97 160.09 154.34C161.06 154.68 163.07 155.08 167.11 155.08C167.49 155.08 169.39 155.22 169.39 158.03C169.39 160.84 167.49 160.98 167.11 160.98C163.2 160.98 160.2 160.92 157.93 160.81L145.55 160.64L132.98 160.81C130.9 160.92 128 160.98 124.2 160.98C123.29 160.98 121.75 160.36 121.75 158.03C121.75 155.7 123.29 155.08 124.2 155.08C129.84 155.08 131.95 154.23 132.71 153.72C134.07 152.82 134.36 150.3 134.37 148.33L134.2 145.53L131.1 85.11L99.6902 158.75C99.1302 159.86 98.0102 160.49 96.6102 160.49C95.2102 160.49 94.0802 159.85 93.5202 158.74L54.4902 84.52L53.3102 137.74C53.2102 143.32 54.2902 147.7 56.5502 150.76C58.7002 153.68 61.6902 155.1 65.6702 155.1C66.5802 155.1 68.1202 155.72 68.1202 158.05C68.1202 160.38 66.5802 161 65.6702 161C62.5502 161 60.2002 160.94 58.4702 160.83L49.3102 160.67L38.7802 160.84C37.0402 160.95 34.6302 161.01 31.5102 161.01C30.6002 161.01 29.0602 160.39 29.0602 158.06C29.0602 155.73 30.6002 155.11 31.5102 155.11V155.1Z" fill="#818A99"/>
</g>
<defs>
<clipPath id="clip0_38_1650">
<rect width="193.61" height="251.2" fill="white"/>
</clipPath>
</defs>
</svg>
