<svg width="202" height="262" viewBox="0 0 202 262" fill="none" xmlns="http://www.w3.org/2000/svg">
<g clip-path="url(#clip0_38_1638)">
<path d="M100.86 261.02L99.67 260.16C82.27 247.54 39.49 214.06 17.98 175.85C-3.06 138.48 -0.739994 61.52 1.23001 30.16L1.36001 28.11L3.41001 28.26C7.14001 28.53 10.85 28.53 13.82 28.53C19.03 28.53 24.91 28.34 31.44 27.96C60.24 26.29 83.16 11.42 95.47 3.43L95.68 3.3C97.03 2.43 98.52 1.46 99.79 0.67L100.86 0L101.93 0.67C103.26 1.5 104.85 2.53 106.24 3.43C118.57 11.43 141.48 26.3 170.28 27.97C176.82 28.35 182.7 28.54 187.78 28.54C190.98 28.54 194.6 28.54 198.32 28.27L200.37 28.12L200.5 30.17C202.47 61.54 204.77 138.52 183.76 175.85C162.25 214.06 119.46 247.54 102.07 260.16L100.88 261.02H100.86ZM5.16001 32.44C3.25001 64.61 1.45001 138.2 21.52 173.85C42.17 210.52 83 242.92 100.87 256C118.74 242.92 159.57 210.53 180.22 173.86C200.27 138.25 198.48 64.63 196.57 32.45C193.41 32.61 190.34 32.61 187.79 32.61C182.64 32.61 176.67 32.42 170.06 32.03C140.19 30.3 116.69 15.05 104.06 6.86C103.03 6.19 101.91 5.47 100.87 4.8C99.9 5.42 98.86 6.09 97.9 6.71L97.7 6.84C85.07 15.04 61.56 30.29 31.69 32.02C25.08 32.4 19.12 32.6 13.96 32.6C11.35 32.6 8.32001 32.6 5.17001 32.44H5.16001Z" fill="#F2F5FA"/>
<path d="M100.86 249.85V169.29C102.75 167.09 104.72 164.22 106.71 160.68C108.86 156.85 110.72 152.36 112.22 147.32C112.23 147.28 112.25 147.23 112.26 147.19L112.23 155.09C112.23 166.4 113.35 181.62 123.02 183.2C123.34 183.25 123.65 183.28 123.96 183.28C124.87 183.28 125.7 183.05 126.44 182.59C126.94 182.28 127.62 181.74 129.88 179C131.36 177.2 133.33 174.6 135.77 171.2C137.87 168.1 139.66 164.26 141.08 159.79C141.38 158.85 141.65 157.9 141.89 156.96C142.02 168.01 143.52 181.71 152.67 183.21C152.99 183.26 153.3 183.29 153.61 183.29C154.52 183.29 155.35 183.06 156.09 182.6C156.59 182.29 157.26 181.75 159.53 179.01C161.01 177.21 162.98 174.61 165.42 171.21C167.52 168.11 169.31 164.27 170.73 159.8C172.15 155.31 172.87 150.86 172.87 146.57C172.87 139.65 170.93 134.21 167.12 130.39C166.61 129.88 165.92 129.6 165.22 129.6C164.95 129.6 164.68 129.64 164.42 129.72C163.46 130.02 162.75 130.82 162.57 131.81L162.26 133.52C162.11 134.37 162.37 135.24 162.97 135.87C164.94 137.93 165.94 141.48 165.94 146.42C165.94 149.36 165.51 152.35 164.65 155.29C163.81 158.19 162.69 160.68 161.32 162.7C161.06 163.05 160.83 163.31 160.64 163.5C160.45 162.78 160.23 161.57 160.06 159.61C159.71 155.53 159.53 149.74 159.53 142.4L159.61 126.51H189.1C190.22 118.84 191.09 110.53 191.7 101.55C193.31 77.7599 192.77 54.3399 191.9 37.5399C190.42 37.5599 189.03 37.5599 187.78 37.5599C182.53 37.5599 176.47 37.3599 169.76 36.9699C138.58 35.1599 114.37 19.4499 101.36 11.0099L101.08 10.8299C101.01 10.7799 100.93 10.7299 100.86 10.6899V64.4699C99.5501 66.5099 98.4201 69.2199 97.4301 72.7599C96.7801 75.0699 96.3401 77.7299 96.1201 80.7099C95.1601 78.1799 94.0101 75.7299 92.6601 73.3799C87.9801 65.2299 81.5001 59.4099 73.4201 56.0899C68.0501 53.8999 62.6401 52.7899 57.3501 52.7899C50.9801 52.7899 45.1801 54.3599 40.1101 57.4499C35.0501 60.5499 31.0901 64.8199 28.3401 70.1499C25.6201 75.4199 24.2401 81.2999 24.2401 87.5999C24.2401 92.8999 25.1401 97.7799 26.9201 102.12C28.8401 106.8 31.4501 109.9 34.6601 111.31C37.1401 112.44 40.0801 113.29 43.4001 113.84C46.6101 114.38 49.8001 114.68 52.8701 114.73C55.7801 114.78 57.5101 114.81 58.0001 114.81H58.0301C72.9301 115.26 76.0601 119.25 76.0601 122.52C76.0601 122.98 75.8701 124.03 74.6301 125.94C74.5001 126.14 74.3301 126.32 74.1701 126.51H12.6201C15.1501 143.79 19.2701 159.81 25.8201 171.45C45.0601 205.62 82.7401 236.33 100.86 249.88V249.85ZM141.91 137.69C140.95 134.82 139.47 132.37 137.47 130.37C136.96 129.86 136.27 129.58 135.57 129.58C135.3 129.58 135.03 129.62 134.77 129.7C133.81 130 133.1 130.8 132.92 131.79L132.61 133.5C132.46 134.35 132.72 135.22 133.32 135.85C135.29 137.91 136.29 141.46 136.29 146.4C136.29 149.34 135.86 152.33 135 155.27C134.16 158.17 133.04 160.66 131.67 162.68C131.41 163.03 131.18 163.29 130.99 163.48C130.8 162.76 130.58 161.55 130.41 159.59C130.06 155.51 129.88 149.72 129.88 142.38L129.98 126.49H141.94L141.91 137.7V137.69ZM34.1401 152.45C35.7401 150.07 37.9901 148.26 40.8901 147.02C41.8201 146.5 42.8501 145.62 43.9901 144.38C44.2001 144.17 44.7401 143.68 45.6201 142.91C46.5001 142.13 47.3801 141.49 48.2601 140.97C49.1401 140.45 50.0401 140.14 50.9801 140.04H52.2201C53.4601 140.04 54.8601 140.2 56.4101 140.51C57.2401 140.61 58.3701 140.66 59.8201 140.66C64.9901 140.66 69.7801 139.45 74.1801 137.01C78.5801 134.58 82.2201 131.53 85.1201 127.85C88.0201 124.18 89.9301 120.53 90.8601 116.91C91.4801 114.74 91.7901 112.41 91.7901 109.93C91.7901 104.86 90.7001 99.6599 88.5301 94.3299C86.3601 88.9999 83.3001 84.2399 79.3701 80.0499C75.4401 75.8599 70.8901 72.8899 65.7101 71.1299C60.2301 69.2699 54.9001 68.3399 49.7201 68.3399C43.5101 68.3399 38.4401 69.7599 34.5101 72.6099C30.5801 75.4599 28.6101 79.6699 28.6101 85.2599C28.6101 88.7799 29.7501 91.4199 32.0201 93.1799C34.2901 94.9399 37.9201 96.2099 42.8801 96.9799C47.8501 97.7599 55.5001 98.4599 65.8501 99.0799C69.9901 99.2899 73.0401 100.04 75.0101 101.33C76.9701 102.62 78.2401 104.2 78.8101 106.06C79.3801 107.92 79.7701 110.46 79.9801 113.66L80.4501 118.01C80.7601 120.29 80.2701 122.85 78.9801 125.69C77.6801 128.54 75.7401 130.84 73.1601 132.6C71.7101 133.64 70.3701 134.15 69.1201 134.15C68.1901 134.15 67.7201 133.89 67.7201 133.37C67.7201 132.65 68.8101 131.97 70.9801 131.35C73.6701 130.63 75.6401 129.31 76.8801 127.39C78.1201 125.48 78.7401 123.85 78.7401 122.5C78.7401 115.98 71.8601 112.52 58.1001 112.1C57.5801 112.1 55.8501 112.08 52.9001 112.02C49.9501 111.97 46.9301 111.69 43.8201 111.17C40.7201 110.65 38.0201 109.88 35.7501 108.84C33.1601 107.7 31.0401 105.12 29.3901 101.08C27.7301 97.0399 26.9101 92.5399 26.9101 87.5799C26.9101 81.6799 28.1801 76.2799 30.7101 71.3599C33.2401 66.4499 36.8401 62.5699 41.5001 59.7199C46.1601 56.8799 51.4301 55.4499 57.3301 55.4499C62.3001 55.4499 67.3101 56.4899 72.3801 58.5499C79.9301 61.6499 85.9101 67.0399 90.3101 74.6899C94.7101 82.3499 96.9101 90.9899 96.9101 100.61C96.9101 103.51 96.5501 107.13 95.8201 111.47C94.8901 116.33 92.8701 120.96 89.7701 125.36C86.6701 129.76 82.7101 133.48 77.9001 136.53C73.0901 139.58 67.7801 141.57 61.9901 142.5C65.3001 144.05 69.9001 146.59 75.8001 150.1C83.0401 154.65 88.5301 157.55 92.2501 158.79C94.0101 159.41 95.5101 159.72 96.7501 159.72C98.0901 156.2 98.8701 152.43 99.0801 148.39L95.2001 139.54L98.9301 131V126.19C98.3101 126.09 97.8201 125.88 97.4501 125.57C97.0901 125.26 96.9101 124.85 96.9101 124.33C96.9101 124.02 97.0901 123.71 97.4501 123.4C97.8101 123.09 98.3001 122.88 98.9301 122.78L98.6201 85.6899C98.6201 80.8299 99.0901 76.7399 100.02 73.4299C100.95 70.1199 102.01 67.5599 103.2 65.7499C104.39 63.9399 105.92 61.9999 107.78 59.9299C108.5 58.8999 109.59 58.3799 111.04 58.3799C111.66 58.3799 112.28 58.5399 112.9 58.8499L123.45 64.5899C125.21 65.6299 126.61 66.1399 127.64 66.1399C128.47 66.1399 129.24 65.8299 129.97 65.2099L130.9 64.4299C132.35 62.6699 133.69 61.1699 134.94 59.9299C135.77 58.7899 136.85 58.2199 138.2 58.2199C138.82 58.2199 139.44 58.4299 140.06 58.8399L150.15 66.4399C151.39 67.4799 152.74 67.9899 154.19 67.9899C155.22 67.9899 156.05 67.6799 156.67 67.0599L158.53 65.3499L158.99 66.4399C157.75 69.0299 157.13 74.4599 157.13 82.7399L156.82 142.34C156.82 149.79 157 155.61 157.36 159.8C157.72 163.99 158.42 166.24 159.45 166.55L160.07 166.7C161.1 166.7 162.24 165.87 163.48 164.22C165.03 161.95 166.27 159.2 167.2 155.99C168.13 152.78 168.6 149.58 168.6 146.37C168.6 140.68 167.36 136.54 164.87 133.95L165.18 132.24C168.49 135.55 170.15 140.31 170.15 146.52C170.15 150.56 169.48 154.7 168.13 158.94C166.78 163.18 165.13 166.75 163.16 169.65C160.78 172.96 158.87 175.49 157.42 177.25C155.97 179.01 155.04 180.02 154.63 180.28C154.22 180.54 153.7 180.61 153.08 180.51C147.39 179.58 144.54 171.1 144.54 155.06L144.69 87.2399C144.69 85.1699 145.02 83.4899 145.7 82.1999C146.37 80.9099 147.35 79.4799 148.65 77.9299C149.94 76.3799 150.8 75.3399 151.21 74.8299C150.28 75.4499 149.24 75.7599 148.11 75.7599C146.76 75.7599 145.57 75.3999 144.54 74.6699L134.92 67.8399C134.4 67.4299 133.83 67.2199 133.21 67.2199C132.38 67.2199 131.71 67.5299 131.19 68.1499C129.64 70.0099 128.63 72.1899 128.16 74.6699C127.69 77.1499 127.46 81.5499 127.46 87.8599L127.3 108.04H133.82C135.06 108.04 136.02 107.76 136.69 107.19C137.36 106.62 137.96 105.77 138.47 104.63H139.4L138.47 109.6C138.06 112.19 137.69 113.95 137.38 114.88C137.07 115.81 136.47 116.46 135.6 116.82C134.72 117.18 133.24 117.36 131.18 117.36H127.3L127.15 142.35C127.15 149.8 127.33 155.62 127.69 159.81C128.05 164 128.75 166.25 129.78 166.56L130.4 166.71C131.43 166.71 132.57 165.88 133.81 164.23C135.36 161.96 136.6 159.21 137.53 156C138.46 152.79 138.93 149.59 138.93 146.38C138.93 140.69 137.69 136.55 135.21 133.96L135.52 132.25C138.83 135.56 140.49 140.32 140.49 146.53C140.49 150.57 139.82 154.71 138.47 158.95C137.12 163.19 135.47 166.76 133.5 169.66C131.12 172.97 129.21 175.5 127.76 177.26C126.31 179.02 125.38 180.03 124.97 180.29C124.56 180.55 124.04 180.62 123.42 180.52C117.73 179.59 114.88 171.11 114.88 155.07L115.03 117.36H109.13C107.89 117.36 106.96 117.62 106.34 118.14C105.72 118.66 105.15 119.54 104.63 120.78H103.54C103.64 120.16 103.87 118.71 104.24 116.43C104.6 114.16 105.38 112.19 106.57 110.53C107.76 108.88 109.44 108.05 111.61 108.05H115.02V89.4299C115.54 85.9099 118.23 80.7399 123.09 73.9099C122.88 74.0099 122.47 74.0699 121.85 74.0699C120.71 74.0699 119.37 73.6599 117.81 72.8299L107.72 67.8599C107.1 67.5499 106.48 67.3899 105.86 67.3899C105.03 67.3899 104.46 67.6499 104.15 68.1699C101.46 71.0699 100.11 76.9199 100.11 85.7099L100.27 122.65C100.79 122.86 101.25 123.12 101.67 123.43C102.08 123.74 102.29 124.05 102.29 124.36C102.29 125.29 101.62 125.96 100.27 126.38V130.73L104.62 139.58L100.43 149.67C100.12 153.39 99.3901 156.71 98.2601 159.6C100.23 159.19 101.85 158.15 103.15 156.5C104.44 154.85 105.61 152.96 106.64 150.83C107.67 148.71 108.4 147.24 108.81 146.41L109.59 146.57C108.14 151.43 106.38 155.7 104.31 159.37C102.24 163.04 100.25 165.94 98.3301 168.06C96.4101 170.18 94.8901 171.4 93.7501 171.71C93.1301 171.92 92.6101 172.02 92.2001 172.02C91.8901 172.02 91.3201 171.92 90.4901 171.71C84.2801 177.61 76.6801 180.56 67.6801 180.56C63.1301 180.56 58.6301 179.83 54.1801 178.39C49.5201 176.94 45.9501 174.82 43.4701 172.03C40.9901 169.24 39.7501 166.44 39.7501 163.65C39.7501 161.79 40.3701 160.24 41.6101 158.99C42.8501 157.75 44.5601 157.13 46.7301 157.13C49.9401 157.13 53.5601 158.43 57.5901 161.01L57.4301 162.41C53.0801 159.72 49.4601 158.37 46.5701 158.37C44.8101 158.37 43.4401 158.84 42.4601 159.77C41.4801 160.7 40.9901 161.94 40.9901 163.49C40.9901 165.97 42.1801 168.51 44.5601 171.09C46.9401 173.67 50.2501 175.64 54.4901 176.99C59.1501 178.44 63.7001 179.16 68.1501 179.16C76.5301 179.16 83.4601 176.57 88.9501 171.4C87.0901 170.88 85.0701 170.08 82.9001 168.99C80.7301 167.9 77.9901 166.38 74.6801 164.41L70.3301 162.08L62.2601 157.58C58.3301 155.31 55.3001 153.73 53.1801 152.85C51.0601 151.97 48.6001 151.53 45.8101 151.53C42.4001 151.53 39.4501 152.49 36.9601 154.4C34.4801 156.32 33.2401 158.77 33.2401 161.77C33.2401 164.98 34.7901 168.19 37.9001 171.39L37.1201 171.86C33.5001 168.55 31.6901 164.67 31.6901 160.22C31.6901 157.43 32.4901 154.84 34.1001 152.46L34.1401 152.45ZM83.1501 117.71L82.6901 113.42C82.4601 110 82.0501 107.33 81.4201 105.26C80.6701 102.79 79.0201 100.71 76.5201 99.0599C74.1201 97.4899 70.6901 96.6099 66.0501 96.3699C55.8401 95.7599 48.1901 95.0599 43.3301 94.2999C38.8401 93.5999 35.6001 92.4999 33.7001 91.0299C32.1101 89.7999 31.3301 87.9099 31.3301 85.2499C31.3301 80.5399 32.8901 77.1099 36.1101 74.7799C39.5501 72.2899 44.1401 71.0199 49.7401 71.0199C54.5901 71.0199 59.6801 71.9099 64.8601 73.6699C69.5901 75.2799 73.8101 78.0399 77.4201 81.8899C81.1101 85.8199 84.0101 90.3499 86.0501 95.3399C88.0801 100.32 89.1101 105.23 89.1101 109.92C89.1101 112.14 88.8301 114.24 88.2601 116.23C87.4301 119.47 85.6601 122.81 83.0101 126.18C82.9301 126.28 82.8401 126.38 82.7501 126.48H81.5701C82.9701 123.29 83.5001 120.32 83.1401 117.7L83.1501 117.71Z" fill="#F2F5FA"/>
</g>
<defs>
<clipPath id="clip0_38_1638">
<rect width="201.71" height="261.02" fill="white"/>
</clipPath>
</defs>
</svg>
