<svg width="486" height="632" viewBox="0 0 486 632" fill="none" xmlns="http://www.w3.org/2000/svg">
<rect width="486" height="632" fill="#CFCFCF"/>
<g id="Slide 16:9 - 4">
<rect width="1920" height="1080" transform="translate(-97.1763 -178.637)" fill="#14161A"/>
<g id="Frame 1">
<path id="Vector" d="M21.6553 90.0863C11.3754 301.023 45.6889 387.19 61.2505 414.885C107.333 496.66 196.555 570.75 243.169 605.989C289.818 570.75 379.005 496.66 425.087 414.885C440.649 387.26 474.927 301.129 464.683 90.0863C463.619 90.0863 462.627 90.0863 461.634 90.0863C448.306 90.0863 432.921 89.5905 415.906 88.5988C337.815 84.0656 277.093 46.029 243.169 24.0712C209.245 46.029 148.523 84.0656 70.4315 88.5988C53.4166 89.5905 22.6833 90.0863 21.6553 90.0863Z" stroke="#E3E3E3" stroke-width="1.88253" stroke-miterlimit="10"/>
<path id="Vector_2" d="M4.85295 74.2659C-6.19197 300.819 30.6752 393.365 47.3949 423.111C96.9066 510.941 192.769 590.516 242.852 628.363C292.973 590.516 388.797 510.941 438.309 423.111C455.028 393.442 491.858 300.934 480.851 74.2659C479.708 74.2659 478.642 74.2659 477.575 74.2659C463.255 74.2659 446.726 73.7334 428.445 72.6683C344.541 67.7995 279.3 26.9468 242.852 3.36336C206.404 26.9468 141.162 67.7995 57.2592 72.6683C38.9779 73.7334 5.95744 74.2659 4.85295 74.2659Z" stroke="#E3E3E3" stroke-width="5.64759" stroke-miterlimit="10"/>
<g id="_&#208;&#161;&#208;&#187;&#208;&#190;&#208;&#185;_1">
<path id="Vector_3" d="M101.224 344.922L130.773 318.847C145.24 306.202 151.396 295.676 151.396 283.647V265.568C142.709 266.457 139.973 269.464 138.4 272.608L134.296 280.913L116.751 273.258L117.435 266.252C120.137 238.809 132.586 221.004 151.361 216.835V190.213C138.981 181.806 130.602 176.235 126.908 175.825C126.224 176.133 124.822 177.056 122.018 179.55L114.972 185.838L97.5986 167.418L105.807 160.857C113.707 154.534 135.048 136.729 141.922 130.988L147.668 126.169L153.755 130.509C157.825 133.38 162.408 136.593 167.299 140.01C175.473 145.751 184.57 152.108 193.394 158.43L196.608 156.106C196.403 150.638 195.309 144.965 194.488 142.402L194.043 141.001V127.878L217.847 131.056L219.454 137.413C219.591 137.959 219.728 138.54 219.865 139.156L237.888 125.964L243.668 130.441C254.031 138.472 270.139 148.827 278.415 154.022C279.544 153.27 280.673 152.518 281.767 151.732C281.288 147.528 280.57 144.043 280.091 142.607L279.578 141.104V127.878L303.724 131.125L304.544 135.123C305.673 134.234 313.608 127.98 313.608 127.98L318.019 128.903C346.235 134.781 376.433 156.175 376.433 198.688V264.646C376.433 282.622 372.569 294.651 362.069 305.792C370.619 307.638 378.93 309.107 382.008 309.38L390.832 310.167V323.7L388.233 326.502C381.358 333.85 374.621 342.325 368.704 349.809C366.686 352.338 364.805 354.73 363.061 356.884L357.863 363.308L350.715 359.173C335.735 350.527 323.731 345.367 311.726 342.359L304.373 340.514V338.976C300.68 342.906 296.986 346.768 293.464 350.459L281.493 363.069L274.688 358.558C263.299 350.971 252.765 344.546 242.539 338.873L237.546 336.105V329.885C229.612 339.762 222.977 348.442 217.368 356.166L212.922 362.317L205.877 359.447C188.332 352.304 171.711 349.399 148.489 349.399C135.732 349.399 131.799 352.612 125.882 357.499L117.537 364.334L101.292 344.922H101.224Z" stroke="#E3E3E3" stroke-width="1.88253" stroke-miterlimit="10"/>
<path id="Vector_4" d="M381.084 319.018V319.872C371.577 330.056 362.377 342.222 355.468 350.732C342.233 343.077 328.69 336.584 314.018 332.893V331.184C323.217 325.511 333.614 313.345 333.614 294.959V245.713L297.328 261.843V319.599C299.927 320.453 302.8 321.307 305.981 322.162V323.016C297.328 332.346 287.854 342.257 280.057 350.493C269.386 343.419 258.476 336.618 247.225 330.398V245.747L211.793 261.331V317.958C216.684 318.813 220.446 319.667 222.156 319.667C225.029 319.667 229.064 317.104 233.681 311.158L237.717 314.267C229.372 324.452 218.701 337.78 209.502 350.493C192.812 343.692 175.507 339.728 148.454 339.728C131.457 339.728 125.711 345.093 118.802 350.766L114.767 345.947L137.236 326.126C150.198 314.814 161.142 301.486 161.142 283.647V255.623H157.415C143.598 255.623 134.364 259.007 129.781 268.371L127.182 267.243C130.054 238.092 143.598 225.618 160.287 225.618H161.142V185.121C141.546 171.827 133.509 166.154 126.6 166.154C122.872 166.154 118.837 169.537 115.656 172.374L111.928 168.409C119.692 162.189 140.451 144.897 148.215 138.404C160.595 147.187 177.866 159.08 193.427 170.391L206.389 161.062V157.952C206.389 150.878 204.953 143.222 203.79 139.566V138.985L210.117 139.839C210.972 143.222 211.861 150.023 211.861 155.423V157.132L237.785 138.165C252.765 149.784 278.689 165.641 278.689 165.641C283.306 162.531 287.615 159.695 291.924 156.585C291.651 150.057 290.488 142.983 289.325 139.6V139.019L295.652 139.873C296.233 142.71 297.089 147.802 297.362 152.62C303.997 148.075 310.324 142.983 316.07 138.472C336.521 142.71 366.754 158.567 366.754 198.791V264.748C366.754 285.697 361.282 296.462 342.267 310.03V310.884C353.211 314.267 374.792 318.539 381.153 319.086L381.084 319.018ZM297.294 230.983L333.58 214.579V208.36C333.58 179.208 320.618 167.008 297.294 160.788V231.018V230.983ZM297.294 257.298L333.58 240.894V219.364L297.294 235.494V257.298ZM291.822 317.617V162.736C287.205 165.846 280.604 170.665 280.604 170.665V313.345C284.64 315.053 288.094 316.181 291.822 317.582V317.617ZM211.759 230.402L247.19 214.545V183.412L213.777 161.608L211.759 163.01V230.402ZM211.759 256.751L247.19 240.894V219.364L211.759 234.948V256.751ZM206.287 316.762V167.281L194.488 176.064V266.662C194.488 280.81 186.416 297.795 159.945 313.926L160.8 315.053C162.818 314.472 169.453 311.944 175.199 311.944C184.706 311.944 195.65 314.507 206.287 316.762Z" fill="#E3E3E3"/>
</g>
<path id="prague 2026" d="M194.42 482.996V474.976H197.719C198.057 474.976 198.366 475.048 198.645 475.191C198.931 475.334 199.179 475.526 199.39 475.767C199.601 476 199.763 476.264 199.876 476.558C199.996 476.851 200.057 477.153 200.057 477.461C200.057 477.891 199.959 478.297 199.763 478.681C199.575 479.058 199.311 479.366 198.972 479.607C198.641 479.848 198.246 479.969 197.786 479.969H194.996V482.996H194.42ZM194.996 479.438H197.764C198.118 479.438 198.423 479.344 198.679 479.156C198.935 478.967 199.13 478.723 199.266 478.421C199.401 478.12 199.469 477.8 199.469 477.461C199.469 477.107 199.386 476.784 199.221 476.49C199.063 476.189 198.848 475.948 198.577 475.767C198.313 475.586 198.02 475.496 197.696 475.496H194.996V479.438ZM203.808 482.996V474.976H207.14C207.486 474.976 207.799 475.048 208.077 475.191C208.363 475.334 208.608 475.526 208.811 475.767C209.022 476 209.184 476.264 209.297 476.558C209.418 476.851 209.478 477.153 209.478 477.461C209.478 477.86 209.399 478.233 209.241 478.58C209.083 478.926 208.86 479.216 208.574 479.449C208.296 479.683 207.968 479.826 207.592 479.878L209.591 482.996H208.924L206.982 479.969H204.384V482.996H203.808ZM204.384 479.438H207.196C207.543 479.438 207.844 479.344 208.1 479.156C208.356 478.967 208.552 478.723 208.687 478.421C208.83 478.12 208.902 477.8 208.902 477.461C208.902 477.115 208.819 476.795 208.653 476.501C208.495 476.2 208.281 475.959 208.009 475.778C207.746 475.59 207.448 475.496 207.117 475.496H204.384V479.438ZM215.968 474.976H216.465L219.853 482.996H219.243L218.125 480.353H214.296L213.178 482.996H212.556L215.968 474.976ZM217.967 479.878L216.216 475.677L214.431 479.878H217.967ZM226.353 483.052C225.811 483.052 225.31 482.936 224.851 482.702C224.391 482.469 223.992 482.16 223.653 481.776C223.314 481.384 223.051 480.948 222.863 480.466C222.682 479.976 222.591 479.479 222.591 478.975C222.591 478.448 222.682 477.943 222.863 477.461C223.043 476.972 223.299 476.539 223.631 476.162C223.962 475.778 224.354 475.477 224.805 475.259C225.257 475.033 225.75 474.92 226.285 474.92C227.083 474.92 227.727 475.086 228.216 475.417C228.713 475.741 229.09 476.159 229.346 476.671L228.872 476.953C228.601 476.426 228.239 476.046 227.787 475.812C227.343 475.571 226.838 475.451 226.274 475.451C225.799 475.451 225.37 475.552 224.986 475.756C224.602 475.951 224.274 476.219 224.003 476.558C223.732 476.889 223.525 477.266 223.382 477.687C223.239 478.109 223.168 478.542 223.168 478.986C223.168 479.461 223.25 479.909 223.416 480.33C223.582 480.752 223.811 481.128 224.105 481.46C224.399 481.791 224.741 482.051 225.133 482.239C225.524 482.427 225.942 482.522 226.387 482.522C226.906 482.522 227.396 482.397 227.855 482.149C228.314 481.893 228.755 481.494 229.177 480.951V481.595C228.378 482.567 227.437 483.052 226.353 483.052ZM229.052 479.562H227.234V479.099H229.549V482.996H229.052V479.562ZM236.844 483.052C236.204 483.052 235.669 482.939 235.24 482.714C234.811 482.488 234.468 482.183 234.212 481.799C233.956 481.407 233.771 480.97 233.658 480.488C233.546 480.006 233.489 479.513 233.489 479.009V474.976H234.065V479.009C234.065 479.445 234.11 479.875 234.201 480.296C234.291 480.718 234.438 481.098 234.641 481.437C234.852 481.769 235.134 482.032 235.488 482.228C235.85 482.424 236.298 482.522 236.832 482.522C237.375 482.522 237.823 482.42 238.177 482.217C238.538 482.013 238.82 481.746 239.024 481.415C239.235 481.076 239.381 480.699 239.464 480.285C239.555 479.863 239.6 479.438 239.6 479.009V474.976H240.176V479.009C240.176 479.543 240.116 480.055 239.995 480.545C239.882 481.027 239.694 481.456 239.43 481.833C239.167 482.209 238.824 482.506 238.402 482.725C237.981 482.943 237.461 483.052 236.844 483.052ZM249.865 482.476V482.996H244.523V474.976H249.764V475.496H245.099V478.647H249.176V479.144H245.099V482.476H249.865ZM258.587 482.996C258.572 482.506 258.61 482.077 258.7 481.708C258.79 481.332 258.926 481.004 259.107 480.726C259.295 480.439 259.517 480.195 259.773 479.991C260.036 479.788 260.326 479.611 260.643 479.461C260.929 479.325 261.222 479.193 261.524 479.065C261.832 478.937 262.119 478.794 262.382 478.636C262.646 478.478 262.857 478.282 263.015 478.049C263.18 477.808 263.263 477.51 263.263 477.156C263.263 476.848 263.195 476.561 263.06 476.298C262.924 476.034 262.717 475.82 262.439 475.654C262.16 475.488 261.806 475.406 261.377 475.406C260.963 475.406 260.601 475.477 260.292 475.62C259.991 475.756 259.739 475.921 259.536 476.117C259.332 476.305 259.174 476.475 259.061 476.625L258.677 476.275C258.7 476.238 258.775 476.144 258.903 475.993C259.031 475.842 259.208 475.68 259.434 475.507C259.667 475.334 259.946 475.187 260.27 475.067C260.601 474.939 260.989 474.875 261.433 474.875C261.983 474.875 262.439 474.984 262.8 475.202C263.161 475.413 263.433 475.692 263.613 476.038C263.794 476.384 263.884 476.757 263.884 477.156C263.884 477.563 263.802 477.906 263.636 478.184C263.47 478.455 263.256 478.681 262.992 478.862C262.736 479.043 262.461 479.197 262.168 479.325C261.874 479.453 261.599 479.573 261.343 479.686C260.853 479.897 260.462 480.123 260.168 480.364C259.882 480.598 259.671 480.835 259.536 481.076C259.4 481.317 259.31 481.558 259.265 481.799C259.219 482.032 259.197 482.258 259.197 482.476H263.896V482.996H258.587ZM270.72 483.109C270.186 483.094 269.711 482.962 269.297 482.714C268.891 482.458 268.552 482.13 268.281 481.731C268.01 481.332 267.803 480.899 267.659 480.432C267.524 479.958 267.456 479.494 267.456 479.043C267.456 478.561 267.531 478.079 267.682 477.597C267.833 477.115 268.051 476.678 268.337 476.287C268.623 475.887 268.966 475.571 269.365 475.338C269.764 475.097 270.216 474.976 270.72 474.976C271.263 474.976 271.733 475.104 272.132 475.36C272.539 475.616 272.878 475.948 273.149 476.354C273.428 476.761 273.635 477.201 273.77 477.676C273.913 478.15 273.985 478.606 273.985 479.043C273.985 479.532 273.909 480.018 273.759 480.5C273.608 480.974 273.39 481.407 273.104 481.799C272.818 482.19 272.471 482.506 272.065 482.747C271.665 482.981 271.217 483.101 270.72 483.109ZM268.032 479.043C268.047 479.457 268.115 479.871 268.235 480.285C268.356 480.699 268.529 481.08 268.755 481.426C268.981 481.772 269.256 482.051 269.58 482.262C269.903 482.473 270.284 482.578 270.72 482.578C271.172 482.578 271.564 482.469 271.895 482.25C272.234 482.025 272.513 481.731 272.731 481.369C272.957 481.008 273.126 480.624 273.239 480.217C273.352 479.811 273.409 479.419 273.409 479.043C273.409 478.628 273.348 478.214 273.228 477.8C273.107 477.386 272.931 477.006 272.697 476.659C272.464 476.313 272.181 476.034 271.85 475.823C271.519 475.613 271.142 475.507 270.72 475.507C270.269 475.507 269.873 475.62 269.534 475.846C269.203 476.072 268.924 476.366 268.699 476.727C268.48 477.081 268.315 477.461 268.202 477.868C268.089 478.275 268.032 478.666 268.032 479.043ZM277.472 482.996C277.457 482.506 277.495 482.077 277.585 481.708C277.675 481.332 277.811 481.004 277.992 480.726C278.18 480.439 278.402 480.195 278.658 479.991C278.922 479.788 279.211 479.611 279.528 479.461C279.814 479.325 280.107 479.193 280.409 479.065C280.717 478.937 281.004 478.794 281.267 478.636C281.531 478.478 281.742 478.282 281.9 478.049C282.065 477.808 282.148 477.51 282.148 477.156C282.148 476.848 282.08 476.561 281.945 476.298C281.809 476.034 281.602 475.82 281.324 475.654C281.045 475.488 280.691 475.406 280.262 475.406C279.848 475.406 279.486 475.477 279.178 475.62C278.876 475.756 278.624 475.921 278.421 476.117C278.217 476.305 278.059 476.475 277.946 476.625L277.562 476.275C277.585 476.238 277.66 476.144 277.788 475.993C277.916 475.842 278.093 475.68 278.319 475.507C278.553 475.334 278.831 475.187 279.155 475.067C279.486 474.939 279.874 474.875 280.318 474.875C280.868 474.875 281.324 474.984 281.685 475.202C282.047 475.413 282.318 475.692 282.498 476.038C282.679 476.384 282.769 476.757 282.769 477.156C282.769 477.563 282.687 477.906 282.521 478.184C282.355 478.455 282.141 478.681 281.877 478.862C281.621 479.043 281.346 479.197 281.053 479.325C280.759 479.453 280.484 479.573 280.228 479.686C279.739 479.897 279.347 480.123 279.053 480.364C278.767 480.598 278.556 480.835 278.421 481.076C278.285 481.317 278.195 481.558 278.15 481.799C278.104 482.032 278.082 482.258 278.082 482.476H282.781V482.996H277.472ZM292.057 480.364C292.057 480.869 291.932 481.332 291.684 481.753C291.435 482.168 291.096 482.499 290.667 482.747C290.246 482.988 289.771 483.109 289.244 483.109C288.694 483.109 288.201 482.977 287.764 482.714C287.335 482.45 286.996 482.073 286.748 481.584C286.507 481.095 286.386 480.515 286.386 479.845C286.386 478.723 286.507 477.8 286.748 477.077C286.996 476.347 287.339 475.805 287.776 475.451C288.212 475.097 288.721 474.92 289.3 474.92C289.835 474.92 290.313 475.059 290.735 475.338C291.157 475.616 291.469 475.997 291.672 476.479L291.277 476.784C291.127 476.377 290.871 476.049 290.509 475.801C290.155 475.552 289.752 475.428 289.3 475.428C288.834 475.428 288.419 475.579 288.058 475.88C287.704 476.181 287.429 476.618 287.233 477.19C287.038 477.755 286.94 478.444 286.94 479.257C287.053 478.933 287.226 478.651 287.459 478.41C287.7 478.162 287.979 477.97 288.295 477.834C288.611 477.698 288.95 477.631 289.312 477.631C289.824 477.631 290.287 477.755 290.701 478.003C291.115 478.252 291.443 478.583 291.684 478.997C291.932 479.404 292.057 479.86 292.057 480.364ZM289.255 482.601C289.669 482.601 290.046 482.503 290.385 482.307C290.731 482.104 291.006 481.833 291.209 481.494C291.413 481.147 291.514 480.771 291.514 480.364C291.514 479.958 291.409 479.585 291.198 479.246C290.995 478.9 290.72 478.625 290.374 478.421C290.035 478.218 289.662 478.116 289.255 478.116C288.849 478.116 288.472 478.218 288.126 478.421C287.779 478.625 287.505 478.896 287.301 479.235C287.098 479.573 286.996 479.95 286.996 480.364C286.996 480.763 287.098 481.136 287.301 481.482C287.512 481.821 287.787 482.092 288.126 482.296C288.472 482.499 288.849 482.601 289.255 482.601Z" fill="#E3E3E3"/>
<g id="International Mastermind &#38; Panel Discussion">
<path d="M110.587 413.795C110.587 414.304 110.631 414.691 110.719 414.954C110.824 415.218 111.026 415.394 111.325 415.482C111.641 415.569 112.107 415.613 112.722 415.613C112.757 415.613 112.774 415.666 112.774 415.771C112.774 415.877 112.757 415.93 112.722 415.93C112.282 415.93 111.79 415.921 111.246 415.903C110.719 415.886 110.139 415.877 109.506 415.877C108.891 415.877 108.312 415.886 107.767 415.903C107.222 415.921 106.73 415.93 106.291 415.93C106.256 415.93 106.238 415.877 106.238 415.771C106.238 415.666 106.256 415.613 106.291 415.613C106.906 415.613 107.372 415.569 107.688 415.482C108.004 415.394 108.215 415.218 108.32 414.954C108.426 414.691 108.478 414.304 108.478 413.795V401.592C108.478 401.083 108.426 400.705 108.32 400.459C108.215 400.195 108.004 400.02 107.688 399.932C107.372 399.826 106.906 399.774 106.291 399.774C106.256 399.774 106.238 399.721 106.238 399.616C106.238 399.51 106.256 399.457 106.291 399.457C106.73 399.457 107.222 399.475 107.767 399.51C108.312 399.528 108.891 399.537 109.506 399.537C110.139 399.537 110.727 399.528 111.272 399.51C111.817 399.475 112.3 399.457 112.722 399.457C112.757 399.457 112.774 399.51 112.774 399.616C112.774 399.721 112.757 399.774 112.722 399.774C112.107 399.774 111.65 399.826 111.351 399.932C111.052 400.037 110.85 400.222 110.745 400.485C110.64 400.749 110.587 401.135 110.587 401.645V413.795ZM122.419 415.93C122.367 415.93 122.34 415.877 122.34 415.771C122.34 415.666 122.367 415.613 122.419 415.613C123.052 415.613 123.465 415.499 123.658 415.271C123.869 415.025 123.974 414.533 123.974 413.795V409.657C123.974 408.655 123.79 407.918 123.421 407.443C123.052 406.951 122.463 406.705 121.655 406.705C121.04 406.705 120.416 406.89 119.784 407.259C119.169 407.61 118.642 408.102 118.203 408.735L118.097 408.418C118.818 407.434 119.555 406.688 120.311 406.178C121.084 405.669 121.892 405.414 122.736 405.414C123.702 405.414 124.449 405.695 124.976 406.257C125.521 406.819 125.793 407.619 125.793 408.655V413.795C125.793 414.533 125.89 415.025 126.083 415.271C126.294 415.499 126.724 415.613 127.374 415.613C127.427 415.613 127.453 415.666 127.453 415.771C127.453 415.877 127.427 415.93 127.374 415.93C127.04 415.93 126.663 415.921 126.241 415.903C125.819 415.886 125.371 415.877 124.897 415.877C124.422 415.877 123.966 415.886 123.526 415.903C123.105 415.921 122.736 415.93 122.419 415.93ZM115.33 415.93C115.277 415.93 115.251 415.877 115.251 415.771C115.251 415.666 115.277 415.613 115.33 415.613C115.962 415.613 116.375 415.499 116.569 415.271C116.779 415.025 116.885 414.533 116.885 413.795V408.655C116.885 408.093 116.815 407.68 116.674 407.417C116.551 407.153 116.331 407.021 116.015 407.021C115.839 407.021 115.637 407.057 115.409 407.127C115.18 407.18 114.917 407.267 114.618 407.39C114.548 407.426 114.495 407.399 114.46 407.311C114.425 407.206 114.434 407.136 114.486 407.101L117.728 405.546C117.798 405.528 117.851 405.519 117.886 405.519C118.044 405.519 118.22 405.712 118.413 406.099C118.607 406.486 118.703 407.039 118.703 407.759V413.795C118.703 414.533 118.8 415.025 118.993 415.271C119.204 415.499 119.635 415.613 120.285 415.613C120.337 415.613 120.364 415.666 120.364 415.771C120.364 415.877 120.337 415.93 120.285 415.93C119.951 415.93 119.573 415.921 119.151 415.903C118.73 415.886 118.282 415.877 117.807 415.877C117.333 415.877 116.876 415.886 116.437 415.903C116.015 415.921 115.646 415.93 115.33 415.93ZM133.081 416.246C132.659 416.246 132.246 416.176 131.842 416.035C131.438 415.912 131.104 415.684 130.841 415.35C130.595 415.016 130.472 414.568 130.472 414.006V407.918C130.472 407.513 130.437 407.206 130.366 406.995C130.296 406.784 130.164 406.644 129.971 406.573C129.778 406.503 129.488 406.468 129.101 406.468C129.049 406.468 129.022 406.406 129.022 406.283C129.022 406.143 129.049 406.073 129.101 406.073C129.874 406.055 130.498 405.871 130.973 405.519C131.465 405.15 131.772 404.649 131.895 404.017C131.913 403.964 131.983 403.938 132.106 403.938C132.229 403.938 132.29 403.964 132.29 404.017V413.11C132.29 413.83 132.466 414.357 132.817 414.691C133.186 415.025 133.687 415.192 134.32 415.192C134.759 415.192 135.154 415.113 135.506 414.954C135.875 414.796 136.173 414.629 136.402 414.454C136.472 414.401 136.534 414.419 136.586 414.506C136.657 414.577 136.657 414.638 136.586 414.691C135.936 415.236 135.339 415.631 134.794 415.877C134.249 416.123 133.678 416.246 133.081 416.246ZM135.796 407.048C135.093 406.89 134.416 406.784 133.766 406.732C133.116 406.679 132.431 406.652 131.711 406.652V406.046C132.413 406.046 133.09 406.02 133.74 405.967C134.408 405.915 135.119 405.853 135.875 405.783C135.927 405.783 135.971 405.844 136.006 405.967C136.042 406.09 136.059 406.231 136.059 406.389C136.059 406.529 136.033 406.679 135.98 406.837C135.927 406.995 135.866 407.065 135.796 407.048ZM143.225 416.246C142.136 416.246 141.222 416.009 140.484 415.534C139.746 415.042 139.184 414.41 138.797 413.637C138.428 412.864 138.244 412.038 138.244 411.159C138.244 410.105 138.49 409.156 138.982 408.313C139.491 407.452 140.177 406.775 141.037 406.283C141.898 405.774 142.856 405.519 143.91 405.519C144.929 405.519 145.711 405.774 146.256 406.283C146.818 406.793 147.099 407.54 147.099 408.524C147.099 408.752 147.073 408.937 147.02 409.077C146.985 409.2 146.906 409.262 146.783 409.262H144.964C145.035 408.207 144.894 407.408 144.543 406.863C144.209 406.319 143.699 406.046 143.014 406.046C142.153 406.046 141.477 406.415 140.985 407.153C140.51 407.891 140.273 408.884 140.273 410.131C140.273 411.133 140.431 412.02 140.748 412.793C141.064 413.549 141.529 414.137 142.144 414.559C142.759 414.981 143.506 415.192 144.385 415.192C144.964 415.192 145.439 415.113 145.808 414.954C146.194 414.796 146.59 414.603 146.994 414.375C147.029 414.339 147.073 414.366 147.126 414.454C147.196 414.524 147.213 414.585 147.178 414.638C146.546 415.218 145.904 415.631 145.254 415.877C144.604 416.123 143.928 416.246 143.225 416.246ZM139.667 409.288L139.641 408.893L145.544 408.787V409.262L139.667 409.288ZM152.347 408.787L152.189 408.497C152.857 407.689 153.41 407.074 153.85 406.652C154.289 406.231 154.667 405.941 154.983 405.783C155.299 405.607 155.598 405.519 155.879 405.519C156.248 405.519 156.617 405.633 156.986 405.862C157.355 406.09 157.539 406.38 157.539 406.732C157.539 406.995 157.452 407.224 157.276 407.417C157.1 407.592 156.863 407.68 156.564 407.68C156.283 407.68 156.055 407.601 155.879 407.443C155.721 407.285 155.554 407.136 155.378 406.995C155.22 406.837 155.001 406.758 154.719 406.758C154.579 406.758 154.421 406.802 154.245 406.89C154.069 406.978 153.832 407.171 153.533 407.469C153.252 407.751 152.857 408.19 152.347 408.787ZM149.554 415.93C149.501 415.93 149.475 415.877 149.475 415.771C149.475 415.666 149.501 415.613 149.554 415.613C150.186 415.613 150.599 415.499 150.792 415.271C151.003 415.025 151.109 414.533 151.109 413.795V408.655C151.109 408.093 151.038 407.68 150.898 407.417C150.775 407.153 150.555 407.021 150.239 407.021C150.063 407.021 149.861 407.057 149.633 407.127C149.404 407.18 149.141 407.267 148.842 407.39C148.772 407.426 148.719 407.399 148.684 407.311C148.649 407.206 148.658 407.136 148.71 407.101L151.952 405.546C152.022 405.528 152.075 405.519 152.11 405.519C152.268 405.519 152.444 405.712 152.637 406.099C152.831 406.486 152.927 407.039 152.927 407.759V413.795C152.927 414.287 152.989 414.665 153.112 414.928C153.252 415.192 153.498 415.376 153.85 415.482C154.219 415.569 154.746 415.613 155.431 415.613C155.484 415.613 155.51 415.666 155.51 415.771C155.51 415.877 155.484 415.93 155.431 415.93C154.974 415.93 154.456 415.921 153.876 415.903C153.296 415.886 152.681 415.877 152.031 415.877C151.557 415.877 151.1 415.886 150.661 415.903C150.239 415.921 149.87 415.93 149.554 415.93ZM166.636 415.93C166.583 415.93 166.557 415.877 166.557 415.771C166.557 415.666 166.583 415.613 166.636 415.613C167.268 415.613 167.681 415.499 167.875 415.271C168.085 415.025 168.191 414.533 168.191 413.795V409.657C168.191 408.655 168.006 407.918 167.637 407.443C167.268 406.951 166.68 406.705 165.872 406.705C165.257 406.705 164.633 406.89 164 407.259C163.385 407.61 162.858 408.102 162.419 408.735L162.314 408.418C163.034 407.434 163.772 406.688 164.527 406.178C165.3 405.669 166.109 405.414 166.952 405.414C167.918 405.414 168.665 405.695 169.192 406.257C169.737 406.819 170.009 407.619 170.009 408.655V413.795C170.009 414.533 170.106 415.025 170.299 415.271C170.51 415.499 170.941 415.613 171.591 415.613C171.643 415.613 171.67 415.666 171.67 415.771C171.67 415.877 171.643 415.93 171.591 415.93C171.257 415.93 170.879 415.921 170.457 415.903C170.036 415.886 169.588 415.877 169.113 415.877C168.639 415.877 168.182 415.886 167.743 415.903C167.321 415.921 166.952 415.93 166.636 415.93ZM159.546 415.93C159.493 415.93 159.467 415.877 159.467 415.771C159.467 415.666 159.493 415.613 159.546 415.613C160.179 415.613 160.592 415.499 160.785 415.271C160.996 415.025 161.101 414.533 161.101 413.795V408.655C161.101 408.093 161.031 407.68 160.89 407.417C160.767 407.153 160.548 407.021 160.231 407.021C160.056 407.021 159.854 407.057 159.625 407.127C159.397 407.18 159.133 407.267 158.835 407.39C158.764 407.426 158.712 407.399 158.676 407.311C158.641 407.206 158.65 407.136 158.703 407.101L161.945 405.546C162.015 405.528 162.068 405.519 162.103 405.519C162.261 405.519 162.437 405.712 162.63 406.099C162.823 406.486 162.92 407.039 162.92 407.759V413.795C162.92 414.533 163.016 415.025 163.21 415.271C163.42 415.499 163.851 415.613 164.501 415.613C164.554 415.613 164.58 415.666 164.58 415.771C164.58 415.877 164.554 415.93 164.501 415.93C164.167 415.93 163.789 415.921 163.368 415.903C162.946 415.886 162.498 415.877 162.024 415.877C161.549 415.877 161.092 415.886 160.653 415.903C160.231 415.921 159.862 415.93 159.546 415.93ZM180.697 416.088C180.627 416.123 180.548 416.14 180.46 416.14C180.197 416.14 179.942 415.947 179.696 415.561C179.467 415.156 179.353 414.585 179.353 413.848V409.024C179.353 407.935 179.213 407.162 178.931 406.705C178.668 406.231 178.299 405.994 177.825 405.994C177.385 405.994 177.034 406.117 176.77 406.363C176.507 406.591 176.313 406.863 176.19 407.18C176.085 407.478 176.006 407.759 175.953 408.023C175.918 408.357 175.813 408.638 175.637 408.866C175.479 409.095 175.207 409.209 174.82 409.209C174.469 409.209 174.214 409.121 174.056 408.945C173.898 408.77 173.818 408.576 173.818 408.366C173.818 407.997 173.985 407.645 174.319 407.311C174.671 406.978 175.11 406.67 175.637 406.389C176.164 406.108 176.709 405.888 177.271 405.73C177.851 405.572 178.369 405.493 178.826 405.493C179.546 405.493 180.109 405.73 180.513 406.204C180.934 406.661 181.145 407.338 181.145 408.234V413.083C181.145 413.663 181.224 414.093 181.383 414.375C181.541 414.656 181.795 414.796 182.147 414.796C182.446 414.796 182.832 414.7 183.306 414.506C183.377 414.471 183.429 414.506 183.465 414.612C183.517 414.7 183.5 414.761 183.412 414.796L180.697 416.088ZM175.848 416.114C175.145 416.114 174.609 415.938 174.24 415.587C173.889 415.236 173.713 414.796 173.713 414.269C173.713 413.848 173.827 413.496 174.056 413.215C174.284 412.916 174.609 412.653 175.031 412.424C175.47 412.196 175.997 411.967 176.612 411.739L179.617 410.632L179.696 410.975L177.297 411.95C177.034 412.055 176.788 412.178 176.559 412.319C176.349 412.459 176.173 412.635 176.032 412.846C175.892 413.039 175.822 413.276 175.822 413.558C175.822 413.979 175.962 414.331 176.243 414.612C176.524 414.875 176.867 415.007 177.271 415.007C177.429 415.007 177.596 414.981 177.772 414.928C177.948 414.875 178.158 414.779 178.404 414.638L179.959 413.663L180.012 414.032L178.088 415.297C177.684 415.596 177.306 415.807 176.955 415.93C176.621 416.053 176.252 416.114 175.848 416.114ZM188.628 416.246C188.206 416.246 187.794 416.176 187.389 416.035C186.985 415.912 186.652 415.684 186.388 415.35C186.142 415.016 186.019 414.568 186.019 414.006V407.918C186.019 407.513 185.984 407.206 185.914 406.995C185.843 406.784 185.712 406.644 185.518 406.573C185.325 406.503 185.035 406.468 184.649 406.468C184.596 406.468 184.569 406.406 184.569 406.283C184.569 406.143 184.596 406.073 184.649 406.073C185.422 406.055 186.045 405.871 186.52 405.519C187.012 405.15 187.319 404.649 187.442 404.017C187.46 403.964 187.53 403.938 187.653 403.938C187.776 403.938 187.838 403.964 187.838 404.017V413.11C187.838 413.83 188.013 414.357 188.365 414.691C188.734 415.025 189.234 415.192 189.867 415.192C190.306 415.192 190.701 415.113 191.053 414.954C191.422 414.796 191.721 414.629 191.949 414.454C192.019 414.401 192.081 414.419 192.133 414.506C192.204 414.577 192.204 414.638 192.133 414.691C191.483 415.236 190.886 415.631 190.341 415.877C189.797 416.123 189.226 416.246 188.628 416.246ZM191.343 407.048C190.64 406.89 189.964 406.784 189.313 406.732C188.663 406.679 187.978 406.652 187.258 406.652V406.046C187.961 406.046 188.637 406.02 189.287 405.967C189.955 405.915 190.666 405.853 191.422 405.783C191.475 405.783 191.518 405.844 191.554 405.967C191.589 406.09 191.606 406.231 191.606 406.389C191.606 406.529 191.58 406.679 191.527 406.837C191.475 406.995 191.413 407.065 191.343 407.048ZM194.16 415.93C194.107 415.93 194.081 415.877 194.081 415.771C194.081 415.666 194.107 415.613 194.16 415.613C194.792 415.613 195.214 415.499 195.425 415.271C195.636 415.025 195.741 414.533 195.741 413.795V408.945C195.741 408.33 195.68 407.882 195.557 407.601C195.434 407.32 195.214 407.18 194.898 407.18C194.757 407.18 194.59 407.206 194.397 407.259C194.221 407.311 194.011 407.399 193.765 407.522C193.694 407.54 193.633 407.505 193.58 407.417C193.545 407.311 193.563 407.241 193.633 407.206L197.217 405.546C197.27 405.528 197.305 405.519 197.323 405.519C197.375 405.519 197.428 405.546 197.481 405.598C197.551 405.651 197.586 405.712 197.586 405.783C197.586 405.941 197.577 406.283 197.56 406.811C197.542 407.338 197.533 408.032 197.533 408.893V413.795C197.533 414.533 197.63 415.025 197.823 415.271C198.034 415.499 198.465 415.613 199.115 415.613C199.167 415.613 199.194 415.666 199.194 415.771C199.194 415.877 199.167 415.93 199.115 415.93C198.798 415.93 198.421 415.921 197.981 415.903C197.56 415.886 197.112 415.877 196.637 415.877C196.163 415.877 195.715 415.886 195.293 415.903C194.872 415.921 194.494 415.93 194.16 415.93ZM196.479 402.567C196.075 402.567 195.75 402.462 195.504 402.251C195.276 402.023 195.161 401.706 195.161 401.302C195.161 400.916 195.276 400.617 195.504 400.406C195.75 400.195 196.075 400.09 196.479 400.09C196.866 400.09 197.164 400.195 197.375 400.406C197.604 400.617 197.718 400.916 197.718 401.302C197.718 402.146 197.305 402.567 196.479 402.567ZM206.377 416.272C205.305 416.272 204.373 416.017 203.583 415.508C202.81 414.998 202.212 414.322 201.791 413.479C201.369 412.618 201.158 411.695 201.158 410.711C201.158 409.798 201.325 409.007 201.659 408.339C202.01 407.672 202.467 407.127 203.029 406.705C203.592 406.266 204.207 405.941 204.874 405.73C205.542 405.519 206.201 405.414 206.851 405.414C207.94 405.414 208.871 405.677 209.645 406.204C210.418 406.732 211.006 407.408 211.41 408.234C211.832 409.06 212.043 409.929 212.043 410.843C212.043 411.95 211.779 412.916 211.252 413.742C210.725 414.55 210.031 415.174 209.17 415.613C208.327 416.053 207.396 416.272 206.377 416.272ZM207.141 415.771C208.002 415.771 208.669 415.438 209.144 414.77C209.636 414.085 209.882 413.048 209.882 411.66C209.882 410.483 209.706 409.472 209.355 408.629C209.003 407.768 208.529 407.109 207.931 406.652C207.352 406.178 206.693 405.941 205.955 405.941C205.094 405.941 204.426 406.275 203.952 406.942C203.495 407.592 203.267 408.559 203.267 409.841C203.267 410.948 203.433 411.959 203.767 412.872C204.101 413.768 204.558 414.48 205.138 415.007C205.718 415.517 206.385 415.771 207.141 415.771ZM221.437 415.93C221.384 415.93 221.358 415.877 221.358 415.771C221.358 415.666 221.384 415.613 221.437 415.613C222.069 415.613 222.482 415.499 222.675 415.271C222.886 415.025 222.992 414.533 222.992 413.795V409.657C222.992 408.655 222.807 407.918 222.438 407.443C222.069 406.951 221.481 406.705 220.672 406.705C220.057 406.705 219.434 406.89 218.801 407.259C218.186 407.61 217.659 408.102 217.22 408.735L217.114 408.418C217.835 407.434 218.573 406.688 219.328 406.178C220.101 405.669 220.909 405.414 221.753 405.414C222.719 405.414 223.466 405.695 223.993 406.257C224.538 406.819 224.81 407.619 224.81 408.655V413.795C224.81 414.533 224.907 415.025 225.1 415.271C225.311 415.499 225.741 415.613 226.391 415.613C226.444 415.613 226.47 415.666 226.47 415.771C226.47 415.877 226.444 415.93 226.391 415.93C226.058 415.93 225.68 415.921 225.258 415.903C224.836 415.886 224.388 415.877 223.914 415.877C223.44 415.877 222.983 415.886 222.544 415.903C222.122 415.921 221.753 415.93 221.437 415.93ZM214.347 415.93C214.294 415.93 214.268 415.877 214.268 415.771C214.268 415.666 214.294 415.613 214.347 415.613C214.979 415.613 215.392 415.499 215.586 415.271C215.797 415.025 215.902 414.533 215.902 413.795V408.655C215.902 408.093 215.832 407.68 215.691 407.417C215.568 407.153 215.348 407.021 215.032 407.021C214.857 407.021 214.654 407.057 214.426 407.127C214.198 407.18 213.934 407.267 213.635 407.39C213.565 407.426 213.512 407.399 213.477 407.311C213.442 407.206 213.451 407.136 213.504 407.101L216.745 405.546C216.816 405.528 216.868 405.519 216.903 405.519C217.062 405.519 217.237 405.712 217.431 406.099C217.624 406.486 217.72 407.039 217.72 407.759V413.795C217.72 414.533 217.817 415.025 218.01 415.271C218.221 415.499 218.652 415.613 219.302 415.613C219.355 415.613 219.381 415.666 219.381 415.771C219.381 415.877 219.355 415.93 219.302 415.93C218.968 415.93 218.59 415.921 218.169 415.903C217.747 415.886 217.299 415.877 216.824 415.877C216.35 415.877 215.893 415.886 215.454 415.903C215.032 415.921 214.663 415.93 214.347 415.93ZM235.498 416.088C235.428 416.123 235.349 416.14 235.261 416.14C234.997 416.14 234.743 415.947 234.497 415.561C234.268 415.156 234.154 414.585 234.154 413.848V409.024C234.154 407.935 234.013 407.162 233.732 406.705C233.469 406.231 233.1 405.994 232.625 405.994C232.186 405.994 231.835 406.117 231.571 406.363C231.308 406.591 231.114 406.863 230.991 407.18C230.886 407.478 230.807 407.759 230.754 408.023C230.719 408.357 230.613 408.638 230.438 408.866C230.28 409.095 230.007 409.209 229.621 409.209C229.269 409.209 229.015 409.121 228.856 408.945C228.698 408.77 228.619 408.576 228.619 408.366C228.619 407.997 228.786 407.645 229.12 407.311C229.471 406.978 229.911 406.67 230.438 406.389C230.965 406.108 231.51 405.888 232.072 405.73C232.652 405.572 233.17 405.493 233.627 405.493C234.347 405.493 234.909 405.73 235.314 406.204C235.735 406.661 235.946 407.338 235.946 408.234V413.083C235.946 413.663 236.025 414.093 236.183 414.375C236.341 414.656 236.596 414.796 236.948 414.796C237.246 414.796 237.633 414.7 238.107 414.506C238.177 414.471 238.23 414.506 238.265 414.612C238.318 414.7 238.3 414.761 238.213 414.796L235.498 416.088ZM230.649 416.114C229.946 416.114 229.41 415.938 229.041 415.587C228.69 415.236 228.514 414.796 228.514 414.269C228.514 413.848 228.628 413.496 228.856 413.215C229.085 412.916 229.41 412.653 229.832 412.424C230.271 412.196 230.798 411.967 231.413 411.739L234.417 410.632L234.497 410.975L232.098 411.95C231.835 412.055 231.589 412.178 231.36 412.319C231.149 412.459 230.974 412.635 230.833 412.846C230.693 413.039 230.622 413.276 230.622 413.558C230.622 413.979 230.763 414.331 231.044 414.612C231.325 414.875 231.668 415.007 232.072 415.007C232.23 415.007 232.397 414.981 232.573 414.928C232.748 414.875 232.959 414.779 233.205 414.638L234.76 413.663L234.813 414.032L232.889 415.297C232.485 415.596 232.107 415.807 231.756 415.93C231.422 416.053 231.053 416.114 230.649 416.114ZM239.502 415.93C239.467 415.93 239.449 415.877 239.449 415.771C239.449 415.666 239.467 415.613 239.502 415.613C240.152 415.613 240.574 415.499 240.767 415.271C240.978 415.025 241.083 414.533 241.083 413.795L241.11 400.248C241.11 399.633 241.048 399.185 240.925 398.904C240.82 398.623 240.609 398.482 240.293 398.482C240.029 398.482 239.651 398.596 239.159 398.825C239.089 398.86 239.028 398.825 238.975 398.719C238.94 398.614 238.949 398.553 239.001 398.535L242.533 396.848C242.568 396.831 242.603 396.822 242.638 396.822C242.691 396.822 242.752 396.848 242.823 396.901C242.911 396.954 242.955 397.015 242.955 397.085V413.795C242.955 414.515 243.051 414.998 243.244 415.244C243.438 415.49 243.859 415.613 244.51 415.613C244.58 415.613 244.615 415.666 244.615 415.771C244.615 415.877 244.58 415.93 244.51 415.93C244.193 415.93 243.816 415.921 243.376 415.903C242.955 415.886 242.498 415.877 242.006 415.877C241.531 415.877 241.075 415.886 240.635 415.903C240.214 415.921 239.836 415.93 239.502 415.93ZM255.213 412.925L255.476 400.064L256.135 400.116L255.872 412.925C255.854 413.839 256.012 414.515 256.346 414.954C256.698 415.394 257.277 415.613 258.086 415.613C258.138 415.613 258.165 415.666 258.165 415.771C258.165 415.877 258.138 415.93 258.086 415.93C257.699 415.93 257.304 415.921 256.9 415.903C256.496 415.886 256.039 415.877 255.529 415.877C255.055 415.877 254.607 415.886 254.185 415.903C253.763 415.921 253.368 415.93 252.999 415.93C252.964 415.93 252.946 415.877 252.946 415.771C252.946 415.666 252.964 415.613 252.999 415.613C253.737 415.613 254.282 415.394 254.633 414.954C255.002 414.515 255.195 413.839 255.213 412.925ZM273.662 415.613C273.697 415.613 273.714 415.666 273.714 415.771C273.714 415.877 273.697 415.93 273.662 415.93C273.222 415.93 272.73 415.921 272.186 415.903C271.641 415.886 271.061 415.877 270.446 415.877C269.867 415.877 269.322 415.886 268.812 415.903C268.303 415.921 267.846 415.93 267.442 415.93C267.389 415.93 267.363 415.877 267.363 415.771C267.363 415.666 267.389 415.613 267.442 415.613C268.303 415.613 268.856 415.499 269.102 415.271C269.348 415.042 269.445 414.55 269.392 413.795L268.865 401.381L269.893 399.905L263.067 415.745C263.049 415.815 262.979 415.851 262.856 415.851C262.751 415.851 262.68 415.815 262.645 415.745L255.766 401.645C255.151 400.397 254.29 399.774 253.184 399.774C253.148 399.774 253.131 399.721 253.131 399.616C253.131 399.51 253.148 399.457 253.184 399.457C253.5 399.457 253.825 399.466 254.159 399.484C254.51 399.501 254.809 399.51 255.055 399.51C255.389 399.51 255.687 399.501 255.951 399.484C256.232 399.466 256.443 399.457 256.583 399.457C256.829 399.457 257.023 399.545 257.163 399.721C257.304 399.879 257.515 400.248 257.796 400.828L263.778 412.978L262.803 414.665L269.155 400.116C269.243 399.905 269.348 399.747 269.471 399.642C269.612 399.519 269.77 399.457 269.946 399.457C270.069 399.457 270.218 399.466 270.394 399.484C270.587 399.501 270.807 399.51 271.053 399.51C271.544 399.51 271.957 399.501 272.291 399.484C272.625 399.466 272.968 399.457 273.319 399.457C273.354 399.457 273.372 399.51 273.372 399.616C273.372 399.721 273.354 399.774 273.319 399.774C272.476 399.774 271.861 399.914 271.474 400.195C271.088 400.459 270.903 400.951 270.921 401.671L271.474 413.795C271.509 414.304 271.58 414.691 271.685 414.954C271.79 415.218 271.993 415.394 272.291 415.482C272.59 415.569 273.047 415.613 273.662 415.613ZM282.854 416.088C282.784 416.123 282.705 416.14 282.617 416.14C282.354 416.14 282.099 415.947 281.853 415.561C281.624 415.156 281.51 414.585 281.51 413.848V409.024C281.51 407.935 281.37 407.162 281.089 406.705C280.825 406.231 280.456 405.994 279.982 405.994C279.542 405.994 279.191 406.117 278.927 406.363C278.664 406.591 278.471 406.863 278.348 407.18C278.242 407.478 278.163 407.759 278.11 408.023C278.075 408.357 277.97 408.638 277.794 408.866C277.636 409.095 277.364 409.209 276.977 409.209C276.626 409.209 276.371 409.121 276.213 408.945C276.055 408.77 275.976 408.576 275.976 408.366C275.976 407.997 276.143 407.645 276.476 407.311C276.828 406.978 277.267 406.67 277.794 406.389C278.321 406.108 278.866 405.888 279.428 405.73C280.008 405.572 280.526 405.493 280.983 405.493C281.704 405.493 282.266 405.73 282.67 406.204C283.092 406.661 283.302 407.338 283.302 408.234V413.083C283.302 413.663 283.382 414.093 283.54 414.375C283.698 414.656 283.953 414.796 284.304 414.796C284.603 414.796 284.989 414.7 285.464 414.506C285.534 414.471 285.587 414.506 285.622 414.612C285.674 414.7 285.657 414.761 285.569 414.796L282.854 416.088ZM278.005 416.114C277.302 416.114 276.766 415.938 276.397 415.587C276.046 415.236 275.87 414.796 275.87 414.269C275.87 413.848 275.984 413.496 276.213 413.215C276.441 412.916 276.766 412.653 277.188 412.424C277.627 412.196 278.154 411.967 278.769 411.739L281.774 410.632L281.853 410.975L279.455 411.95C279.191 412.055 278.945 412.178 278.717 412.319C278.506 412.459 278.33 412.635 278.189 412.846C278.049 413.039 277.979 413.276 277.979 413.558C277.979 413.979 278.119 414.331 278.4 414.612C278.681 414.875 279.024 415.007 279.428 415.007C279.586 415.007 279.753 414.981 279.929 414.928C280.105 414.875 280.316 414.779 280.561 414.638L282.116 413.663L282.169 414.032L280.245 415.297C279.841 415.596 279.463 415.807 279.112 415.93C278.778 416.053 278.409 416.114 278.005 416.114ZM288.651 407.259C288.651 407.68 288.756 408.049 288.967 408.366C289.195 408.664 289.485 408.928 289.837 409.156C290.188 409.385 290.557 409.613 290.943 409.841C291.4 410.07 291.831 410.316 292.235 410.579C292.657 410.825 292.999 411.133 293.263 411.502C293.526 411.871 293.658 412.354 293.658 412.951C293.658 413.514 293.518 414.05 293.236 414.559C292.955 415.051 292.534 415.455 291.971 415.771C291.409 416.07 290.706 416.219 289.863 416.219C289.441 416.219 289.02 416.167 288.598 416.061C288.176 415.956 287.737 415.754 287.28 415.455C287.245 415.42 287.21 415.376 287.175 415.323C287.14 415.271 287.122 415.209 287.122 415.139L287.069 412.925C287.069 412.872 287.113 412.846 287.201 412.846C287.306 412.828 287.368 412.837 287.385 412.872C287.596 413.452 287.86 413.962 288.176 414.401C288.51 414.823 288.879 415.148 289.283 415.376C289.705 415.605 290.153 415.719 290.627 415.719C291.119 415.719 291.506 415.587 291.787 415.323C292.068 415.06 292.2 414.665 292.182 414.137C292.182 413.645 292.059 413.241 291.813 412.925C291.585 412.591 291.295 412.319 290.943 412.108C290.592 411.88 290.223 411.669 289.837 411.476C289.415 411.265 289.002 411.036 288.598 410.79C288.194 410.544 287.86 410.237 287.596 409.868C287.35 409.499 287.227 409.016 287.227 408.418C287.227 407.715 287.403 407.144 287.754 406.705C288.123 406.266 288.589 405.95 289.151 405.756C289.714 405.546 290.293 405.44 290.891 405.44C291.242 405.44 291.576 405.475 291.892 405.546C292.209 405.598 292.542 405.695 292.894 405.835C293.052 405.906 293.131 406.002 293.131 406.125C293.131 406.442 293.122 406.767 293.105 407.101C293.087 407.434 293.078 407.795 293.078 408.181C293.078 408.234 293.026 408.26 292.92 408.26C292.815 408.26 292.762 408.234 292.762 408.181C292.762 407.812 292.621 407.461 292.34 407.127C292.059 406.793 291.708 406.521 291.286 406.31C290.864 406.081 290.425 405.967 289.968 405.967C289.599 405.967 289.283 406.064 289.02 406.257C288.774 406.45 288.651 406.784 288.651 407.259ZM299.954 416.246C299.532 416.246 299.12 416.176 298.715 416.035C298.311 415.912 297.977 415.684 297.714 415.35C297.468 415.016 297.345 414.568 297.345 414.006V407.918C297.345 407.513 297.31 407.206 297.24 406.995C297.169 406.784 297.037 406.644 296.844 406.573C296.651 406.503 296.361 406.468 295.974 406.468C295.922 406.468 295.895 406.406 295.895 406.283C295.895 406.143 295.922 406.073 295.974 406.073C296.748 406.055 297.371 405.871 297.846 405.519C298.338 405.15 298.645 404.649 298.768 404.017C298.786 403.964 298.856 403.938 298.979 403.938C299.102 403.938 299.163 403.964 299.163 404.017V413.11C299.163 413.83 299.339 414.357 299.691 414.691C300.06 415.025 300.56 415.192 301.193 415.192C301.632 415.192 302.027 415.113 302.379 414.954C302.748 414.796 303.047 414.629 303.275 414.454C303.345 414.401 303.407 414.419 303.459 414.506C303.53 414.577 303.53 414.638 303.459 414.691C302.809 415.236 302.212 415.631 301.667 415.877C301.123 416.123 300.552 416.246 299.954 416.246ZM302.669 407.048C301.966 406.89 301.289 406.784 300.639 406.732C299.989 406.679 299.304 406.652 298.584 406.652V406.046C299.286 406.046 299.963 406.02 300.613 405.967C301.281 405.915 301.992 405.853 302.748 405.783C302.801 405.783 302.844 405.844 302.88 405.967C302.915 406.09 302.932 406.231 302.932 406.389C302.932 406.529 302.906 406.679 302.853 406.837C302.801 406.995 302.739 407.065 302.669 407.048ZM310.098 416.246C309.009 416.246 308.095 416.009 307.357 415.534C306.619 415.042 306.057 414.41 305.67 413.637C305.301 412.864 305.117 412.038 305.117 411.159C305.117 410.105 305.363 409.156 305.855 408.313C306.364 407.452 307.05 406.775 307.911 406.283C308.772 405.774 309.729 405.519 310.783 405.519C311.802 405.519 312.584 405.774 313.129 406.283C313.691 406.793 313.972 407.54 313.972 408.524C313.972 408.752 313.946 408.937 313.893 409.077C313.858 409.2 313.779 409.262 313.656 409.262H311.838C311.908 408.207 311.767 407.408 311.416 406.863C311.082 406.319 310.573 406.046 309.887 406.046C309.026 406.046 308.35 406.415 307.858 407.153C307.383 407.891 307.146 408.884 307.146 410.131C307.146 411.133 307.304 412.02 307.621 412.793C307.937 413.549 308.403 414.137 309.018 414.559C309.632 414.981 310.379 415.192 311.258 415.192C311.838 415.192 312.312 415.113 312.681 414.954C313.067 414.796 313.463 414.603 313.867 414.375C313.902 414.339 313.946 414.366 313.999 414.454C314.069 414.524 314.087 414.585 314.051 414.638C313.419 415.218 312.778 415.631 312.127 415.877C311.477 416.123 310.801 416.246 310.098 416.246ZM306.54 409.288L306.514 408.893L312.417 408.787V409.262L306.54 409.288ZM319.221 408.787L319.062 408.497C319.73 407.689 320.284 407.074 320.723 406.652C321.162 406.231 321.54 405.941 321.856 405.783C322.172 405.607 322.471 405.519 322.752 405.519C323.121 405.519 323.49 405.633 323.859 405.862C324.228 406.09 324.413 406.38 324.413 406.732C324.413 406.995 324.325 407.224 324.149 407.417C323.973 407.592 323.736 407.68 323.437 407.68C323.156 407.68 322.928 407.601 322.752 407.443C322.594 407.285 322.427 407.136 322.251 406.995C322.093 406.837 321.874 406.758 321.593 406.758C321.452 406.758 321.294 406.802 321.118 406.89C320.942 406.978 320.705 407.171 320.407 407.469C320.125 407.751 319.73 408.19 319.221 408.787ZM316.427 415.93C316.374 415.93 316.348 415.877 316.348 415.771C316.348 415.666 316.374 415.613 316.427 415.613C317.059 415.613 317.472 415.499 317.666 415.271C317.876 415.025 317.982 414.533 317.982 413.795V408.655C317.982 408.093 317.912 407.68 317.771 407.417C317.648 407.153 317.428 407.021 317.112 407.021C316.936 407.021 316.734 407.057 316.506 407.127C316.278 407.18 316.014 407.267 315.715 407.39C315.645 407.426 315.592 407.399 315.557 407.311C315.522 407.206 315.531 407.136 315.584 407.101L318.825 405.546C318.896 405.528 318.948 405.519 318.983 405.519C319.142 405.519 319.317 405.712 319.51 406.099C319.704 406.486 319.8 407.039 319.8 407.759V413.795C319.8 414.287 319.862 414.665 319.985 414.928C320.125 415.192 320.371 415.376 320.723 415.482C321.092 415.569 321.619 415.613 322.304 415.613C322.357 415.613 322.383 415.666 322.383 415.771C322.383 415.877 322.357 415.93 322.304 415.93C321.847 415.93 321.329 415.921 320.749 415.903C320.169 415.886 319.554 415.877 318.904 415.877C318.43 415.877 317.973 415.886 317.534 415.903C317.112 415.921 316.743 415.93 316.427 415.93ZM340.019 415.93C339.984 415.93 339.966 415.877 339.966 415.771C339.966 415.666 339.984 415.613 340.019 415.613C340.669 415.613 341.099 415.499 341.31 415.271C341.521 415.025 341.626 414.533 341.626 413.795V409.736C341.626 407.733 340.897 406.732 339.439 406.732C338.842 406.732 338.244 406.916 337.647 407.285C337.049 407.654 336.54 408.146 336.118 408.761L336.013 408.445C336.716 407.461 337.436 406.723 338.174 406.231C338.912 405.721 339.694 405.466 340.519 405.466C341.433 405.466 342.136 405.73 342.628 406.257C343.137 406.784 343.392 407.601 343.392 408.708V413.795C343.392 414.533 343.489 415.025 343.682 415.271C343.893 415.499 344.323 415.613 344.974 415.613C345.044 415.613 345.079 415.666 345.079 415.771C345.079 415.877 345.044 415.93 344.974 415.93C344.657 415.93 344.28 415.921 343.84 415.903C343.419 415.886 342.971 415.877 342.496 415.877C342.039 415.877 341.591 415.886 341.152 415.903C340.73 415.921 340.353 415.93 340.019 415.93ZM333.193 415.93C333.14 415.93 333.114 415.877 333.114 415.771C333.114 415.666 333.14 415.613 333.193 415.613C333.825 415.613 334.247 415.499 334.458 415.271C334.669 415.025 334.774 414.533 334.774 413.795V409.736C334.774 407.733 334.054 406.732 332.613 406.732C331.998 406.732 331.392 406.916 330.794 407.285C330.215 407.654 329.714 408.146 329.292 408.761L329.187 408.445C329.889 407.461 330.61 406.723 331.348 406.231C332.086 405.721 332.859 405.466 333.667 405.466C334.581 405.466 335.292 405.73 335.802 406.257C336.311 406.767 336.566 407.54 336.566 408.576V413.795C336.566 414.533 336.663 415.025 336.856 415.271C337.067 415.499 337.497 415.613 338.147 415.613C338.2 415.613 338.227 415.666 338.227 415.771C338.227 415.877 338.2 415.93 338.147 415.93C337.814 415.93 337.436 415.921 337.014 415.903C336.593 415.886 336.144 415.877 335.67 415.877C335.196 415.877 334.739 415.886 334.3 415.903C333.878 415.921 333.509 415.93 333.193 415.93ZM326.419 415.93C326.367 415.93 326.34 415.877 326.34 415.771C326.34 415.666 326.367 415.613 326.419 415.613C327.052 415.613 327.465 415.499 327.658 415.271C327.869 415.025 327.974 414.533 327.974 413.795V408.655C327.974 408.093 327.904 407.68 327.763 407.417C327.64 407.153 327.421 407.021 327.105 407.021C326.929 407.021 326.727 407.057 326.498 407.127C326.27 407.18 326.006 407.267 325.708 407.39C325.637 407.426 325.585 407.399 325.55 407.311C325.514 407.206 325.523 407.136 325.576 407.101L328.818 405.546C328.888 405.528 328.941 405.519 328.976 405.519C329.134 405.519 329.31 405.712 329.503 406.099C329.696 406.486 329.793 407.039 329.793 407.759V413.795C329.793 414.533 329.889 415.025 330.083 415.271C330.294 415.499 330.724 415.613 331.374 415.613C331.427 415.613 331.453 415.666 331.453 415.771C331.453 415.877 331.427 415.93 331.374 415.93C331.04 415.93 330.663 415.921 330.241 415.903C329.819 415.886 329.371 415.877 328.897 415.877C328.422 415.877 327.966 415.886 327.526 415.903C327.105 415.921 326.736 415.93 326.419 415.93ZM347.071 415.93C347.018 415.93 346.992 415.877 346.992 415.771C346.992 415.666 347.018 415.613 347.071 415.613C347.703 415.613 348.125 415.499 348.336 415.271C348.547 415.025 348.652 414.533 348.652 413.795V408.945C348.652 408.33 348.591 407.882 348.468 407.601C348.345 407.32 348.125 407.18 347.809 407.18C347.668 407.18 347.501 407.206 347.308 407.259C347.132 407.311 346.922 407.399 346.676 407.522C346.605 407.54 346.544 407.505 346.491 407.417C346.456 407.311 346.473 407.241 346.544 407.206L350.128 405.546C350.181 405.528 350.216 405.519 350.234 405.519C350.286 405.519 350.339 405.546 350.392 405.598C350.462 405.651 350.497 405.712 350.497 405.783C350.497 405.941 350.488 406.283 350.471 406.811C350.453 407.338 350.444 408.032 350.444 408.893V413.795C350.444 414.533 350.541 415.025 350.734 415.271C350.945 415.499 351.376 415.613 352.026 415.613C352.078 415.613 352.105 415.666 352.105 415.771C352.105 415.877 352.078 415.93 352.026 415.93C351.709 415.93 351.332 415.921 350.892 415.903C350.471 415.886 350.023 415.877 349.548 415.877C349.074 415.877 348.626 415.886 348.204 415.903C347.782 415.921 347.405 415.93 347.071 415.93ZM349.39 402.567C348.986 402.567 348.661 402.462 348.415 402.251C348.187 402.023 348.072 401.706 348.072 401.302C348.072 400.916 348.187 400.617 348.415 400.406C348.661 400.195 348.986 400.09 349.39 400.09C349.777 400.09 350.075 400.195 350.286 400.406C350.515 400.617 350.629 400.916 350.629 401.302C350.629 402.146 350.216 402.567 349.39 402.567ZM361.37 415.93C361.317 415.93 361.29 415.877 361.29 415.771C361.29 415.666 361.317 415.613 361.37 415.613C362.002 415.613 362.415 415.499 362.608 415.271C362.819 415.025 362.924 414.533 362.924 413.795V409.657C362.924 408.655 362.74 407.918 362.371 407.443C362.002 406.951 361.413 406.705 360.605 406.705C359.99 406.705 359.366 406.89 358.734 407.259C358.119 407.61 357.592 408.102 357.153 408.735L357.047 408.418C357.768 407.434 358.506 406.688 359.261 406.178C360.034 405.669 360.842 405.414 361.686 405.414C362.652 405.414 363.399 405.695 363.926 406.257C364.471 406.819 364.743 407.619 364.743 408.655V413.795C364.743 414.533 364.84 415.025 365.033 415.271C365.244 415.499 365.674 415.613 366.324 415.613C366.377 415.613 366.403 415.666 366.403 415.771C366.403 415.877 366.377 415.93 366.324 415.93C365.99 415.93 365.613 415.921 365.191 415.903C364.769 415.886 364.321 415.877 363.847 415.877C363.373 415.877 362.916 415.886 362.476 415.903C362.055 415.921 361.686 415.93 361.37 415.93ZM354.28 415.93C354.227 415.93 354.201 415.877 354.201 415.771C354.201 415.666 354.227 415.613 354.28 415.613C354.912 415.613 355.325 415.499 355.519 415.271C355.729 415.025 355.835 414.533 355.835 413.795V408.655C355.835 408.093 355.765 407.68 355.624 407.417C355.501 407.153 355.281 407.021 354.965 407.021C354.789 407.021 354.587 407.057 354.359 407.127C354.131 407.18 353.867 407.267 353.568 407.39C353.498 407.426 353.445 407.399 353.41 407.311C353.375 407.206 353.384 407.136 353.437 407.101L356.678 405.546C356.749 405.528 356.801 405.519 356.836 405.519C356.994 405.519 357.17 405.712 357.363 406.099C357.557 406.486 357.653 407.039 357.653 407.759V413.795C357.653 414.533 357.75 415.025 357.943 415.271C358.154 415.499 358.585 415.613 359.235 415.613C359.287 415.613 359.314 415.666 359.314 415.771C359.314 415.877 359.287 415.93 359.235 415.93C358.901 415.93 358.523 415.921 358.101 415.903C357.68 415.886 357.232 415.877 356.757 415.877C356.283 415.877 355.826 415.886 355.387 415.903C354.965 415.921 354.596 415.93 354.28 415.93ZM372.137 416.272C371.399 416.272 370.713 416.07 370.081 415.666C369.466 415.244 368.965 414.656 368.579 413.9C368.21 413.145 368.025 412.249 368.025 411.212C368.025 410.175 368.21 409.297 368.579 408.576C368.965 407.838 369.457 407.241 370.054 406.784C370.669 406.327 371.328 405.985 372.031 405.756C372.734 405.528 373.402 405.414 374.034 405.414C374.667 405.414 375.246 405.51 375.774 405.704C376.318 405.897 376.819 406.152 377.276 406.468L376.854 408.366C376.45 407.645 375.984 407.074 375.457 406.652C374.93 406.213 374.254 405.994 373.428 405.994C372.409 405.994 371.583 406.354 370.951 407.074C370.336 407.795 370.028 408.901 370.028 410.395C370.028 411.396 370.169 412.257 370.45 412.978C370.748 413.698 371.144 414.252 371.636 414.638C372.128 415.025 372.681 415.218 373.296 415.218C374.069 415.218 374.746 415.007 375.326 414.585C375.905 414.164 376.459 413.654 376.986 413.057L377.223 413.268C376.854 413.689 376.424 414.137 375.932 414.612C375.44 415.069 374.878 415.464 374.245 415.798C373.63 416.114 372.927 416.272 372.137 416.272ZM378.198 397.085V412.978C378.198 413.593 378.269 414.041 378.409 414.322C378.55 414.585 378.778 414.717 379.094 414.717C379.253 414.717 379.437 414.7 379.648 414.665C379.876 414.612 380.122 414.515 380.386 414.375C380.456 414.339 380.509 414.375 380.544 414.48C380.597 414.568 380.597 414.629 380.544 414.665L377.408 416.167C377.337 416.202 377.276 416.219 377.223 416.219C377.012 416.219 376.819 416.009 376.643 415.587C376.485 415.165 376.406 414.568 376.406 413.795V400.274C376.406 399.642 376.345 399.185 376.222 398.904C376.116 398.623 375.905 398.482 375.589 398.482C375.431 398.482 375.264 398.517 375.088 398.588C374.913 398.64 374.693 398.728 374.429 398.851C374.359 398.869 374.298 398.825 374.245 398.719C374.21 398.614 374.219 398.553 374.271 398.535L377.777 396.848C377.812 396.831 377.856 396.822 377.908 396.822C377.961 396.822 378.023 396.848 378.093 396.901C378.163 396.954 378.198 397.015 378.198 397.085ZM160.1 431.44L161.866 431.387C162.604 431.387 163.096 431.546 163.342 431.862C163.465 432.002 163.526 432.143 163.526 432.283C163.526 432.424 163.483 432.547 163.395 432.652C163.184 432.916 162.789 433.048 162.209 433.048C161.207 433.048 160.32 432.661 159.547 431.888C157.579 432.187 156.085 433.232 155.066 435.024C154.416 436.184 154.091 437.317 154.091 438.424C154.091 439.039 154.188 439.645 154.381 440.243C154.961 441.93 156.217 442.773 158.15 442.773C159.872 442.773 161.365 442.193 162.63 441.033C163.895 439.874 164.528 438.723 164.528 437.581C164.528 437.036 164.291 436.588 163.816 436.237C163.36 435.868 162.868 435.657 162.34 435.604C161.831 435.534 161.392 435.499 161.023 435.499C160.671 435.499 160.206 435.543 159.626 435.631C159.064 435.701 158.501 435.929 157.939 436.316C157.271 436.773 156.938 437.379 156.938 438.134C156.938 438.89 157.526 439.575 158.703 440.19C158.879 440.296 158.949 440.436 158.914 440.612C158.897 440.77 158.826 440.814 158.703 440.744C157.597 440.146 156.815 439.47 156.358 438.714C156.042 438.222 155.883 437.809 155.883 437.476C155.883 437.142 155.927 436.869 156.015 436.658C156.226 436.044 156.753 435.525 157.597 435.104C158.44 434.682 159.512 434.471 160.812 434.471H165.477C166.39 434.471 167.515 434.164 168.85 433.549C169.5 433.25 169.975 432.898 170.273 432.494C170.414 432.283 170.484 432.064 170.484 431.835C170.484 431.589 170.432 431.379 170.326 431.203C170.221 431.027 170.177 430.904 170.194 430.834C170.212 430.764 170.256 430.729 170.326 430.729C170.414 430.729 170.484 430.772 170.537 430.86C170.783 431.282 170.906 431.686 170.906 432.073C170.906 432.442 170.792 432.784 170.563 433.101C170.124 433.768 169.377 434.304 168.323 434.708C167.269 435.112 166.18 435.314 165.055 435.314C165.02 435.314 164.976 435.314 164.923 435.314C165.591 435.859 165.925 436.553 165.925 437.396C165.925 438.574 165.24 439.786 163.869 441.033C163.219 441.648 162.384 442.149 161.365 442.536C160.346 442.922 159.274 443.116 158.15 443.116C155.427 443.116 153.503 442.325 152.378 440.744C151.816 439.953 151.535 439.189 151.535 438.451C151.535 437.713 151.649 437.027 151.877 436.395C152.492 434.726 153.731 433.434 155.594 432.521C156.665 431.994 157.869 431.66 159.204 431.519C158.712 430.834 158.466 429.973 158.466 428.936C158.484 427.9 158.941 426.925 159.837 426.011C160.733 425.097 161.761 424.438 162.92 424.034C164.098 423.613 165.24 423.402 166.347 423.402C167.26 423.402 168.033 423.586 168.666 423.955C169.316 424.324 169.641 424.913 169.641 425.721C169.641 426.231 169.483 426.687 169.167 427.091C168.85 427.478 168.49 427.671 168.086 427.671C167.699 427.671 167.383 427.557 167.137 427.329C166.909 427.083 166.795 426.784 166.795 426.433C166.795 426.081 166.909 425.791 167.137 425.563C167.383 425.334 167.664 425.22 167.981 425.22C168.191 425.22 168.393 425.273 168.587 425.378C168.78 425.466 168.894 425.572 168.929 425.695C168.947 425.589 168.956 425.484 168.956 425.378C168.956 424.992 168.798 424.693 168.481 424.482C168.147 424.236 167.647 424.113 166.979 424.113C166.311 424.113 165.53 424.298 164.633 424.667C163.737 425.018 162.894 425.537 162.103 426.222C161.313 426.907 160.689 427.75 160.232 428.752C159.986 429.314 159.863 429.815 159.863 430.254C159.863 430.693 159.942 431.089 160.1 431.44ZM163.078 432.257C163.078 431.941 162.428 431.783 161.128 431.783C160.865 431.783 160.592 431.792 160.311 431.809C160.733 432.336 161.295 432.6 161.998 432.6C162.718 432.6 163.078 432.486 163.078 432.257ZM174.945 441.93C174.909 441.93 174.892 441.877 174.892 441.771C174.892 441.666 174.909 441.613 174.945 441.613C175.472 441.613 175.876 441.569 176.157 441.482C176.438 441.394 176.649 441.218 176.789 440.954C176.93 440.691 177.044 440.304 177.132 439.795L179.267 427.592C179.407 426.837 179.39 426.345 179.214 426.116C179.038 425.888 178.564 425.774 177.791 425.774C177.738 425.774 177.712 425.721 177.712 425.616C177.712 425.51 177.738 425.457 177.791 425.457C178.16 425.457 178.564 425.475 179.003 425.51C179.46 425.528 179.952 425.537 180.479 425.537C180.866 425.537 181.349 425.51 181.929 425.457C182.526 425.405 183.115 425.378 183.695 425.378C184.679 425.378 185.539 425.545 186.277 425.879C187.033 426.195 187.595 426.696 187.964 427.381C188.333 428.067 188.421 428.936 188.228 429.991C188.07 430.869 187.753 431.633 187.279 432.283C186.805 432.916 186.251 433.434 185.619 433.838C184.986 434.243 184.327 434.541 183.642 434.735C182.957 434.928 182.315 435.024 181.718 435.024C181.525 435.024 181.34 435.016 181.164 434.998C180.989 434.981 180.813 434.945 180.637 434.893C180.602 434.875 180.602 434.796 180.637 434.655C180.672 434.515 180.716 434.453 180.769 434.471C180.91 434.506 181.041 434.532 181.164 434.55C181.305 434.568 181.437 434.576 181.56 434.576C182.192 434.576 182.816 434.436 183.431 434.155C184.064 433.856 184.617 433.417 185.091 432.837C185.566 432.24 185.891 431.466 186.067 430.518C186.242 429.516 186.207 428.673 185.961 427.988C185.715 427.285 185.337 426.749 184.828 426.38C184.336 426.011 183.782 425.826 183.167 425.826C182.693 425.826 182.324 425.862 182.061 425.932C181.797 426.002 181.595 426.169 181.454 426.433C181.331 426.679 181.208 427.083 181.085 427.645L178.951 439.795C178.828 440.55 178.854 441.042 179.03 441.271C179.223 441.499 179.706 441.613 180.479 441.613C180.514 441.613 180.532 441.666 180.532 441.771C180.532 441.877 180.514 441.93 180.479 441.93C180.11 441.93 179.68 441.921 179.188 441.903C178.713 441.886 178.204 441.877 177.659 441.877C177.15 441.877 176.658 441.886 176.183 441.903C175.726 441.921 175.314 441.93 174.945 441.93ZM189.509 442.272C188.929 442.272 188.481 442.061 188.165 441.64C187.866 441.218 187.778 440.515 187.901 439.531C188.042 438.6 188.349 437.66 188.824 436.711C189.298 435.762 189.869 434.884 190.537 434.076C191.222 433.267 191.951 432.626 192.724 432.152C193.497 431.66 194.235 431.414 194.938 431.414C195.272 431.414 195.606 431.475 195.94 431.598C196.273 431.721 196.555 431.923 196.783 432.204C197.029 432.468 197.169 432.828 197.205 433.285L195.94 432.521C196.186 432.486 196.458 432.345 196.757 432.099C197.055 431.835 197.275 431.537 197.415 431.203C197.451 431.15 197.512 431.141 197.6 431.177C197.705 431.194 197.749 431.22 197.732 431.256L196.203 439.584C196.027 440.55 196.142 441.033 196.546 441.033C196.739 441.033 196.976 440.928 197.257 440.717C197.556 440.506 197.872 440.234 198.206 439.9C198.259 439.848 198.32 439.856 198.391 439.927C198.461 439.997 198.47 440.058 198.417 440.111C197.855 440.761 197.336 441.271 196.862 441.64C196.388 441.991 195.922 442.167 195.465 442.167C194.991 442.167 194.683 441.974 194.543 441.587C194.402 441.183 194.411 440.515 194.569 439.584L195.202 435.894L195.676 435.446C195.202 436.817 194.613 438.02 193.91 439.057C193.225 440.076 192.496 440.867 191.723 441.429C190.967 441.991 190.229 442.272 189.509 442.272ZM190.695 440.77C191.169 440.77 191.652 440.594 192.144 440.243C192.636 439.874 193.102 439.391 193.541 438.793C193.998 438.196 194.385 437.546 194.701 436.843C195.035 436.14 195.263 435.472 195.386 434.84C195.527 434.137 195.465 433.566 195.202 433.127C194.956 432.67 194.525 432.45 193.91 432.468C193.33 432.468 192.751 432.714 192.171 433.206C191.591 433.698 191.073 434.366 190.616 435.209C190.159 436.035 189.851 436.984 189.693 438.055C189.553 439.004 189.57 439.698 189.746 440.137C189.922 440.559 190.238 440.77 190.695 440.77ZM208.024 442.167C207.532 442.167 207.225 441.965 207.102 441.561C206.979 441.156 206.996 440.498 207.154 439.584L207.919 435.393C208.305 433.513 208.015 432.573 207.049 432.573C206.504 432.573 205.933 432.934 205.336 433.654C204.739 434.357 204.176 435.385 203.649 436.738C203.122 438.09 202.683 439.742 202.331 441.692L201.962 441.666C202.331 439.61 202.815 437.818 203.412 436.29C204.027 434.743 204.73 433.549 205.52 432.705C206.329 431.844 207.172 431.414 208.051 431.414C208.806 431.414 209.316 431.686 209.579 432.231C209.843 432.775 209.86 433.663 209.632 434.893L208.762 439.584C208.674 440.111 208.674 440.489 208.762 440.717C208.85 440.928 208.991 441.033 209.184 441.033C209.377 441.033 209.605 440.928 209.869 440.717C210.15 440.506 210.466 440.234 210.818 439.9C210.871 439.83 210.932 439.83 211.002 439.9C211.073 439.97 211.081 440.041 211.029 440.111C210.466 440.761 209.948 441.271 209.474 441.64C208.999 441.991 208.516 442.167 208.024 442.167ZM201.304 442.14C201.022 442.14 200.829 442.123 200.724 442.088C200.636 442.053 200.592 442.009 200.592 441.956C200.592 441.903 200.636 441.675 200.724 441.271C200.829 440.867 200.917 440.436 200.987 439.979L202.068 434.102C202.244 433.118 202.103 432.626 201.646 432.626C201.453 432.626 201.207 432.732 200.908 432.942C200.609 433.136 200.276 433.417 199.907 433.786C199.854 433.856 199.792 433.856 199.722 433.786C199.652 433.698 199.643 433.628 199.696 433.575C200.311 432.872 200.864 432.354 201.356 432.02C201.866 431.686 202.358 431.519 202.832 431.519C203.307 431.519 203.605 431.712 203.728 432.099C203.869 432.486 203.86 433.109 203.702 433.97L202.331 441.692C202.279 441.991 201.936 442.14 201.304 442.14ZM216.027 442.246C215.06 442.246 214.305 442 213.76 441.508C213.215 441.016 212.855 440.375 212.679 439.584C212.521 438.793 212.521 437.95 212.679 437.054C212.802 436.386 213.048 435.718 213.417 435.051C213.786 434.383 214.243 433.777 214.788 433.232C215.332 432.688 215.947 432.248 216.633 431.915C217.318 431.581 218.047 431.414 218.82 431.414C219.488 431.414 219.98 431.546 220.296 431.809C220.63 432.055 220.77 432.398 220.718 432.837C220.647 433.259 220.402 433.672 219.98 434.076C219.576 434.48 219.049 434.84 218.398 435.156C217.748 435.472 217.019 435.745 216.211 435.973C215.403 436.202 214.577 436.36 213.734 436.448L213.786 436.105C215.104 435.912 216.211 435.604 217.107 435.183C218.003 434.743 218.521 434.146 218.662 433.39C218.767 432.951 218.697 432.635 218.451 432.442C218.223 432.231 217.933 432.125 217.581 432.125C217.054 432.125 216.589 432.31 216.185 432.679C215.781 433.048 215.447 433.54 215.183 434.155C214.92 434.77 214.726 435.446 214.603 436.184C214.428 437.133 214.41 437.994 214.551 438.767C214.691 439.522 214.981 440.129 215.42 440.585C215.86 441.042 216.448 441.271 217.186 441.271C217.59 441.271 218.012 441.209 218.451 441.086C218.908 440.963 219.347 440.735 219.769 440.401C219.804 440.366 219.848 440.383 219.901 440.454C219.971 440.524 219.989 440.585 219.953 440.638C219.286 441.218 218.618 441.631 217.95 441.877C217.3 442.123 216.659 442.246 216.027 442.246ZM223.714 442.167C223.204 442.167 222.888 441.965 222.765 441.561C222.642 441.156 222.66 440.498 222.818 439.584L225.374 425.853C225.497 425.168 225.436 424.746 225.19 424.588C224.961 424.412 224.461 424.517 223.687 424.904C223.617 424.922 223.556 424.878 223.503 424.772C223.468 424.667 223.485 424.605 223.556 424.588L227.166 422.822C227.254 422.787 227.333 422.804 227.404 422.875C227.474 422.945 227.5 422.998 227.483 423.033L224.452 439.584C224.346 440.111 224.338 440.489 224.425 440.717C224.513 440.928 224.654 441.033 224.847 441.033C225.04 441.033 225.269 440.928 225.532 440.717C225.814 440.506 226.13 440.234 226.481 439.9C226.551 439.83 226.622 439.83 226.692 439.9C226.762 439.97 226.762 440.041 226.692 440.111C226.13 440.761 225.611 441.271 225.137 441.64C224.663 441.991 224.188 442.167 223.714 442.167ZM240.676 442.035C240.255 442.035 239.728 442.009 239.095 441.956C238.48 441.903 237.909 441.877 237.382 441.877C236.837 441.877 236.337 441.886 235.88 441.903C235.423 441.921 235.01 441.93 234.641 441.93C234.588 441.93 234.562 441.877 234.562 441.771C234.562 441.666 234.588 441.613 234.641 441.613C235.168 441.613 235.564 441.569 235.827 441.482C236.108 441.394 236.319 441.218 236.46 440.954C236.6 440.691 236.714 440.304 236.802 439.795L238.963 427.592C239.104 426.837 239.078 426.345 238.884 426.116C238.691 425.888 238.217 425.774 237.461 425.774C237.426 425.774 237.408 425.721 237.408 425.616C237.408 425.51 237.426 425.457 237.461 425.457C237.83 425.457 238.252 425.475 238.726 425.51C239.218 425.528 239.728 425.537 240.255 425.537C240.747 425.537 241.256 425.519 241.783 425.484C242.328 425.431 242.82 425.405 243.259 425.405C244.911 425.405 246.299 425.756 247.423 426.459C248.548 427.144 249.347 428.093 249.822 429.305C250.314 430.5 250.428 431.871 250.164 433.417C249.936 434.735 249.506 435.929 248.873 437.001C248.258 438.055 247.511 438.96 246.633 439.716C245.754 440.454 244.797 441.025 243.76 441.429C242.741 441.833 241.713 442.035 240.676 442.035ZM240.518 441.613C241.713 441.613 242.811 441.323 243.813 440.744C244.832 440.146 245.693 439.285 246.396 438.161C247.116 437.019 247.626 435.631 247.924 433.997C248.1 432.942 248.144 431.932 248.056 430.966C247.968 429.982 247.74 429.103 247.371 428.33C247.002 427.557 246.475 426.951 245.789 426.512C245.104 426.055 244.252 425.826 243.233 425.826C242.442 425.826 241.871 425.949 241.52 426.195C241.186 426.441 240.949 426.925 240.808 427.645L238.726 439.505C238.586 440.225 238.63 440.761 238.858 441.113C239.086 441.446 239.64 441.613 240.518 441.613ZM253.778 442.167C253.304 442.167 252.988 441.974 252.829 441.587C252.689 441.183 252.715 440.515 252.908 439.584L253.989 434.102C254.182 433.118 254.033 432.626 253.541 432.626C253.348 432.626 253.102 432.732 252.803 432.942C252.504 433.136 252.179 433.417 251.828 433.786C251.775 433.856 251.705 433.856 251.617 433.786C251.547 433.698 251.547 433.628 251.617 433.575C252.232 432.872 252.785 432.354 253.277 432.02C253.769 431.686 254.244 431.519 254.701 431.519C255.193 431.519 255.509 431.712 255.649 432.099C255.79 432.486 255.772 433.109 255.597 433.97L254.516 439.584C254.411 440.111 254.402 440.489 254.49 440.717C254.578 440.928 254.718 441.033 254.911 441.033C255.105 441.033 255.342 440.937 255.623 440.744C255.922 440.533 256.238 440.26 256.572 439.927C256.642 439.856 256.712 439.865 256.783 439.953C256.853 440.023 256.853 440.085 256.783 440.137C256.22 440.805 255.693 441.315 255.201 441.666C254.727 442 254.253 442.167 253.778 442.167ZM255.465 428.515C255.078 428.515 254.771 428.409 254.543 428.198C254.332 427.988 254.226 427.68 254.226 427.276C254.226 426.907 254.332 426.617 254.543 426.406C254.771 426.195 255.078 426.09 255.465 426.09C255.869 426.09 256.177 426.195 256.387 426.406C256.598 426.617 256.704 426.907 256.704 427.276C256.704 428.102 256.291 428.515 255.465 428.515ZM260.422 442.219C259.719 442.219 259.113 442.053 258.603 441.719C258.094 441.385 257.874 440.981 257.944 440.506C257.979 440.225 258.085 440.014 258.26 439.874C258.454 439.733 258.656 439.663 258.867 439.663C259.13 439.663 259.332 439.76 259.473 439.953C259.613 440.146 259.745 440.366 259.868 440.612C260.009 440.84 260.184 441.051 260.395 441.244C260.624 441.438 260.949 441.534 261.37 441.534C261.792 441.534 262.126 441.42 262.372 441.192C262.618 440.946 262.767 440.585 262.82 440.111C262.908 439.566 262.829 439.101 262.583 438.714C262.337 438.31 262.012 437.95 261.608 437.634C261.221 437.3 260.835 436.975 260.448 436.658C260.061 436.325 259.754 435.956 259.526 435.552C259.315 435.147 259.262 434.664 259.367 434.102C259.455 433.592 259.675 433.144 260.026 432.758C260.395 432.354 260.835 432.046 261.344 431.835C261.871 431.607 262.425 431.493 263.004 431.493C263.69 431.493 264.252 431.625 264.691 431.888C265.13 432.152 265.324 432.486 265.271 432.89C265.218 433.171 265.095 433.382 264.902 433.522C264.709 433.663 264.524 433.733 264.349 433.733C264.032 433.733 263.795 433.654 263.637 433.496C263.496 433.32 263.365 433.127 263.242 432.916C263.136 432.705 262.987 432.521 262.794 432.363C262.618 432.204 262.346 432.125 261.977 432.125C261.66 432.125 261.388 432.213 261.16 432.389C260.931 432.565 260.799 432.802 260.764 433.101C260.676 433.61 260.747 434.058 260.975 434.445C261.221 434.831 261.537 435.191 261.924 435.525C262.328 435.859 262.723 436.202 263.11 436.553C263.514 436.887 263.83 437.265 264.059 437.686C264.287 438.108 264.357 438.6 264.27 439.162C264.182 439.654 263.962 440.137 263.611 440.612C263.259 441.086 262.811 441.473 262.267 441.771C261.722 442.07 261.107 442.219 260.422 442.219ZM270.191 442.272C269.418 442.272 268.785 442.105 268.293 441.771C267.819 441.42 267.45 440.972 267.186 440.427C266.94 439.865 266.791 439.25 266.738 438.582C266.703 437.915 266.756 437.256 266.896 436.606C267.107 435.516 267.52 434.585 268.135 433.812C268.75 433.039 269.453 432.45 270.243 432.046C271.052 431.625 271.842 431.414 272.615 431.414C273.037 431.414 273.432 431.475 273.801 431.598C274.17 431.721 274.46 431.906 274.671 432.152C274.899 432.398 274.996 432.696 274.961 433.048C274.943 433.311 274.847 433.54 274.671 433.733C274.495 433.909 274.249 433.997 273.933 433.997C273.617 433.997 273.38 433.9 273.222 433.707C273.063 433.513 272.949 433.294 272.879 433.048C272.809 432.819 272.686 432.6 272.51 432.389C272.334 432.16 272.036 432.046 271.614 432.046C271.122 432.046 270.683 432.213 270.296 432.547C269.91 432.863 269.593 433.303 269.347 433.865C269.101 434.427 268.908 435.06 268.767 435.762C268.609 436.729 268.583 437.634 268.688 438.477C268.811 439.303 269.092 439.97 269.532 440.48C269.989 440.99 270.63 441.244 271.456 441.244C271.965 441.244 272.448 441.13 272.905 440.902C273.362 440.673 273.757 440.427 274.091 440.164C274.144 440.129 274.205 440.146 274.276 440.216C274.346 440.287 274.355 440.348 274.302 440.401C273.617 441.051 272.923 441.525 272.22 441.824C271.517 442.123 270.841 442.272 270.191 442.272ZM278.827 442.272C278.089 442.272 277.58 442 277.299 441.455C277.018 440.893 277 440.006 277.246 438.793L278.195 434.102C278.283 433.575 278.283 433.206 278.195 432.995C278.125 432.767 277.984 432.652 277.773 432.652C277.597 432.652 277.369 432.758 277.088 432.969C276.807 433.18 276.499 433.452 276.165 433.786C276.095 433.856 276.025 433.856 275.955 433.786C275.884 433.715 275.884 433.645 275.955 433.575C276.534 432.907 277.053 432.398 277.51 432.046C277.984 431.695 278.458 431.519 278.933 431.519C279.39 431.519 279.697 431.712 279.855 432.099C280.013 432.486 279.996 433.153 279.803 434.102L278.959 438.293C278.748 439.259 278.722 439.97 278.88 440.427C279.056 440.884 279.381 441.113 279.855 441.113C280.4 441.113 280.962 440.761 281.542 440.058C282.139 439.338 282.702 438.301 283.229 436.948C283.756 435.595 284.195 433.944 284.547 431.994L284.915 432.02C284.582 434.076 284.098 435.877 283.466 437.423C282.851 438.951 282.148 440.146 281.358 441.007C280.567 441.851 279.723 442.272 278.827 442.272ZM284.072 442.167C283.598 442.167 283.29 441.974 283.15 441.587C283.027 441.2 283.044 440.577 283.202 439.716L284.547 431.994C284.599 431.695 284.951 431.546 285.601 431.546C285.882 431.546 286.066 431.563 286.154 431.598C286.242 431.633 286.286 431.677 286.286 431.73C286.286 431.783 286.242 432.011 286.154 432.415C286.066 432.819 285.978 433.25 285.891 433.707L284.81 439.584C284.652 440.568 284.793 441.06 285.232 441.06C285.425 441.06 285.671 440.963 285.97 440.77C286.268 440.559 286.602 440.269 286.971 439.9C287.024 439.83 287.085 439.839 287.156 439.927C287.226 439.997 287.235 440.058 287.182 440.111C286.567 440.814 286.014 441.332 285.522 441.666C285.03 442 284.547 442.167 284.072 442.167ZM290.708 442.219C290.005 442.219 289.399 442.053 288.889 441.719C288.38 441.385 288.16 440.981 288.23 440.506C288.265 440.225 288.371 440.014 288.547 439.874C288.74 439.733 288.942 439.663 289.153 439.663C289.416 439.663 289.618 439.76 289.759 439.953C289.899 440.146 290.031 440.366 290.154 440.612C290.295 440.84 290.471 441.051 290.681 441.244C290.91 441.438 291.235 441.534 291.657 441.534C292.078 441.534 292.412 441.42 292.658 441.192C292.904 440.946 293.053 440.585 293.106 440.111C293.194 439.566 293.115 439.101 292.869 438.714C292.623 438.31 292.298 437.95 291.894 437.634C291.507 437.3 291.121 436.975 290.734 436.658C290.348 436.325 290.04 435.956 289.812 435.552C289.601 435.147 289.548 434.664 289.653 434.102C289.741 433.592 289.961 433.144 290.312 432.758C290.681 432.354 291.121 432.046 291.63 431.835C292.157 431.607 292.711 431.493 293.291 431.493C293.976 431.493 294.538 431.625 294.977 431.888C295.417 432.152 295.61 432.486 295.557 432.89C295.504 433.171 295.381 433.382 295.188 433.522C294.995 433.663 294.81 433.733 294.635 433.733C294.318 433.733 294.081 433.654 293.923 433.496C293.783 433.32 293.651 433.127 293.528 432.916C293.422 432.705 293.273 432.521 293.08 432.363C292.904 432.204 292.632 432.125 292.263 432.125C291.946 432.125 291.674 432.213 291.446 432.389C291.217 432.565 291.085 432.802 291.05 433.101C290.962 433.61 291.033 434.058 291.261 434.445C291.507 434.831 291.823 435.191 292.21 435.525C292.614 435.859 293.009 436.202 293.396 436.553C293.8 436.887 294.116 437.265 294.345 437.686C294.573 438.108 294.643 438.6 294.556 439.162C294.468 439.654 294.248 440.137 293.897 440.612C293.545 441.086 293.097 441.473 292.553 441.771C292.008 442.07 291.393 442.219 290.708 442.219ZM298.873 442.219C298.17 442.219 297.564 442.053 297.054 441.719C296.545 441.385 296.325 440.981 296.395 440.506C296.43 440.225 296.536 440.014 296.712 439.874C296.905 439.733 297.107 439.663 297.318 439.663C297.581 439.663 297.783 439.76 297.924 439.953C298.065 440.146 298.196 440.366 298.319 440.612C298.46 440.84 298.636 441.051 298.846 441.244C299.075 441.438 299.4 441.534 299.822 441.534C300.243 441.534 300.577 441.42 300.823 441.192C301.069 440.946 301.218 440.585 301.271 440.111C301.359 439.566 301.28 439.101 301.034 438.714C300.788 438.31 300.463 437.95 300.059 437.634C299.672 437.3 299.286 436.975 298.899 436.658C298.513 436.325 298.205 435.956 297.977 435.552C297.766 435.147 297.713 434.664 297.819 434.102C297.906 433.592 298.126 433.144 298.477 432.758C298.846 432.354 299.286 432.046 299.795 431.835C300.322 431.607 300.876 431.493 301.456 431.493C302.141 431.493 302.703 431.625 303.142 431.888C303.582 432.152 303.775 432.486 303.722 432.89C303.669 433.171 303.546 433.382 303.353 433.522C303.16 433.663 302.975 433.733 302.8 433.733C302.483 433.733 302.246 433.654 302.088 433.496C301.948 433.32 301.816 433.127 301.693 432.916C301.587 432.705 301.438 432.521 301.245 432.363C301.069 432.204 300.797 432.125 300.428 432.125C300.111 432.125 299.839 432.213 299.611 432.389C299.382 432.565 299.251 432.802 299.215 433.101C299.128 433.61 299.198 434.058 299.426 434.445C299.672 434.831 299.988 435.191 300.375 435.525C300.779 435.859 301.174 436.202 301.561 436.553C301.965 436.887 302.281 437.265 302.51 437.686C302.738 438.108 302.808 438.6 302.721 439.162C302.633 439.654 302.413 440.137 302.062 440.612C301.71 441.086 301.262 441.473 300.718 441.771C300.173 442.07 299.558 442.219 298.873 442.219ZM307.324 442.167C306.85 442.167 306.533 441.974 306.375 441.587C306.235 441.183 306.261 440.515 306.454 439.584L307.535 434.102C307.728 433.118 307.579 432.626 307.087 432.626C306.894 432.626 306.648 432.732 306.349 432.942C306.05 433.136 305.725 433.417 305.374 433.786C305.321 433.856 305.251 433.856 305.163 433.786C305.093 433.698 305.093 433.628 305.163 433.575C305.778 432.872 306.331 432.354 306.823 432.02C307.315 431.686 307.79 431.519 308.246 431.519C308.738 431.519 309.055 431.712 309.195 432.099C309.336 432.486 309.318 433.109 309.143 433.97L308.062 439.584C307.957 440.111 307.948 440.489 308.036 440.717C308.123 440.928 308.264 441.033 308.457 441.033C308.651 441.033 308.888 440.937 309.169 440.744C309.468 440.533 309.784 440.26 310.118 439.927C310.188 439.856 310.258 439.865 310.329 439.953C310.399 440.023 310.399 440.085 310.329 440.137C309.766 440.805 309.239 441.315 308.747 441.666C308.273 442 307.798 442.167 307.324 442.167ZM309.011 428.515C308.624 428.515 308.317 428.409 308.088 428.198C307.877 427.988 307.772 427.68 307.772 427.276C307.772 426.907 307.877 426.617 308.088 426.406C308.317 426.195 308.624 426.09 309.011 426.09C309.415 426.09 309.722 426.195 309.933 426.406C310.144 426.617 310.249 426.907 310.249 427.276C310.249 428.102 309.837 428.515 309.011 428.515ZM315.338 442.299C314.459 442.299 313.739 442.053 313.177 441.561C312.632 441.069 312.263 440.41 312.07 439.584C311.894 438.758 311.894 437.844 312.07 436.843C312.281 435.806 312.658 434.884 313.203 434.076C313.748 433.25 314.407 432.6 315.18 432.125C315.97 431.651 316.814 431.414 317.71 431.414C318.641 431.414 319.388 431.66 319.95 432.152C320.512 432.644 320.881 433.303 321.057 434.128C321.25 434.954 321.25 435.859 321.057 436.843C320.829 437.985 320.416 438.969 319.818 439.795C319.221 440.603 318.527 441.227 317.736 441.666C316.946 442.088 316.146 442.299 315.338 442.299ZM316.26 441.64C316.928 441.64 317.534 441.323 318.079 440.691C318.624 440.041 319.001 439.145 319.212 438.003C319.335 437.3 319.379 436.606 319.344 435.921C319.326 435.218 319.221 434.576 319.028 433.997C318.834 433.399 318.562 432.925 318.211 432.573C317.859 432.222 317.42 432.046 316.893 432.046C316.243 432.046 315.637 432.363 315.074 432.995C314.53 433.628 314.143 434.532 313.915 435.71C313.774 436.43 313.721 437.142 313.757 437.844C313.792 438.53 313.906 439.162 314.099 439.742C314.31 440.322 314.591 440.788 314.943 441.139C315.312 441.473 315.751 441.64 316.26 441.64ZM330.976 442.167C330.484 442.167 330.177 441.965 330.054 441.561C329.931 441.156 329.948 440.498 330.107 439.584L330.871 435.393C331.257 433.513 330.968 432.573 330.001 432.573C329.457 432.573 328.885 432.934 328.288 433.654C327.691 434.357 327.128 435.385 326.601 436.738C326.074 438.09 325.635 439.742 325.284 441.692L324.915 441.666C325.284 439.61 325.767 437.818 326.364 436.29C326.979 434.743 327.682 433.549 328.473 432.705C329.281 431.844 330.124 431.414 331.003 431.414C331.758 431.414 332.268 431.686 332.531 432.231C332.795 432.775 332.812 433.663 332.584 434.893L331.714 439.584C331.626 440.111 331.626 440.489 331.714 440.717C331.802 440.928 331.943 441.033 332.136 441.033C332.329 441.033 332.558 440.928 332.821 440.717C333.102 440.506 333.419 440.234 333.77 439.9C333.823 439.83 333.884 439.83 333.955 439.9C334.025 439.97 334.034 440.041 333.981 440.111C333.419 440.761 332.9 441.271 332.426 441.64C331.952 441.991 331.468 442.167 330.976 442.167ZM324.256 442.14C323.975 442.14 323.781 442.123 323.676 442.088C323.588 442.053 323.544 442.009 323.544 441.956C323.544 441.903 323.588 441.675 323.676 441.271C323.781 440.867 323.869 440.436 323.939 439.979L325.02 434.102C325.196 433.118 325.055 432.626 324.598 432.626C324.405 432.626 324.159 432.732 323.86 432.942C323.562 433.136 323.228 433.417 322.859 433.786C322.806 433.856 322.745 433.856 322.674 433.786C322.604 433.698 322.595 433.628 322.648 433.575C323.263 432.872 323.816 432.354 324.308 432.02C324.818 431.686 325.31 431.519 325.784 431.519C326.259 431.519 326.557 431.712 326.68 432.099C326.821 432.486 326.812 433.109 326.654 433.97L325.284 441.692C325.231 441.991 324.888 442.14 324.256 442.14Z" fill="#E3E3E3"/>
</g>
<g id="Group">
<path id="Vector_5" d="M242.037 521.85C240.851 521.85 239.797 522.283 238.931 522.96L242.037 504.116L245.143 522.96C244.296 522.283 243.223 521.85 242.037 521.85Z" fill="#E3E3E3"/>
<path id="Vector_6" d="M264.76 526.838L245.916 529.945C246.593 529.098 247.026 528.024 247.026 526.838C247.026 525.652 246.593 524.598 245.916 523.732L264.76 526.838Z" fill="#E3E3E3"/>
<path id="Vector_7" d="M242.037 531.827C243.223 531.827 244.278 531.394 245.143 530.716L242.037 549.561L238.931 530.716C239.778 531.394 240.851 531.827 242.037 531.827Z" fill="#E3E3E3"/>
<path id="Vector_8" d="M237.048 526.838C237.048 528.024 237.481 529.079 238.159 529.945L219.315 526.838L238.159 523.732C237.481 524.579 237.048 525.652 237.048 526.838Z" fill="#E3E3E3"/>
</g>
</g>
</g>
</svg>
