<svg id="Слой_1" data-name="Слой 1" xmlns="http://www.w3.org/2000/svg" viewBox="0 0 221.75 245.23">
  <defs>
    <style>
      .cls-1 {
        fill: #9c182c;
      }

      .cls-2 {
        fill: #eeeeef;
      }
    </style>
  </defs>
  <g>
    <g>
      <path class="cls-1" d="M103.86,236c-5.14-3.32-18.25-8.93-34.83-8.93-20.5,0-36.52-5.06-47.61-15C9.17,201,4.18,189.35,4.18,171.74V4.17h213.4V171.74c0,17.61-5,29.28-17.25,40.3-11.08,10-27.1,15-47.61,15-17.92,0-31.82,6.45-35.66,8.93l-6.6,4.27Z"/>
      <path class="cls-2" d="M213.4,8.35V171.74c0,17.19-4.88,27.32-15.86,37.19-10.82,9.74-26.26,13.95-44.82,13.95-18.28,0-33,6.39-37.93,9.61l-4.33,2.8-4.34-2.8c-5-3.22-18.81-9.61-37.09-9.61-18.56,0-34-4.21-44.82-13.95s-15.86-20-15.86-37.19V8.35H213.4M221.75,0H0V171.74c0,18.93,5.4,31.5,18.63,43.4C30.5,225.82,47.46,231.23,69,231.23c19.55,0,32,7.93,32.56,8.27l4.33,2.8,4.54,2.93L115,242.3l4.34-2.8c3.31-2.15,16.57-8.27,33.39-8.27,21.57,0,38.53-5.41,50.41-16.09,13.23-11.9,18.62-24.47,18.62-43.4V0Z"/>
    </g>
    <g>
      <rect class="cls-2" x="80.54" y="104.33" width="61.74" height="12.52"/>
      <rect class="cls-2" x="138.33" y="60.52" width="24.58" height="103.33"/>
      <rect class="cls-2" x="58.95" y="60.52" width="24.58" height="103.33"/>
      <rect class="cls-2" x="46.19" y="54.26" width="50.14" height="12.52"/>
      <rect class="cls-2" x="125.57" y="54.26" width="50.14" height="12.52"/>
      <rect class="cls-2" x="125.57" y="154.39" width="50.14" height="12.52"/>
      <rect class="cls-2" x="46.19" y="154.39" width="50.14" height="12.52"/>
    </g>
  </g>
</svg>
