<svg id="Слой_1" data-name="Слой 1" xmlns="http://www.w3.org/2000/svg" viewBox="0 0 300 300">
  <defs>
    <style>
      .cls-1 {
        fill: #efefef;
      }
    </style>
  </defs>
  <g>
    <g>
      <path class="cls-1" d="M182.44,31.33c0,.12-.06.17-.12.16-.6-.11-1.07-.21-1.41-.29l-2-.41-2.13-.36c-.35-.05-.82-.13-1.4-.24,0,0-.08-.07,0-.19s.06-.17.12-.16a6.57,6.57,0,0,0,1.68.17,1.08,1.08,0,0,0,.82-.43,3.43,3.43,0,0,0,.43-1.26l1.27-6.8L168.5,19.44l-1.28,6.79a3.64,3.64,0,0,0-.05,1.33,1.05,1.05,0,0,0,.61.7,7.34,7.34,0,0,0,1.63.46s0,.06,0,.18-.05.17-.09.16c-.6-.11-1.07-.21-1.42-.29l-2.09-.42-2-.35c-.35,0-.84-.12-1.46-.24,0,0-.05-.07,0-.19s.06-.17.1-.16a6.71,6.71,0,0,0,1.66.16,1.06,1.06,0,0,0,.84-.43,3.48,3.48,0,0,0,.43-1.25l2.51-13.45a3.19,3.19,0,0,0,.05-1.32,1.12,1.12,0,0,0-.6-.69,6,6,0,0,0-1.6-.47s0-.07,0-.18.05-.17.09-.17l1.48.31c.81.19,1.45.33,1.94.42s1.27.22,2.13.34l1.39.23s.05.07,0,.19,0,.17-.09.16a5.66,5.66,0,0,0-1.67-.13,1.14,1.14,0,0,0-.84.46,3.3,3.3,0,0,0-.43,1.25l-1.12,6,11.15,2.08,1.12-6a3.47,3.47,0,0,0,.06-1.33,1.18,1.18,0,0,0-.6-.73,5.86,5.86,0,0,0-1.63-.48c-.06,0-.07-.07-.05-.19s.06-.17.12-.16l1.39.29c.84.2,1.54.35,2.11.46s1.19.2,2,.31l1.43.24c.05,0,.07.07.05.19s-.06.17-.12.16a6.15,6.15,0,0,0-1.66-.15,1.1,1.1,0,0,0-.81.44,3.18,3.18,0,0,0-.43,1.24l-2.51,13.45a3.42,3.42,0,0,0-.06,1.32,1.05,1.05,0,0,0,.61.7,6.88,6.88,0,0,0,1.6.45C182.45,31.15,182.47,31.22,182.44,31.33Z"/>
      <path class="cls-1" d="M203.23,39.06c0,.11-.1.15-.17.12-.35-.13-.89-.35-1.61-.67l-1.58-.66c-.41-.15-.93-.33-1.57-.53s-1.06-.34-1.38-.46c-.07,0-.09-.1,0-.21s.09-.15.17-.12a4.44,4.44,0,0,0,1.56.37.73.73,0,0,0,.73-.48,4,4,0,0,0,.09-1.33l-.62-8-5.22-2-4.51,4.74a4.49,4.49,0,0,0-1,1.4c-.42,1.09.28,2,2.09,2.66.09,0,.11.1.07.22s-.11.14-.2.11q-.49-.2-1.41-.6c-.69-.3-1.29-.55-1.81-.75s-1-.37-1.68-.57-1-.33-1.4-.47c-.09,0-.12-.1-.07-.21s.11-.15.2-.12a2.83,2.83,0,0,0,1.42.21,3.22,3.22,0,0,0,1.41-.64,13.07,13.07,0,0,0,1.86-1.71l11-11.55a.23.23,0,0,1,.23,0c.09,0,.13.08.13.14l1.33,16.21a12.19,12.19,0,0,0,.55,3.35,2.27,2.27,0,0,0,1.31,1.3C203.26,38.88,203.27,39,203.23,39.06Zm-9.17-14.4,4.69,1.77-.49-6.19Z"/>
      <path class="cls-1" d="M209.08,41.52a1,1,0,0,0,.34.83,6.53,6.53,0,0,0,1.38.9c.06,0,.06.1,0,.2s-.11.14-.16.12c-.53-.28-.94-.51-1.24-.7l-1.84-1-1.81-.93c-.33-.14-.76-.36-1.29-.65-.06,0-.06-.09,0-.2s.11-.14.16-.11a6.86,6.86,0,0,0,1.52.64,1,1,0,0,0,.89-.18,3.38,3.38,0,0,0,.79-1.07l6.41-12.08a3.19,3.19,0,0,0,.44-1.24,1.06,1.06,0,0,0-.35-.84,6,6,0,0,0-1.37-.92c-.06,0,0-.09,0-.19s.11-.15.16-.12l1.27.71c.71.42,1.3.75,1.77,1s1.16.6,1.91.95l1.24.62s0,.1,0,.2-.11.14-.16.12a5.45,5.45,0,0,0-1.5-.6,1.11,1.11,0,0,0-.91.2,3.38,3.38,0,0,0-.79,1.07l-6.39,12A3.81,3.81,0,0,0,209.08,41.52Z"/>
      <path class="cls-1" d="M229,55.59c-.07.1-.12.13-.16.11l-3.11-2.19c-.41-.28-.68-1.5-.81-3.65a84.73,84.73,0,0,1,0-8.6,5.43,5.43,0,0,1-1.43-.74c-.3-.22-.65-.49-1.05-.82l-4,5.76a3.66,3.66,0,0,0-.62,1.19,1,1,0,0,0,.25.86,6.31,6.31,0,0,0,1.25,1.06c.05,0,0,.1,0,.2s-.12.12-.17.09c-.5-.35-.89-.63-1.17-.86l-1.65-1.19-1.66-1.13c-.3-.19-.72-.47-1.25-.84,0,0,0-.09,0-.18s.12-.14.15-.11a6.58,6.58,0,0,0,1.45.82,1.21,1.21,0,0,0,.94,0,3,3,0,0,0,.91-1l7.86-11.19a3.26,3.26,0,0,0,.59-1.18,1.11,1.11,0,0,0-.25-.88,6.15,6.15,0,0,0-1.24-1.07s0-.1,0-.2.13-.13.18-.09l1.17.85c.65.51,1.19.91,1.61,1.21s.57.39.84.55l.71.43a16.08,16.08,0,0,1,1.45.91,6,6,0,0,1,2.46,2.92,3.21,3.21,0,0,1-.49,3,4.74,4.74,0,0,1-2.22,1.71,6,6,0,0,1-2.94.38q-.09,4.52.09,7.23a16.33,16.33,0,0,0,.75,4.24A4.49,4.49,0,0,0,229,55.41S229,55.5,229,55.59ZM224.21,40.2a4.09,4.09,0,0,0,2.89,1,4,4,0,0,0,2.4-1.88Q232,35.8,229,33.72a4,4,0,0,0-1.06-.58.94.94,0,0,0-.79.12,4.07,4.07,0,0,0-.95,1.05l-3.37,4.79A11.68,11.68,0,0,0,224.21,40.2Z"/>
      <path class="cls-1" d="M246.88,67.78a.42.42,0,0,1,.09.14.1.1,0,0,1,0,.11,27.41,27.41,0,0,0-3,2.47.47.47,0,0,1-.31.16.54.54,0,0,1-.34-.2l-8.45-9s0-.08.09-.16.14-.11.17-.08a6.54,6.54,0,0,0,1.23,1.1,1,1,0,0,0,.9.12,3.22,3.22,0,0,0,1.09-.76l10-9.34a3.34,3.34,0,0,0,.82-1,1.15,1.15,0,0,0-.06-.92,6.45,6.45,0,0,0-1-1.3s0-.09.08-.17.15-.1.17-.08l8.12,8.68a.24.24,0,0,1,0,.38l-2.62,2.52s-.1,0-.17,0-.1-.12-.07-.18a3.6,3.6,0,0,0,1.13-2.35,3,3,0,0,0-.92-2.26l-1.23-1.32a5.5,5.5,0,0,0-1.15-1,1.12,1.12,0,0,0-.88-.11,2.89,2.89,0,0,0-1,.68l-4.38,4.1,2.46,2.63a3.34,3.34,0,0,0,1.73,1.15,1.88,1.88,0,0,0,1.57-.64s.09,0,.17.09.11.14.08.17l-1.77,1.61c-.42.39-.73.69-.93.91l-1,1s-.09,0-.17-.09-.11-.14-.08-.17a2.34,2.34,0,0,0,.93-1.73,3.2,3.2,0,0,0-1-1.93l-2.41-2.57-5,4.64a3,3,0,0,0-.76,1,1,1,0,0,0,.05.84,5.84,5.84,0,0,0,.91,1.18l1.61,1.72a3.11,3.11,0,0,0,2.35,1,5.27,5.27,0,0,0,2.89-1S246.82,67.72,246.88,67.78Z"/>
      <path class="cls-1" d="M256,87.61c-.1.06-.16.08-.18,0-.29-.42-.51-.76-.66-1l-.9-1.36-1.33-1.85c-.21-.28-.5-.67-.85-1.17,0,0,0-.08.11-.15s.16-.09.19-.05a4.11,4.11,0,0,0,.75.88.42.42,0,0,0,.52.07,1.28,1.28,0,0,0,.38-.59l3-7.56-6.48-.07a3.07,3.07,0,0,0-1.74.34c-.56.39-.52,1.07.14,2q.06.07-.09.18c-.1.06-.16.07-.2,0-.33-.48-.58-.86-.75-1.13l-1.14-1.69-.73-1c-.14-.17-.35-.46-.64-.88q-.06-.07.09-.18c.1-.07.16-.08.2,0q1.16,1.68,4.5,1.77l7.06.18,3.21-8a5.58,5.58,0,0,0,.5-2.2,3.22,3.22,0,0,0-.61-1.74s0-.08.11-.15.15-.09.17-.05l.62.94c.26.44.46.76.59,1,.39.55.86,1.2,1.43,2l.9,1.25s0,.1-.09.17-.16.07-.2,0a4.25,4.25,0,0,0-.74-.87.44.44,0,0,0-.55-.07,1.41,1.41,0,0,0-.39.59l-2.92,7.35,6,0a3.41,3.41,0,0,0,2-.39c.57-.39.54-1-.09-1.94,0,0,0-.11.09-.18s.17-.07.2,0l.73,1.11c.4.64.77,1.21,1.12,1.71q.3.44.75,1l.65.88s0,.11-.09.17-.17.08-.2,0a3.61,3.61,0,0,0-1.77-1.25,9.39,9.39,0,0,0-3-.5L259,75l-3.31,8.3a5.07,5.07,0,0,0-.43,2.22,3.92,3.92,0,0,0,.77,1.94S256.05,87.54,256,87.61Z"/>
      <path class="cls-1" d="M259.75,93.17a1.48,1.48,0,0,0-.1,1.15,10,10,0,0,0,.86,2.13s0,.1-.12.15-.18.06-.2,0c-.36-.72-.63-1.29-.82-1.7l-1.11-2.32-.91-1.76c-.19-.32-.42-.77-.7-1.33,0,0,0-.08.14-.14s.16-.06.18,0a6.34,6.34,0,0,0,.86,1.4,1,1,0,0,0,.83.37,4,4,0,0,0,1.25-.43l12.25-6.09a3.42,3.42,0,0,0,1.09-.73,1,1,0,0,0,.21-.88,5.86,5.86,0,0,0-.59-1.54s0-.08.14-.13.16-.06.18,0l.63,1.34c.34.76.61,1.36.83,1.8a16.3,16.3,0,0,0,.82,1.44q.15.32.54,1t.63,1.17a7.17,7.17,0,0,1,.85,4.44,4.28,4.28,0,0,1-2.58,3.11,5.43,5.43,0,0,1-3.36.6,5.8,5.8,0,0,1-2.87-1.33,7.87,7.87,0,0,1-2-2.49,5.52,5.52,0,0,1-.49-1.33q0-.09.09-.15a.34.34,0,0,1,.18,0c.06,0,.09,0,.09.07a4.75,4.75,0,0,0,.37,1,4.63,4.63,0,0,0,2.61,2.39,4.83,4.83,0,0,0,3.88-.43,5.18,5.18,0,0,0,2.73-2.77,4.33,4.33,0,0,0-.24-3.51,7.27,7.27,0,0,0-.8-1.33,1,1,0,0,0-.79-.36,3.47,3.47,0,0,0-1.37.45l-12.1,6A3,3,0,0,0,259.75,93.17Z"/>
      <path class="cls-1" d="M272.15,115a.51.51,0,0,1,0,.17.13.13,0,0,1-.07.1,28.12,28.12,0,0,0-3.77,1,.46.46,0,0,1-.36,0,.54.54,0,0,1-.21-.32l-4-11.72s0-.07.14-.11.18,0,.19,0a6.48,6.48,0,0,0,.67,1.5,1,1,0,0,0,.78.49,3.35,3.35,0,0,0,1.3-.24l12.95-4.42a3.26,3.26,0,0,0,1.17-.61,1.11,1.11,0,0,0,.32-.85,6.63,6.63,0,0,0-.38-1.61s0-.07.15-.11.17,0,.18,0l3.84,11.24a.24.24,0,0,1-.17.34l-3.42,1.23c-.05,0-.1,0-.14-.11s0-.15,0-.19a3.59,3.59,0,0,0,2-1.68,3,3,0,0,0,.09-2.44l-.58-1.7a5.24,5.24,0,0,0-.64-1.39,1.09,1.09,0,0,0-.75-.46,2.81,2.81,0,0,0-1.2.2l-5.68,1.94,1.17,3.41a3.41,3.41,0,0,0,1.1,1.77,1.92,1.92,0,0,0,1.71,0s.07,0,.11.15,0,.18,0,.19l-2.28.74-1.22.45-1.33.49s-.07,0-.11-.15,0-.18,0-.19a2.39,2.39,0,0,0,1.56-1.2,3.22,3.22,0,0,0-.16-2.18L274,105.46l-6.43,2.2a2.93,2.93,0,0,0-1.09.55,1,1,0,0,0-.3.79,5.39,5.39,0,0,0,.34,1.45l.76,2.23A3.12,3.12,0,0,0,269,114.6a5.33,5.33,0,0,0,3,.3S272.13,114.92,272.15,115Z"/>
      <path class="cls-1" d="M272.52,138.21q-.18,0-.18,0l-.69-3.75c-.09-.48.57-1.54,2-3.17a84,84,0,0,1,6.05-6.1,5.68,5.68,0,0,1-.49-1.54c-.07-.37-.13-.8-.19-1.32l-6.91,1.27a3.81,3.81,0,0,0-1.28.41,1,1,0,0,0-.42.78,6.38,6.38,0,0,0,.14,1.64c0,.06,0,.1-.16.13s-.18,0-.19-.06c-.11-.6-.18-1.08-.22-1.43l-.35-2-.38-2c-.09-.35-.19-.84-.3-1.48,0,0,.05-.07.16-.09s.18,0,.19,0a5.91,5.91,0,0,0,.45,1.59,1.19,1.19,0,0,0,.7.63,3.29,3.29,0,0,0,1.32,0l13.46-2.46a3.44,3.44,0,0,0,1.24-.42,1.13,1.13,0,0,0,.44-.81,6,6,0,0,0-.14-1.64c0-.06.05-.1.16-.12s.18,0,.19.06l.23,1.43c.11.82.21,1.48.31,2q.09.52.21,1c.07.3.14.57.2.8.17.61.31,1.17.4,1.67a6,6,0,0,1-.3,3.81,3.19,3.19,0,0,1-2.44,1.77,4.76,4.76,0,0,1-2.77-.34,5.92,5.92,0,0,1-2.36-1.79q-3.24,3.15-5,5.21a16.37,16.37,0,0,0-2.45,3.54,4.58,4.58,0,0,0-.45,2.73S272.64,138.19,272.52,138.21Zm7.42-14.3a4.07,4.07,0,0,0,1.38,2.72,4,4,0,0,0,3,.35q4.21-.78,3.57-4.32a4,4,0,0,0-.34-1.15,1,1,0,0,0-.66-.47,4,4,0,0,0-1.41.08l-5.76,1A11.19,11.19,0,0,0,279.94,123.91Z"/>
      <path class="cls-1" d="M289.09,137.85a6.12,6.12,0,0,0-3.27-1.21s-.06,0-.06-.16,0-.16.05-.17c.71.05,1.64.11,2.79.16s2,.07,2.57,0c.1,0,.15.05.16.16a.15.15,0,0,1-.15.17c-.43,0-.63.55-.58,1.62q0,2.5.15,5.94c.05,1.16.12,2.39.21,3.68l.11,2a6.36,6.36,0,0,0,.21,1.57.89.89,0,0,0,.62.64.17.17,0,0,1,.12.18c0,.09,0,.15-.11.15-.57,0-1.44-.06-2.61-.07s-2.11,0-2.83,0c0,0-.07-.05-.07-.17s0-.18.05-.18a5.07,5.07,0,0,0,3.2-1.08,3.69,3.69,0,0,0,.81-2.87,10.11,10.11,0,0,0-.19-1.88,1,1,0,0,0-.54-.75,2.89,2.89,0,0,0-1.3-.16l-13.61.55a3.4,3.4,0,0,0-1.32.26,1.14,1.14,0,0,0-.53.82,7.73,7.73,0,0,0-.07,1.87q0,.09-.18.09c-.11,0-.18,0-.18-.08q0-1,0-1.56l-.07-2.31-.12-2.21q0-.58-.09-1.62s.06-.06.18-.07.18,0,.18.05a7.92,7.92,0,0,0,.22,1.86,1.18,1.18,0,0,0,.61.79,3,3,0,0,0,1.32.16l13.67-.55a2.93,2.93,0,0,0,1.28-.25,1.07,1.07,0,0,0,.44-.79,12.13,12.13,0,0,0,0-1.9A3.74,3.74,0,0,0,289.09,137.85Z"/>
      <path class="cls-1" d="M287.56,179.23c0-.06.08-.08.19-.06s.17.06.16.12l-.26,1.24q-.24,1-.36,1.65c-.06.33-.13.81-.2,1.43l-.2,1.23s-.07,0-.18,0-.17-.06-.17-.09c.29-1.55-.52-2.51-2.42-2.85l-8.25-1.52a7.21,7.21,0,0,1-4.88-2.82,6.82,6.82,0,0,1-.95-5.34,8.11,8.11,0,0,1,1.53-3.61,6.18,6.18,0,0,1,2.86-2.06,7.32,7.32,0,0,1,3.81-.21l9.3,1.7a3.64,3.64,0,0,0,1.31.07,1.06,1.06,0,0,0,.69-.58A6.1,6.1,0,0,0,290,166s.07,0,.18,0,.17.05.17.09l-.3,1.42c-.18.8-.32,1.46-.42,2s-.2,1.23-.31,2.05l-.23,1.4s-.07.07-.19,0-.17-.06-.16-.12a5.66,5.66,0,0,0,.12-1.63,1.09,1.09,0,0,0-.47-.81,3.92,3.92,0,0,0-1.26-.41l-8.22-1.51a8,8,0,0,0-5.5.6,5.47,5.47,0,0,0-2.62,4,5.23,5.23,0,0,0,.9,4.37,6.73,6.73,0,0,0,4.28,2.29l8.28,1.52Q287.1,181.76,287.56,179.23Z"/>
      <path class="cls-1" d="M278.43,208.49c-.11,0-.16-.09-.14-.15a2.17,2.17,0,0,0,0-1.92,3.47,3.47,0,0,0-1.88-1.3l-14.6-5.41s-.05-.07,0-.17.05-.16.11-.18l20.15-7,.37-.15-12.31-4.55a3.51,3.51,0,0,0-2.25-.26,2.18,2.18,0,0,0-1.23,1.42c0,.06-.09.06-.2,0s-.16-.09-.14-.14c.18-.46.32-.81.42-1l.54-1.38.5-1.42c.08-.27.21-.65.39-1.15,0,0,.08,0,.19,0s.16.08.14.11a2.22,2.22,0,0,0,0,1.93,3.65,3.65,0,0,0,1.88,1.26l13,4.8A3.48,3.48,0,0,0,285.1,190c0-.05.08-.06.19,0s.16.09.14.15l-.41,1c-.1.22-.22.52-.36.91s-.27.74-.35,1-.14.47-.19.62a.47.47,0,0,1-.22.28,2.82,2.82,0,0,1-.55.17,11.43,11.43,0,0,0-1.16.32l-17.05,5.81,11.49,4.26a3.74,3.74,0,0,0,2.26.29,2,2,0,0,0,1.24-1.39s.08,0,.19,0,.16.08.14.12l-.43,1.07c-.24.54-.43,1-.55,1.33s-.28.81-.46,1.41l-.39,1.15C278.61,208.52,278.54,208.53,278.43,208.49Z"/>
      <path class="cls-1" d="M258.75,208.66a1,1,0,0,0-.83.35,6,6,0,0,0-.9,1.38c0,.05-.09.05-.2,0s-.14-.11-.11-.16c.27-.52.5-.93.68-1.24l1-1.84.92-1.82c.15-.32.37-.76.65-1.3,0-.05.09-.05.2,0s.14.11.11.16a6.27,6.27,0,0,0-.63,1.52,1.07,1.07,0,0,0,.18.9,3.54,3.54,0,0,0,1.07.78L273,213.75a3.36,3.36,0,0,0,1.24.44,1.12,1.12,0,0,0,.84-.36,5.89,5.89,0,0,0,.91-1.38s.09,0,.2,0,.14.11.11.16l-.7,1.27c-.42.71-.75,1.3-1,1.77s-.59,1.16-.94,1.91l-.62,1.25c0,.05-.09.05-.2,0s-.14-.11-.11-.16a5.09,5.09,0,0,0,.59-1.51,1.13,1.13,0,0,0-.2-.91,3.75,3.75,0,0,0-1.08-.78L260,209.11A3.82,3.82,0,0,0,258.75,208.66Z"/>
      <path class="cls-1" d="M259.91,238.55c-.1-.07-.13-.13-.1-.18a2.86,2.86,0,0,0,.56-1.73,4,4,0,0,0-.77-2l-9.35-14.15c-.06-.06,0-.17.09-.34a.38.38,0,0,1,.28-.19L268,223a4.32,4.32,0,0,0,1.94.06,2.17,2.17,0,0,0,1.21-.92c0-.05.1,0,.2,0s.13.12.09.17l-.66.91q-.53.65-.81,1.05c-.45.65-.92,1.36-1.4,2.13l-.67,1c0,.05-.1,0-.19,0s-.13-.12-.1-.17a3.09,3.09,0,0,0,.59-1.27.83.83,0,0,0-.39-.83,2.68,2.68,0,0,0-.93-.32l-14.64-2.64,7.92,12a3,3,0,0,0,.66.75,1,1,0,0,0,1.07.06,3.93,3.93,0,0,0,1.24-1.27s.1,0,.2,0,.13.13.09.18l-.75,1c-.41.53-.78,1-1.09,1.47s-.48.73-.74,1.18l-.69,1C260.07,238.62,260,238.61,259.91,238.55Z"/>
      <path class="cls-1" d="M238.22,241.49a.28.28,0,0,1-.14.1.11.11,0,0,1-.11,0,26.23,26.23,0,0,0-2.66-2.87.46.46,0,0,1-.17-.31.46.46,0,0,1,.18-.34l8.48-9s.08,0,.17.08.12.13.09.16a6.44,6.44,0,0,0-1,1.3,1,1,0,0,0-.06.91,3.4,3.4,0,0,0,.82,1l10,9.37a3.3,3.3,0,0,0,1.08.76,1.12,1.12,0,0,0,.91-.13,5.88,5.88,0,0,0,1.24-1.08s.08,0,.17.08.11.14.09.17l-8.14,8.64a.23.23,0,0,1-.38,0L246,247.93s0-.1,0-.18.12-.11.17-.08a3.64,3.64,0,0,0,2.43,1,3.05,3.05,0,0,0,2.19-1.06l1.24-1.31a5.1,5.1,0,0,0,.92-1.22,1.14,1.14,0,0,0,.06-.88,3.16,3.16,0,0,0-.74-1L248,239.11l-2.47,2.62a3.28,3.28,0,0,0-1,1.8,1.92,1.92,0,0,0,.74,1.54s0,.08-.08.17-.13.11-.16.09l-1.72-1.67c-.42-.39-.74-.68-1-.87l-1.05-.95s0-.08.08-.17.13-.11.16-.08a2.39,2.39,0,0,0,1.79.81,3.19,3.19,0,0,0,1.86-1.15l2.41-2.56-5-4.66a3,3,0,0,0-1-.7,1,1,0,0,0-.83.1,5.58,5.58,0,0,0-1.13,1L238,236.13a3.12,3.12,0,0,0-.88,2.41,5.25,5.25,0,0,0,1.15,2.83S238.27,241.44,238.22,241.49Z"/>
      <path class="cls-1" d="M217.85,252.68c-.07-.1-.09-.15-.06-.18l3-2.36c.38-.3,1.63-.21,3.73.28s4.84,1.32,8.22,2.49a5.81,5.81,0,0,1,1.13-1.15c.29-.23.65-.49,1.08-.77l-4.35-5.53a3.62,3.62,0,0,0-1-.93,1,1,0,0,0-.89,0,6.17,6.17,0,0,0-1.38.89c-.05,0-.11,0-.18-.08s-.09-.16,0-.19c.48-.38.86-.67,1.15-.88l1.62-1.23,1.56-1.27c.27-.24.66-.55,1.17-.95,0,0,.08,0,.16.1s.09.15.06.17a6.39,6.39,0,0,0-1.2,1.15,1.13,1.13,0,0,0-.22.91,2.88,2.88,0,0,0,.64,1.15L240.55,255a3.34,3.34,0,0,0,.95.91,1.13,1.13,0,0,0,.92,0,5.83,5.83,0,0,0,1.39-.89s.1,0,.18.09.08.16,0,.19l-1.16.87c-.68.49-1.21.88-1.62,1.2s-.53.43-.77.64l-.61.56a16.78,16.78,0,0,1-1.29,1.13,6.06,6.06,0,0,1-3.51,1.52,3.2,3.2,0,0,1-2.7-1.33,4.68,4.68,0,0,1-1-2.61,5.9,5.9,0,0,1,.48-2.92q-4.29-1.4-6.95-2a16.24,16.24,0,0,0-4.27-.51,4.51,4.51,0,0,0-2.62.88S217.93,252.77,217.85,252.68Zm16.11-.13a4.1,4.1,0,0,0-1.75,2.5,3.93,3.93,0,0,0,1.1,2.83c1.77,2.25,3.59,2.63,5.48,1.14a4,4,0,0,0,.86-.84,1,1,0,0,0,.11-.8,4.13,4.13,0,0,0-.73-1.21l-3.62-4.6A11.24,11.24,0,0,0,234,252.55Z"/>
      <path class="cls-1" d="M220.51,265.69a5.5,5.5,0,0,0-1.9-.55c-.65-.06-1.55-.1-2.68-.13s-2.13-.05-2.84-.11a5.7,5.7,0,0,1-2.06-.63,4.27,4.27,0,0,1-1.68-1.67,4.89,4.89,0,0,1-.68-2.58,4.81,4.81,0,0,1,.88-2.62,7.49,7.49,0,0,1,2.51-2.24,8.58,8.58,0,0,1,4.12-1.21.46.46,0,0,1,.27.08l.24.27,2.36,3.28c0,.06,0,.12,0,.19s-.16.08-.21,0a8.5,8.5,0,0,0-3.37-2.27,4.25,4.25,0,0,0-3.72.39,3.91,3.91,0,0,0-1.75,2,3.1,3.1,0,0,0,.43,2.74,4.31,4.31,0,0,0,1.67,1.69,5.49,5.49,0,0,0,2.05.67,24.62,24.62,0,0,0,2.73.13q1.66,0,2.67.15a5.27,5.27,0,0,1,2,.66,4.18,4.18,0,0,1,1.6,1.63,4.08,4.08,0,0,1,.6,2.58,4.81,4.81,0,0,1-1,2.38,6.82,6.82,0,0,1-2.05,1.79,8.89,8.89,0,0,1-3.34,1.14.54.54,0,0,1-.63-.21l-1.9-2.83c0-.07,0-.13.07-.18a.17.17,0,0,1,.22,0,6,6,0,0,0,2.53,1.82,3.55,3.55,0,0,0,3.24-.37,3,3,0,0,0,1.64-2.07,3.52,3.52,0,0,0-.49-2.47A3.66,3.66,0,0,0,220.51,265.69Z"/>
      <path class="cls-1" d="M200.31,262.83a1,1,0,0,0-.87-.23,6.5,6.5,0,0,0-1.55.55s-.1,0-.15-.13-.05-.17,0-.2c.54-.24,1-.43,1.31-.56l1.92-.85,1.84-.87c.31-.17.75-.38,1.3-.63.06,0,.11,0,.16.13s0,.17,0,.19a6.54,6.54,0,0,0-1.43.82,1,1,0,0,0-.41.82,3.46,3.46,0,0,0,.38,1.27l5.69,12.45a3.3,3.3,0,0,0,.71,1.1,1.15,1.15,0,0,0,.89.23,6.23,6.23,0,0,0,1.55-.54c.06,0,.11,0,.16.13s0,.17,0,.19l-1.33.58c-.76.31-1.39.57-1.87.79s-1.18.56-1.91.94l-1.26.61s-.1,0-.15-.13-.05-.17,0-.2a5.44,5.44,0,0,0,1.39-.83,1.14,1.14,0,0,0,.39-.84,3.44,3.44,0,0,0-.37-1.28L201,264A3.49,3.49,0,0,0,200.31,262.83Z"/>
      <path class="cls-1" d="M198.85,280.78a6.25,6.25,0,0,0,.29-3.48s0-.07.14-.1.16,0,.17,0c.14.69.34,1.6.6,2.72s.47,1.95.64,2.49a.13.13,0,0,1-.1.19.14.14,0,0,1-.21-.09c-.13-.41-.7-.45-1.72-.13-1.6.46-3.5,1-5.67,1.74-1.11.35-2.28.74-3.5,1.18l-1.91.64a6.11,6.11,0,0,0-1.45.63.9.9,0,0,0-.46.76c0,.08,0,.14-.13.17s-.15,0-.18-.07c-.12-.56-.33-1.4-.62-2.53s-.57-2-.79-2.72c0,0,0-.08.15-.11s.18,0,.19,0a5.14,5.14,0,0,0,1.89,2.79,3.72,3.72,0,0,0,3,0,12.29,12.29,0,0,0,1.76-.69,1.09,1.09,0,0,0,.58-.72,3,3,0,0,0-.21-1.3l-4.16-13a3.13,3.13,0,0,0-.61-1.2,1.11,1.11,0,0,0-.93-.29,8.73,8.73,0,0,0-1.82.43c-.05,0-.1,0-.13-.14s0-.18,0-.2q.91-.3,1.5-.45l2.2-.68,2.1-.7c.37-.14.88-.32,1.54-.53,0,0,.07,0,.11.15s0,.18,0,.19a8.82,8.82,0,0,0-1.73.71,1.17,1.17,0,0,0-.6.8,3.07,3.07,0,0,0,.19,1.32l4.19,13a2.83,2.83,0,0,0,.59,1.16,1,1,0,0,0,.88.21,11,11,0,0,0,1.83-.47A3.77,3.77,0,0,0,198.85,280.78Z"/>
      <path class="cls-1" d="M163.08,290.47c0-.12,0-.18,0-.19a3.71,3.71,0,0,0,2-1.11,7.43,7.43,0,0,0,1.59-2.43l2.94-6.63-1.06-6.62a3.49,3.49,0,0,0-.38-1.29,1,1,0,0,0-.78-.44,6.09,6.09,0,0,0-1.64.11s-.09,0-.12-.16,0-.18.07-.19c.6-.1,1.07-.16,1.4-.19l2.05-.3,2-.35c.34-.08.82-.17,1.42-.26.06,0,.1,0,.12.16s0,.18-.07.19a6.88,6.88,0,0,0-1.59.4,1.06,1.06,0,0,0-.61.69,3.45,3.45,0,0,0,0,1.32l1,6.16,6,6.31a6.56,6.56,0,0,0,1.83,1.54,3,3,0,0,0,1.78.22c.05,0,.09,0,.11.16s0,.18-.06.19c-.23,0-.58.07-1.06.11l-1,.14c-.66.1-1.5.25-2.5.46l-1.57.28s-.07-.05-.09-.17,0-.18,0-.18c1-.16,1.49-.45,1.42-.86a1.36,1.36,0,0,0-.41-.68l-5.8-6.14-2.69,6a3.51,3.51,0,0,0-.36,1.82c.11.7.69,1,1.74.8,0,0,.07.05.09.17s0,.18,0,.18l-1.38.19c-.74.08-1.43.17-2,.27-.33.05-.72.14-1.19.25l-1.07.2S163.1,290.59,163.08,290.47Z"/>
    </g>
    <path class="cls-1" d="M150,300C67.29,300,0,232.71,0,150S67.29,0,150,0,300,67.29,300,150,232.71,300,150,300ZM150,2.06C68.43,2.06,2.06,68.43,2.06,150S68.43,297.94,150,297.94,297.94,231.57,297.94,150,231.57,2.06,150,2.06Z"/>
    <g>
      <path class="cls-1" d="M127.93,286.21l2.21-13.86a7.63,7.63,0,0,0-5.21,1.25,6.53,6.53,0,0,0-2.59,4.54,7.06,7.06,0,0,0,.93,5.13A7.18,7.18,0,0,0,127.93,286.21Z"/>
      <path class="cls-1" d="M42.51,225.23a12.36,12.36,0,0,0,1.73,1.93L50.07,223a1.93,1.93,0,0,0,.92-1.31,3.34,3.34,0,0,0-.86-2,4.68,4.68,0,0,0-2.87-2.19,4.73,4.73,0,0,0-3.37,1.1,5.18,5.18,0,0,0-2.42,3.17A4.69,4.69,0,0,0,42.51,225.23Z"/>
      <polygon class="cls-1" points="111.05 275.81 106.29 274.2 107.01 280.37 111.05 275.81"/>
      <path class="cls-1" d="M135.05,285.21a6.66,6.66,0,0,0,2.46-4.44,7.18,7.18,0,0,0-.94-5.13,7.07,7.07,0,0,0-4.53-3l-2.21,13.86A7.5,7.5,0,0,0,135.05,285.21Z"/>
      <path class="cls-1" d="M150,34.08V1A149,149,0,0,0,150,299V265.92a115.92,115.92,0,0,1,0-231.84ZM106.48,14.67l1.07-.23a7.49,7.49,0,0,0,.81-.17,8.44,8.44,0,0,0,.87-.24l.55-.17a.84.84,0,0,1,.69.12,7.55,7.55,0,0,1,1,1L121.17,27l2.76-15.79q.15-.79.69-.93a4,4,0,0,1,.42-.07l.74-.15,1.34-.36c.21-.08.52-.16.94-.27.06,0,.1,0,.13.16s0,.18,0,.19a3.84,3.84,0,0,0-2,.92,1.76,1.76,0,0,0-.21,1.71l3.83,13.14a3.59,3.59,0,0,0,.53,1.24,1,1,0,0,0,.81.38,6,6,0,0,0,1.61-.24c.06,0,.1,0,.13.15s0,.18,0,.19c-.6.15-1.07.25-1.42.32l-2,.46-1.83.47c-.3.1-.73.21-1.29.35,0,0-.07-.05-.1-.16s0-.18,0-.19a4.87,4.87,0,0,0,1.41-.51,1,1,0,0,0,.49-.71A3.33,3.33,0,0,0,128,26L124.24,13l-2.82,16.78a.23.23,0,0,1-.21.17.32.32,0,0,1-.28-.05L110.19,16.65l2.7,12.15a3.27,3.27,0,0,0,1,2A2.45,2.45,0,0,0,116,31s.08.05.1.16,0,.18,0,.19c-.54.13-.95.22-1.24.27L113.3,32l-1.48.4c-.27.08-.65.19-1.15.31,0,0-.07,0-.1-.16s0-.18,0-.19a2.17,2.17,0,0,0,1.58-1.07,3.54,3.54,0,0,0,0-2.27l-3-13.38a2.83,2.83,0,0,0-2.63-.57s-.08,0-.1-.16S106.44,14.68,106.48,14.67ZM88.63,22.23l10.9-4.71a.23.23,0,0,1,.35.13l1.5,3.32c0,.05,0,.1-.1.15s-.15.05-.19,0a3.68,3.68,0,0,0-1.83-1.86,3.07,3.07,0,0,0-2.44.1l-1.65.72a5,5,0,0,0-1.33.75,1.07,1.07,0,0,0-.4.79,2.73,2.73,0,0,0,.29,1.17l2.38,5.51,3.31-1.43a3.33,3.33,0,0,0,1.67-1.24,1.92,1.92,0,0,0-.07-1.71s0-.07.13-.12.18-.05.19,0l.92,2.21c.23.53.41.92.55,1.19l.59,1.29s0,.07-.14.12-.17.05-.19,0a2.36,2.36,0,0,0-1.32-1.46,3.14,3.14,0,0,0-2.16.32l-3.23,1.4,2.69,6.23a3.12,3.12,0,0,0,.65,1,1,1,0,0,0,.81.23,6,6,0,0,0,1.41-.45l2.17-.94a3.12,3.12,0,0,0,1.77-1.86,5.37,5.37,0,0,0,.07-3.05s0-.07.08-.11a.45.45,0,0,1,.16,0c.06,0,.09,0,.1,0a27.72,27.72,0,0,0,1.31,3.69.5.5,0,0,1,0,.35.55.55,0,0,1-.3.24L96,39.18s-.07,0-.12-.14,0-.17,0-.19a6.22,6.22,0,0,0,1.45-.78,1,1,0,0,0,.42-.81A3.33,3.33,0,0,0,97.34,36L91.91,23.42a3.09,3.09,0,0,0-.69-1.12,1.13,1.13,0,0,0-.88-.25,6.38,6.38,0,0,0-1.57.5s-.08,0-.12-.14S88.59,22.24,88.63,22.23Zm-18.71,10a.13.13,0,0,1,.21,0c.23.37.8.28,1.71-.28,1.45-.83,3.16-1.83,5.1-3q1.49-.91,3.12-2l1.7-1.08A6.41,6.41,0,0,0,83,24.92a.91.91,0,0,0,.26-.85c0-.08,0-.14.09-.19s.14-.05.18,0c.25.52.65,1.29,1.21,2.31s1,1.84,1.41,2.46c0,0,0,.08-.12.15s-.16.07-.18,0a5.12,5.12,0,0,0-2.5-2.27,3.73,3.73,0,0,0-2.91.69,11.68,11.68,0,0,0-1.55,1.09,1.11,1.11,0,0,0-.39.83A3,3,0,0,0,79,30.42L86.16,42a3.3,3.3,0,0,0,.87,1,1.14,1.14,0,0,0,1,.06,8.68,8.68,0,0,0,1.67-.85s.1,0,.17.1.06.17,0,.2c-.55.34-1,.61-1.35.8l-2,1.18-1.87,1.18c-.33.22-.78.51-1.37.87,0,0-.08,0-.14-.12s-.08-.16,0-.18a8.2,8.2,0,0,0,1.51-1.1,1.12,1.12,0,0,0,.39-.91,3,3,0,0,0-.49-1.24L77.34,31.39a2.85,2.85,0,0,0-.85-1,1,1,0,0,0-.9,0,12.6,12.6,0,0,0-1.66.9A3.75,3.75,0,0,0,72,33.57,6.1,6.1,0,0,0,72.58,37s0,.08-.11.14-.15.07-.17,0c-.3-.64-.71-1.48-1.22-2.5s-.92-1.78-1.22-2.27Q69.79,32.29,69.92,32.2Zm-60,108.56c-.12,0-.18,0-.17-.08L11,128.87a.24.24,0,0,1,.3-.23l3.62.33c.05,0,.08.06.08.15s0,.16-.09.17a3.68,3.68,0,0,0-2.52.68,3,3,0,0,0-1.11,2.17l-.2,1.79a5.43,5.43,0,0,0,0,1.53,1.11,1.11,0,0,0,.49.74,2.85,2.85,0,0,0,1.17.32l6,.64.39-3.59a3.34,3.34,0,0,0-.26-2.06,1.91,1.91,0,0,0-1.52-.77s0-.07,0-.18,0-.18.08-.17l2.38.28c.56.06,1,.1,1.29.11l1.41.12s.06.07,0,.19,0,.17-.07.17a2.35,2.35,0,0,0-1.92.43,3.13,3.13,0,0,0-.78,2l-.38,3.5,6.76.72a3,3,0,0,0,1.22,0,1,1,0,0,0,.6-.59,5.32,5.32,0,0,0,.3-1.45l.26-2.35a3.12,3.12,0,0,0-.75-2.46,5.37,5.37,0,0,0-2.63-1.56s0,0,0-.12a.42.42,0,0,1,0-.16c0-.05.06-.07.1-.06a28,28,0,0,0,3.85.68.44.44,0,0,1,.33.14.5.5,0,0,1,.06.37L28.1,142.65s-.07.06-.18,0-.18,0-.17-.07a6.07,6.07,0,0,0,0-1.65,1,1,0,0,0-.49-.77,3.3,3.3,0,0,0-1.29-.33l-13.6-1.46a3.3,3.3,0,0,0-1.32.06,1.06,1.06,0,0,0-.64.64,5.74,5.74,0,0,0-.34,1.61S10,140.77,9.91,140.76Zm15.4-21.31a.44.44,0,0,1,.34-.08.54.54,0,0,1,.32.23l3.1,6.09s0,0,0,.06a.14.14,0,0,1-.1.1.12.12,0,0,1-.14,0l-3.61-4.54-5.31,2.47s-.08,0-.13-.11,0-.12,0-.13Zm-4.46-.28,5.47-4.1a.46.46,0,0,1,.35-.07.48.48,0,0,1,.31.22l3.11,6.1s0,0,0,.06a.17.17,0,0,1-.09.1.14.14,0,0,1-.14,0l-3.62-4.54L21,119.4c-.05,0-.09,0-.13-.1S20.79,119.17,20.85,119.17ZM17.5,150.64c.05,0,.09,0,.11,0l4.63,3.53,4.52-3.68s.1,0,.17.08.07.11,0,.13L22.62,156a.45.45,0,0,1-.35.12A.46.46,0,0,1,22,156l-4.49-5.16s0,0,0-.06A.15.15,0,0,1,17.5,150.64Zm-.11-4.32c-.06,0-.06-.09,0-.16s.11-.08.15,0l4.63,3.53L26.7,146h0a.21.21,0,0,1,.14.07.1.1,0,0,1,0,.14l-4.32,5.29a.42.42,0,0,1-.35.13.52.52,0,0,1-.33-.11Zm-3.77,39.31c-.1,0-.15,0-.18-.13s0-.17.11-.19c.43-.09.53-.65.31-1.69-.28-1.65-.66-3.6-1.13-5.83-.24-1.14-.51-2.34-.82-3.61l-.44-2a6.16,6.16,0,0,0-.47-1.51.9.9,0,0,0-.72-.53.16.16,0,0,1-.15-.15c0-.1,0-.15.09-.17q.85-.09,2.58-.36c1.15-.18,2.08-.35,2.79-.5,0,0,.07.05.1.16s0,.18,0,.19a5,5,0,0,0-3,1.59,3.69,3.69,0,0,0-.32,3,10.76,10.76,0,0,0,.5,1.82,1,1,0,0,0,.65.65,3,3,0,0,0,1.31-.06l13.33-2.8a3.23,3.23,0,0,0,1.26-.48,1.15,1.15,0,0,0,.39-.9,9.13,9.13,0,0,0-.24-1.85c0-.06,0-.1.16-.12s.18,0,.19.05c.13.64.23,1.15.29,1.54l.44,2.26.49,2.16q.15.57.36,1.59s0,.07-.16.09-.18,0-.18,0a8.45,8.45,0,0,0-.53-1.79,1.18,1.18,0,0,0-.73-.68,3.12,3.12,0,0,0-1.34,0l-13.38,2.82a2.91,2.91,0,0,0-1.22.46,1,1,0,0,0-.3.85,11.23,11.23,0,0,0,.29,1.88A3.72,3.72,0,0,0,15.44,184a6.16,6.16,0,0,0,3.43.66s.07,0,.09.14,0,.17,0,.17c-.71.07-1.63.18-2.77.32S14.18,185.51,13.62,185.63Zm111.76,86.84a12.4,12.4,0,0,1,4.82-.5l.2-1.25a2,2,0,0,0-.07-1.09,1.43,1.43,0,0,0-.83-.7,8.52,8.52,0,0,0-2-.5s-.08-.07-.06-.19.06-.17.12-.16c.7.11,1.25.21,1.66.29l2.5.43,2.4.36c.43,0,1,.13,1.73.24.05,0,.08.07.06.19s-.06.17-.12.16a9.25,9.25,0,0,0-2-.15,1.56,1.56,0,0,0-1,.41,1.93,1.93,0,0,0-.41,1l-.19,1.2a11.29,11.29,0,0,1,4.54,1.83,7.62,7.62,0,0,1,2.63,3.09,6.51,6.51,0,0,1,.48,3.75,6.16,6.16,0,0,1-1.81,3.57,8.12,8.12,0,0,1-3.61,2,13.69,13.69,0,0,1-4.56.39l-.12.76a2.36,2.36,0,0,0,.05,1.25,1.38,1.38,0,0,0,.82.69,11.26,11.26,0,0,0,2,.47c.06,0,.08.07.06.17s-.05.16-.11.15c-.72-.11-1.29-.21-1.72-.3l-2.38-.41-2.55-.38c-.41,0-1-.12-1.64-.23,0,0-.07-.07-.06-.17s.06-.16.12-.15a8.93,8.93,0,0,0,2,.16,1.37,1.37,0,0,0,1-.42,2.46,2.46,0,0,0,.45-1.19l.1-.64a11.55,11.55,0,0,1-4.65-1.89,7.82,7.82,0,0,1-2.64-3.15,6.32,6.32,0,0,1-.48-3.62,6,6,0,0,1,1.69-3.32A8.74,8.74,0,0,1,125.38,272.47Zm-24-10.73c0-.11.1-.15.17-.13.36.12.9.33,1.64.62s1.26.49,1.6.6.94.3,1.59.48,1.07.3,1.39.4c.07,0,.09.1,0,.21s-.09.16-.17.13a4.67,4.67,0,0,0-1.57-.32.74.74,0,0,0-.71.51,3.57,3.57,0,0,0,0,1.33l.9,7.95,5.29,1.79,4.34-4.9a4.73,4.73,0,0,0,.92-1.43q.55-1.65-2.19-2.58c-.09,0-.12-.1-.08-.22s.1-.15.2-.12c.33.12.81.3,1.43.55s1.31.5,1.83.68,1,.34,1.7.51,1,.29,1.42.42c.09,0,.12.1.08.22s-.1.15-.19.12a2.94,2.94,0,0,0-1.43-.16,3.11,3.11,0,0,0-1.39.69,14.39,14.39,0,0,0-1.8,1.77L105.72,282.8a.23.23,0,0,1-.23,0c-.09,0-.14-.08-.14-.14l-1.9-16.15a11.63,11.63,0,0,0-.68-3.33,2.22,2.22,0,0,0-1.35-1.25C101.34,261.92,101.33,261.85,101.36,261.74ZM88,264.89a5.37,5.37,0,0,1-.45-1.37c-.12-.54-.25-1.41-.39-2.6l-.09-.76q-.32-2.37-.57-3.69a7.5,7.5,0,0,0-.83-2.27,4.24,4.24,0,0,0-1.56-1.53s0-.08,0-.18.1-.15.13-.13l3.28,1.76a1.23,1.23,0,0,1,.54.54,6.19,6.19,0,0,1,.34,1.51c.12.78.31,2.23.56,4.35.19,1.67.36,2.84.49,3.52a4.27,4.27,0,0,0,.63,1.63,4.21,4.21,0,0,0,1.46,1.16,1.39,1.39,0,0,0,.35.16l3.25-6.07a3.59,3.59,0,0,0,.46-1.25,1,1,0,0,0-.36-.84,6.29,6.29,0,0,0-1.4-.92s0-.08,0-.19.1-.14.14-.12c.54.29,1,.52,1.26.71l1.86,1,1.79.92c.32.15.76.38,1.31.67,0,0,0,.08,0,.19s-.1.14-.14.13a6.49,6.49,0,0,0-1.52-.66,1.05,1.05,0,0,0-.91.17,3.38,3.38,0,0,0-.79,1.07l-6.47,12.05a3.66,3.66,0,0,0-.46,1.23,1.1,1.1,0,0,0,.36.85,6.08,6.08,0,0,0,1.38.92s0,.08,0,.19-.1.14-.14.12l-1.26-.71c-.71-.42-1.29-.76-1.74-1s-1.15-.59-1.93-1l-1.27-.65s0-.08,0-.18.1-.15.13-.13a5.58,5.58,0,0,0,1.54.62A1.13,1.13,0,0,0,88,274a3.31,3.31,0,0,0,.79-1.06l2.94-5.5-1.77-.88-.49-.27L83.93,269a6,6,0,0,0-2.38,1.61.59.59,0,0,0,.06.67,2.75,2.75,0,0,0,.92.7s0,.08,0,.18-.1.15-.14.13l-1.1-.63c-.64-.38-1.25-.73-1.82-1s-1.21-.62-1.85-.92l-1-.48c-.06,0,0-.09,0-.2s.11-.14.16-.11a5,5,0,0,0,2.76.62,10.44,10.44,0,0,0,3.44-1l5.88-2.59A3,3,0,0,1,88,264.89ZM77.49,247.41a2.4,2.4,0,0,1,1.56.55,2.71,2.71,0,0,1,.94,1.21,1.27,1.27,0,0,1-.18,1.26,1.19,1.19,0,0,1-.79.47,1.14,1.14,0,0,1-.93-.26,1,1,0,0,1-.44-.68,2.83,2.83,0,0,1,.07-.89,2.26,2.26,0,0,0,.08-.56.43.43,0,0,0-.18-.33c-.31-.24-.83-.15-1.54.27l-2.14,1.16-2.07,13.45a6.38,6.38,0,0,0-.06,2,2,2,0,0,0,.84,1.21s0,.09-.06.18-.12.13-.15.1l-.92-.73q-.67-.58-1.17-1c-.58-.44-1.21-.89-1.9-1.36l-1-.69s0-.1,0-.2.13-.12.18-.08c1,.77,1.73.9,2.12.38a1.89,1.89,0,0,0,.29-.82l1.72-11.38-9.57,5.14a2.54,2.54,0,0,0-.74.59.9.9,0,0,0-.07,1,4.28,4.28,0,0,0,1.23,1.26c.05,0,0,.11,0,.2s-.13.12-.18.09l-.95-.76c-.51-.43-1-.82-1.42-1.15-.27-.2-.6-.43-1-.69l-.93-.67s0-.08.06-.18.12-.12.15-.1a2.33,2.33,0,0,0,1.53.43,4.3,4.3,0,0,0,1.91-.57l13.87-7.39A4,4,0,0,1,77.49,247.41ZM56,227.5c.09-.08.15-.1.19-.06.43.44.75.8,1,1.07L58.55,230,60,231.49c.26.24.6.59,1,1q.06.06-.06.18c-.09.08-.15.1-.19.06a7.06,7.06,0,0,0-1.27-1.1,1,1,0,0,0-.9-.11,3.17,3.17,0,0,0-1.08.77l-9.79,9.39a4.91,4.91,0,0,0-.88,1,.66.66,0,0,0,.07.67,10.5,10.5,0,0,0,1.1,1.28l1.05,1.09a4.59,4.59,0,0,0,1,.85,1,1,0,0,0,.91,0,4,4,0,0,0,1.24-.9,41.56,41.56,0,0,1,5.24-4.19,20.58,20.58,0,0,1,6.06-2.94c2-.57,3.55-.27,4.67.9a1.87,1.87,0,0,1,.54.94,1,1,0,0,1-.32.86c-.46.44-1,.35-1.57-.26l-.43-.45c-.77-.81-2-1-3.58-.6a18.3,18.3,0,0,0-5.18,2.39,32.36,32.36,0,0,0-4.94,3.86,2.91,2.91,0,0,0-1,1.81,3.23,3.23,0,0,0,1.16,2.12s0,.11-.07.19-.14.1-.18.06l-9.78-10.19s0-.11.06-.19.15-.1.19-.06a6,6,0,0,0,1.27,1.08,1.12,1.12,0,0,0,.91.13,3.24,3.24,0,0,0,1.07-.77L56.24,231a3.51,3.51,0,0,0,.81-1A1,1,0,0,0,57,229a7,7,0,0,0-1-1.29C55.89,227.64,55.91,227.58,56,227.5Zm-8.14-10.72a6.51,6.51,0,0,1,2.37,2.12c.3.42.63.93,1,1.55.14.23.33.53.56.88s.49.75.79,1.17l1.15,1.57c.23.3.53.71.91,1.24,0,0,0,.08-.11.15s-.16.09-.18,0a7.85,7.85,0,0,0-1.11-1.26,1.1,1.1,0,0,0-.88-.26,3.05,3.05,0,0,0-1.18.58L40,232.48a3.19,3.19,0,0,0-1,.91,1,1,0,0,0,0,.9,7.48,7.48,0,0,0,.8,1.44c0,.05,0,.11-.09.17s-.16.08-.19,0l-.8-1.17c-.42-.67-.79-1.22-1.11-1.67s-.76-1.05-1.3-1.73l-.86-1.16s0-.09.11-.16.16-.08.18,0a7.12,7.12,0,0,0,1.12,1.27,1.05,1.05,0,0,0,.89.26A3.53,3.53,0,0,0,39,230.9l4.82-3.42A17,17,0,0,1,41.6,225,7.39,7.39,0,0,1,40,220.75a4.3,4.3,0,0,1,2.13-3.43,5.9,5.9,0,0,1,2.87-1.1A5,5,0,0,1,47.85,216.78Zm-6.54-11.46a8.42,8.42,0,0,0-.75-1.71c0-.05,0-.11.11-.16s.17-.06.2,0c.31.57.54,1,.71,1.39l1.07,2,1.07,1.94c.21.34.47.81.8,1.42,0,0,0,.08-.13.13s-.17.07-.19,0a8.24,8.24,0,0,0-1-1.57,1.15,1.15,0,0,0-.89-.44,2.91,2.91,0,0,0-1.26.43l-12,6.47a2.83,2.83,0,0,0-1,.79,1,1,0,0,0-.05.9,12.18,12.18,0,0,0,.8,1.71,3.77,3.77,0,0,0,2.16,2,6.17,6.17,0,0,0,3.47-.34s.08,0,.13.11.06.16,0,.17l-2.57,1.08c-1.05.46-1.83.82-2.33,1.09a.14.14,0,0,1-.21-.07.15.15,0,0,1,.05-.22c.39-.2.32-.77-.18-1.71q-1.11-2.25-2.73-5.27c-.55-1-1.15-2.1-1.8-3.23l-1-1.76a6.2,6.2,0,0,0-.87-1.32.88.88,0,0,0-.84-.3c-.08,0-.14,0-.19-.1s0-.15,0-.19q.79-.33,2.37-1.08c1.05-.49,1.9-.91,2.54-1.26,0,0,.08,0,.14.13s.06.16,0,.18a5,5,0,0,0-2.4,2.37,3.68,3.68,0,0,0,.52,2.94,10.6,10.6,0,0,0,1,1.61,1,1,0,0,0,.8.44,3,3,0,0,0,1.25-.44l12-6.44a3.29,3.29,0,0,0,1.07-.81A1.13,1.13,0,0,0,41.31,205.32Zm-3.48-8.17s0,.07-.15.11-.17,0-.18,0a6.58,6.58,0,0,0-.7-1.49,1.06,1.06,0,0,0-.79-.47,3.51,3.51,0,0,0-1.3.27l-12.85,4.7a3.19,3.19,0,0,0-1.15.62,1.09,1.09,0,0,0-.3.87,5.57,5.57,0,0,0,.41,1.59s0,.08-.15.12-.17,0-.19,0l-4.07-11.15a.23.23,0,0,1,.16-.34L20,190.68c.06,0,.11,0,.15.11s0,.15,0,.19a3.65,3.65,0,0,0-2,1.72,3.08,3.08,0,0,0,0,2.44l.61,1.69a5.45,5.45,0,0,0,.68,1.38,1.12,1.12,0,0,0,.76.44,2.91,2.91,0,0,0,1.19-.23L27,196.36,25.74,193a3.4,3.4,0,0,0-1.14-1.74,1.91,1.91,0,0,0-1.71,0s-.07,0-.11-.15-.05-.17,0-.19l2.26-.79c.53-.2.94-.35,1.21-.47l1.32-.52s.08,0,.12.15,0,.17,0,.18a2.4,2.4,0,0,0-1.53,1.24,3.21,3.21,0,0,0,.2,2.18l1.21,3.3,6.38-2.33a3.06,3.06,0,0,0,1.08-.59,1,1,0,0,0,.27-.79,5.19,5.19,0,0,0-.37-1.44l-.81-2.22a3.11,3.11,0,0,0-1.75-1.87,5.42,5.42,0,0,0-3.05-.24s-.07,0-.09-.09a.51.51,0,0,1,0-.17.1.1,0,0,1,.06-.1A27,27,0,0,0,33,185.23a.46.46,0,0,1,.36,0,.49.49,0,0,1,.22.31Zm5.26-96a1.31,1.31,0,0,1-.22.35c-.09.09-.16.12-.24.09L18.73,91c-.13-.06-.11-.26.05-.63s.29-.48.41-.43L43.1,100.5c.07,0,.1.11.09.23A1.13,1.13,0,0,1,43.09,101.11Zm8.75-25.18A7.66,7.66,0,0,1,50.49,79a8.57,8.57,0,0,1-3.25,2.81.41.41,0,0,1-.28,0,1.44,1.44,0,0,1-.33-.15l-3.51-2c-.07,0-.09-.1,0-.2s.11-.13.18-.1a8.48,8.48,0,0,0,4,.67,4.23,4.23,0,0,0,3.22-1.91,3.8,3.8,0,0,0,.77-2.51,3.1,3.1,0,0,0-1.52-2.32,4.37,4.37,0,0,0-2.23-.84,5.81,5.81,0,0,0-2.14.24,26.73,26.73,0,0,0-2.54,1c-1,.44-1.84.76-2.49,1a5.27,5.27,0,0,1-2.07.22,4.26,4.26,0,0,1-2.14-.81,4.14,4.14,0,0,1-1.61-2.1,4.76,4.76,0,0,1-.11-2.57A6.84,6.84,0,0,1,35.53,67a8.77,8.77,0,0,1,2.57-2.42.53.53,0,0,1,.66-.07l2.9,1.78c.06,0,.07.11,0,.19s-.12.11-.2.08a6,6,0,0,0-3.06-.6,3.57,3.57,0,0,0-2.79,1.68A3,3,0,0,0,35,70.21a3.9,3.9,0,0,0,3.45,2.73,5.31,5.31,0,0,0,2-.29q.93-.32,2.49-1c1.09-.49,2-.84,2.63-1.07a5.61,5.61,0,0,1,2.14-.29,4.24,4.24,0,0,1,2.22.82,4.8,4.8,0,0,1,1.69,2.06A4.86,4.86,0,0,1,51.84,75.93ZM63.25,63c-.42.44-.75.78-1,1l-1.43,1.5-1.36,1.51c-.23.28-.55.64-1,1.08,0,0-.1,0-.19,0s-.11-.14-.07-.19a6.22,6.22,0,0,0,1-1.3,1,1,0,0,0,.06-.91,3.47,3.47,0,0,0-.83-1l-4.57-4.24-8.6-1.29A5.94,5.94,0,0,0,42.93,59a3,3,0,0,0-1.54.91s-.1,0-.19-.05-.11-.15-.07-.19.42-.42.77-.74l.73-.74c.45-.49,1-1.12,1.68-1.9l1.07-1.19s.08,0,.17.08.11.13.09.16c-.7.75-.9,1.27-.6,1.55a1.37,1.37,0,0,0,.75.29l8.34,1.26-1.59-6.4a3.51,3.51,0,0,0-.84-1.67q-.78-.72-1.86.45s-.08,0-.17-.08-.12-.13-.09-.16l1-1c.53-.52,1-1,1.45-1.47.22-.25.49-.56.78-.93l.72-.82s.08,0,.17.07.12.14.09.17a3.68,3.68,0,0,0-.89,2.11,7.31,7.31,0,0,0,.24,2.89l1.76,7,4.92,4.57a3.61,3.61,0,0,0,1.09.77,1,1,0,0,0,.89-.12A7,7,0,0,0,63,62.79s.1,0,.19.06S63.29,63,63.25,63Zm2.17-9.59c.07-.08.13-.1.2-.05a8.56,8.56,0,0,0,3.68,1.72,4.27,4.27,0,0,0,3.62-1,3.9,3.9,0,0,0,1.41-2.22,3.1,3.1,0,0,0-.85-2.64,4.42,4.42,0,0,0-1.92-1.41,5.71,5.71,0,0,0-2.13-.33,26.16,26.16,0,0,0-2.72.3,24,24,0,0,1-2.66.27A5.34,5.34,0,0,1,62,47.77a4.35,4.35,0,0,1-1.84-1.35,4.12,4.12,0,0,1-1-2.45,4.76,4.76,0,0,1,.58-2.51,7.07,7.07,0,0,1,1.74-2.09,9,9,0,0,1,3.12-1.65.54.54,0,0,1,.66.11l2.32,2.49c0,.06,0,.13,0,.19s-.15.07-.21,0a6.14,6.14,0,0,0-2.8-1.4,3.56,3.56,0,0,0-3.14.88,3,3,0,0,0-1.29,2.31A3.5,3.5,0,0,0,61,44.67a3.59,3.59,0,0,0,1.71,1.2,5.47,5.47,0,0,0,2,.24c.65,0,1.54-.14,2.66-.29s2.12-.29,2.82-.33a5.49,5.49,0,0,1,2.14.29,4.17,4.17,0,0,1,1.92,1.39,4.77,4.77,0,0,1,1.08,2.43,4.91,4.91,0,0,1-.45,2.73,7.56,7.56,0,0,1-2.13,2.6,8.47,8.47,0,0,1-3.88,1.85.5.5,0,0,1-.28,0,1.9,1.9,0,0,1-.28-.23l-2.84-2.86C65.34,53.6,65.34,53.54,65.42,53.45Z"/>
    </g>
    <path class="cls-1" d="M203.7,88.33a9.41,9.41,0,0,1-6,2.22c-11.25.65-46.28.66-46.28.66S148.6,70.53,167.69,75c-.32-.07-2.95-15.53-2.95-15.53-5.59,0-19.56.91-18.83,20.44.11,2.9.5,10,.5,10s-3.08-3.1-6.92-6.67c-10-9.29-26.81-5.64-34.38,3.87-8,10.09-2.82,32.22-2.82,32.22S66.69,174,117.79,223.84C132.34,238,150.61,246,150.61,247.75c0-6-.17-8.4,0-14,.86-1.7,42.3-25.74,37.81-51.32-1.11-4.29,1.11-9.52,1.11-9.52l-30.47,25-8.3-8.3c.14-10.9.31-24,.34-26.46q.06-3.89.12-7.74c13.73-.43,23.72-4.8,31-.6a17.14,17.14,0,0,1,3.16,2.34s1.38-11-3-17.27c-6.8-9.76-27.74-2.93-31.3-2.84,0-6.72,0-28.73,0-28.73A90.75,90.75,0,0,1,162.59,110c20.06,4.55,23.61,9.35,23.61,9.35a34.76,34.76,0,0,1-.08-7c.63-6.94,9.44-16.56,14.48-20C204.19,89.86,203.7,88.33,203.7,88.33Zm-56.68,20v29s-11.48-1.32-12.55-5.06c-5.34,2.2-2.95,8.13-2.95,8.13l-7.31-15.28c1.34-7.76,6.38-13.9,12.94-15.63A37.85,37.85,0,0,1,147,108.32Zm0,65.7s-7.38-15.24-9.52-18.6H147C146.81,155.64,147,174,147,174Zm-24.8-54c-3.17-8.69-3.8-10.41-4.21-11.52a42.07,42.07,0,0,1,20.81-13.06S121.14,104,122.22,120ZM132.4,81.47c4.53,1.21,7.88,5,12.95,9.41-2,.9-8.39,3-11.51,4.13a51.77,51.77,0,0,0-16.71,10.15S114,76.52,132.4,81.47Zm-8.85,126C87.28,178.73,94.8,149.79,104.15,125c3.19,6.25,30.58,56.77,31.35,68.47C136,201.51,130.2,212.72,123.55,207.45Zm12.78,10c-3.1-2.15-6.18-4.28-9.24-6.42a21.17,21.17,0,0,0,12.21-2,19.68,19.68,0,0,0,3-1.85l4.69,4.68c0,6,0,12.69,0,12.88C146.06,224.13,141.07,220.7,136.33,217.42ZM167.1,194c6.83.25,11.92,15-3,27.05-4.21,3.39-10.08,8.38-13.49,10.28,0-3.51,0-11.45-.08-17.21l12.41-12.41-2.53-2.53C163.35,196.79,166.1,194.62,167.1,194Z"/>
    <path class="cls-1" d="M150,266.93A116.94,116.94,0,1,1,266.94,150,117.07,117.07,0,0,1,150,266.93Zm0-231.81A114.88,114.88,0,1,0,264.87,150,115,115,0,0,0,150,35.12Z"/>
  </g>
</svg>
