<?xml version="1.0" encoding="UTF-8"?>
<svg id="_Слой_2" data-name="Слой 2" xmlns="http://www.w3.org/2000/svg" viewBox="0 0 272.12 544.25">
  <defs>
    <style>
      .cls-1 {
        fill: #efefef;
      }

      .cls-2 {
        fill: #ccc;
      }
    </style>
  </defs>
  <g id="_Слой_1-2" data-name="Слой 1">
    <g>
      <g>
        <rect class="cls-2" width="136.06" height="136.06"/>
        <rect class="cls-1" x="136.06" width="136.06" height="136.06"/>
        <rect class="cls-1" y="136.06" width="136.06" height="136.06"/>
        <rect class="cls-2" x="136.06" y="136.06" width="136.06" height="136.06"/>
        <path class="cls-2" d="M94.59,169.61s-1.03,1.05-3.17,1.17c-5.97,.35-24.53,.35-24.53,.35,0,0-1.51-10.96,8.61-8.59-.17-.04-1.56-8.23-1.56-8.23-2.97,0-10.37,.48-9.98,10.84,.06,1.54,.26,5.29,.26,5.29,0,0-1.63-1.64-3.67-3.53-5.3-4.93-14.21-2.99-18.22,2.05-4.26,5.35-1.49,17.08-1.49,17.08,0,0-18.88,28.99,8.22,55.4,7.71,7.52,17.4,11.72,17.4,12.68,0-3.17-.09-4.45,0-7.42,.46-.9,22.42-13.64,20.04-27.2-.59-2.28,.59-5.05,.59-5.05l-16.15,13.26-4.4-4.4c.08-5.78,.17-12.74,.18-14.02,.02-1.37,.04-2.74,.06-4.1,7.28-.23,12.57-2.55,16.45-.32,.72,.41,1.25,.85,1.67,1.24,0,0,.73-5.85-1.57-9.15-3.61-5.17-14.7-1.55-16.59-1.51,0-3.56,0-15.22,0-15.22,0,0,3.23,.24,6.07,.89,10.63,2.41,12.51,4.96,12.51,4.96,0,0-.23-1.67-.04-3.73,.34-3.68,5-8.78,7.67-10.6,1.91-1.3,1.64-2.11,1.64-2.11Zm-30.05,10.6v15.36s-6.09-.7-6.65-2.68c-2.83,1.17-1.57,4.31-1.57,4.31l-3.87-8.1c.71-4.11,3.38-7.37,6.86-8.28,2.36-.62,4-.57,5.23-.6Zm0,34.83s-3.91-8.08-5.05-9.86h5.05c-.11,.12,0,9.86,0,9.86Zm-13.15-28.64c-1.68-4.6-2.02-5.52-2.23-6.1,.99-1.14,2.4-2.54,4.31-3.84,2.56-1.74,5-2.62,6.72-3.09,0,0-9.38,4.54-8.8,13.03Zm5.4-20.42c2.4,.64,4.18,2.65,6.86,4.99-1.06,.47-4.45,1.59-6.1,2.19-5.26,1.9-8.86,5.38-8.86,5.38,0,0-1.68-15.18,8.1-12.56Zm-4.69,66.78c-19.23-15.22-15.24-30.57-10.28-43.69,1.69,3.32,16.21,30.09,16.62,36.3,.28,4.25-2.81,10.19-6.34,7.39Zm6.78,5.28c-1.64-1.14-3.28-2.27-4.9-3.4,1.02,.14,3.65,.36,6.47-1.05,.6-.3,1.13-.64,1.6-.98l2.48,2.48c0,3.18,0,6.72,0,6.83-.51-.31-3.15-2.13-5.66-3.87Zm16.31-12.39c3.62,.13,6.32,7.93-1.62,14.34-2.23,1.8-5.34,4.44-7.15,5.45,0-1.86-.02-6.07-.04-9.12l6.58-6.58-1.34-1.34c1.58-1.29,3.04-2.44,3.57-2.75Z"/>
        <path class="cls-1" d="M243.74,175.59s-.68-.48-3.18,2.32c-4.04,4.54-20.17-2.66-33.81-7.24-.16-1.59-.27-6.18,3.4-7.86,2.61-1.2,5.28-.18,5.28-.18l-1.56-8.23s-4.71-.72-7.99,3.12c-3.1,3.63-2.48,9.61-2.03,12.21-6.71-2.1-12.5-3.25-15.47-1.58-2.38,1.4-4.28,4.36-5.53,6.68-4.42,8.91-.47,14.12,9.34,11.09l2.22-.58c-9.86,8.45-17.42,19.54-18.39,32.54-1.14,15.3,9.46,21.32,20.96,29.46,6.21,4.4,9.34,6.75,9.34,6.75,0,0,.01-6.58,.02-15.84l5.68-5.68-5.67-5.67c.02-18.43,.02-40.45-.04-46.24,5.5,1.23,21.04,7.86,26.49,7.9-1.12,3.08,.35,7.09,4.32,6.19-9.67-1.88,6.61-19.16,6.61-19.16Zm-49.92,9.16c-3.3,1.48-12.65,3.7-11.96-4.05,.75-8.48,15.27-2.54,21.3-.97-3.43,1.34-5.69,3.73-9.34,5.02Zm-12.38,25.81c.78-7.62,4.09-14.62,9.34-20.44-2.81,6.55-.95,12.58,1.99,19.38,1.87,4.8,3.59,8.65,4.67,13.66,.93,4.62-.81,10.34-6.54,9.69-5.72-6.1-9.39-13.62-9.46-22.3Zm23.14,16.4l-5.62,5.62,5.53,5.53c-.02,1.73-.03,3.09-.04,3.98-5.22-2.49-9.34-5.29-12.61-8.41,14.09-2.24,13.34-15.34,10.73-23.6-2.9-9.17-6.67-13.06-5.73-19.36,.41-2.73,2.28-6.58,7.61-10.76,.34,7.76,.25,30.94,.13,46.99Z"/>
        <path class="cls-1" d="M86.98,53.65c-2.08-6.87,3.2-14.79,5.41-17.71,.15-.19-.09-.44-.29-.31-2.61,1.73-9.05,5.43-15.15,4.74-10.18-1.15-12.85,5.83-12.85,5.83,0,0,0-2.35,.2-4.49,.42-4.31,1.52-10.37,4.34-11.66,2.61-1.2,5.28-.18,5.28-.18l-1.56-8.23s-4.71-.72-7.99,3.12c-2.91,3.4-2.33,15.95-2.3,17.82,0,.2,.01,.79,.01,.79,.89,23.39,.74,42.38,.7,45.74l-5.17,5.17,5.2,5.2,.07,6.12c-1.99-2.78-7.1-4.32-12.02-5.34-5.54-1.16-13.63-3.17-13.63-3.17,0,0,2.21-1.82,4.6-4.25,8.7-8.85,18.84-20.13,19.38-32.41,.26-11.8-8.14-28.95-21.59-28.41-.95,4.08-8.93,8.6-11.8,11.82-.78,.88-1.18,3.21,.1,2.43,2.89-6.69,12.56-4.5,16.59-.21,13.55,14.38,4.11,32.24-.51,39.47-3.62,5.67-8.81,10.99-9.53,10.82-5.81-1.33-7.97-3.27-7.97-3.27,0,0-2.47,7.61,7.37,10.67,10.37,3.22,12.13,3.81,22.04,6.44,4.35,.99,8.72,4.97,8.72,4.97,0,0-.23-1.97,.11-3.02,1.75-5.4,28.25-5.94,32.62-19.13,6.36-19.15-8.25-32.27-10.41-39.4Zm-4.59,45.55c-3.58,4-17.69,10.28-17.69,10.28l-.13-10.21,4.96-4.96-5.27-5.27c0-2.82,.02-14.34,.01-18.23,0-4.53-.12-9.73,0-14.26,.08-2.93-.61-7.24,3.06-7.29,4.13-.06,8.75-.08,12.89-.21-1.41,1.48-3.23,2.97-4.75,4.44,.82,3.59,20.07,31.03,6.91,45.72Z"/>
        <path class="cls-2" d="M220.41,57.04c-6.42-1.05-15.57-1.04-15.57-1.04,0,0-.13-2.25-.03-8.25l.18,.73s-.08-.77-.16-2c0-.02,0-.04,0-.07,0,0,8.47-.53,16.99,4.61,1.15,.69,.8,1.08,1.2,1.45,.3,.27,.78,.01,.71-.39-.37-2.14-.55-6.96,3.87-11.46,2.74-2.97,3.65-4.96,3.65-4.96,0,0-1.98,1.01-5.34,1.14-1.85,.16-8.79,.2-18.46,.4-1.16-.01-1.97-.07-2.59-.18,.36-3.86,1.28-7.42,3.4-8.27,2.26-.9,4.46-.15,4.46-.15l-1.32-6.96s-3.98-.61-6.76,2.64c-1.95,2.28-2.16,7.47-1.98,11.49-.16-.16-.33-.34-.53-.53-3.03-3.01-7.67-9.45-17.03-1.24-9.11,7.99-3.53,25.89,6.97,29.11,5.42,1.62,10.79,1.58,10.79,1.58v14.58s0-10.27-19.73-6.7c-7.13,1.29-14.81,3.68-15.76-2.57-2.99,5.28,.1,10.89,4.33,11.21,10.59,.81,24.69-6.95,30.15,4.04,.13,.26,.25,.54,.35,.84l-5.44,5.44,6.19,6.19c-.12,2.36-.26,4.29-.09,5.06-8.2-3.86-17.68-13.99-27.2-8.2-3.15,1.91-4.09,4.54-4.09,4.54-.81,2.32-.32,4.78,.54,6.29,2.07,3.6,6.09,4.34,6.09,4.34l.44-.9c-3.38-.29-4.97-2.07-5.63-3.09-1.73-2.89,2.24-7.23,8.44-6.39,8.44,1.15,22.42,15.67,22.42,15.67,0,0,25.86-15.75,31.22-34.23,2.65-9.15-3.41-21.91-14.69-23.76Zm-28.7-1.39s-4.28,.11-7.15-3c-2.47-2.67-3.16-5.8-3.05-9.4,.36-11.42,15.51-16.62,20.13-5.55-15.1,3.53-9.93,17.95-9.93,17.95Zm11.17,.35l-10.34-.34s-3.52-10.77,10.34-9.18v9.52Zm24.05,26.91c-.82,16.3-21.01,29.33-22.26,29.88,0,0,0-6.4,0-6.4-.03-.76,.04-7.19,0-8.09-.02-.16-.03-.37-.04-.62l6.14-6.14-5.97-5.97c.05-2.55,.07-5.08,.04-7.17-.08-4.26-.1-9.49,0-13.71,.77-.14,12.05-2.03,18.41,5.51,4.08,4.83,3.78,10.75,3.68,12.72Z"/>
      </g>
      <g>
        <rect class="cls-2" y="272.12" width="136.06" height="136.06"/>
        <rect class="cls-1" x="136.06" y="272.12" width="136.06" height="136.06"/>
        <rect class="cls-1" y="408.19" width="136.06" height="136.06"/>
        <rect class="cls-2" x="136.06" y="408.19" width="136.06" height="136.06"/>
        <path class="cls-2" d="M94.59,441.73s-1.03,1.05-3.17,1.17c-5.97,.35-24.53,.35-24.53,.35,0,0-1.51-10.96,8.61-8.59-.17-.04-1.56-8.23-1.56-8.23-2.97,0-10.37,.48-9.98,10.84,.06,1.54,.26,5.29,.26,5.29,0,0-1.63-1.64-3.67-3.53-5.3-4.93-14.21-2.99-18.22,2.05-4.26,5.35-1.49,17.08-1.49,17.08,0,0-18.88,28.99,8.22,55.4,7.71,7.52,17.4,11.72,17.4,12.68,0-3.17-.09-4.45,0-7.42,.46-.9,22.42-13.64,20.04-27.2-.59-2.28,.59-5.05,.59-5.05l-16.15,13.26-4.4-4.4c.08-5.78,.17-12.74,.18-14.02,.02-1.37,.04-2.74,.06-4.1,7.28-.23,12.57-2.55,16.45-.32,.72,.41,1.25,.85,1.67,1.24,0,0,.73-5.85-1.57-9.15-3.61-5.17-14.7-1.55-16.59-1.51,0-3.56,0-15.22,0-15.22,0,0,3.23,.24,6.07,.89,10.63,2.41,12.51,4.96,12.51,4.96,0,0-.23-1.67-.04-3.73,.34-3.68,5-8.78,7.67-10.6,1.91-1.3,1.64-2.11,1.64-2.11Zm-30.05,10.6v15.36s-6.09-.7-6.65-2.68c-2.83,1.17-1.57,4.31-1.57,4.31l-3.87-8.1c.71-4.11,3.38-7.37,6.86-8.28,2.36-.62,4-.57,5.23-.6Zm0,34.83s-3.91-8.08-5.05-9.86h5.05c-.11,.12,0,9.86,0,9.86Zm-13.15-28.64c-1.68-4.6-2.02-5.52-2.23-6.1,.99-1.14,2.4-2.54,4.31-3.84,2.56-1.74,5-2.62,6.72-3.09,0,0-9.38,4.54-8.8,13.03Zm5.4-20.42c2.4,.64,4.18,2.65,6.86,4.99-1.06,.47-4.45,1.59-6.1,2.19-5.26,1.9-8.86,5.38-8.86,5.38,0,0-1.68-15.18,8.1-12.56Zm-4.69,66.78c-19.23-15.22-15.24-30.57-10.28-43.69,1.69,3.32,16.21,30.09,16.62,36.3,.28,4.25-2.81,10.19-6.34,7.39Zm6.78,5.28c-1.64-1.14-3.28-2.27-4.9-3.4,1.02,.14,3.65,.36,6.47-1.05,.6-.3,1.13-.64,1.6-.98l2.48,2.48c0,3.18,0,6.72,0,6.83-.51-.31-3.15-2.13-5.66-3.87Zm16.31-12.39c3.62,.13,6.32,7.93-1.62,14.34-2.23,1.8-5.34,4.44-7.15,5.45,0-1.86-.02-6.07-.04-9.12l6.58-6.58-1.34-1.34c1.58-1.29,3.04-2.44,3.57-2.75Z"/>
        <path class="cls-1" d="M243.74,447.71s-.68-.48-3.18,2.32c-4.04,4.54-20.17-2.66-33.81-7.24-.16-1.59-.27-6.18,3.4-7.86,2.61-1.2,5.28-.18,5.28-.18l-1.56-8.23s-4.71-.72-7.99,3.12c-3.1,3.63-2.48,9.61-2.03,12.21-6.71-2.1-12.5-3.25-15.47-1.58-2.38,1.4-4.28,4.36-5.53,6.68-4.42,8.91-.47,14.12,9.34,11.09l2.22-.58c-9.86,8.45-17.42,19.54-18.39,32.54-1.14,15.3,9.46,21.32,20.96,29.46,6.21,4.4,9.34,6.75,9.34,6.75,0,0,.01-6.58,.02-15.84l5.68-5.68-5.67-5.67c.02-18.43,.02-40.45-.04-46.24,5.5,1.23,21.04,7.86,26.49,7.9-1.12,3.08,.35,7.09,4.32,6.19-9.67-1.88,6.61-19.16,6.61-19.16Zm-49.92,9.16c-3.3,1.48-12.65,3.7-11.96-4.05,.75-8.48,15.27-2.54,21.3-.97-3.43,1.34-5.69,3.73-9.34,5.02Zm-12.38,25.81c.78-7.62,4.09-14.62,9.34-20.44-2.81,6.55-.95,12.58,1.99,19.38,1.87,4.8,3.59,8.65,4.67,13.66,.93,4.62-.81,10.34-6.54,9.69-5.72-6.1-9.39-13.62-9.46-22.3Zm23.14,16.4l-5.62,5.62,5.53,5.53c-.02,1.73-.03,3.09-.04,3.98-5.22-2.49-9.34-5.29-12.61-8.41,14.09-2.24,13.34-15.34,10.73-23.6-2.9-9.17-6.67-13.06-5.73-19.36,.41-2.73,2.28-6.58,7.61-10.76,.34,7.76,.25,30.94,.13,46.99Z"/>
        <path class="cls-1" d="M86.98,325.77c-2.08-6.87,3.2-14.79,5.41-17.71,.15-.19-.09-.44-.29-.31-2.61,1.73-9.05,5.43-15.15,4.74-10.18-1.15-12.85,5.83-12.85,5.83,0,0,0-2.35,.2-4.49,.42-4.31,1.52-10.37,4.34-11.66,2.61-1.2,5.28-.18,5.28-.18l-1.56-8.23s-4.71-.72-7.99,3.12c-2.91,3.4-2.33,15.95-2.3,17.82,0,.2,.01,.79,.01,.79,.89,23.39,.74,42.38,.7,45.74l-5.17,5.17,5.2,5.2,.07,6.12c-1.99-2.78-7.1-4.32-12.02-5.34-5.54-1.16-13.63-3.17-13.63-3.17,0,0,2.21-1.82,4.6-4.25,8.7-8.85,18.84-20.13,19.38-32.41,.26-11.8-8.14-28.95-21.59-28.41-.95,4.08-8.93,8.6-11.8,11.82-.78,.88-1.18,3.21,.1,2.43,2.89-6.69,12.56-4.5,16.59-.21,13.55,14.38,4.11,32.24-.51,39.47-3.62,5.67-8.81,10.99-9.53,10.82-5.81-1.33-7.97-3.27-7.97-3.27,0,0-2.47,7.61,7.37,10.67,10.37,3.22,12.13,3.81,22.04,6.44,4.35,.99,8.72,4.97,8.72,4.97,0,0-.23-1.97,.11-3.02,1.75-5.4,28.25-5.94,32.62-19.13,6.36-19.15-8.25-32.27-10.41-39.4Zm-4.59,45.55c-3.58,4-17.69,10.28-17.69,10.28l-.13-10.21,4.96-4.96-5.27-5.27c0-2.82,.02-14.34,.01-18.23,0-4.53-.12-9.73,0-14.26,.08-2.93-.61-7.24,3.06-7.29,4.13-.06,8.75-.08,12.89-.21-1.41,1.48-3.23,2.97-4.75,4.44,.82,3.59,20.07,31.03,6.91,45.72Z"/>
        <path class="cls-2" d="M220.41,329.17c-6.42-1.05-15.57-1.04-15.57-1.04,0,0-.13-2.25-.03-8.25l.18,.73s-.08-.77-.16-2c0-.02,0-.04,0-.07,0,0,8.47-.53,16.99,4.61,1.15,.69,.8,1.08,1.2,1.45,.3,.27,.78,.01,.71-.39-.37-2.14-.55-6.96,3.87-11.46,2.74-2.97,3.65-4.96,3.65-4.96,0,0-1.98,1.01-5.34,1.14-1.85,.16-8.79,.2-18.46,.4-1.16-.01-1.97-.07-2.59-.18,.36-3.86,1.28-7.42,3.4-8.27,2.26-.9,4.46-.15,4.46-.15l-1.32-6.96s-3.98-.61-6.76,2.64c-1.95,2.28-2.16,7.47-1.98,11.49-.16-.16-.33-.34-.53-.53-3.03-3.01-7.67-9.45-17.03-1.24-9.11,7.99-3.53,25.89,6.97,29.11,5.42,1.62,10.79,1.58,10.79,1.58v14.58s0-10.27-19.73-6.7c-7.13,1.29-14.81,3.68-15.76-2.57-2.99,5.28,.1,10.89,4.33,11.21,10.59,.81,24.69-6.95,30.15,4.04,.13,.26,.25,.54,.35,.84l-5.44,5.44,6.19,6.19c-.12,2.36-.26,4.29-.09,5.06-8.2-3.86-17.68-13.99-27.2-8.2-3.15,1.91-4.09,4.54-4.09,4.54-.81,2.32-.32,4.78,.54,6.29,2.07,3.6,6.09,4.34,6.09,4.34l.44-.9c-3.38-.29-4.97-2.07-5.63-3.09-1.73-2.89,2.24-7.23,8.44-6.39,8.44,1.15,22.42,15.67,22.42,15.67,0,0,25.86-15.75,31.22-34.23,2.65-9.15-3.41-21.91-14.69-23.76Zm-28.7-1.39s-4.28,.11-7.15-3c-2.47-2.67-3.16-5.8-3.05-9.4,.36-11.42,15.51-16.62,20.13-5.55-15.1,3.53-9.93,17.95-9.93,17.95Zm11.17,.35l-10.34-.34s-3.52-10.77,10.34-9.18v9.52Zm24.05,26.91c-.82,16.3-21.01,29.33-22.26,29.88,0,0,0-6.4,0-6.4-.03-.76,.04-7.19,0-8.09-.02-.16-.03-.37-.04-.62l6.14-6.14-5.97-5.97c.05-2.55,.07-5.08,.04-7.17-.08-4.26-.1-9.49,0-13.71,.77-.14,12.05-2.03,18.41,5.51,4.08,4.83,3.78,10.75,3.68,12.72Z"/>
      </g>
    </g>
  </g>
</svg>