<?xml version="1.0" encoding="UTF-8"?>
<svg id="_Слой_2" data-name="Слой 2" xmlns="http://www.w3.org/2000/svg" xmlns:xlink="http://www.w3.org/1999/xlink" viewBox="0 0 271.03 542.15">
  <defs>
    <style>
      .cls-1 {
        fill: none;
      }

      .cls-2 {
        clip-path: url(#clippath);
      }

      .cls-3 {
        fill: #efefef;
      }

      .cls-4 {
        fill: #bcc7d1;
      }

      .cls-5 {
        fill: #244371;
      }

      .cls-6 {
        clip-path: url(#clippath-1);
      }

      .cls-7 {
        clip-path: url(#clippath-3);
      }

      .cls-8 {
        clip-path: url(#clippath-2);
      }
    </style>
    <clipPath id="clippath">
      <rect class="cls-1" x="135.55" width="135.49" height="135.49" transform="translate(406.58 135.49) rotate(180)"/>
    </clipPath>
    <clipPath id="clippath-1">
      <rect class="cls-1" y="135.81" width="135.49" height="135.49"/>
    </clipPath>
    <clipPath id="clippath-2">
      <rect class="cls-1" x="135.55" y="271.26" width="135.49" height="135.49" transform="translate(406.58 678.01) rotate(180)"/>
    </clipPath>
    <clipPath id="clippath-3">
      <rect class="cls-1" y="406.67" width="135.49" height="135.49"/>
    </clipPath>
  </defs>
  <g id="_Слой_1-2" data-name="Слой 1">
    <g>
      <g>
        <rect class="cls-5" width="135.49" height="135.49"/>
        <path class="cls-3" d="M82.87,50.77c-6.39-1.05-15.5-1.04-15.5-1.04,0,0-.13-2.24-.03-8.21l.18,.73s-.08-.77-.16-1.99c0-.02,0-.04,0-.07,0,0,8.43-.53,16.92,4.59,1.14,.69,.8,1.08,1.2,1.44,.3,.27,.77,.01,.7-.39-.37-2.13-.54-6.93,3.85-11.41,2.73-2.95,3.63-4.94,3.63-4.94,0,0-1.97,1.01-5.31,1.13-1.84,.15-8.75,.2-18.38,.4-1.16-.01-1.97-.07-2.58-.18,.35-3.85,1.27-7.39,3.39-8.23,2.25-.9,4.44-.15,4.44-.15l-1.31-6.93s-3.97-.61-6.73,2.63c-1.94,2.27-2.15,7.44-1.97,11.44-.16-.16-.33-.34-.53-.53-3.01-3-7.64-9.41-16.96-1.23-9.07,7.95-3.52,25.78,6.94,28.99,5.4,1.61,10.74,1.57,10.74,1.57v14.52s0-10.23-19.64-6.67c-7.1,1.29-14.75,3.66-15.69-2.56-2.98,5.26,.1,10.84,4.31,11.16,10.54,.81,24.59-6.92,30.02,4.02,.13,.26,.24,.54,.35,.83l-5.42,5.42,6.17,6.17c-.12,2.35-.26,4.27-.09,5.04-8.17-3.84-17.61-13.93-27.09-8.17-3.13,1.9-4.07,4.52-4.07,4.52-.81,2.31-.32,4.76,.54,6.26,2.06,3.59,6.06,4.32,6.06,4.32l.44-.9c-3.37-.29-4.95-2.06-5.61-3.08-1.73-2.88,2.23-7.2,8.4-6.36,8.4,1.14,22.33,15.61,22.33,15.61,0,0,25.75-15.68,31.09-34.09,2.64-9.11-3.39-21.82-14.63-23.66Zm-28.58-1.38s-4.26,.11-7.12-2.98c-2.46-2.66-3.15-5.78-3.04-9.36,.36-11.37,15.44-16.55,20.05-5.53-15.04,3.51-9.89,17.87-9.89,17.87Zm11.12,.34l-10.3-.34s-3.51-10.72,10.3-9.14v9.48Zm23.95,26.79c-.82,16.24-20.92,29.21-22.16,29.76,0,0,0-6.38,0-6.38-.03-.76,.04-7.16,0-8.06-.02-.16-.03-.37-.04-.61l6.12-6.12-5.94-5.94c.05-2.54,.07-5.06,.04-7.14-.08-4.24-.09-9.45,0-13.65,.77-.14,12-2.02,18.33,5.48,4.06,4.81,3.76,10.71,3.66,12.66Z"/>
      </g>
      <g>
        <rect class="cls-4" x="135.55" width="135.49" height="135.49" transform="translate(406.58 135.49) rotate(180)"/>
        <g class="cls-2">
          <rect class="cls-3" x="12.82" y="147.95" width="245.37" height="6.19" transform="translate(124.5 353.67) rotate(-135)"/>
          <rect class="cls-3" x="21.64" y="139.13" width="245.37" height="6.19" transform="translate(145.8 344.85) rotate(-135)"/>
          <rect class="cls-3" x="30.46" y="130.31" width="245.37" height="6.19" transform="translate(167.1 336.02) rotate(-135)"/>
          <rect class="cls-3" x="39.28" y="121.49" width="245.37" height="6.19" transform="translate(188.4 327.2) rotate(-135)"/>
          <rect class="cls-3" x="48.1" y="112.66" width="245.37" height="6.19" transform="translate(209.7 318.38) rotate(-135)"/>
          <rect class="cls-3" x="56.93" y="103.84" width="245.37" height="6.19" transform="translate(230.99 309.56) rotate(-135)"/>
          <rect class="cls-3" x="65.75" y="95.02" width="245.37" height="6.19" transform="translate(252.29 300.74) rotate(-135)"/>
          <rect class="cls-3" x="74.57" y="86.2" width="245.37" height="6.19" transform="translate(273.59 291.91) rotate(-135)"/>
          <rect class="cls-3" x="83.39" y="77.38" width="245.37" height="6.19" transform="translate(294.89 283.09) rotate(-135)"/>
          <rect class="cls-3" x="92.21" y="68.55" width="245.37" height="6.19" transform="translate(316.19 274.27) rotate(-135)"/>
          <rect class="cls-3" x="101.03" y="59.73" width="245.37" height="6.19" transform="translate(337.48 265.45) rotate(-135)"/>
          <rect class="cls-3" x="109.86" y="50.91" width="245.37" height="6.19" transform="translate(358.78 256.63) rotate(-135)"/>
          <rect class="cls-3" x="118.68" y="42.09" width="245.37" height="6.19" transform="translate(380.08 247.8) rotate(-135)"/>
          <rect class="cls-3" x="127.5" y="33.27" width="245.37" height="6.19" transform="translate(401.38 238.98) rotate(-135)"/>
          <rect class="cls-3" x="136.32" y="24.45" width="245.37" height="6.19" transform="translate(422.67 230.16) rotate(-135)"/>
          <rect class="cls-3" x="145.14" y="15.62" width="245.37" height="6.19" transform="translate(443.97 221.34) rotate(-135)"/>
          <rect class="cls-3" x="153.97" y="6.8" width="245.37" height="6.19" transform="translate(465.27 212.52) rotate(-135)"/>
          <rect class="cls-3" x="162.79" y="-2.02" width="245.37" height="6.19" transform="translate(486.57 203.69) rotate(-135)"/>
        </g>
      </g>
      <g>
        <rect class="cls-5" x="135.55" y="135.81" width="135.49" height="135.49"/>
        <path class="cls-3" d="M218.42,186.58c-6.39-1.05-15.5-1.04-15.5-1.04,0,0-.13-2.24-.03-8.21l.18,.73s-.08-.77-.16-1.99c0-.02,0-.04,0-.07,0,0,8.43-.53,16.92,4.59,1.14,.69,.8,1.08,1.2,1.44,.3,.27,.77,.01,.7-.39-.37-2.13-.54-6.93,3.85-11.41,2.73-2.95,3.63-4.94,3.63-4.94,0,0-1.97,1.01-5.31,1.13-1.84,.15-8.75,.2-18.38,.4-1.16-.01-1.97-.07-2.58-.18,.35-3.85,1.27-7.39,3.39-8.23,2.25-.9,4.44-.15,4.44-.15l-1.31-6.93s-3.97-.61-6.73,2.63c-1.94,2.27-2.15,7.44-1.97,11.44-.16-.16-.33-.34-.53-.53-3.01-3-7.64-9.41-16.96-1.23-9.07,7.95-3.52,25.78,6.94,28.99,5.4,1.61,10.74,1.57,10.74,1.57v14.52s0-10.23-19.64-6.67c-7.1,1.29-14.75,3.66-15.69-2.56-2.98,5.26,.1,10.84,4.31,11.16,10.54,.81,24.59-6.92,30.02,4.02,.13,.26,.24,.54,.35,.83l-5.42,5.42,6.17,6.17c-.12,2.35-.26,4.27-.09,5.04-8.17-3.84-17.61-13.93-27.09-8.17-3.13,1.9-4.07,4.52-4.07,4.52-.81,2.31-.32,4.76,.54,6.26,2.06,3.59,6.06,4.32,6.06,4.32l.44-.9c-3.37-.29-4.95-2.06-5.61-3.08-1.73-2.88,2.23-7.2,8.4-6.36,8.4,1.14,22.33,15.61,22.33,15.61,0,0,25.75-15.68,31.09-34.09,2.64-9.11-3.39-21.82-14.63-23.66Zm-28.58-1.38s-4.26,.11-7.12-2.98c-2.46-2.66-3.15-5.78-3.04-9.36,.36-11.37,15.44-16.55,20.05-5.53-15.04,3.51-9.89,17.87-9.89,17.87Zm11.12,.34l-10.3-.34s-3.51-10.72,10.3-9.14v9.48Zm23.95,26.79c-.82,16.24-20.92,29.21-22.16,29.76,0,0,0-6.38,0-6.38-.03-.76,.04-7.16,0-8.06-.02-.16-.03-.37-.04-.61l6.12-6.12-5.94-5.94c.05-2.54,.07-5.06,.04-7.14-.08-4.24-.09-9.45,0-13.65,.77-.14,12-2.02,18.33,5.48,4.06,4.81,3.76,10.71,3.66,12.66Z"/>
      </g>
      <g>
        <rect class="cls-4" y="135.81" width="135.49" height="135.49"/>
        <g class="cls-6">
          <rect class="cls-3" x="12.85" y="117.16" width="245.37" height="6.19" transform="translate(124.73 -60.62) rotate(45)"/>
          <rect class="cls-3" x="4.03" y="125.98" width="245.37" height="6.19" transform="translate(128.38 -51.8) rotate(45)"/>
          <rect class="cls-3" x="-4.79" y="134.8" width="245.37" height="6.19" transform="translate(132.04 -42.97) rotate(45)"/>
          <rect class="cls-3" x="-13.61" y="143.62" width="245.37" height="6.19" transform="translate(135.69 -34.15) rotate(45)"/>
          <rect class="cls-3" x="-22.44" y="152.44" width="245.37" height="6.19" transform="translate(139.34 -25.33) rotate(45)"/>
          <rect class="cls-3" x="-31.26" y="161.27" width="245.37" height="6.19" transform="translate(143 -16.51) rotate(45)"/>
          <rect class="cls-3" x="-40.08" y="170.09" width="245.37" height="6.19" transform="translate(146.65 -7.69) rotate(45)"/>
          <rect class="cls-3" x="-48.9" y="178.91" width="245.37" height="6.19" transform="translate(150.31 1.14) rotate(45)"/>
          <rect class="cls-3" x="-57.72" y="187.73" width="245.37" height="6.19" transform="translate(153.96 9.96) rotate(45)"/>
          <rect class="cls-3" x="-66.54" y="196.55" width="245.37" height="6.19" transform="translate(157.62 18.78) rotate(45)"/>
          <rect class="cls-3" x="-75.37" y="205.37" width="245.37" height="6.19" transform="translate(161.27 27.6) rotate(45)"/>
          <rect class="cls-3" x="-84.19" y="214.2" width="245.37" height="6.19" transform="translate(164.92 36.42) rotate(45)"/>
          <rect class="cls-3" x="-93.01" y="223.02" width="245.37" height="6.19" transform="translate(168.58 45.25) rotate(45)"/>
          <rect class="cls-3" x="-101.83" y="231.84" width="245.37" height="6.19" transform="translate(172.23 54.07) rotate(45)"/>
          <rect class="cls-3" x="-110.65" y="240.66" width="245.37" height="6.19" transform="translate(175.89 62.89) rotate(45)"/>
          <rect class="cls-3" x="-119.48" y="249.48" width="245.37" height="6.19" transform="translate(179.54 71.71) rotate(45)"/>
          <rect class="cls-3" x="-128.3" y="258.31" width="245.37" height="6.19" transform="translate(183.19 80.53) rotate(45)"/>
          <rect class="cls-3" x="-137.12" y="267.13" width="245.37" height="6.19" transform="translate(186.85 89.36) rotate(45)"/>
        </g>
      </g>
      <g>
        <rect class="cls-5" y="271.26" width="135.49" height="135.49"/>
        <path class="cls-3" d="M82.87,322.03c-6.39-1.05-15.5-1.04-15.5-1.04,0,0-.13-2.24-.03-8.21l.18,.73s-.08-.77-.16-1.99c0-.02,0-.04,0-.07,0,0,8.43-.53,16.92,4.59,1.14,.69,.8,1.08,1.2,1.44,.3,.27,.77,.01,.7-.39-.37-2.13-.54-6.93,3.85-11.41,2.73-2.95,3.63-4.94,3.63-4.94,0,0-1.97,1.01-5.31,1.13-1.84,.15-8.75,.2-18.38,.4-1.16-.01-1.97-.07-2.58-.18,.35-3.85,1.27-7.39,3.39-8.23,2.25-.9,4.44-.15,4.44-.15l-1.31-6.93s-3.97-.61-6.73,2.63c-1.94,2.27-2.15,7.44-1.97,11.44-.16-.16-.33-.34-.53-.53-3.01-3-7.64-9.41-16.96-1.23-9.07,7.95-3.52,25.78,6.94,28.99,5.4,1.61,10.74,1.57,10.74,1.57v14.52s0-10.23-19.64-6.67c-7.1,1.29-14.75,3.66-15.69-2.56-2.98,5.26,.1,10.84,4.31,11.16,10.54,.81,24.59-6.92,30.02,4.02,.13,.26,.24,.54,.35,.83l-5.42,5.42,6.17,6.17c-.12,2.35-.26,4.27-.09,5.04-8.17-3.84-17.61-13.93-27.09-8.17-3.13,1.9-4.07,4.52-4.07,4.52-.81,2.31-.32,4.76,.54,6.26,2.06,3.59,6.06,4.32,6.06,4.32l.44-.9c-3.37-.29-4.95-2.06-5.61-3.08-1.73-2.88,2.23-7.2,8.4-6.36,8.4,1.14,22.33,15.61,22.33,15.61,0,0,25.75-15.68,31.09-34.09,2.64-9.11-3.39-21.82-14.63-23.66Zm-28.58-1.38s-4.26,.11-7.12-2.98c-2.46-2.66-3.15-5.78-3.04-9.36,.36-11.37,15.44-16.55,20.05-5.53-15.04,3.51-9.89,17.87-9.89,17.87Zm11.12,.34l-10.3-.34s-3.51-10.72,10.3-9.14v9.48Zm23.95,26.79c-.82,16.24-20.92,29.21-22.16,29.76,0,0,0-6.38,0-6.38-.03-.76,.04-7.16,0-8.06-.02-.16-.03-.37-.04-.61l6.12-6.12-5.94-5.94c.05-2.54,.07-5.06,.04-7.14-.08-4.24-.09-9.45,0-13.65,.77-.14,12-2.02,18.33,5.48,4.06,4.81,3.76,10.71,3.66,12.66Z"/>
      </g>
      <g>
        <rect class="cls-4" x="135.55" y="271.26" width="135.49" height="135.49" transform="translate(406.58 678.01) rotate(180)"/>
        <g class="cls-8">
          <rect class="cls-3" x="12.82" y="419.21" width="245.37" height="6.19" transform="translate(-67.31 816.74) rotate(-135)"/>
          <rect class="cls-3" x="21.64" y="410.39" width="245.37" height="6.19" transform="translate(-46.01 807.91) rotate(-135)"/>
          <rect class="cls-3" x="30.46" y="401.57" width="245.37" height="6.19" transform="translate(-24.71 799.09) rotate(-135)"/>
          <rect class="cls-3" x="39.28" y="392.75" width="245.37" height="6.19" transform="translate(-3.41 790.27) rotate(-135)"/>
          <rect class="cls-3" x="48.1" y="383.92" width="245.37" height="6.19" transform="translate(17.89 781.45) rotate(-135)"/>
          <rect class="cls-3" x="56.93" y="375.1" width="245.37" height="6.19" transform="translate(39.18 772.63) rotate(-135)"/>
          <rect class="cls-3" x="65.75" y="366.28" width="245.37" height="6.19" transform="translate(60.48 763.8) rotate(-135)"/>
          <rect class="cls-3" x="74.57" y="357.46" width="245.37" height="6.19" transform="translate(81.78 754.98) rotate(-135)"/>
          <rect class="cls-3" x="83.39" y="348.64" width="245.37" height="6.19" transform="translate(103.08 746.16) rotate(-135)"/>
          <rect class="cls-3" x="92.21" y="339.81" width="245.37" height="6.19" transform="translate(124.38 737.34) rotate(-135)"/>
          <rect class="cls-3" x="101.03" y="330.99" width="245.37" height="6.19" transform="translate(145.67 728.52) rotate(-135)"/>
          <rect class="cls-3" x="109.86" y="322.17" width="245.37" height="6.19" transform="translate(166.97 719.69) rotate(-135)"/>
          <rect class="cls-3" x="118.68" y="313.35" width="245.37" height="6.19" transform="translate(188.27 710.87) rotate(-135)"/>
          <rect class="cls-3" x="127.5" y="304.53" width="245.37" height="6.19" transform="translate(209.57 702.05) rotate(-135)"/>
          <rect class="cls-3" x="136.32" y="295.7" width="245.37" height="6.19" transform="translate(230.87 693.23) rotate(-135)"/>
          <rect class="cls-3" x="145.14" y="286.88" width="245.37" height="6.19" transform="translate(252.16 684.41) rotate(-135)"/>
          <rect class="cls-3" x="153.97" y="278.06" width="245.37" height="6.19" transform="translate(273.46 675.59) rotate(-135)"/>
          <rect class="cls-3" x="162.79" y="269.24" width="245.37" height="6.19" transform="translate(294.76 666.76) rotate(-135)"/>
        </g>
      </g>
      <g>
        <rect class="cls-5" x="135.55" y="406.67" width="135.49" height="135.49"/>
        <path class="cls-3" d="M218.42,457.44c-6.39-1.05-15.5-1.04-15.5-1.04,0,0-.13-2.24-.03-8.21l.18,.73s-.08-.77-.16-1.99c0-.02,0-.04,0-.07,0,0,8.43-.53,16.92,4.59,1.14,.69,.8,1.08,1.2,1.44,.3,.27,.77,.01,.7-.39-.37-2.13-.54-6.93,3.85-11.41,2.73-2.95,3.63-4.94,3.63-4.94,0,0-1.97,1.01-5.31,1.13-1.84,.15-8.75,.2-18.38,.4-1.16-.01-1.97-.07-2.58-.18,.35-3.85,1.27-7.39,3.39-8.23,2.25-.9,4.44-.15,4.44-.15l-1.31-6.93s-3.97-.61-6.73,2.63c-1.94,2.27-2.15,7.44-1.97,11.44-.16-.16-.33-.34-.53-.53-3.01-3-7.64-9.41-16.96-1.23-9.07,7.95-3.52,25.78,6.94,28.99,5.4,1.61,10.74,1.57,10.74,1.57v14.52s0-10.23-19.64-6.67c-7.1,1.29-14.75,3.66-15.69-2.56-2.98,5.26,.1,10.84,4.31,11.16,10.54,.81,24.59-6.92,30.02,4.02,.13,.26,.24,.54,.35,.83l-5.42,5.42,6.17,6.17c-.12,2.35-.26,4.27-.09,5.04-8.17-3.84-17.61-13.93-27.09-8.17-3.13,1.9-4.07,4.52-4.07,4.52-.81,2.31-.32,4.76,.54,6.26,2.06,3.59,6.06,4.32,6.06,4.32l.44-.9c-3.37-.29-4.95-2.06-5.61-3.08-1.73-2.88,2.23-7.2,8.4-6.36,8.4,1.14,22.33,15.61,22.33,15.61,0,0,25.75-15.68,31.09-34.09,2.64-9.11-3.39-21.82-14.63-23.66Zm-28.58-1.38s-4.26,.11-7.12-2.98c-2.46-2.66-3.15-5.78-3.04-9.36,.36-11.37,15.44-16.55,20.05-5.53-15.04,3.51-9.89,17.87-9.89,17.87Zm11.12,.34l-10.3-.34s-3.51-10.72,10.3-9.14v9.48Zm23.95,26.79c-.82,16.24-20.92,29.21-22.16,29.76,0,0,0-6.38,0-6.38-.03-.76,.04-7.16,0-8.06-.02-.16-.03-.37-.04-.61l6.12-6.12-5.94-5.94c.05-2.54,.07-5.06,.04-7.14-.08-4.24-.09-9.45,0-13.65,.77-.14,12-2.02,18.33,5.48,4.06,4.81,3.76,10.71,3.66,12.66Z"/>
      </g>
      <g>
        <rect class="cls-4" y="406.67" width="135.49" height="135.49"/>
        <g class="cls-7">
          <rect class="cls-3" x="12.85" y="388.01" width="245.37" height="6.19" transform="translate(316.25 18.71) rotate(45)"/>
          <rect class="cls-3" x="4.03" y="396.83" width="245.37" height="6.19" transform="translate(319.91 27.54) rotate(45)"/>
          <rect class="cls-3" x="-4.79" y="405.65" width="245.37" height="6.19" transform="translate(323.56 36.36) rotate(45)"/>
          <rect class="cls-3" x="-13.61" y="414.48" width="245.37" height="6.19" transform="translate(327.21 45.18) rotate(45)"/>
          <rect class="cls-3" x="-22.44" y="423.3" width="245.37" height="6.19" transform="translate(330.87 54) rotate(45)"/>
          <rect class="cls-3" x="-31.26" y="432.12" width="245.37" height="6.19" transform="translate(334.52 62.82) rotate(45)"/>
          <rect class="cls-3" x="-40.08" y="440.94" width="245.37" height="6.19" transform="translate(338.18 71.65) rotate(45)"/>
          <rect class="cls-3" x="-48.9" y="449.76" width="245.37" height="6.19" transform="translate(341.83 80.47) rotate(45)"/>
          <rect class="cls-3" x="-57.72" y="458.58" width="245.37" height="6.19" transform="translate(345.48 89.29) rotate(45)"/>
          <rect class="cls-3" x="-66.54" y="467.41" width="245.37" height="6.19" transform="translate(349.14 98.11) rotate(45)"/>
          <rect class="cls-3" x="-75.37" y="476.23" width="245.37" height="6.19" transform="translate(352.79 106.93) rotate(45)"/>
          <rect class="cls-3" x="-84.19" y="485.05" width="245.37" height="6.19" transform="translate(356.45 115.76) rotate(45)"/>
          <rect class="cls-3" x="-93.01" y="493.87" width="245.37" height="6.19" transform="translate(360.1 124.58) rotate(45)"/>
          <rect class="cls-3" x="-101.83" y="502.69" width="245.37" height="6.19" transform="translate(363.76 133.4) rotate(45)"/>
          <rect class="cls-3" x="-110.65" y="511.52" width="245.37" height="6.19" transform="translate(367.41 142.22) rotate(45)"/>
          <rect class="cls-3" x="-119.48" y="520.34" width="245.37" height="6.19" transform="translate(371.06 151.04) rotate(45)"/>
          <rect class="cls-3" x="-128.3" y="529.16" width="245.37" height="6.19" transform="translate(374.72 159.86) rotate(45)"/>
          <rect class="cls-3" x="-137.12" y="537.98" width="245.37" height="6.19" transform="translate(378.37 168.69) rotate(45)"/>
        </g>
      </g>
    </g>
  </g>
</svg>