<?xml version="1.0" encoding="UTF-8"?>
<svg id="_Слой_2" data-name="Слой 2" xmlns="http://www.w3.org/2000/svg" xmlns:xlink="http://www.w3.org/1999/xlink" viewBox="0 0 270.97 542.15">
  <defs>
    <style>
      .cls-1 {
        fill: none;
      }

      .cls-2 {
        clip-path: url(#clippath);
      }

      .cls-3 {
        fill: #efefef;
      }

      .cls-4 {
        fill: #af6830;
      }

      .cls-5 {
        fill: #ded3c8;
      }

      .cls-6 {
        clip-path: url(#clippath-1);
      }

      .cls-7 {
        clip-path: url(#clippath-3);
      }

      .cls-8 {
        clip-path: url(#clippath-2);
      }
    </style>
    <clipPath id="clippath">
      <rect class="cls-1" x="135.49" width="135.49" height="135.49" transform="translate(406.46 135.49) rotate(180)"/>
    </clipPath>
    <clipPath id="clippath-1">
      <rect class="cls-1" y="135.56" width="135.49" height="135.49"/>
    </clipPath>
    <clipPath id="clippath-2">
      <rect class="cls-1" x="135.49" y="271.11" width="135.49" height="135.49" transform="translate(406.46 677.71) rotate(180)"/>
    </clipPath>
    <clipPath id="clippath-3">
      <rect class="cls-1" y="406.67" width="135.49" height="135.49"/>
    </clipPath>
  </defs>
  <g id="_Слой_1-2" data-name="Слой 1">
    <g>
      <g>
        <rect class="cls-5" x="135.49" width="135.49" height="135.49" transform="translate(406.46 135.49) rotate(180)"/>
        <g class="cls-2">
          <rect class="cls-3" x="12.76" y="147.95" width="245.37" height="6.19" transform="translate(124.4 353.63) rotate(-135)"/>
          <rect class="cls-3" x="21.58" y="139.13" width="245.37" height="6.19" transform="translate(145.7 344.8) rotate(-135)"/>
          <rect class="cls-3" x="30.4" y="130.31" width="245.37" height="6.19" transform="translate(167 335.98) rotate(-135)"/>
          <rect class="cls-3" x="39.22" y="121.49" width="245.37" height="6.19" transform="translate(188.3 327.16) rotate(-135)"/>
          <rect class="cls-3" x="48.04" y="112.66" width="245.37" height="6.19" transform="translate(209.59 318.34) rotate(-135)"/>
          <rect class="cls-3" x="56.87" y="103.84" width="245.37" height="6.19" transform="translate(230.89 309.52) rotate(-135)"/>
          <rect class="cls-3" x="65.69" y="95.02" width="245.37" height="6.19" transform="translate(252.19 300.69) rotate(-135)"/>
          <rect class="cls-3" x="74.51" y="86.2" width="245.37" height="6.19" transform="translate(273.49 291.87) rotate(-135)"/>
          <rect class="cls-3" x="83.33" y="77.38" width="245.37" height="6.19" transform="translate(294.79 283.05) rotate(-135)"/>
          <rect class="cls-3" x="92.15" y="68.55" width="245.37" height="6.19" transform="translate(316.08 274.23) rotate(-135)"/>
          <rect class="cls-3" x="100.98" y="59.73" width="245.37" height="6.19" transform="translate(337.38 265.41) rotate(-135)"/>
          <rect class="cls-3" x="109.8" y="50.91" width="245.37" height="6.19" transform="translate(358.68 256.58) rotate(-135)"/>
          <rect class="cls-3" x="118.62" y="42.09" width="245.37" height="6.19" transform="translate(379.98 247.76) rotate(-135)"/>
          <rect class="cls-3" x="127.44" y="33.27" width="245.37" height="6.19" transform="translate(401.28 238.94) rotate(-135)"/>
          <rect class="cls-3" x="136.26" y="24.45" width="245.37" height="6.19" transform="translate(422.57 230.12) rotate(-135)"/>
          <rect class="cls-3" x="145.08" y="15.62" width="245.37" height="6.19" transform="translate(443.87 221.3) rotate(-135)"/>
          <rect class="cls-3" x="153.91" y="6.8" width="245.37" height="6.19" transform="translate(465.17 212.47) rotate(-135)"/>
          <rect class="cls-3" x="162.73" y="-2.02" width="245.37" height="6.19" transform="translate(486.47 203.65) rotate(-135)"/>
        </g>
      </g>
      <g>
        <rect class="cls-4" width="135.49" height="135.49"/>
        <path class="cls-3" d="M97.56,33.43s-1.03,1.05-3.16,1.17c-5.94,.34-24.43,.35-24.43,.35,0,0-1.5-10.92,8.57-8.55-.17-.04-1.55-8.2-1.55-8.2-2.95,0-10.33,.48-9.94,10.79,.06,1.53,.26,5.27,.26,5.27,0,0-1.63-1.63-3.65-3.52-5.28-4.9-14.15-2.98-18.15,2.04-4.24,5.33-1.49,17.01-1.49,17.01,0,0-18.8,28.87,8.18,55.16,7.68,7.49,17.33,11.67,17.33,12.62,0-3.16-.09-4.43,0-7.39,.45-.9,22.33-13.58,19.96-27.09-.58-2.27,.58-5.03,.58-5.03l-16.08,13.2-4.38-4.38c.08-5.75,.17-12.69,.18-13.96,.02-1.37,.04-2.73,.06-4.08,7.24-.23,12.52-2.54,16.38-.32,.72,.41,1.25,.85,1.67,1.24,0,0,.73-5.82-1.57-9.12-3.59-5.15-14.64-1.55-16.52-1.5,0-3.55,0-15.16,0-15.16,0,0,3.21,.24,6.04,.88,10.59,2.4,12.46,4.94,12.46,4.94,0,0-.23-1.66-.04-3.71,.33-3.66,4.98-8.74,7.64-10.56,1.9-1.3,1.64-2.1,1.64-2.1Zm-29.92,10.55v15.3s-6.06-.7-6.62-2.67c-2.82,1.16-1.56,4.29-1.56,4.29l-3.86-8.06c.71-4.1,3.37-7.33,6.83-8.25,2.35-.62,3.98-.57,5.21-.6Zm0,34.68s-3.89-8.05-5.03-9.82h5.03c-.11,.12,0,9.82,0,9.82Zm-13.09-28.52c-1.67-4.58-2.01-5.5-2.22-6.08,.99-1.14,2.39-2.53,4.29-3.82,2.55-1.73,4.98-2.61,6.69-3.07,0,0-9.34,4.52-8.77,12.97Zm5.38-20.34c2.39,.64,4.16,2.64,6.83,4.97-1.06,.47-4.43,1.58-6.08,2.18-5.24,1.89-8.82,5.36-8.82,5.36,0,0-1.67-15.12,8.06-12.51Zm-4.68,66.5c-19.14-15.16-15.17-30.44-10.24-43.51,1.68,3.3,16.14,29.97,16.55,36.15,.28,4.23-2.8,10.14-6.31,7.36Zm6.75,5.26c-1.64-1.13-3.27-2.26-4.88-3.39,1.01,.14,3.63,.36,6.45-1.05,.6-.3,1.13-.63,1.59-.98l2.47,2.47c0,3.17,0,6.7,0,6.8-.51-.31-3.14-2.12-5.64-3.86Zm16.24-12.34c3.61,.13,6.29,7.9-1.61,14.28-2.22,1.79-5.32,4.42-7.12,5.42,0-1.85-.02-6.04-.04-9.08l6.55-6.55-1.33-1.33c1.58-1.28,3.03-2.43,3.56-2.73Z"/>
      </g>
      <g>
        <rect class="cls-5" y="135.56" width="135.49" height="135.49"/>
        <g class="cls-6">
          <rect class="cls-3" x="12.85" y="116.9" width="245.37" height="6.19" transform="translate(124.55 -60.69) rotate(45)"/>
          <rect class="cls-3" x="4.03" y="125.72" width="245.37" height="6.19" transform="translate(128.2 -51.87) rotate(45)"/>
          <rect class="cls-3" x="-4.79" y="134.54" width="245.37" height="6.19" transform="translate(131.85 -43.05) rotate(45)"/>
          <rect class="cls-3" x="-13.61" y="143.36" width="245.37" height="6.19" transform="translate(135.51 -34.23) rotate(45)"/>
          <rect class="cls-3" x="-22.44" y="152.19" width="245.37" height="6.19" transform="translate(139.16 -25.4) rotate(45)"/>
          <rect class="cls-3" x="-31.26" y="161.01" width="245.37" height="6.19" transform="translate(142.82 -16.58) rotate(45)"/>
          <rect class="cls-3" x="-40.08" y="169.83" width="245.37" height="6.19" transform="translate(146.47 -7.76) rotate(45)"/>
          <rect class="cls-3" x="-48.9" y="178.65" width="245.37" height="6.19" transform="translate(150.13 1.06) rotate(45)"/>
          <rect class="cls-3" x="-57.72" y="187.47" width="245.37" height="6.19" transform="translate(153.78 9.88) rotate(45)"/>
          <rect class="cls-3" x="-66.54" y="196.3" width="245.37" height="6.19" transform="translate(157.43 18.7) rotate(45)"/>
          <rect class="cls-3" x="-75.37" y="205.12" width="245.37" height="6.19" transform="translate(161.09 27.53) rotate(45)"/>
          <rect class="cls-3" x="-84.19" y="213.94" width="245.37" height="6.19" transform="translate(164.74 36.35) rotate(45)"/>
          <rect class="cls-3" x="-93.01" y="222.76" width="245.37" height="6.19" transform="translate(168.4 45.17) rotate(45)"/>
          <rect class="cls-3" x="-101.83" y="231.58" width="245.37" height="6.19" transform="translate(172.05 53.99) rotate(45)"/>
          <rect class="cls-3" x="-110.65" y="240.41" width="245.37" height="6.19" transform="translate(175.7 62.81) rotate(45)"/>
          <rect class="cls-3" x="-119.48" y="249.23" width="245.37" height="6.19" transform="translate(179.36 71.64) rotate(45)"/>
          <rect class="cls-3" x="-128.3" y="258.05" width="245.37" height="6.19" transform="translate(183.01 80.46) rotate(45)"/>
          <rect class="cls-3" x="-137.12" y="266.87" width="245.37" height="6.19" transform="translate(186.67 89.28) rotate(45)"/>
        </g>
      </g>
      <g>
        <rect class="cls-4" x="135.49" y="135.56" width="135.49" height="135.49"/>
        <path class="cls-3" d="M233.05,168.99s-1.03,1.05-3.16,1.17c-5.94,.34-24.43,.35-24.43,.35,0,0-1.5-10.92,8.57-8.55-.17-.04-1.55-8.2-1.55-8.2-2.95,0-10.33,.48-9.94,10.79,.06,1.53,.26,5.27,.26,5.27,0,0-1.63-1.63-3.65-3.52-5.28-4.9-14.15-2.98-18.15,2.04-4.24,5.33-1.49,17.01-1.49,17.01,0,0-18.8,28.87,8.18,55.16,7.68,7.49,17.33,11.67,17.33,12.62,0-3.16-.09-4.43,0-7.39,.45-.9,22.33-13.58,19.96-27.09-.58-2.27,.58-5.03,.58-5.03l-16.08,13.2-4.38-4.38c.08-5.75,.17-12.69,.18-13.96,.02-1.37,.04-2.73,.06-4.08,7.24-.23,12.52-2.54,16.38-.32,.72,.41,1.25,.85,1.67,1.24,0,0,.73-5.82-1.57-9.12-3.59-5.15-14.64-1.55-16.52-1.5,0-3.55,0-15.16,0-15.16,0,0,3.21,.24,6.04,.88,10.59,2.4,12.46,4.94,12.46,4.94,0,0-.23-1.66-.04-3.71,.33-3.66,4.98-8.74,7.64-10.56,1.9-1.3,1.64-2.1,1.64-2.1Zm-29.92,10.55v15.3s-6.06-.7-6.62-2.67c-2.82,1.16-1.56,4.29-1.56,4.29l-3.86-8.06c.71-4.1,3.37-7.33,6.83-8.25,2.35-.62,3.98-.57,5.21-.6Zm0,34.68s-3.89-8.05-5.03-9.82h5.03c-.11,.12,0,9.82,0,9.82Zm-13.09-28.52c-1.67-4.58-2.01-5.5-2.22-6.08,.99-1.14,2.39-2.53,4.29-3.82,2.55-1.73,4.98-2.61,6.69-3.07,0,0-9.34,4.52-8.77,12.97Zm5.38-20.34c2.39,.64,4.16,2.64,6.83,4.97-1.06,.47-4.43,1.58-6.08,2.18-5.24,1.89-8.82,5.36-8.82,5.36,0,0-1.67-15.12,8.06-12.51Zm-4.68,66.5c-19.14-15.16-15.17-30.44-10.24-43.51,1.68,3.3,16.14,29.97,16.55,36.15,.28,4.23-2.8,10.14-6.31,7.36Zm6.75,5.26c-1.64-1.13-3.27-2.26-4.88-3.39,1.01,.14,3.63,.36,6.45-1.05,.6-.3,1.13-.63,1.59-.98l2.47,2.47c0,3.17,0,6.7,0,6.8-.51-.31-3.14-2.12-5.64-3.86Zm16.24-12.34c3.61,.13,6.29,7.9-1.61,14.28-2.22,1.79-5.32,4.42-7.12,5.42,0-1.85-.02-6.04-.04-9.08l6.55-6.55-1.33-1.33c1.58-1.28,3.03-2.43,3.56-2.73Z"/>
      </g>
      <g>
        <rect class="cls-5" x="135.49" y="271.11" width="135.49" height="135.49" transform="translate(406.46 677.71) rotate(180)"/>
        <g class="cls-8">
          <rect class="cls-3" x="12.76" y="419.06" width="245.37" height="6.19" transform="translate(-67.3 816.44) rotate(-135)"/>
          <rect class="cls-3" x="21.58" y="410.24" width="245.37" height="6.19" transform="translate(-46 807.62) rotate(-135)"/>
          <rect class="cls-3" x="30.4" y="401.42" width="245.37" height="6.19" transform="translate(-24.71 798.8) rotate(-135)"/>
          <rect class="cls-3" x="39.22" y="392.6" width="245.37" height="6.19" transform="translate(-3.41 789.98) rotate(-135)"/>
          <rect class="cls-3" x="48.04" y="383.78" width="245.37" height="6.19" transform="translate(17.89 781.15) rotate(-135)"/>
          <rect class="cls-3" x="56.87" y="374.95" width="245.37" height="6.19" transform="translate(39.19 772.33) rotate(-135)"/>
          <rect class="cls-3" x="65.69" y="366.13" width="245.37" height="6.19" transform="translate(60.49 763.51) rotate(-135)"/>
          <rect class="cls-3" x="74.51" y="357.31" width="245.37" height="6.19" transform="translate(81.78 754.69) rotate(-135)"/>
          <rect class="cls-3" x="83.33" y="348.49" width="245.37" height="6.19" transform="translate(103.08 745.87) rotate(-135)"/>
          <rect class="cls-3" x="92.15" y="339.67" width="245.37" height="6.19" transform="translate(124.38 737.04) rotate(-135)"/>
          <rect class="cls-3" x="100.98" y="330.84" width="245.37" height="6.19" transform="translate(145.68 728.22) rotate(-135)"/>
          <rect class="cls-3" x="109.8" y="322.02" width="245.37" height="6.19" transform="translate(166.98 719.4) rotate(-135)"/>
          <rect class="cls-3" x="118.62" y="313.2" width="245.37" height="6.19" transform="translate(188.27 710.58) rotate(-135)"/>
          <rect class="cls-3" x="127.44" y="304.38" width="245.37" height="6.19" transform="translate(209.57 701.76) rotate(-135)"/>
          <rect class="cls-3" x="136.26" y="295.56" width="245.37" height="6.19" transform="translate(230.87 692.93) rotate(-135)"/>
          <rect class="cls-3" x="145.08" y="286.73" width="245.37" height="6.19" transform="translate(252.17 684.11) rotate(-135)"/>
          <rect class="cls-3" x="153.91" y="277.91" width="245.37" height="6.19" transform="translate(273.47 675.29) rotate(-135)"/>
          <rect class="cls-3" x="162.73" y="269.09" width="245.37" height="6.19" transform="translate(294.76 666.47) rotate(-135)"/>
        </g>
      </g>
      <g>
        <rect class="cls-4" y="271.11" width="135.49" height="135.49"/>
        <path class="cls-3" d="M97.56,304.55s-1.03,1.05-3.16,1.17c-5.94,.34-24.43,.35-24.43,.35,0,0-1.5-10.92,8.57-8.55-.17-.04-1.55-8.2-1.55-8.2-2.95,0-10.33,.48-9.94,10.79,.06,1.53,.26,5.27,.26,5.27,0,0-1.63-1.63-3.65-3.52-5.28-4.9-14.15-2.98-18.15,2.04-4.24,5.33-1.49,17.01-1.49,17.01,0,0-18.8,28.87,8.18,55.16,7.68,7.49,17.33,11.67,17.33,12.62,0-3.16-.09-4.43,0-7.39,.45-.9,22.33-13.58,19.96-27.09-.58-2.27,.58-5.03,.58-5.03l-16.08,13.2-4.38-4.38c.08-5.75,.17-12.69,.18-13.96,.02-1.37,.04-2.73,.06-4.08,7.24-.23,12.52-2.54,16.38-.32,.72,.41,1.25,.85,1.67,1.24,0,0,.73-5.82-1.57-9.12-3.59-5.15-14.64-1.55-16.52-1.5,0-3.55,0-15.16,0-15.16,0,0,3.21,.24,6.04,.88,10.59,2.4,12.46,4.94,12.46,4.94,0,0-.23-1.66-.04-3.71,.33-3.66,4.98-8.74,7.64-10.56,1.9-1.3,1.64-2.1,1.64-2.1Zm-29.92,10.55v15.3s-6.06-.7-6.62-2.67c-2.82,1.16-1.56,4.29-1.56,4.29l-3.86-8.06c.71-4.1,3.37-7.33,6.83-8.25,2.35-.62,3.98-.57,5.21-.6Zm0,34.68s-3.89-8.05-5.03-9.82h5.03c-.11,.12,0,9.82,0,9.82Zm-13.09-28.52c-1.67-4.58-2.01-5.5-2.22-6.08,.99-1.14,2.39-2.53,4.29-3.82,2.55-1.73,4.98-2.61,6.69-3.07,0,0-9.34,4.52-8.77,12.97Zm5.38-20.34c2.39,.64,4.16,2.64,6.83,4.97-1.06,.47-4.43,1.58-6.08,2.18-5.24,1.89-8.82,5.36-8.82,5.36,0,0-1.67-15.12,8.06-12.51Zm-4.68,66.5c-19.14-15.16-15.17-30.44-10.24-43.51,1.68,3.3,16.14,29.97,16.55,36.15,.28,4.23-2.8,10.14-6.31,7.36Zm6.75,5.26c-1.64-1.13-3.27-2.26-4.88-3.39,1.01,.14,3.63,.36,6.45-1.05,.6-.3,1.13-.63,1.59-.98l2.47,2.47c0,3.17,0,6.7,0,6.8-.51-.31-3.14-2.12-5.64-3.86Zm16.24-12.34c3.61,.13,6.29,7.9-1.61,14.28-2.22,1.79-5.32,4.42-7.12,5.42,0-1.85-.02-6.04-.04-9.08l6.55-6.55-1.33-1.33c1.58-1.28,3.03-2.43,3.56-2.73Z"/>
      </g>
      <g>
        <rect class="cls-5" y="406.67" width="135.49" height="135.49"/>
        <g class="cls-7">
          <rect class="cls-3" x="12.85" y="388.01" width="245.37" height="6.19" transform="translate(316.25 18.71) rotate(45)"/>
          <rect class="cls-3" x="4.03" y="396.83" width="245.37" height="6.19" transform="translate(319.91 27.54) rotate(45)"/>
          <rect class="cls-3" x="-4.79" y="405.65" width="245.37" height="6.19" transform="translate(323.56 36.36) rotate(45)"/>
          <rect class="cls-3" x="-13.61" y="414.48" width="245.37" height="6.19" transform="translate(327.21 45.18) rotate(45)"/>
          <rect class="cls-3" x="-22.44" y="423.3" width="245.37" height="6.19" transform="translate(330.87 54) rotate(45)"/>
          <rect class="cls-3" x="-31.26" y="432.12" width="245.37" height="6.19" transform="translate(334.52 62.82) rotate(45)"/>
          <rect class="cls-3" x="-40.08" y="440.94" width="245.37" height="6.19" transform="translate(338.18 71.65) rotate(45)"/>
          <rect class="cls-3" x="-48.9" y="449.76" width="245.37" height="6.19" transform="translate(341.83 80.47) rotate(45)"/>
          <rect class="cls-3" x="-57.72" y="458.58" width="245.37" height="6.19" transform="translate(345.48 89.29) rotate(45)"/>
          <rect class="cls-3" x="-66.54" y="467.41" width="245.37" height="6.19" transform="translate(349.14 98.11) rotate(45)"/>
          <rect class="cls-3" x="-75.37" y="476.23" width="245.37" height="6.19" transform="translate(352.79 106.93) rotate(45)"/>
          <rect class="cls-3" x="-84.19" y="485.05" width="245.37" height="6.19" transform="translate(356.45 115.76) rotate(45)"/>
          <rect class="cls-3" x="-93.01" y="493.87" width="245.37" height="6.19" transform="translate(360.1 124.58) rotate(45)"/>
          <rect class="cls-3" x="-101.83" y="502.69" width="245.37" height="6.19" transform="translate(363.76 133.4) rotate(45)"/>
          <rect class="cls-3" x="-110.65" y="511.52" width="245.37" height="6.19" transform="translate(367.41 142.22) rotate(45)"/>
          <rect class="cls-3" x="-119.48" y="520.34" width="245.37" height="6.19" transform="translate(371.06 151.04) rotate(45)"/>
          <rect class="cls-3" x="-128.3" y="529.16" width="245.37" height="6.19" transform="translate(374.72 159.86) rotate(45)"/>
          <rect class="cls-3" x="-137.12" y="537.98" width="245.37" height="6.19" transform="translate(378.37 168.69) rotate(45)"/>
        </g>
      </g>
      <g>
        <rect class="cls-4" x="135.49" y="406.67" width="135.49" height="135.49"/>
        <path class="cls-3" d="M233.05,440.1s-1.03,1.05-3.16,1.17c-5.94,.34-24.43,.35-24.43,.35,0,0-1.5-10.92,8.57-8.55-.17-.04-1.55-8.2-1.55-8.2-2.95,0-10.33,.48-9.94,10.79,.06,1.53,.26,5.27,.26,5.27,0,0-1.63-1.63-3.65-3.52-5.28-4.9-14.15-2.98-18.15,2.04-4.24,5.33-1.49,17.01-1.49,17.01,0,0-18.8,28.87,8.18,55.16,7.68,7.49,17.33,11.67,17.33,12.62,0-3.16-.09-4.43,0-7.39,.45-.9,22.33-13.58,19.96-27.09-.58-2.27,.58-5.03,.58-5.03l-16.08,13.2-4.38-4.38c.08-5.75,.17-12.69,.18-13.96,.02-1.37,.04-2.73,.06-4.08,7.24-.23,12.52-2.54,16.38-.32,.72,.41,1.25,.85,1.67,1.24,0,0,.73-5.82-1.57-9.12-3.59-5.15-14.64-1.55-16.52-1.5,0-3.55,0-15.16,0-15.16,0,0,3.21,.24,6.04,.88,10.59,2.4,12.46,4.94,12.46,4.94,0,0-.23-1.66-.04-3.71,.33-3.66,4.98-8.74,7.64-10.56,1.9-1.3,1.64-2.1,1.64-2.1Zm-29.92,10.55v15.3s-6.06-.7-6.62-2.67c-2.82,1.16-1.56,4.29-1.56,4.29l-3.86-8.06c.71-4.1,3.37-7.33,6.83-8.25,2.35-.62,3.98-.57,5.21-.6Zm0,34.68s-3.89-8.05-5.03-9.82h5.03c-.11,.12,0,9.82,0,9.82Zm-13.09-28.52c-1.67-4.58-2.01-5.5-2.22-6.08,.99-1.14,2.39-2.53,4.29-3.82,2.55-1.73,4.98-2.61,6.69-3.07,0,0-9.34,4.52-8.77,12.97Zm5.38-20.34c2.39,.64,4.16,2.64,6.83,4.97-1.06,.47-4.43,1.58-6.08,2.18-5.24,1.89-8.82,5.36-8.82,5.36,0,0-1.67-15.12,8.06-12.51Zm-4.68,66.5c-19.14-15.16-15.17-30.44-10.24-43.51,1.68,3.3,16.14,29.97,16.55,36.15,.28,4.23-2.8,10.14-6.31,7.36Zm6.75,5.26c-1.64-1.13-3.27-2.26-4.88-3.39,1.01,.14,3.63,.36,6.45-1.05,.6-.3,1.13-.63,1.59-.98l2.47,2.47c0,3.17,0,6.7,0,6.8-.51-.31-3.14-2.12-5.64-3.86Zm16.24-12.34c3.61,.13,6.29,7.9-1.61,14.28-2.22,1.79-5.32,4.42-7.12,5.42,0-1.85-.02-6.04-.04-9.08l6.55-6.55-1.33-1.33c1.58-1.28,3.03-2.43,3.56-2.73Z"/>
      </g>
    </g>
  </g>
</svg>