<svg id="Слой_1" data-name="Слой 1" xmlns="http://www.w3.org/2000/svg" xmlns:xlink="http://www.w3.org/1999/xlink" viewBox="0 0 612.56 238.89">
  <defs>
    <style>
      .cls-1 {
        fill: none;
      }

      .cls-2 {
        fill: #0a0a0a;
      }

      .cls-3 {
        clip-path: url(#clip-path);
      }

      .cls-4 {
        fill: #9d1229;
      }

      .cls-5 {
        fill: #efefef;
      }
    </style>
    <clipPath id="clip-path">
      <path class="cls-1" d="M2.26,2.8V173.67c0,33.69,18.88,50.77,56.11,50.77,21.51,0,36,7.57,42.3,11.65,6.26-4.08,20.79-11.65,42.31-11.65,37.23,0,56.11-17.08,56.11-50.77V2.8Z"/>
    </clipPath>
  </defs>
  <g>
    <g>
      <path class="cls-2" d="M323.43,69.63c0,.43-.11.64-.32.64-2.19,0-3.91,0-5.18-.11l-7.3-.1-7.73.1c-1.27.07-3,.11-5.08.11-.21,0-.31-.21-.31-.64s.1-.63.31-.63a24.86,24.86,0,0,0,6-.53,3.76,3.76,0,0,0,2.59-2.06,12.19,12.19,0,0,0,.68-4.71V36.94H266.51V61.7a12.16,12.16,0,0,0,.69,4.71,3.73,3.73,0,0,0,2.59,2.06,24.82,24.82,0,0,0,6,.53q.21,0,.21.63c0,.43-.07.64-.21.64-2.19,0-3.91,0-5.18-.11l-7.62-.1-7.3.1c-1.27.07-3,.11-5.29.11-.14,0-.21-.21-.21-.64s.07-.63.21-.63a25,25,0,0,0,6-.53,3.76,3.76,0,0,0,2.64-2.06,12.16,12.16,0,0,0,.69-4.71v-49a11.71,11.71,0,0,0-.69-4.66A3.92,3.92,0,0,0,256.46,6a22,22,0,0,0-5.93-.58c-.14,0-.21-.22-.21-.64s.07-.63.21-.63l5.4.1q4.44.21,7.09.21c2,0,4.62-.07,7.72-.21l5.08-.1q.21,0,.21.63c0,.42-.07.64-.21.64a21,21,0,0,0-6,.63,4.08,4.08,0,0,0-2.64,2.17,12.09,12.09,0,0,0-.69,4.71V34.72h40.62V12.93a12.13,12.13,0,0,0-.68-4.71,4.08,4.08,0,0,0-2.59-2.17,20.92,20.92,0,0,0-6-.63c-.21,0-.31-.22-.31-.64s.1-.63.31-.63l5.08.1c3.11.14,5.68.21,7.73.21q2.85,0,7.3-.21l5.18-.1c.21,0,.32.21.32.63s-.11.64-.32.64a21.83,21.83,0,0,0-5.92.58,3.94,3.94,0,0,0-2.6,2.06,11.74,11.74,0,0,0-.68,4.66v49a12.19,12.19,0,0,0,.68,4.71,3.75,3.75,0,0,0,2.6,2.06,24.12,24.12,0,0,0,5.92.53C323.32,69,323.43,69.21,323.43,69.63Z"/>
      <path class="cls-2" d="M401.4,69.63c0,.43-.15.64-.43.64q-2,0-6.24-.21c-2.82-.14-4.87-.22-6.13-.22-1.56,0-3.53.08-5.93.22s-4,.21-5.18.21c-.29,0-.43-.21-.43-.64s.14-.63.43-.63a16.2,16.2,0,0,0,5.71-.74,2.58,2.58,0,0,0,1.8-2.54,12.74,12.74,0,0,0-1.38-4.55L371.46,35.25h-20l-9.1,21.58a16.36,16.36,0,0,0-1.48,5.93q0,6.24,10.37,6.24c.35,0,.53.21.53.63s-.18.64-.53.64c-1.27,0-3.1-.07-5.5-.21-2.68-.14-5-.22-7-.22s-3.95.08-6.35.22c-2.12.14-3.88.21-5.29.21-.35,0-.53-.21-.53-.64s.18-.63.53-.63a10.46,10.46,0,0,0,5-1.11A11.48,11.48,0,0,0,336.07,64a51,51,0,0,0,4.07-8.09L362.46,3.19a.82.82,0,0,1,.74-.31c.36,0,.57.1.64.31l25,52.58c2.39,5.23,4.44,8.73,6.13,10.53a8,8,0,0,0,6,2.7C401.25,69,401.4,69.21,401.4,69.63Zm-49-36.6h18l-9.52-20.1Z"/>
      <path class="cls-2" d="M423,66.41a3.54,3.54,0,0,0,2.48,2.06,23.64,23.64,0,0,0,5.88.53c.21,0,.31.21.31.63s-.1.64-.31.64c-2.12,0-3.81,0-5.08-.11l-7.51-.1-7.3.1c-1.27.07-3,.11-5.19.11-.21,0-.31-.21-.31-.64s.1-.63.31-.63a23.49,23.49,0,0,0,5.87-.53,3.71,3.71,0,0,0,2.54-2.06,12.16,12.16,0,0,0,.69-4.71v-49a11.71,11.71,0,0,0-.69-4.66A3.89,3.89,0,0,0,412.13,6a21.26,21.26,0,0,0-5.87-.58c-.21,0-.31-.22-.31-.64s.1-.63.31-.63l5.19.1q4.44.21,7.3.21,3.17,0,7.61-.21l5-.1c.21,0,.31.21.31.63s-.1.64-.31.64a19.33,19.33,0,0,0-5.77.63A4.06,4.06,0,0,0,423,8.22a12.09,12.09,0,0,0-.69,4.71V61.7A13,13,0,0,0,423,66.41Z"/>
      <path class="cls-2" d="M508.88,69.63c0,.43-.07.64-.21.64H495q-2.64,0-9.89-9A305.17,305.17,0,0,1,467.52,36a20.23,20.23,0,0,1-5.72.74c-1.34,0-2.92-.07-4.76-.21V61.7a12.83,12.83,0,0,0,.64,4.76,3.55,3.55,0,0,0,2.48,2A23.58,23.58,0,0,0,466,69c.21,0,.31.21.31.63s-.1.64-.31.64c-2.19,0-3.92,0-5.19-.11l-7.3-.1-7.19.1c-1.27.07-3.07.11-5.4.11-.14,0-.21-.21-.21-.64s.07-.63.21-.63a22,22,0,0,0,5.93-.58,4.1,4.1,0,0,0,2.64-2.07,11,11,0,0,0,.74-4.65v-49a11.71,11.71,0,0,0-.69-4.66A3.9,3.9,0,0,0,447.05,6a21.4,21.4,0,0,0-5.88-.58c-.21,0-.31-.22-.31-.64s.1-.63.31-.63l5.19.1q4.44.21,7.19.21c1.27,0,2.47,0,3.6-.1s2.11-.14,3-.21c2.26-.22,4.3-.32,6.14-.32q8.56,0,13.22,3.49a11.49,11.49,0,0,1,4.66,9.73,17.08,17.08,0,0,1-3,9.58,21.42,21.42,0,0,1-7.82,7.14q9,13.44,15.12,21t10.9,10.9A16.27,16.27,0,0,0,508.67,69Q508.88,69,508.88,69.63ZM463.28,34.3q7.31,0,10.48-3.12t3.17-10.42q0-15.35-12.9-15.34a14.4,14.4,0,0,0-4.29.47,3.33,3.33,0,0,0-2.06,2,14.14,14.14,0,0,0-.64,5v21A40.38,40.38,0,0,0,463.28,34.3Z"/>
      <path class="cls-2" d="M297.4,145.68a1.54,1.54,0,0,1,.58.11c.18.07.27.18.27.32a97.92,97.92,0,0,0-.95,14,1.71,1.71,0,0,1-.37,1.22,1.86,1.86,0,0,1-1.33.37H251.28c-.15,0-.22-.21-.22-.63s.07-.64.22-.64a23.6,23.6,0,0,0,5.87-.53,3.73,3.73,0,0,0,2.54-2.06,12.32,12.32,0,0,0,.68-4.71v-49a11.93,11.93,0,0,0-.68-4.66,4,4,0,0,0-2.54-2.06,21.36,21.36,0,0,0-5.87-.58c-.15,0-.22-.21-.22-.64s.07-.63.22-.63H293.8a.85.85,0,0,1,1,.95l.21,13c0,.21-.18.34-.53.37s-.57-.05-.64-.26q-.32-5.61-3.38-8.73a10.92,10.92,0,0,0-8.15-3.12h-6.45a18.91,18.91,0,0,0-5.45.58,3.94,3.94,0,0,0-2.43,2,10.26,10.26,0,0,0-.69,4.29v21.47h12.91c3.38,0,5.8-.56,7.24-1.69s2.17-3,2.17-5.71c0-.14.21-.21.64-.21s.63.07.63.21l-.1,8.57c0,2,0,3.59.1,4.65L291,137c0,.14-.21.21-.64.21s-.63-.07-.63-.21q0-4.65-2.28-6.67t-7.56-2H267.25v24.33a11,11,0,0,0,.63,4.33,3.58,3.58,0,0,0,2.33,1.91,19.34,19.34,0,0,0,5.29.53H284a11.14,11.14,0,0,0,8.46-3.6A19.2,19.2,0,0,0,297,145.9C297,145.76,297.12,145.68,297.4,145.68Z"/>
      <path class="cls-2" d="M370.93,161q0,.63-.21.63c-1.84,0-3.28,0-4.34-.11l-5.82-.1-8.15.1c-1.27.08-3,.11-5.18.11q-.21,0-.21-.63c0-.43.07-.64.21-.64a14.5,14.5,0,0,0,4.13-.42c.84-.28,1.27-.74,1.27-1.38a4.39,4.39,0,0,0-1-2.33l-16.08-24.33-13.43,18.94c-1.7,2.4-2.54,4.34-2.54,5.82q0,3.7,6.24,3.7c.21,0,.32.21.32.64s-.11.63-.32.63c-2.12,0-3.74,0-4.87-.11l-7.3-.1-4.44.1c-.78.08-2.08.11-3.92.11-.21,0-.31-.21-.31-.63s.1-.64.31-.64q7.31,0,14.39-9.63l14.92-20.42-17-25.81a20.11,20.11,0,0,0-5.45-6,11.55,11.55,0,0,0-6.4-1.74c-.14,0-.21-.21-.21-.64s.07-.63.21-.63l4,.1c1.83.15,3.17.22,4,.22q3.6,0,8.67-.22l5.5-.1c.22,0,.32.21.32.63s-.1.64-.32.64a14.5,14.5,0,0,0-4.07.42c-.88.28-1.32.78-1.32,1.48a4.88,4.88,0,0,0,.95,2.33l15.66,23.59,12.38-17.56q2.85-4,2.85-6.56,0-3.7-5.92-3.7c-.21,0-.32-.21-.32-.64s.11-.63.32-.63l4.76.1q4,.23,7.3.22c1.27,0,2.75-.07,4.44-.22l3.92-.1c.21,0,.32.21.32.63s-.11.64-.32.64a12.91,12.91,0,0,0-7.3,2.64,34,34,0,0,0-7.62,7.83l-13.86,18.94,17.67,26.66a18.23,18.23,0,0,0,5.66,5.82,14.2,14.2,0,0,0,7.25,1.69C370.86,160.39,370.93,160.6,370.93,161Z"/>
      <path class="cls-2" d="M393.73,157.59a5.24,5.24,0,0,0,3.49,2.17,38.14,38.14,0,0,0,8.2.63c.21,0,.31.21.31.64s-.1.63-.31.63c-2.9,0-5.15,0-6.77-.11l-9.21-.1-7.09.1c-1.34.08-3.14.11-5.39.11q-.21,0-.21-.63c0-.43.07-.64.21-.64a23.54,23.54,0,0,0,5.87-.53,3.58,3.58,0,0,0,2.49-2.06,13.14,13.14,0,0,0,.63-4.71v-49a12.72,12.72,0,0,0-.63-4.66,3.78,3.78,0,0,0-2.49-2.06,21.31,21.31,0,0,0-5.87-.58c-.14,0-.21-.21-.21-.64s.07-.63.21-.63l5.29.1q4.44.23,7.09.22t5.92-.32c.85,0,2.19-.05,4-.16s3.42-.16,4.76-.16q9.73,0,15.61,4.34t5.87,13.22a19.57,19.57,0,0,1-3.44,11.75,20.91,20.91,0,0,1-8.84,7.08,27.57,27.57,0,0,1-11.1,2.33,20,20,0,0,1-5.08-.53c-.21,0-.32-.17-.32-.53a1.34,1.34,0,0,1,.16-.63c.11-.21.23-.28.37-.21a15.87,15.87,0,0,0,3.81.42,16.54,16.54,0,0,0,11.79-4.55q4.81-4.55,4.82-13.12,0-8.36-4.55-13.17a15.3,15.3,0,0,0-11.64-4.81,25.39,25.39,0,0,0-5.5.42,3.51,3.51,0,0,0-2.43,2,12.63,12.63,0,0,0-.74,5.13v48.35A10.13,10.13,0,0,0,393.73,157.59Z"/>
      <path class="cls-2" d="M480.64,145.68a1.58,1.58,0,0,1,.58.11.35.35,0,0,1,.26.32,99.41,99.41,0,0,0-1,14,1.67,1.67,0,0,1-.37,1.22,1.84,1.84,0,0,1-1.32.37H434.51q-.21,0-.21-.63c0-.43.07-.64.21-.64a23.49,23.49,0,0,0,5.87-.53,3.73,3.73,0,0,0,2.54-2.06,12.09,12.09,0,0,0,.69-4.71v-49a11.71,11.71,0,0,0-.69-4.66,4,4,0,0,0-2.54-2.06,21.26,21.26,0,0,0-5.87-.58c-.14,0-.21-.21-.21-.64s.07-.63.21-.63H477a.84.84,0,0,1,.95.95l.21,13c0,.21-.17.34-.53.37s-.56-.05-.63-.26q-.32-5.61-3.39-8.73a10.9,10.9,0,0,0-8.14-3.12h-6.46a18.83,18.83,0,0,0-5.44.58,3.93,3.93,0,0,0-2.44,2,10.28,10.28,0,0,0-.68,4.29v21.47h12.9c3.39,0,5.8-.56,7.25-1.69s2.17-3,2.17-5.71q0-.21.63-.21c.43,0,.64.07.64.21l-.11,8.57c0,2,0,3.59.11,4.65l.1,5.08q0,.21-.63.21c-.42,0-.64-.07-.64-.21q0-4.65-2.27-6.67t-7.57-2H450.49v24.33a11,11,0,0,0,.63,4.33,3.56,3.56,0,0,0,2.33,1.91,19.29,19.29,0,0,0,5.29.53h8.46a11.11,11.11,0,0,0,8.46-3.6,19.13,19.13,0,0,0,4.55-9.94C480.21,145.76,480.35,145.68,480.64,145.68Z"/>
      <path class="cls-2" d="M559.24,161q0,.63-.21.63H545.38q-2.64,0-9.89-9a307.33,307.33,0,0,1-17.62-25.23,20.11,20.11,0,0,1-5.71.74c-1.34,0-2.93-.07-4.76-.21v25.18a12.83,12.83,0,0,0,.64,4.76,3.55,3.55,0,0,0,2.48,2,23.54,23.54,0,0,0,5.87.53c.22,0,.32.21.32.64s-.1.63-.32.63c-2.18,0-3.91,0-5.18-.11l-7.3-.1-7.19.1c-1.27.08-3.07.11-5.4.11q-.21,0-.21-.63c0-.43.07-.64.21-.64a21.83,21.83,0,0,0,5.92-.58,4.14,4.14,0,0,0,2.65-2.06,11,11,0,0,0,.74-4.66v-49a11.71,11.71,0,0,0-.69-4.66,3.92,3.92,0,0,0-2.54-2.06,21.26,21.26,0,0,0-5.87-.58c-.21,0-.32-.21-.32-.64s.11-.63.32-.63l5.19.1c3,.15,5.35.22,7.19.22,1.27,0,2.47,0,3.6-.11l3-.21c2.26-.21,4.3-.32,6.14-.32q8.57,0,13.22,3.49a11.48,11.48,0,0,1,4.65,9.74,17.06,17.06,0,0,1-3,9.57,21.38,21.38,0,0,1-7.83,7.14q9,13.44,15.13,21t10.9,10.9a16.27,16.27,0,0,0,9.31,3.33C559.17,160.39,559.24,160.6,559.24,161Zm-45.6-35.34q7.3,0,10.48-3.12t3.17-10.42q0-15.34-12.91-15.34a14.71,14.71,0,0,0-4.28.47,3.33,3.33,0,0,0-2.06,2,14.14,14.14,0,0,0-.64,5v21A40.28,40.28,0,0,0,513.64,125.69Z"/>
      <path class="cls-2" d="M559.29,100.83q-3.33,3.39-4.81,11.53c0,.14-.2.21-.58.21s-.58-.07-.58-.21c.28-2.54.59-5.85.95-9.94s.53-7.16.53-9.21c0-.35.19-.53.58-.53s.58.18.58.53c0,1.55,1.91,2.33,5.71,2.33q9,.31,21.27.32,6.24,0,13.22-.22l7.2-.1A22.39,22.39,0,0,0,609,95a3.26,3.26,0,0,0,2.38-2.12.56.56,0,0,1,.63-.42c.35,0,.53.14.53.42q-.31,3.08-.63,9.31c-.21,4.17-.32,7.55-.32,10.16,0,.14-.21.21-.64.21s-.63-.07-.63-.21q-.32-8.25-3.39-11.59T596.8,97.44a37.24,37.24,0,0,0-6.77.43,3.78,3.78,0,0,0-2.75,1.79,10.47,10.47,0,0,0-.74,4.66v48.77a11.2,11.2,0,0,0,.74,4.76,4,4,0,0,0,2.85,2,30.31,30.31,0,0,0,6.67.53c.21,0,.32.21.32.64s-.11.63-.32.63c-2.33,0-4.2,0-5.61-.11l-8.25-.1-7.94.1c-1.41.08-3.35.11-5.81.11-.15,0-.22-.21-.22-.63s.07-.64.22-.64a30.27,30.27,0,0,0,6.66-.53,4.2,4.2,0,0,0,2.91-2.06,10.66,10.66,0,0,0,.79-4.71v-49a10.14,10.14,0,0,0-.74-4.61,3.69,3.69,0,0,0-2.75-1.69,43.3,43.3,0,0,0-6.77-.37Q562.63,97.44,559.29,100.83Z"/>
    </g>
    <g>
      <path class="cls-2" d="M256,215.37V201.55h2.31V215q0,4.47,1.5,6.66a5.13,5.13,0,0,0,4.54,2.19,8.92,8.92,0,0,0,3.91-.9,10.41,10.41,0,0,0,3.3-2.53,10.66,10.66,0,0,0,2.12-3.8V201.55H276v20.91a1.18,1.18,0,0,0,.25.83,1.1,1.1,0,0,0,.72.32v1.89a5.63,5.63,0,0,1-.72.05,1.48,1.48,0,0,1-.44-.05,2,2,0,0,1-1.29-.66,2.27,2.27,0,0,1-.55-1.41l-.05-3.59a11.73,11.73,0,0,1-4.32,4.49,11.37,11.37,0,0,1-5.93,1.64,6.6,6.6,0,0,1-5.72-2.68C256.63,221.51,256,218.87,256,215.37Z"/>
      <path class="cls-2" d="M320.53,225.5h-2.31V212.17c0-3.06-.44-5.31-1.32-6.73a4.53,4.53,0,0,0-4.18-2.14,9,9,0,0,0-4,1,10.87,10.87,0,0,0-3.42,2.65,10.54,10.54,0,0,0-2.1,3.79v14.8h-2.3V201.55h2.17v5.74a10.43,10.43,0,0,1,2.58-3.19,12.85,12.85,0,0,1,3.6-2.14,11.12,11.12,0,0,1,4.11-.78,7.12,7.12,0,0,1,3.35.71,5.79,5.79,0,0,1,2.21,2.05,9.22,9.22,0,0,1,1.23,3.31,25.26,25.26,0,0,1,.37,4.5Z"/>
      <path class="cls-2" d="M345.08,196.05V191.8h2.31v4.25Zm0,29.45v-24h2.31v24Z"/>
      <path class="cls-2" d="M379.61,225.5l-10-23.95H372l8.82,21.51,8.86-21.51H392L382,225.5Z"/>
      <path class="cls-2" d="M423.56,226a11.23,11.23,0,0,1-4.71-1,11.7,11.7,0,0,1-3.76-2.72,12.74,12.74,0,0,1-2.49-4,12.92,12.92,0,0,1-.9-4.8,12.62,12.62,0,0,1,1.52-6.17,12,12,0,0,1,4.2-4.43,11.08,11.08,0,0,1,6-1.68,10.84,10.84,0,0,1,6.05,1.7,12.5,12.5,0,0,1,5.73,10.58V214a1.89,1.89,0,0,1-.05.46h-21a10.73,10.73,0,0,0,1.52,4.92,10.11,10.11,0,0,0,3.44,3.47,8.77,8.77,0,0,0,4.6,1.26,9.17,9.17,0,0,0,4.7-1.29,7.13,7.13,0,0,0,3.1-3.33l2,.56a8.11,8.11,0,0,1-2.19,3,10.86,10.86,0,0,1-3.51,2.1A11.79,11.79,0,0,1,423.56,226ZM414,212.67h19a10.88,10.88,0,0,0-1.48-5,9.6,9.6,0,0,0-3.39-3.4,8.93,8.93,0,0,0-4.64-1.24,8.84,8.84,0,0,0-4.62,1.24,9.8,9.8,0,0,0-3.37,3.4A10.87,10.87,0,0,0,414,212.67Z"/>
      <path class="cls-2" d="M469.22,203.58a9.41,9.41,0,0,0-9.05,6.92v15h-2.31V201.55h2.22v5.86a11.52,11.52,0,0,1,3.32-4.13,8.56,8.56,0,0,1,4.39-1.83c.3,0,.58,0,.83,0h.6Z"/>
      <path class="cls-2" d="M498.76,226a14.41,14.41,0,0,1-5.31-1,11.65,11.65,0,0,1-4.29-3l1.06-1.61a13.51,13.51,0,0,0,4,2.74,11.29,11.29,0,0,0,4.43.86,8.83,8.83,0,0,0,5-1.29,4.07,4.07,0,0,0,1.91-3.58,3.14,3.14,0,0,0-.89-2.41,6.65,6.65,0,0,0-2.59-1.38c-1.12-.36-2.49-.73-4.09-1.13a32.5,32.5,0,0,1-4.13-1.34,5.74,5.74,0,0,1-2.51-1.79,4.8,4.8,0,0,1-.83-3,6.27,6.27,0,0,1,1.17-3.89,7.14,7.14,0,0,1,3.19-2.3,12.63,12.63,0,0,1,4.45-.75,12.07,12.07,0,0,1,4.92.92,7.68,7.68,0,0,1,3.21,2.45L506.24,206a6.94,6.94,0,0,0-3-2.19,11.06,11.06,0,0,0-4.06-.71,10.37,10.37,0,0,0-3.14.46,5,5,0,0,0-2.38,1.49,4.09,4.09,0,0,0-.9,2.78,3.19,3.19,0,0,0,.67,2.16,4.71,4.71,0,0,0,2,1.27c.89.32,2,.66,3.32,1a47.47,47.47,0,0,1,4.85,1.43,8,8,0,0,1,3.14,1.9,4.61,4.61,0,0,1,1.11,3.29,6.08,6.08,0,0,1-2.5,5.15A10.64,10.64,0,0,1,498.76,226Z"/>
      <path class="cls-2" d="M530.89,196.05V191.8h2.31v4.25Zm0,29.45v-24h2.31v24Z"/>
      <path class="cls-2" d="M568.75,224.54a9,9,0,0,0-.93.46,9.19,9.19,0,0,1-1.75.67,8.66,8.66,0,0,1-2.36.3,5.72,5.72,0,0,1-2.33-.49,4,4,0,0,1-1.73-1.46,4.2,4.2,0,0,1-.64-2.37V203.44h-3.37v-1.89H559v-8.22h2.3v8.22h5.59v1.89h-5.59V221.1a2.67,2.67,0,0,0,1,2,3.27,3.27,0,0,0,2,.68,6,6,0,0,0,2.5-.49,9.75,9.75,0,0,0,1.24-.62Z"/>
      <path class="cls-2" d="M592,233.63a12,12,0,0,0,1.32,0,1.66,1.66,0,0,0,.85-.2,2.08,2.08,0,0,0,.86-.72,12.66,12.66,0,0,0,1.17-2.26q.75-1.68,2.08-4.95l-10.71-24H590l9.51,21.53,8.81-21.53h2.36l-13.16,31.53a4.37,4.37,0,0,1-.76,1.31,3.72,3.72,0,0,1-1.18.93,4.1,4.1,0,0,1-1.66.39l-.88.07a10,10,0,0,1-1.06,0Z"/>
    </g>
    <g>
      <g class="cls-3">
        <g>
          <rect class="cls-4" x="0.63" y="0.04" width="100.1" height="119.45"/>
          <rect class="cls-5" x="0.57" y="119.45" width="100.1" height="119.45"/>
          <rect class="cls-5" x="100.67" width="100.1" height="119.45"/>
          <rect class="cls-4" x="100.67" y="119.45" width="100.1" height="119.45"/>
        </g>
      </g>
      <path class="cls-4" d="M77.69,142.55a3.88,3.88,0,0,1-2.46.92c-4.64.26-19.07.27-19.07.27s-1.17-8.52,6.69-6.68c-.13,0-1.21-6.4-1.21-6.4-2.31,0-8.07.38-7.76,8.43,0,1.19.2,4.11.2,4.11s-1.27-1.27-2.85-2.74c-4.12-3.83-11-2.33-14.17,1.59-3.31,4.16-1.16,13.28-1.16,13.28s-14.67,22.53,6.39,43.06c6,5.85,13.53,9.12,13.53,9.86,0-2.47-.08-3.46,0-5.77.35-.7,17.43-10.61,15.57-21.15a7.27,7.27,0,0,1,.46-3.92L59.3,187.71l-3.43-3.42c.06-4.49.13-9.9.15-10.9s0-2.13,0-3.19c5.65-.18,9.77-2,12.79-.25a7.18,7.18,0,0,1,1.3,1s.57-4.54-1.22-7.11c-2.81-4-11.43-1.21-12.9-1.17V150.79a37.61,37.61,0,0,1,4.71.69c8.27,1.88,9.73,3.86,9.73,3.86a14,14,0,0,1,0-2.9c.26-2.86,3.89-6.83,6-8.24C77.89,143.18,77.69,142.55,77.69,142.55Zm-23.36,8.24v11.94s-4.73-.54-5.17-2.08C47,161.55,48,164,48,164l-3-6.29a7.76,7.76,0,0,1,5.33-6.44A15.66,15.66,0,0,1,54.33,150.79Zm0,27.07s-3-6.28-3.92-7.66h3.92C54.25,170.29,54.33,177.86,54.33,177.86ZM44.11,155.6c-1.3-3.58-1.56-4.29-1.73-4.74a17.43,17.43,0,0,1,3.35-3,17.63,17.63,0,0,1,5.23-2.4S43.67,149,44.11,155.6Zm4.2-15.88c1.86.51,3.25,2.06,5.34,3.88-.83.37-3.46,1.24-4.75,1.7A21.33,21.33,0,0,0,42,149.49S40.71,137.69,48.31,139.72Zm-3.65,51.92c-14.94-11.83-11.84-23.76-8-34,1.31,2.58,12.6,23.4,12.92,28.22C49.8,189.19,47.4,193.81,44.66,191.64Zm5.27,4.11-3.81-2.65a8.66,8.66,0,0,0,5-.82,8.29,8.29,0,0,0,1.25-.76l1.93,1.93v5.31C53.94,198.51,51.88,197.1,49.93,195.75Zm12.68-9.64c2.81.1,4.91,6.17-1.26,11.15a54.1,54.1,0,0,1-5.56,4.23c0-1.44,0-4.71,0-7.09l5.11-5.11-1-1C61.06,187.24,62.2,186.35,62.61,186.11Z"/>
      <path class="cls-5" d="M194.57,7.32V173.67c0,31.12-16.88,46.25-51.59,46.25-20.09,0-34.44,6.24-42.31,10.86-7.87-4.62-22.22-10.86-42.3-10.86-34.72,0-51.6-15.13-51.6-46.25V7.32h187.8m4.52-4.52H2.26V173.67c0,33.69,18.88,50.77,56.11,50.77,21.51,0,36,7.57,42.3,11.65,6.26-4.08,20.79-11.65,42.31-11.65,37.23,0,56.11-17.08,56.11-50.77V2.8Z"/>
      <path class="cls-2" d="M199.09,2.8V173.67c0,33.69-18.88,50.77-56.11,50.77-21.52,0-36,7.57-42.31,11.65-6.26-4.08-20.79-11.65-42.3-11.65-37.23,0-56.11-17.08-56.11-50.77V2.8H199.09m4.51-4.51H-2.26V173.67c0,36.17,21,55.28,60.63,55.28,20.07,0,33.57,6.84,39.84,10.92l2.46,1.61,2.46-1.61C109.4,235.79,122.91,229,143,229c39.66,0,60.62-19.11,60.62-55.28V-1.71Z"/>
      <path class="cls-5" d="M180.7,147.22s-.53-.38-2.48,1.81c-3.14,3.53-15.68-2.07-26.28-5.63-.12-1.24-.21-4.81,2.65-6.11a5.81,5.81,0,0,1,4.1-.14l-1.21-6.4a7.27,7.27,0,0,0-6.22,2.42c-2.41,2.82-1.93,7.48-1.58,9.49-5.21-1.63-9.71-2.53-12-1.23-1.85,1.09-3.33,3.39-4.3,5.19-3.44,6.93-.37,11,7.26,8.63l1.72-.46c-7.66,6.57-13.54,15.19-14.29,25.3-.89,11.9,7.35,16.58,16.29,22.91,4.83,3.42,7.26,5.25,7.26,5.25s0-5.12,0-12.32l4.42-4.41-4.41-4.41c0-14.33,0-31.45,0-36,4.28,1,16.36,6.11,20.6,6.14-.87,2.4.27,5.51,3.36,4.81C168,160.65,180.7,147.22,180.7,147.22Zm-38.81,7.12c-2.57,1.15-9.83,2.88-9.29-3.15.58-6.6,11.87-2,16.55-.76C146.49,151.47,144.73,153.34,141.89,154.34Zm-9.62,20.06a27.88,27.88,0,0,1,7.26-15.89c-2.19,5.1-.74,9.78,1.54,15.07a67.22,67.22,0,0,1,3.63,10.62c.73,3.6-.63,8-5.08,7.54C135.18,187,132.32,181.15,132.27,174.4Zm18,12.75-4.36,4.37,4.29,4.29c0,1.35,0,2.41,0,3.1a37.46,37.46,0,0,1-9.8-6.53c11-1.75,10.37-11.93,8.34-18.35-2.26-7.13-5.19-10.15-4.46-15.05.32-2.12,1.78-5.11,5.92-8.36C150.42,156.65,150.34,174.67,150.25,187.15Z"/>
      <path class="cls-5" d="M71,47.86c-1.61-5.34,2.49-11.5,4.21-13.76.11-.15-.07-.35-.22-.24-2,1.34-7,4.22-11.78,3.68-7.91-.89-10,4.54-10,4.54s0-1.83.16-3.49c.32-3.35,1.18-8.06,3.37-9.06a5.81,5.81,0,0,1,4.1-.14L59.65,23a7.26,7.26,0,0,0-6.22,2.43c-2.26,2.64-1.8,12.39-1.78,13.85,0,.15,0,.62,0,.62.69,18.18.57,32.94.54,35.55l-4,4,4,4.05.05,4.76c-1.55-2.16-5.52-3.36-9.34-4.16-4.31-.89-10.6-2.46-10.6-2.46s1.72-1.41,3.58-3.31C42.69,71.46,50.57,62.7,51,53.15c.21-9.17-6.32-22.5-16.78-22.08-.74,3.17-6.94,6.68-9.17,9.19-.6.68-.92,2.49.08,1.89,2.24-5.21,9.76-3.5,12.9-.17C48.54,53.16,41.2,67,37.61,72.66c-2.81,4.41-6.84,8.54-7.41,8.42-4.51-1-6.19-2.55-6.19-2.55s-1.92,5.92,5.73,8.3c8.07,2.5,9.43,3,17.14,5,3.38.76,6.78,3.86,6.78,3.86a7.38,7.38,0,0,1,.08-2.34c1.36-4.2,22-4.62,25.36-14.87C84,63.6,72.69,53.4,71,47.86ZM67.45,83.27c-2.79,3.1-13.75,8-13.75,8l-.1-7.94,3.85-3.86-4.09-4.09c0-2.19,0-11.15,0-14.17,0-3.52-.1-7.56,0-11.09.06-2.27-.48-5.62,2.38-5.67,3.21,0,6.8-.06,10-.16-1.1,1.15-2.51,2.31-3.7,3.45C62.71,50.52,77.68,71.85,67.45,83.27Z"/>
      <path class="cls-4" d="M164.09,50.5A93.45,93.45,0,0,0,152,49.69s-.1-1.75,0-6.41l.15.57s-.07-.6-.13-1.55v-.06a25.08,25.08,0,0,1,13.21,3.59c.89.53.62.84.93,1.12a.34.34,0,0,0,.56-.3,10.09,10.09,0,0,1,3-8.91,16.76,16.76,0,0,0,2.84-3.85,10.63,10.63,0,0,1-4.15.88c-1.44.13-6.83.16-14.35.31a12.14,12.14,0,0,1-2-.14c.28-3,1-5.77,2.65-6.43a5.48,5.48,0,0,1,3.47-.11l-1-5.41a6.11,6.11,0,0,0-5.25,2c-1.52,1.78-1.68,5.81-1.54,8.94l-.42-.42c-2.35-2.34-6-7.34-13.24-1-7.08,6.21-2.75,20.12,5.42,22.63a32.27,32.27,0,0,0,8.39,1.23V67.78s0-8-15.34-5.2c-5.54,1-11.51,2.86-12.25-2-2.33,4.11.08,8.46,3.36,8.72,8.23.63,19.2-5.41,23.44,3.13a6.32,6.32,0,0,1,.27.65l-4.23,4.24,4.82,4.81a23.42,23.42,0,0,0-.07,3.93c-6.38-3-13.75-10.87-21.15-6.37a7.6,7.6,0,0,0-3.18,3.52,6.17,6.17,0,0,0,.42,4.89,7.48,7.48,0,0,0,4.74,3.38l.34-.7a5.5,5.5,0,0,1-4.38-2.41c-1.34-2.25,1.74-5.62,6.56-5,6.56.89,17.43,12.19,17.43,12.19S171.34,83.35,175.51,69C177.57,61.86,172.86,51.94,164.09,50.5Zm-22.31-1.08a8,8,0,0,1-5.57-2.33,9.6,9.6,0,0,1-2.37-7.3c.28-8.88,12.06-12.92,15.65-4.32C137.75,38.22,141.78,49.42,141.78,49.42Zm8.68.27-8-.27s-2.74-8.37,8-7.13Zm18.69,20.92c-.64,12.67-16.33,22.8-17.3,23.23v-5c0-.59,0-5.59,0-6.29,0-.12,0-.29,0-.48l4.78-4.77L152,72.68c0-2,.06-4,0-5.58-.06-3.31-.07-7.38,0-10.66.6-.11,9.37-1.57,14.31,4.28C169.46,64.48,169.23,69.08,169.15,70.61Z"/>
    </g>
  </g>
</svg>
