<svg id="Слой_1" data-name="Слой 1" xmlns="http://www.w3.org/2000/svg" xmlns:xlink="http://www.w3.org/1999/xlink" viewBox="0 0 474.33 400.87">
  <defs>
    <style>
      .cls-1 {
        fill: none;
      }

      .cls-2 {
        fill: #efefef;
      }

      .cls-3 {
        clip-path: url(#clip-path);
      }
    </style>
    <clipPath id="clip-path">
      <path class="cls-1" d="M135.52,2.91v177c0,34.9,19.56,52.6,58.13,52.6,22.29,0,37.35,7.85,43.83,12.07,6.49-4.22,21.55-12.07,43.84-12.07,38.57,0,58.13-17.7,58.13-52.6V2.91Z"/>
    </clipPath>
  </defs>
  <g>
    <g>
      <path class="cls-2" d="M55.52,349.05c0,.31-.08.46-.23.46-1.58,0-2.83,0-3.75-.07l-5.29-.08-5.59.08c-.91.05-2.14.07-3.67.07-.15,0-.23-.15-.23-.46s.08-.46.23-.46a17.63,17.63,0,0,0,4.36-.38,2.72,2.72,0,0,0,1.88-1.49,8.83,8.83,0,0,0,.5-3.41V325.39H14.32v17.92a8.83,8.83,0,0,0,.5,3.41,2.72,2.72,0,0,0,1.87,1.49,17.73,17.73,0,0,0,4.37.38c.1,0,.15.16.15.46s-.05.46-.15.46c-1.58,0-2.83,0-3.75-.07l-5.52-.08-5.28.08c-.92.05-2.2.07-3.83.07-.1,0-.15-.15-.15-.46s.05-.46.15-.46A17.79,17.79,0,0,0,7,348.21a2.73,2.73,0,0,0,1.91-1.49,8.83,8.83,0,0,0,.5-3.41V307.85a8.54,8.54,0,0,0-.5-3.37A2.85,2.85,0,0,0,7.05,303a16,16,0,0,0-4.29-.42c-.11,0-.16-.16-.16-.46s0-.46.16-.46l3.9.08q3.23.15,5.13.15c1.48,0,3.35-.05,5.59-.15l3.68-.08c.1,0,.15.15.15.46s-.05.46-.15.46a15,15,0,0,0-4.33.46,2.93,2.93,0,0,0-1.91,1.57,8.78,8.78,0,0,0-.5,3.4v15.78H43.73V308a8.78,8.78,0,0,0-.5-3.4A2.92,2.92,0,0,0,41.35,303a14.84,14.84,0,0,0-4.36-.46c-.15,0-.23-.16-.23-.46s.08-.46.23-.46l3.67.08c2.25.1,4.11.15,5.59.15s3.14-.05,5.29-.15l3.75-.08c.15,0,.23.15.23.46s-.08.46-.23.46A16,16,0,0,0,51,303a2.83,2.83,0,0,0-1.87,1.49,8.36,8.36,0,0,0-.5,3.37v35.46a8.64,8.64,0,0,0,.5,3.41A2.7,2.7,0,0,0,51,348.21a17.26,17.26,0,0,0,4.29.38C55.44,348.59,55.52,348.75,55.52,349.05Z"/>
      <path class="cls-2" d="M112,349.05c0,.31-.1.46-.31.46-1,0-2.47-.05-4.51-.15s-3.53-.16-4.45-.16c-1.12,0-2.55.06-4.29.16s-2.88.15-3.75.15c-.2,0-.3-.15-.3-.46s.1-.46.3-.46a11.91,11.91,0,0,0,4.14-.53,1.87,1.87,0,0,0,1.3-1.84,9.09,9.09,0,0,0-1-3.29l-8.8-18.77H75.81l-6.58,15.63a11.69,11.69,0,0,0-1.07,4.28q0,4.53,7.5,4.52c.26,0,.38.16.38.46s-.12.46-.38.46c-.92,0-2.25-.05-4-.15-1.94-.1-3.63-.16-5.06-.16s-2.86.06-4.59.16c-1.53.1-2.81.15-3.83.15-.25,0-.38-.15-.38-.46s.13-.46.38-.46a7.56,7.56,0,0,0,3.64-.8A8.3,8.3,0,0,0,64.67,345a37.11,37.11,0,0,0,3-5.85L83.78,301a.6.6,0,0,1,.53-.23c.26,0,.41.08.46.23L102.85,339q2.59,5.67,4.44,7.62a5.79,5.79,0,0,0,4.36,1.95C111.86,348.59,112,348.75,112,349.05ZM76.5,322.56h13L82.63,308Z"/>
      <path class="cls-2" d="M127.58,346.72a2.6,2.6,0,0,0,1.8,1.49,16.73,16.73,0,0,0,4.25.38c.15,0,.23.16.23.46s-.08.46-.23.46c-1.53,0-2.75,0-3.67-.07l-5.44-.08-5.29.08c-.91.05-2.17.07-3.75.07-.15,0-.23-.15-.23-.46s.08-.46.23-.46a16.73,16.73,0,0,0,4.25-.38,2.71,2.71,0,0,0,1.84-1.49,8.83,8.83,0,0,0,.5-3.41V307.85a8.54,8.54,0,0,0-.5-3.37,2.84,2.84,0,0,0-1.84-1.49,15.49,15.49,0,0,0-4.25-.42c-.15,0-.23-.16-.23-.46s.08-.46.23-.46l3.75.08c2.15.1,3.91.15,5.29.15,1.53,0,3.37-.05,5.51-.15l3.6-.08c.15,0,.23.15.23.46s-.08.46-.23.46a13.71,13.71,0,0,0-4.17.46,2.89,2.89,0,0,0-1.84,1.57,8.78,8.78,0,0,0-.5,3.4v35.31A9.62,9.62,0,0,0,127.58,346.72Z"/>
      <path class="cls-2" d="M189.76,349.05c0,.31,0,.46-.15.46h-9.88q-1.9,0-7.16-6.55a218.57,218.57,0,0,1-12.75-18.26,14.6,14.6,0,0,1-4.13.54c-1,0-2.12-.05-3.45-.16v18.23a9.29,9.29,0,0,0,.46,3.44,2.59,2.59,0,0,0,1.8,1.46,16.73,16.73,0,0,0,4.25.38c.15,0,.23.16.23.46s-.08.46-.23.46c-1.58,0-2.83,0-3.75-.07l-5.29-.08-5.2.08c-.92.05-2.23.07-3.91.07-.1,0-.15-.15-.15-.46s.05-.46.15-.46a16,16,0,0,0,4.29-.42,3,3,0,0,0,1.91-1.49,7.91,7.91,0,0,0,.54-3.37V307.85a8.54,8.54,0,0,0-.5-3.37A2.82,2.82,0,0,0,145,303a15.49,15.49,0,0,0-4.25-.42c-.15,0-.23-.16-.23-.46s.08-.46.23-.46l3.76.08c2.14.1,3.87.15,5.2.15.92,0,1.79,0,2.61-.08l2.14-.15c1.63-.15,3.11-.23,4.44-.23q6.21,0,9.58,2.53a8.3,8.3,0,0,1,3.36,7,12.37,12.37,0,0,1-2.14,6.93,15.51,15.51,0,0,1-5.67,5.17q6.51,9.74,10.95,15.2a42,42,0,0,0,7.89,7.89,11.77,11.77,0,0,0,6.74,2.41C189.71,348.59,189.76,348.75,189.76,349.05Zm-33-25.58q5.28,0,7.58-2.26c1.53-1.5,2.3-4,2.3-7.54q0-11.1-9.35-11.1a10.5,10.5,0,0,0-3.1.34,2.42,2.42,0,0,0-1.49,1.46,10.22,10.22,0,0,0-.46,3.63v15.17A29.62,29.62,0,0,0,156.76,323.47Z"/>
      <path class="cls-2" d="M243.45,338a1.16,1.16,0,0,1,.42.07c.12.06.19.13.19.23a71.47,71.47,0,0,0-.69,10.11,1.19,1.19,0,0,1-.27.88,1.34,1.34,0,0,1-1,.27H210.06c-.11,0-.16-.15-.16-.46s0-.46.16-.46a16.78,16.78,0,0,0,4.25-.38,2.73,2.73,0,0,0,1.84-1.49,8.87,8.87,0,0,0,.49-3.41V307.85a8.57,8.57,0,0,0-.49-3.37,2.87,2.87,0,0,0-1.84-1.49,15.54,15.54,0,0,0-4.25-.42c-.11,0-.16-.16-.16-.46s0-.46.16-.46h30.78a.61.61,0,0,1,.69.69l.15,9.42c0,.15-.12.24-.38.27s-.41,0-.46-.2a9.39,9.39,0,0,0-2.45-6.31,7.87,7.87,0,0,0-5.9-2.26h-4.67a13.51,13.51,0,0,0-3.94.42,2.82,2.82,0,0,0-1.76,1.45,7.49,7.49,0,0,0-.5,3.1v15.55H231q3.67,0,5.25-1.22c1-.82,1.57-2.2,1.57-4.14,0-.1.15-.15.46-.15s.46.05.46.15l-.08,6.2c0,1.48,0,2.61.08,3.37l.07,3.68c0,.1-.15.15-.46.15s-.45-.05-.45-.15q0-3.37-1.65-4.83c-1.1-1-2.92-1.45-5.48-1.45h-9.11V343a7.88,7.88,0,0,0,.46,3.14,2.57,2.57,0,0,0,1.68,1.38,13.82,13.82,0,0,0,3.83.38h6.13a8.06,8.06,0,0,0,6.13-2.6,13.94,13.94,0,0,0,3.29-7.2C243.14,338,243.24,338,243.45,338Z"/>
      <path class="cls-2" d="M296.67,349.05c0,.31-.05.46-.16.46-1.32,0-2.37,0-3.13-.07l-4.22-.08-5.89.08c-.92.05-2.17.07-3.76.07-.1,0-.15-.15-.15-.46s.05-.46.15-.46a10.59,10.59,0,0,0,3-.3c.61-.21.92-.54.92-1a3.14,3.14,0,0,0-.69-1.68L271.09,328l-9.73,13.71a8.15,8.15,0,0,0-1.83,4.21q0,2.68,4.51,2.68c.16,0,.23.16.23.46s-.07.46-.23.46c-1.53,0-2.7,0-3.52-.07l-5.28-.08-3.22.08c-.56.05-1.5.07-2.83.07-.15,0-.23-.15-.23-.46s.08-.46.23-.46q5.28,0,10.41-7l10.8-14.78-12.33-18.68a14.5,14.5,0,0,0-3.94-4.33,8.37,8.37,0,0,0-4.64-1.26c-.1,0-.15-.16-.15-.46s0-.46.15-.46l2.91.08q2,.15,2.91.15,2.61,0,6.28-.15l4-.08c.15,0,.23.15.23.46s-.08.46-.23.46a10.65,10.65,0,0,0-2.95.3q-1,.31-1,1.08a3.47,3.47,0,0,0,.69,1.68l11.33,17.08,9-12.71c1.38-1.94,2.07-3.53,2.07-4.75q0-2.69-4.29-2.68c-.15,0-.23-.16-.23-.46s.08-.46.23-.46l3.45.08q2.91.15,5.28.15c.92,0,2-.05,3.22-.15l2.83-.08c.16,0,.23.15.23.46s-.07.46-.23.46a9.38,9.38,0,0,0-5.28,1.91,24.3,24.3,0,0,0-5.51,5.67l-10,13.71,12.79,19.3a13.21,13.21,0,0,0,4.1,4.21,10.34,10.34,0,0,0,5.24,1.22C296.62,348.59,296.67,348.75,296.67,349.05Z"/>
      <path class="cls-2" d="M313.17,346.56a3.77,3.77,0,0,0,2.53,1.57,27.18,27.18,0,0,0,5.93.46c.16,0,.23.16.23.46s-.07.46-.23.46c-2.09,0-3.72,0-4.9-.07l-6.66-.08-5.13.08c-1,.05-2.27.07-3.91.07-.1,0-.15-.15-.15-.46s.05-.46.15-.46a16.73,16.73,0,0,0,4.25-.38,2.55,2.55,0,0,0,1.8-1.49,9.39,9.39,0,0,0,.46-3.41V307.85a9.08,9.08,0,0,0-.46-3.37,2.68,2.68,0,0,0-1.8-1.49,15.49,15.49,0,0,0-4.25-.42c-.1,0-.15-.16-.15-.46s.05-.46.15-.46l3.83.08q3.22.15,5.13.15c1.28,0,2.71-.08,4.29-.23q.92,0,2.91-.12c1.33-.07,2.48-.11,3.45-.11q7,0,11.29,3.14t4.25,9.57a14.13,14.13,0,0,1-2.49,8.5,15.12,15.12,0,0,1-6.39,5.13,20,20,0,0,1-8,1.69,14.54,14.54,0,0,1-3.68-.39c-.15,0-.23-.12-.23-.38a1,1,0,0,1,.12-.46q.11-.23.27-.15a11.5,11.5,0,0,0,2.75.31,12,12,0,0,0,8.54-3.3q3.48-3.29,3.49-9.49c0-4-1.1-7.21-3.3-9.54a11.07,11.07,0,0,0-8.42-3.48,18.54,18.54,0,0,0-4,.3,2.54,2.54,0,0,0-1.76,1.42,9.17,9.17,0,0,0-.54,3.71v35A7.37,7.37,0,0,0,313.17,346.56Z"/>
      <path class="cls-2" d="M376.08,338a1.16,1.16,0,0,1,.42.07c.13.06.19.13.19.23a71.47,71.47,0,0,0-.69,10.11,1.19,1.19,0,0,1-.26.88,1.34,1.34,0,0,1-1,.27H342.69c-.1,0-.15-.15-.15-.46s0-.46.15-.46a16.73,16.73,0,0,0,4.25-.38,2.69,2.69,0,0,0,1.84-1.49,8.83,8.83,0,0,0,.5-3.41V307.85a8.54,8.54,0,0,0-.5-3.37,2.82,2.82,0,0,0-1.84-1.49,15.49,15.49,0,0,0-4.25-.42c-.1,0-.15-.16-.15-.46s0-.46.15-.46h30.79a.61.61,0,0,1,.69.69l.15,9.42c0,.15-.13.24-.38.27s-.41,0-.46-.2a9.44,9.44,0,0,0-2.45-6.31,7.89,7.89,0,0,0-5.9-2.26h-4.67a13.47,13.47,0,0,0-3.94.42,2.84,2.84,0,0,0-1.77,1.45,7.52,7.52,0,0,0-.49,3.1v15.55h9.34q3.67,0,5.24-1.22c1.05-.82,1.57-2.2,1.57-4.14,0-.1.16-.15.46-.15s.46.05.46.15l-.07,6.2c0,1.48,0,2.61.07,3.37l.08,3.68c0,.1-.15.15-.46.15s-.46-.05-.46-.15q0-3.37-1.65-4.83c-1.09-1-2.92-1.45-5.47-1.45h-9.11V343a7.88,7.88,0,0,0,.46,3.14,2.52,2.52,0,0,0,1.68,1.38,13.77,13.77,0,0,0,3.83.38h6.13a8,8,0,0,0,6.12-2.6,14,14,0,0,0,3.3-7.2Q375.78,338,376.08,338Z"/>
      <path class="cls-2" d="M433,349.05c0,.31-.05.46-.15.46H423q-1.92,0-7.16-6.55A218.57,218.57,0,0,1,403,324.7a14.73,14.73,0,0,1-4.14.54c-1,0-2.12-.05-3.44-.16v18.23a9.55,9.55,0,0,0,.45,3.44,2.61,2.61,0,0,0,1.8,1.46,16.78,16.78,0,0,0,4.25.38c.16,0,.23.16.23.46s-.07.46-.23.46c-1.58,0-2.83,0-3.75-.07l-5.28-.08-5.21.08c-.92.05-2.22.07-3.91.07-.1,0-.15-.15-.15-.46s0-.46.15-.46a16,16,0,0,0,4.29-.42,3,3,0,0,0,1.92-1.49,8.1,8.1,0,0,0,.53-3.37V307.85a8.57,8.57,0,0,0-.49-3.37,2.87,2.87,0,0,0-1.84-1.49,15.54,15.54,0,0,0-4.25-.42c-.16,0-.23-.16-.23-.46s.07-.46.23-.46l3.75.08c2.14.1,3.88.15,5.21.15.92,0,1.78,0,2.6-.08l2.15-.15c1.63-.15,3.11-.23,4.44-.23q6.19,0,9.57,2.53a8.28,8.28,0,0,1,3.37,7,12.45,12.45,0,0,1-2.14,6.93,15.51,15.51,0,0,1-5.67,5.17q6.51,9.74,10.95,15.2a42,42,0,0,0,7.89,7.89,11.73,11.73,0,0,0,6.74,2.41C432.93,348.59,433,348.75,433,349.05Zm-33-25.58c3.53,0,6-.75,7.58-2.26s2.3-4,2.3-7.54q0-11.1-9.34-11.1a10.46,10.46,0,0,0-3.1.34,2.43,2.43,0,0,0-1.5,1.46,10.51,10.51,0,0,0-.45,3.63v15.17A29.48,29.48,0,0,0,400,323.47Z"/>
      <path class="cls-2" d="M433,305.48q-2.41,2.44-3.49,8.35,0,.15-.42.15t-.42-.15c.21-1.84.43-4.24.69-7.2s.38-5.18.38-6.67c0-.25.14-.38.43-.38s.42.13.42.38c0,1.13,1.37,1.69,4.13,1.69q6.51.23,15.39.23,4.53,0,9.58-.15l5.2-.08a16.38,16.38,0,0,0,4.1-.38,2.35,2.35,0,0,0,1.72-1.54.41.41,0,0,1,.46-.3q.39,0,.39.3c-.16,1.49-.31,3.73-.46,6.74s-.23,5.47-.23,7.36c0,.1-.16.15-.46.15s-.46-.05-.46-.15c-.15-4-1-6.78-2.45-8.39s-3.93-2.41-7.35-2.41a27.42,27.42,0,0,0-4.9.3,2.75,2.75,0,0,0-2,1.31,7.7,7.7,0,0,0-.53,3.36v35.31a8.28,8.28,0,0,0,.53,3.44,3,3,0,0,0,2.07,1.46,21.6,21.6,0,0,0,4.83.38c.15,0,.23.16.23.46s-.08.46-.23.46c-1.69,0-3,0-4.06-.07l-6-.08-5.74.08c-1,.05-2.42.07-4.21.07-.1,0-.15-.15-.15-.46s.05-.46.15-.46a21.56,21.56,0,0,0,4.82-.38,3.05,3.05,0,0,0,2.11-1.49,7.8,7.8,0,0,0,.57-3.41V307.85a7.49,7.49,0,0,0-.53-3.33,2.68,2.68,0,0,0-2-1.23,32.19,32.19,0,0,0-4.9-.26C437,303,434.63,303.84,433,305.48Z"/>
      <path class="cls-2" d="M114.12,386.15v-10h1.66v9.73a8.57,8.57,0,0,0,1.08,4.8,3.71,3.71,0,0,0,3.28,1.58,6.46,6.46,0,0,0,2.81-.65,7.34,7.34,0,0,0,2.38-1.83,7.78,7.78,0,0,0,1.53-2.73v-10.9h1.66v15.08a.85.85,0,0,0,.18.59.77.77,0,0,0,.52.24v1.36l-.52,0a1.42,1.42,0,0,1-.31,0,1.37,1.37,0,0,1-.93-.48,1.57,1.57,0,0,1-.4-1l0-2.59a8.42,8.42,0,0,1-3.11,3.24,8.24,8.24,0,0,1-4.27,1.17,4.78,4.78,0,0,1-4.13-1.92A9.72,9.72,0,0,1,114.12,386.15Z"/>
      <path class="cls-2" d="M160.62,393.45H159v-9.61a9.46,9.46,0,0,0-1-4.85,3.26,3.26,0,0,0-3-1.54,6.55,6.55,0,0,0-2.88.69,7.85,7.85,0,0,0-2.46,1.91,7.33,7.33,0,0,0-1.51,2.73v10.67h-1.66V376.18h1.56v4.15a7.7,7.7,0,0,1,1.86-2.31,9.45,9.45,0,0,1,2.6-1.54,8.1,8.1,0,0,1,3-.56,5.18,5.18,0,0,1,2.41.51,4.2,4.2,0,0,1,1.6,1.48,6.68,6.68,0,0,1,.88,2.38,17.68,17.68,0,0,1,.26,3.25Z"/>
      <path class="cls-2" d="M178.32,372.23v-3.07H180v3.07Zm0,21.22v-17.3H180v17.3Z"/>
      <path class="cls-2" d="M203.21,393.45,196,376.18h1.76l6.36,15.51,6.38-15.51h1.67l-7.22,17.27Z"/>
      <path class="cls-2" d="M234.88,393.78a8,8,0,0,1-3.39-.71,8.43,8.43,0,0,1-2.72-1.95,9.19,9.19,0,0,1-1.79-2.89,9.37,9.37,0,0,1-.65-3.46,9,9,0,0,1,1.1-4.44,8.67,8.67,0,0,1,3-3.2,8,8,0,0,1,4.33-1.21,7.85,7.85,0,0,1,4.36,1.23,9,9,0,0,1,4.12,7.62v.4a1.55,1.55,0,0,1,0,.33H228.06a7.67,7.67,0,0,0,1.1,3.54,7.15,7.15,0,0,0,2.48,2.5,6.25,6.25,0,0,0,3.31.91,6.66,6.66,0,0,0,3.39-.93,5.16,5.16,0,0,0,2.23-2.39l1.46.4a5.84,5.84,0,0,1-1.58,2.19,8.13,8.13,0,0,1-2.53,1.52A8.61,8.61,0,0,1,234.88,393.78ZM228,384.2h13.68a7.86,7.86,0,0,0-1.07-3.57,6.82,6.82,0,0,0-2.44-2.45,6.45,6.45,0,0,0-3.35-.9,6.29,6.29,0,0,0-3.32.9,6.87,6.87,0,0,0-2.43,2.45A7.86,7.86,0,0,0,228,384.2Z"/>
      <path class="cls-2" d="M267.78,377.65a6.8,6.8,0,0,0-6.52,5v10.81H259.6V376.18h1.59v4.23a8.33,8.33,0,0,1,2.4-3,6.18,6.18,0,0,1,3.16-1.31c.22,0,.42,0,.6,0h.43Z"/>
      <path class="cls-2" d="M289.07,393.78a10.18,10.18,0,0,1-3.82-.7,8.38,8.38,0,0,1-3.1-2.12l.77-1.17a9.7,9.7,0,0,0,2.89,2,8.19,8.19,0,0,0,3.2.62,6.36,6.36,0,0,0,3.61-.93,2.94,2.94,0,0,0,1.38-2.58,2.29,2.29,0,0,0-.65-1.74,4.86,4.86,0,0,0-1.86-1c-.81-.25-1.8-.52-2.95-.81a25.11,25.11,0,0,1-3-1,4.16,4.16,0,0,1-1.81-1.29,3.51,3.51,0,0,1-.6-2.16,4.46,4.46,0,0,1,.85-2.8,5,5,0,0,1,2.3-1.65,9.74,9.74,0,0,1,6.75.11,5.57,5.57,0,0,1,2.31,1.77l-.9,1.06a5,5,0,0,0-2.16-1.58,8.12,8.12,0,0,0-2.93-.51,7.58,7.58,0,0,0-2.26.33,3.66,3.66,0,0,0-1.71,1.07,2.93,2.93,0,0,0-.65,2,2.35,2.35,0,0,0,.48,1.56,3.35,3.35,0,0,0,1.45.91c.64.23,1.44.48,2.39.74a34.92,34.92,0,0,1,3.5,1,5.76,5.76,0,0,1,2.26,1.37,3.35,3.35,0,0,1,.8,2.37,4.42,4.42,0,0,1-1.8,3.72A7.73,7.73,0,0,1,289.07,393.78Z"/>
      <path class="cls-2" d="M312.23,372.23v-3.07h1.66v3.07Zm0,21.22v-17.3h1.66v17.3Z"/>
      <path class="cls-2" d="M339.51,392.75l-.67.33a6.51,6.51,0,0,1-1.26.49,6.43,6.43,0,0,1-1.7.21,4,4,0,0,1-1.68-.35,2.85,2.85,0,0,1-1.25-1.05,3,3,0,0,1-.46-1.71V377.55h-2.43v-1.37h2.43v-5.92h1.66v5.92h4v1.37h-4v12.73a1.9,1.9,0,0,0,.7,1.45,2.3,2.3,0,0,0,1.46.49,4.35,4.35,0,0,0,1.8-.35,6.72,6.72,0,0,0,.9-.45Z"/>
      <path class="cls-2" d="M356.27,399.31c.36,0,.68,0,1,0a1.2,1.2,0,0,0,.62-.15,1.3,1.3,0,0,0,.61-.51,8.9,8.9,0,0,0,.85-1.63q.54-1.21,1.5-3.57l-7.72-17.28h1.76l6.86,15.52,6.35-15.52h1.7l-9.48,22.73a3.58,3.58,0,0,1-.55.95,2.78,2.78,0,0,1-.85.66,2.87,2.87,0,0,1-1.2.28,6.19,6.19,0,0,1-.63.05,6.77,6.77,0,0,1-.77,0Z"/>
    </g>
    <g>
      <g class="cls-3">
        <g>
          <g>
            <path class="cls-2" d="M280.74,51.21l8.33.28V43.82C277.9,42.54,280.74,51.21,280.74,51.21Z"/>
            <path class="cls-2" d="M290.65,58.48c-.08,3.4-.06,7.62,0,11.05,0,1.68,0,3.72,0,5.77l4.81,4.81-4.95,4.94c0,.21,0,.37,0,.5,0,.73,0,5.9,0,6.52v5.16c1-.44,17.27-10.94,17.93-24.07.08-1.58.32-6.35-3-10.24C300.36,56.85,291.27,58.37,290.65,58.48Z"/>
            <path class="cls-2" d="M288.07,36.75c-3.72-8.91-15.93-4.72-16.22,4.47a10,10,0,0,0,2.46,7.58,8.28,8.28,0,0,0,5.76,2.41S275.91,39.6,288.07,36.75Z"/>
            <path class="cls-2" d="M237.48,0V123.76H341.2V0ZM315,71.47C310.71,86.36,289.88,99,289.88,99s-11.26-11.7-18.06-12.62c-5-.68-8.19,2.81-6.79,5.14a5.65,5.65,0,0,0,4.53,2.49l-.35.73a7.77,7.77,0,0,1-4.91-3.49,6.39,6.39,0,0,1-.44-5.07,8,8,0,0,1,3.3-3.66c7.67-4.65,15.3,3.51,21.91,6.61a24,24,0,0,1,.07-4.07l-5-5,4.39-4.39a6.76,6.76,0,0,0-.29-.67C283.86,66.2,272.5,72.46,264,71.8c-3.41-.26-5.9-4.78-3.49-9,.77,5,7,3.11,12.7,2.07,15.89-2.88,15.89,5.39,15.89,5.39V58.49a33.57,33.57,0,0,1-8.69-1.27c-8.46-2.6-13-17-5.62-23.45,7.54-6.61,11.29-1.43,13.72,1l.43.43c-.14-3.25,0-7.42,1.6-9.26A6.32,6.32,0,0,1,296,23.82l1.06,5.6a5.73,5.73,0,0,0-3.59.12c-1.71.69-2.46,3.55-2.74,6.66a12.62,12.62,0,0,0,2.08.15c7.79-.16,13.38-.19,14.87-.32a11.12,11.12,0,0,0,4.29-.91,17.44,17.44,0,0,1-2.93,4,10.47,10.47,0,0,0-3.12,9.23.34.34,0,0,1-.57.31c-.32-.3,0-.61-1-1.17a26,26,0,0,0-13.68-3.71v0c.06,1,.13,1.61.13,1.61l-.15-.59c-.08,4.84,0,6.65,0,6.65a94.74,94.74,0,0,1,12.54.84C312.28,53.81,317.16,64.09,315,71.47Z"/>
          </g>
          <g>
            <path class="cls-2" d="M189.47,200.44l-2-2a8.84,8.84,0,0,1-1.29.79,9,9,0,0,1-5.22.84l3.95,2.75c2,1.4,4.15,2.86,4.56,3.12Z"/>
            <path class="cls-2" d="M184.56,192.61c-.33-5-12-26.57-13.39-29.24-4,10.57-7.2,22.93,8.28,35.19C182.29,200.81,184.78,196,184.56,192.61Z"/>
            <path class="cls-2" d="M183.84,150.55c1.34-.48,4.06-1.38,4.92-1.76-2.16-1.89-3.6-3.5-5.53-4-7.87-2.11-6.52,10.12-6.52,10.12A22.17,22.17,0,0,1,183.84,150.55Z"/>
            <path class="cls-2" d="M177.09,156.3c.17.48.44,1.21,1.79,4.92-.46-6.84,7.09-10.49,7.09-10.49a17.89,17.89,0,0,0-5.41,2.48A18.1,18.1,0,0,0,177.09,156.3Z"/>
            <path class="cls-2" d="M185.41,176.35c.91,1.43,4.06,7.94,4.06,7.94s-.09-7.85,0-7.94Z"/>
            <path class="cls-2" d="M179.74,163.4l3.11,6.52s-1-2.53,1.27-3.47c.45,1.59,5.35,2.16,5.35,2.16V156.24a15.62,15.62,0,0,0-4.21.48A8.06,8.06,0,0,0,179.74,163.4Z"/>
            <path class="cls-2" d="M133.77,123.76V247.52H237.48V123.76Zm78.58,25.64c-2.15,1.47-5.91,5.58-6.18,8.54a15.08,15.08,0,0,0,0,3s-1.51-2-10.08-4a38.08,38.08,0,0,0-4.88-.71V168.5c1.52,0,10.46-2.95,13.36,1.21,1.86,2.67,1.27,7.38,1.27,7.38a7,7,0,0,0-1.35-1c-3.12-1.8-7.39.07-13.25.26,0,1.09,0,2.19-.05,3.3s-.09,6.64-.15,11.3l3.54,3.54,13-10.68a7.56,7.56,0,0,0-.47,4.07c1.92,10.92-15.77,21.18-16.14,21.91-.08,2.39,0,3.42,0,6,0-.77-7.8-4.16-14-10.21-21.82-21.27-6.61-44.62-6.61-44.62s-2.23-9.45,1.2-13.76c3.23-4.06,10.41-5.62,14.68-1.65,1.64,1.52,3,2.84,3,2.84s-.16-3-.21-4.26c-.31-8.34,5.65-8.73,8-8.73,0,0,1.12,6.6,1.26,6.63-8.15-1.91-6.94,6.92-6.94,6.92s15,0,19.76-.28a4,4,0,0,0,2.55-1S213.88,148.36,212.35,149.4Z"/>
            <path class="cls-2" d="M191,208.77a56.39,56.39,0,0,0,5.76-4.39c6.4-5.16,4.22-11.44,1.31-11.55-.43.25-1.61,1.18-2.88,2.22l1.08,1.08-5.3,5.29C191,203.89,191,207.28,191,208.77Z"/>
          </g>
        </g>
      </g>
      <path class="cls-2" d="M334.77,7.58V179.94c0,32.25-17.48,47.92-53.45,47.92-20.81,0-35.68,6.47-43.84,11.26-8.15-4.79-23-11.26-43.83-11.26-36,0-53.46-15.67-53.46-47.92V7.58H334.77m4.68-4.67H135.52v177c0,34.9,19.56,52.6,58.13,52.6,22.29,0,37.35,7.85,43.83,12.07,6.49-4.22,21.55-12.07,43.84-12.07,38.57,0,58.13-17.7,58.13-52.6V2.91Z"/>
      <path class="cls-2" d="M320.4,152.54s-.55-.39-2.56,1.87c-3.26,3.66-16.25-2.14-27.23-5.84-.13-1.28-.22-5,2.74-6.33a6,6,0,0,1,4.25-.14l-1.26-6.63A7.53,7.53,0,0,0,289.9,138c-2.49,2.92-2,7.74-1.63,9.83-5.4-1.69-10.07-2.62-12.46-1.27-1.92,1.13-3.45,3.51-4.46,5.38-3.56,7.18-.38,11.37,7.53,8.93l1.78-.47c-7.94,6.81-14,15.74-14.81,26.22-.92,12.32,7.62,17.17,16.88,23.73,5,3.54,7.53,5.44,7.53,5.44s0-5.3,0-12.76l4.57-4.58-4.56-4.56c0-14.85,0-32.59,0-37.25,4.43,1,16.95,6.33,21.34,6.36-.91,2.49.28,5.71,3.48,5C307.29,166.45,320.4,152.54,320.4,152.54Zm-40.21,7.37c-2.66,1.2-10.18,3-9.63-3.26.61-6.83,12.3-2.05,17.16-.78C285,157,283.13,158.88,280.19,159.91Zm-10,20.79a28.83,28.83,0,0,1,7.53-16.46c-2.27,5.27-.77,10.13,1.6,15.61a69.41,69.41,0,0,1,3.76,11c.75,3.72-.66,8.32-5.27,7.8C273.24,193.75,270.28,187.69,270.22,180.7Zm18.64,13.21-4.53,4.52,4.45,4.46c0,1.39,0,2.48,0,3.21a38.89,38.89,0,0,1-10.16-6.78c11.35-1.8,10.75-12.35,8.65-19-2.34-7.39-5.38-10.52-4.62-15.59.33-2.21,1.84-5.31,6.13-8.67C289,162.31,289,181,288.86,193.91Z"/>
      <path class="cls-2" d="M206.75,49.59c-1.67-5.53,2.58-11.91,4.37-14.26a.18.18,0,0,0-.24-.25c-2.1,1.39-7.28,4.38-12.2,3.82-8.2-.93-10.35,4.7-10.35,4.7s0-1.89.16-3.61c.34-3.47,1.23-8.35,3.5-9.39a6,6,0,0,1,4.25-.15L195,23.82a7.52,7.52,0,0,0-6.44,2.51c-2.34,2.74-1.87,12.85-1.85,14.36,0,.16,0,.64,0,.64.72,18.84.6,34.13.57,36.84l-4.17,4.16,4.19,4.2.05,4.93c-1.6-2.24-5.72-3.48-9.68-4.31-4.46-.93-11-2.55-11-2.55s1.78-1.47,3.7-3.43C177.4,74,185.57,65,186,55.07c.21-9.5-6.55-23.32-17.39-22.88-.76,3.28-7.19,6.92-9.5,9.52-.63.7-1,2.59.08,2,2.33-5.39,10.12-3.62,13.37-.17,10.91,11.58,3.31,26-.41,31.79-2.91,4.56-7.09,8.85-7.68,8.71-4.68-1.06-6.42-2.63-6.42-2.63s-2,6.13,5.94,8.59c8.36,2.59,9.77,3.07,17.76,5.19,3.5.8,7,4,7,4a7.74,7.74,0,0,1,.09-2.43c1.41-4.35,22.75-4.79,26.28-15.41C220.26,65.89,208.49,55.33,206.75,49.59Zm-3.69,36.69c-2.88,3.21-14.25,8.28-14.25,8.28l-.1-8.23,4-4-4.24-4.24c0-2.27,0-11.55,0-14.68,0-3.65-.1-7.84,0-11.49.06-2.36-.49-5.83,2.47-5.87,3.33,0,7-.07,10.38-.17-1.14,1.19-2.6,2.39-3.83,3.57C198.15,52.34,213.66,74.45,203.06,86.28Z"/>
    </g>
  </g>
</svg>
