<?xml version="1.0" encoding="UTF-8"?>
<svg id="_Слой_1" data-name="Слой 1" xmlns="http://www.w3.org/2000/svg" viewBox="0 0 612.42 237.91">
  <defs>
    <style>
      .cls-1 {
        fill: #efefef;
      }

      .cls-2 {
        fill: #9d1229;
      }
    </style>
  </defs>
  <g>
    <path class="cls-1" d="M55.56,200.67c1.4-.78,3.81-2.82,5.54-4.22,6.15-4.96,4.06-11,1.25-11.1-.41,.24-1.54,1.13-2.77,2.13l1.04,1.04-5.09,5.09c.02,2.37,.03,5.63,.03,7.06Z"/>
    <path class="cls-1" d="M44.75,157.05l3,6.27s-.98-2.43,1.21-3.33c.44,1.53,5.15,2.08,5.15,2.08v-11.89c-.95,.03-2.22-.02-4.05,.47-2.69,.71-4.76,3.23-5.31,6.41Z"/>
    <path class="cls-1" d="M6.74,118.99v53.96c0,30.99,16.81,46.06,51.38,46.06,20,0,34.29,6.21,42.13,10.82h0V118.99H6.74Zm69.36,24.61c-2.07,1.41-5.68,5.36-5.94,8.21-.15,1.59,.03,2.89,.03,2.89,0,0-1.46-1.97-9.69-3.84-2.2-.5-4.7-.69-4.7-.69,0,0,0,9.03,0,11.79,1.46-.03,10.06-2.84,12.85,1.17,1.79,2.56,1.22,7.09,1.22,7.09-.32-.3-.74-.64-1.3-.96-3-1.72-7.11,.07-12.74,.25-.02,1.05-.03,2.11-.05,3.18-.01,.99-.08,6.38-.14,10.86l3.41,3.41,12.5-10.26s-.91,2.14-.45,3.91c1.84,10.5-15.16,20.36-15.52,21.06-.07,2.3,0,3.29,0,5.75,0-.74-7.5-3.99-13.47-9.81-20.97-20.45-6.36-42.89-6.36-42.89,0,0-2.14-9.08,1.16-13.23,3.11-3.9,10.01-5.4,14.11-1.59,1.58,1.46,2.84,2.73,2.84,2.73,0,0-.16-2.91-.2-4.1-.3-8.02,5.43-8.39,7.73-8.39,0,0,1.08,6.34,1.21,6.37-7.83-1.84-6.67,6.65-6.67,6.65,0,0,14.37,0,18.99-.27,1.65-.1,2.45-.91,2.45-.91,0,0,.2,.63-1.27,1.64Z"/>
    <path class="cls-1" d="M50.2,169.5c.88,1.38,3.91,7.63,3.91,7.63,0,0-.09-7.54,0-7.63h-3.91Z"/>
    <path class="cls-1" d="M54.11,192.66l-1.92-1.92c-.36,.27-.77,.53-1.24,.76-2.19,1.09-4.22,.92-5.01,.81,1.25,.88,2.52,1.75,3.79,2.64,1.95,1.35,3.99,2.76,4.38,3,0-.08,0-2.82,0-5.29Z"/>
    <path class="cls-1" d="M48.7,144.71c1.28-.46,3.9-1.33,4.73-1.69-2.08-1.81-3.46-3.36-5.31-3.86-7.57-2.03-6.27,9.72-6.27,9.72,0,0,2.79-2.7,6.86-4.17Z"/>
    <path class="cls-1" d="M42.21,150.24c.17,.45,.43,1.16,1.73,4.73-.44-6.57,6.82-10.09,6.82-10.09-1.33,.36-3.22,1.04-5.2,2.39-1.48,1.01-2.57,2.09-3.34,2.97Z"/>
    <path class="cls-1" d="M49.38,185.13c-.32-4.8-11.56-25.54-12.87-28.1-3.84,10.16-6.92,22.04,7.96,33.83,2.73,2.16,5.12-2.44,4.91-5.72Z"/>
    <rect class="cls-1" x="6.74" y="118.96" width="93.51" height=".04"/>
    <path class="cls-1" d="M151.23,88.5s0,4.96,0,4.96c.97-.43,16.6-10.51,17.23-23.14,.08-1.52,.31-6.1-2.85-9.84-4.92-5.83-13.65-4.37-14.25-4.26-.07,3.27-.06,7.32,0,10.62,.03,1.62,0,3.57-.03,5.55l4.62,4.62-4.75,4.75c0,.19,.02,.35,.03,.48,.03,.7-.02,5.67,0,6.27Z"/>
    <path class="cls-1" d="M149.84,42.12c-10.73-1.23-8.01,7.11-8.01,7.11l8.01,.27v-7.37Z"/>
    <path class="cls-1" d="M148.88,35.33c-3.58-8.57-15.31-4.54-15.59,4.3-.09,2.78,.45,5.21,2.36,7.28,2.23,2.41,5.54,2.32,5.54,2.32,0,0-4-11.16,7.69-13.89Z"/>
    <path class="cls-1" d="M193.77,118.96V7.29H100.32V118.96h93.45Zm-59.21-56.64c15.27-2.77,15.27,5.19,15.27,5.19v-11.29s-4.16,.03-8.35-1.22c-8.13-2.5-12.45-16.35-5.4-22.54,7.25-6.35,10.85-1.37,13.19,.96,.15,.15,.29,.29,.41,.41-.14-3.12,.02-7.13,1.53-8.9,2.15-2.51,5.23-2.04,5.23-2.04l1.02,5.39s-1.71-.58-3.45,.11c-1.65,.66-2.36,3.41-2.64,6.4,.47,.09,1.1,.13,2,.14,7.49-.15,12.86-.19,14.29-.31,2.6-.1,4.13-.88,4.13-.88,0,0-.7,1.54-2.83,3.84-3.41,3.48-3.28,7.21-2.99,8.87,.05,.31-.32,.51-.55,.3-.31-.28-.04-.59-.93-1.12-6.6-3.98-13.15-3.57-13.15-3.57,0,.02,0,.03,0,.05,.06,.95,.12,1.55,.12,1.55l-.14-.57c-.08,4.64,.02,6.39,.02,6.39,0,0,7.08,0,12.05,.81,8.74,1.43,13.43,11.31,11.38,18.4-4.15,14.31-24.17,26.5-24.17,26.5,0,0-10.83-11.25-17.36-12.13-4.8-.65-7.87,2.71-6.53,4.95,.51,.79,1.74,2.17,4.36,2.39l-.34,.7s-3.11-.57-4.72-3.36c-.67-1.17-1.05-3.07-.42-4.87,0,0,.73-2.03,3.17-3.51,7.37-4.48,14.71,3.37,21.06,6.35-.13-.6-.03-2.09,.07-3.92l-4.79-4.79,4.21-4.21c-.08-.23-.17-.45-.27-.65-4.23-8.5-15.14-2.49-23.34-3.12-3.28-.25-5.67-4.59-3.35-8.68,.74,4.83,6.68,2.99,12.2,1.99Z"/>
    <rect class="cls-1" x="100.26" y="7.29" width=".06" height="111.67"/>
    <path class="cls-2" d="M127.65,224.76c-2.23,.39-4.35,.85-6.36,1.36,2-.51,4.12-.97,6.36-1.36Z"/>
    <path class="cls-2" d="M134.69,223.85c-2.46,.21-4.81,.52-7.04,.91,2.23-.39,4.58-.7,7.04-.91Z"/>
    <rect class="cls-2" x="100.26" y="118.96" width=".06" height=".04"/>
    <path class="cls-1" d="M92.04,230.63c-2.11-.97-4.5-1.94-7.15-2.83,2.65,.9,5.04,1.87,7.15,2.83Z"/>
    <path class="cls-1" d="M115.63,227.8c-2.65,.9-5.04,1.87-7.15,2.83,2.11-.97,4.5-1.94,7.15-2.83Z"/>
    <path class="cls-1" d="M98.99,234.32c-1.81-1.11-4.14-2.4-6.95-3.69,2.81,1.29,5.14,2.58,6.95,3.69Z"/>
    <path class="cls-1" d="M108.48,230.63c-2.81,1.29-5.14,2.58-6.95,3.69,1.81-1.11,4.14-2.4,6.95-3.69Z"/>
    <path class="cls-1" d="M100.26,235.12c-.39-.25-.81-.52-1.27-.8,.45,.28,.88,.55,1.27,.8,.39-.25,.81-.52,1.27-.8-.45,.28-.88,.55-1.27,.8h0Z"/>
    <polygon class="cls-1" points="6.74 7.29 100.26 7.29 100.26 2.79 2.25 2.79 2.25 118.96 6.74 118.96 6.74 7.29"/>
    <path class="cls-1" d="M100.26,235.12v-5.28h0c-7.84-4.6-22.13-10.82-42.13-10.82-34.58,0-51.38-15.07-51.38-46.06v-53.96H2.25v53.96c0,33.55,18.8,50.56,55.88,50.56,10.71,0,19.69,1.89,26.76,4.28,2.65,.9,5.04,1.87,7.15,2.83,2.81,1.29,5.14,2.58,6.95,3.69,.45,.28,.88,.55,1.27,.8h0Z"/>
    <rect class="cls-1" x="2.25" y="118.96" width="4.5" height=".04"/>
    <polygon class="cls-1" points="100.32 7.29 193.77 7.29 193.77 118.96 198.27 118.96 198.27 2.79 100.32 2.79 100.32 7.29"/>
    <rect class="cls-1" x="100.26" y="2.79" width=".06" height="4.5"/>
    <path class="cls-1" d="M193.77,172.96c0,30.99-16.81,46.06-51.38,46.06-20,0-34.29,6.21-42.13,10.82v5.28c.39-.25,.81-.52,1.27-.8,1.81-1.11,4.14-2.4,6.95-3.69,2.11-.97,4.5-1.94,7.15-2.83,1.77-.6,3.66-1.17,5.66-1.68,2-.51,4.12-.97,6.36-1.36,2.23-.39,4.58-.7,7.04-.91,2.46-.21,5.03-.33,7.71-.33,37.08,0,55.88-17.01,55.88-50.56v-54h-4.5v54Z"/>
    <path class="cls-1" d="M127.52,179.35c-.88,11.85,7.32,16.51,16.23,22.81,4.81,3.41,7.23,5.23,7.23,5.23,0,0,0-5.1,.02-12.26l4.4-4.4-4.39-4.39c.01-14.27,.02-31.32-.03-35.8,4.26,.95,16.29,6.09,20.51,6.12-.87,2.39,.27,5.49,3.35,4.79-7.49-1.45,5.12-14.83,5.12-14.83,0,0-.53-.37-2.46,1.8-3.13,3.52-15.62-2.06-26.17-5.61-.12-1.23-.21-4.78,2.64-6.08,2.02-.93,4.08-.14,4.08-.14l-1.21-6.37s-3.65-.56-6.19,2.41c-2.4,2.81-1.92,7.44-1.57,9.45-5.19-1.62-9.68-2.52-11.98-1.23-1.84,1.09-3.31,3.38-4.28,5.17-3.42,6.9-.36,10.93,7.23,8.59l1.72-.45c-7.63,6.54-13.49,15.13-14.24,25.2Zm22.01-29.35c.26,6.01,.19,23.95,.1,36.38l-4.35,4.35,4.28,4.28c-.01,1.34-.02,2.39-.03,3.09-4.04-1.93-7.23-4.1-9.76-6.51,10.91-1.74,10.33-11.87,8.31-18.27-2.24-7.1-5.17-10.11-4.44-14.99,.32-2.12,1.77-5.1,5.89-8.33Zm-8.23,3.71c-2.56,1.15-9.79,2.87-9.26-3.14,.58-6.57,11.82-1.97,16.49-.75-2.65,1.04-4.41,2.89-7.23,3.89Zm2.8,29.74c.72,3.58-.63,8-5.06,7.5-4.43-4.73-7.27-10.55-7.32-17.27,.6-5.9,3.17-11.32,7.23-15.82-2.18,5.07-.73,9.74,1.54,15.01,1.45,3.72,2.78,6.7,3.62,10.58Z"/>
    <path class="cls-1" d="M74.91,33.96c.11-.15-.07-.34-.22-.24-2.02,1.34-7,4.21-11.73,3.67-7.89-.89-9.95,4.52-9.95,4.52,0,0,0-1.82,.16-3.47,.32-3.34,1.17-8.03,3.36-9.03,2.02-.93,4.08-.14,4.08-.14l-1.21-6.37s-3.65-.56-6.19,2.41c-2.25,2.63-1.8,12.35-1.78,13.8,0,.15,.01,.61,.01,.61,.69,18.11,.57,32.81,.54,35.41l-4.01,4,4.03,4.03,.05,4.74c-1.54-2.15-5.5-3.34-9.3-4.14-4.29-.9-10.55-2.45-10.55-2.45,0,0,1.71-1.41,3.56-3.29,6.74-6.85,14.59-15.58,15-25.09,.2-9.13-6.3-22.41-16.72-21.99-.73,3.16-6.91,6.65-9.13,9.15-.6,.68-.91,2.49,.08,1.88,2.24-5.18,9.72-3.48,12.85-.17,10.49,11.13,3.18,24.96-.39,30.56-2.8,4.39-6.82,8.51-7.38,8.38-4.5-1.03-6.17-2.53-6.17-2.53,0,0-1.91,5.9,5.71,8.26,8.03,2.49,9.39,2.95,17.07,4.99,3.37,.77,6.75,3.85,6.75,3.85,0,0-.18-1.53,.08-2.34,1.35-4.18,21.87-4.6,25.26-14.81,4.92-14.83-6.39-24.99-8.06-30.5-1.61-5.32,2.48-11.45,4.19-13.71Zm-7.74,48.97c-2.77,3.09-13.7,7.96-13.7,7.96l-.1-7.91,3.84-3.84-4.08-4.08c0-2.18,.01-11.1,.01-14.11,0-3.51-.09-7.53,0-11.04,.06-2.27-.47-5.6,2.37-5.64,3.2-.05,6.77-.06,9.98-.16-1.09,1.15-2.5,2.3-3.68,3.44,.63,2.78,15.54,24.03,5.35,35.39Z"/>
  </g>
  <g>
    <path class="cls-1" d="M323.29,69.55c0,.42-.11,.63-.32,.63-2.19,0-3.91-.04-5.18-.11l-7.3-.11-7.72,.11c-1.27,.07-2.96,.11-5.08,.11-.21,0-.32-.21-.32-.63s.11-.63,.32-.63c2.75,0,4.76-.18,6.03-.53,1.27-.35,2.13-1.04,2.59-2.06,.46-1.02,.69-2.59,.69-4.71v-24.76h-40.63v24.76c0,2.12,.23,3.69,.69,4.71,.46,1.02,1.32,1.71,2.59,2.06,1.27,.35,3.28,.53,6.03,.53,.14,0,.21,.21,.21,.63s-.07,.63-.21,.63c-2.19,0-3.91-.04-5.18-.11l-7.62-.11-7.3,.11c-1.27,.07-3.03,.11-5.29,.11-.14,0-.21-.21-.21-.63s.07-.63,.21-.63c2.68,0,4.67-.18,5.98-.53,1.3-.35,2.19-1.04,2.65-2.06,.46-1.02,.69-2.59,.69-4.71V12.63c0-2.12-.23-3.67-.69-4.66-.46-.99-1.32-1.67-2.59-2.06-1.27-.39-3.24-.58-5.92-.58-.14,0-.21-.21-.21-.63s.07-.63,.21-.63l5.4,.11c2.96,.14,5.32,.21,7.09,.21,2.04,0,4.62-.07,7.72-.21l5.08-.11c.14,0,.21,.21,.21,.63s-.07,.63-.21,.63c-2.68,0-4.67,.21-5.98,.63-1.31,.42-2.19,1.15-2.65,2.17-.46,1.02-.69,2.59-.69,4.71v21.79h40.63V12.84c0-2.12-.23-3.68-.69-4.71-.46-1.02-1.32-1.75-2.59-2.17s-3.28-.63-6.03-.63c-.21,0-.32-.21-.32-.63s.11-.63,.32-.63l5.08,.11c3.1,.14,5.68,.21,7.72,.21,1.9,0,4.34-.07,7.3-.21l5.18-.11c.21,0,.32,.21,.32,.63s-.11,.63-.32,.63c-2.68,0-4.65,.2-5.92,.58-1.27,.39-2.13,1.08-2.59,2.06-.46,.99-.69,2.54-.69,4.66V61.61c0,2.12,.23,3.69,.69,4.71,.46,1.02,1.32,1.71,2.59,2.06,1.27,.35,3.24,.53,5.92,.53,.21,0,.32,.21,.32,.63Z"/>
    <path class="cls-1" d="M401.26,69.55c0,.42-.14,.63-.42,.63-1.34,0-3.42-.07-6.24-.21-2.82-.14-4.87-.21-6.14-.21-1.55,0-3.53,.07-5.92,.21-2.26,.14-3.99,.21-5.18,.21-.28,0-.42-.21-.42-.63s.14-.63,.42-.63c2.61,0,4.51-.25,5.71-.74,1.2-.49,1.8-1.34,1.8-2.54,0-.99-.46-2.5-1.38-4.55l-12.17-25.92h-20l-9.1,21.58c-.99,2.4-1.48,4.37-1.48,5.92,0,4.16,3.45,6.24,10.37,6.24,.35,0,.53,.21,.53,.63s-.18,.63-.53,.63c-1.27,0-3.1-.07-5.5-.21-2.68-.14-5.01-.21-6.98-.21-1.83,0-3.95,.07-6.35,.21-2.12,.14-3.88,.21-5.29,.21-.35,0-.53-.21-.53-.63s.18-.63,.53-.63c1.97,0,3.65-.37,5.02-1.11,1.38-.74,2.68-2.04,3.91-3.91,1.23-1.87,2.59-4.57,4.07-8.09L362.33,3.11c.14-.21,.39-.32,.74-.32s.56,.11,.63,.32l24.97,52.58c2.4,5.22,4.44,8.73,6.14,10.53,1.69,1.8,3.7,2.7,6.03,2.7,.28,0,.42,.21,.42,.63Zm-48.98-36.61h17.99l-9.52-20.1-8.46,20.1Z"/>
    <path class="cls-1" d="M422.84,66.32c.42,1.02,1.25,1.71,2.49,2.06,1.23,.35,3.19,.53,5.87,.53,.21,0,.32,.21,.32,.63s-.11,.63-.32,.63c-2.12,0-3.81-.04-5.08-.11l-7.51-.11-7.3,.11c-1.27,.07-3,.11-5.18,.11-.21,0-.32-.21-.32-.63s.11-.63,.32-.63c2.68,0,4.64-.18,5.87-.53,1.23-.35,2.08-1.04,2.54-2.06,.46-1.02,.69-2.59,.69-4.71V12.63c0-2.12-.23-3.67-.69-4.66-.46-.99-1.31-1.67-2.54-2.06-1.23-.39-3.19-.58-5.87-.58-.21,0-.32-.21-.32-.63s.11-.63,.32-.63l5.18,.11c2.96,.14,5.4,.21,7.3,.21,2.12,0,4.66-.07,7.62-.21l4.97-.11c.21,0,.32,.21,.32,.63s-.11,.63-.32,.63c-2.61,0-4.53,.21-5.77,.63-1.23,.42-2.08,1.15-2.54,2.17-.46,1.02-.69,2.59-.69,4.71V61.61c0,2.12,.21,3.69,.63,4.71Z"/>
    <path class="cls-1" d="M508.75,69.55c0,.42-.07,.63-.21,.63h-13.65c-1.76,0-5.06-3.02-9.89-9.05-4.83-6.03-10.7-14.44-17.62-25.23-1.69,.49-3.6,.74-5.71,.74-1.34,0-2.93-.07-4.76-.21v25.18c0,2.19,.21,3.77,.63,4.76,.42,.99,1.25,1.66,2.49,2.01,1.23,.35,3.19,.53,5.87,.53,.21,0,.32,.21,.32,.63s-.11,.63-.32,.63c-2.19,0-3.91-.04-5.18-.11l-7.3-.11-7.19,.11c-1.27,.07-3.07,.11-5.4,.11-.14,0-.21-.21-.21-.63s.07-.63,.21-.63c2.68,0,4.65-.19,5.92-.58,1.27-.39,2.15-1.07,2.65-2.06,.49-.99,.74-2.54,.74-4.65V12.63c0-2.12-.23-3.67-.69-4.66-.46-.99-1.31-1.67-2.54-2.06-1.23-.39-3.19-.58-5.87-.58-.21,0-.32-.21-.32-.63s.11-.63,.32-.63l5.18,.11c2.96,.14,5.36,.21,7.19,.21,1.27,0,2.47-.04,3.6-.11,1.13-.07,2.12-.14,2.96-.21,2.26-.21,4.3-.32,6.14-.32,5.71,0,10.12,1.16,13.22,3.49,3.1,2.33,4.65,5.57,4.65,9.73,0,3.38-.99,6.58-2.96,9.57-1.98,3-4.59,5.38-7.83,7.14,5.99,8.96,11.04,15.96,15.13,21,4.09,5.04,7.72,8.67,10.9,10.9s6.28,3.33,9.31,3.33c.14,0,.21,.21,.21,.63Zm-45.6-35.34c4.87,0,8.36-1.04,10.47-3.12,2.12-2.08,3.17-5.55,3.17-10.42,0-10.23-4.3-15.34-12.91-15.34-1.9,0-3.33,.16-4.28,.48s-1.64,.99-2.06,2.01c-.42,1.02-.63,2.7-.63,5.03v20.95c1.76,.28,3.84,.42,6.24,.42Z"/>
    <path class="cls-1" d="M297.26,145.6c.21,0,.41,.04,.58,.11,.18,.07,.26,.18,.26,.32-.63,4.44-.95,9.1-.95,13.96,0,.57-.12,.97-.37,1.22-.25,.25-.69,.37-1.32,.37h-44.33c-.14,0-.21-.21-.21-.63s.07-.63,.21-.63c2.68,0,4.64-.18,5.87-.53,1.23-.35,2.08-1.04,2.54-2.06,.46-1.02,.69-2.59,.69-4.71v-48.98c0-2.12-.23-3.67-.69-4.66-.46-.99-1.31-1.67-2.54-2.06-1.23-.39-3.19-.58-5.87-.58-.14,0-.21-.21-.21-.63s.07-.63,.21-.63h42.53c.63,0,.95,.32,.95,.95l.21,13.01c0,.21-.18,.34-.53,.37-.35,.04-.56-.05-.63-.26-.21-3.74-1.34-6.65-3.39-8.73-2.05-2.08-4.76-3.12-8.15-3.12h-6.45c-2.47,0-4.28,.2-5.45,.58-1.16,.39-1.98,1.06-2.43,2.01-.46,.95-.69,2.38-.69,4.29v21.48h12.91c3.39,0,5.8-.56,7.25-1.69,1.44-1.13,2.17-3.03,2.17-5.71,0-.14,.21-.21,.63-.21s.63,.07,.63,.21l-.11,8.57c0,2.05,.03,3.6,.11,4.66l.11,5.08c0,.14-.21,.21-.63,.21s-.63-.07-.63-.21c0-3.1-.76-5.32-2.27-6.67-1.52-1.34-4.04-2.01-7.56-2.01h-12.59v24.33c0,1.98,.21,3.42,.63,4.34,.42,.92,1.2,1.55,2.33,1.9,1.13,.35,2.89,.53,5.29,.53h8.46c3.39,0,6.21-1.2,8.46-3.6,2.26-2.4,3.77-5.71,4.55-9.94,0-.14,.14-.21,.42-.21Z"/>
    <path class="cls-1" d="M370.79,160.94c0,.42-.07,.63-.21,.63-1.83,0-3.28-.04-4.34-.11l-5.82-.11-8.15,.11c-1.27,.07-3,.11-5.18,.11-.14,0-.21-.21-.21-.63s.07-.63,.21-.63c1.9,0,3.28-.14,4.13-.42,.85-.28,1.27-.74,1.27-1.38s-.32-1.41-.95-2.33l-16.08-24.33-13.44,18.94c-1.69,2.4-2.54,4.34-2.54,5.82,0,2.47,2.08,3.7,6.24,3.7,.21,0,.32,.21,.32,.63s-.11,.63-.32,.63c-2.12,0-3.74-.04-4.87-.11l-7.3-.11-4.44,.11c-.78,.07-2.08,.11-3.91,.11-.21,0-.32-.21-.32-.63s.11-.63,.32-.63c4.87,0,9.66-3.21,14.39-9.63l14.92-20.42-17.03-25.81c-1.83-2.82-3.65-4.81-5.45-5.98-1.8-1.16-3.93-1.75-6.4-1.75-.14,0-.21-.21-.21-.63s.07-.63,.21-.63l4.02,.11c1.83,.14,3.17,.21,4.02,.21,2.4,0,5.29-.07,8.68-.21l5.5-.11c.21,0,.32,.21,.32,.63s-.11,.63-.32,.63c-1.83,0-3.19,.14-4.07,.42-.88,.28-1.32,.78-1.32,1.48,0,.57,.32,1.34,.95,2.33l15.66,23.59,12.38-17.56c1.9-2.68,2.86-4.87,2.86-6.56,0-2.47-1.98-3.7-5.92-3.7-.21,0-.32-.21-.32-.63s.11-.63,.32-.63l4.76,.11c2.68,.14,5.11,.21,7.3,.21,1.27,0,2.75-.07,4.44-.21l3.91-.11c.21,0,.32,.21,.32,.63s-.11,.63-.32,.63c-2.33,0-4.76,.88-7.3,2.64-2.54,1.76-5.08,4.37-7.62,7.83l-13.86,18.94,17.67,26.66c1.83,2.75,3.72,4.69,5.66,5.82,1.94,1.13,4.35,1.69,7.25,1.69,.14,0,.21,.21,.21,.63Z"/>
    <path class="cls-1" d="M393.59,157.5c.6,1.02,1.76,1.75,3.49,2.17,1.73,.42,4.46,.63,8.2,.63,.21,0,.32,.21,.32,.63s-.11,.63-.32,.63c-2.89,0-5.15-.04-6.77-.11l-9.2-.11-7.09,.11c-1.34,.07-3.14,.11-5.4,.11-.14,0-.21-.21-.21-.63s.07-.63,.21-.63c2.68,0,4.64-.18,5.87-.53,1.23-.35,2.06-1.04,2.49-2.06s.63-2.59,.63-4.71v-48.98c0-2.12-.21-3.67-.63-4.66-.42-.99-1.25-1.67-2.49-2.06-1.23-.39-3.19-.58-5.87-.58-.14,0-.21-.21-.21-.63s.07-.63,.21-.63l5.29,.11c2.96,.14,5.32,.21,7.09,.21s3.74-.11,5.92-.32c.85,0,2.19-.05,4.02-.16,1.83-.11,3.42-.16,4.76-.16,6.49,0,11.69,1.45,15.6,4.34,3.91,2.89,5.87,7.3,5.87,13.22,0,4.66-1.15,8.57-3.44,11.74-2.29,3.17-5.24,5.54-8.83,7.09-3.6,1.55-7.3,2.33-11.11,2.33-2.05,0-3.74-.17-5.08-.53-.21,0-.32-.18-.32-.53,0-.21,.05-.42,.16-.63s.23-.28,.37-.21c1.13,.28,2.4,.42,3.81,.42,4.66,0,8.59-1.52,11.8-4.55,3.21-3.03,4.81-7.41,4.81-13.12s-1.52-9.96-4.55-13.17c-3.03-3.21-6.91-4.81-11.64-4.81-2.54,0-4.37,.14-5.5,.42-1.13,.28-1.94,.94-2.43,1.96-.49,1.02-.74,2.73-.74,5.13v48.35c0,2.26,.3,3.9,.9,4.92Z"/>
    <path class="cls-1" d="M480.5,145.6c.21,0,.41,.04,.58,.11,.18,.07,.26,.18,.26,.32-.63,4.44-.95,9.1-.95,13.96,0,.57-.12,.97-.37,1.22-.25,.25-.69,.37-1.32,.37h-44.33c-.14,0-.21-.21-.21-.63s.07-.63,.21-.63c2.68,0,4.64-.18,5.87-.53,1.23-.35,2.08-1.04,2.54-2.06,.46-1.02,.69-2.59,.69-4.71v-48.98c0-2.12-.23-3.67-.69-4.66-.46-.99-1.31-1.67-2.54-2.06-1.23-.39-3.19-.58-5.87-.58-.14,0-.21-.21-.21-.63s.07-.63,.21-.63h42.53c.63,0,.95,.32,.95,.95l.21,13.01c0,.21-.18,.34-.53,.37-.35,.04-.56-.05-.63-.26-.21-3.74-1.34-6.65-3.39-8.73-2.05-2.08-4.76-3.12-8.15-3.12h-6.45c-2.47,0-4.28,.2-5.45,.58-1.16,.39-1.98,1.06-2.43,2.01-.46,.95-.69,2.38-.69,4.29v21.48h12.91c3.39,0,5.8-.56,7.25-1.69,1.44-1.13,2.17-3.03,2.17-5.71,0-.14,.21-.21,.63-.21s.63,.07,.63,.21l-.11,8.57c0,2.05,.03,3.6,.11,4.66l.11,5.08c0,.14-.21,.21-.63,.21s-.63-.07-.63-.21c0-3.1-.76-5.32-2.27-6.67-1.52-1.34-4.04-2.01-7.56-2.01h-12.59v24.33c0,1.98,.21,3.42,.63,4.34,.42,.92,1.2,1.55,2.33,1.9,1.13,.35,2.89,.53,5.29,.53h8.46c3.39,0,6.21-1.2,8.46-3.6,2.26-2.4,3.77-5.71,4.55-9.94,0-.14,.14-.21,.42-.21Z"/>
    <path class="cls-1" d="M559.1,160.94c0,.42-.07,.63-.21,.63h-13.65c-1.76,0-5.06-3.02-9.89-9.05-4.83-6.03-10.7-14.44-17.62-25.23-1.69,.49-3.6,.74-5.71,.74-1.34,0-2.93-.07-4.76-.21v25.18c0,2.19,.21,3.77,.63,4.76,.42,.99,1.25,1.66,2.49,2.01,1.23,.35,3.19,.53,5.87,.53,.21,0,.32,.21,.32,.63s-.11,.63-.32,.63c-2.19,0-3.91-.04-5.18-.11l-7.3-.11-7.19,.11c-1.27,.07-3.07,.11-5.4,.11-.14,0-.21-.21-.21-.63s.07-.63,.21-.63c2.68,0,4.65-.19,5.92-.58,1.27-.39,2.15-1.07,2.65-2.06,.49-.99,.74-2.54,.74-4.65v-48.98c0-2.12-.23-3.67-.69-4.66-.46-.99-1.31-1.67-2.54-2.06-1.23-.39-3.19-.58-5.87-.58-.21,0-.32-.21-.32-.63s.11-.63,.32-.63l5.18,.11c2.96,.14,5.36,.21,7.19,.21,1.27,0,2.47-.04,3.6-.11,1.13-.07,2.12-.14,2.96-.21,2.26-.21,4.3-.32,6.14-.32,5.71,0,10.12,1.16,13.22,3.49,3.1,2.33,4.65,5.57,4.65,9.73,0,3.38-.99,6.58-2.96,9.57-1.98,3-4.59,5.38-7.83,7.14,5.99,8.96,11.04,15.96,15.13,21,4.09,5.04,7.72,8.67,10.9,10.9s6.28,3.33,9.31,3.33c.14,0,.21,.21,.21,.63Zm-45.6-35.34c4.87,0,8.36-1.04,10.47-3.12,2.12-2.08,3.17-5.55,3.17-10.42,0-10.23-4.3-15.34-12.91-15.34-1.9,0-3.33,.16-4.28,.48s-1.64,.99-2.06,2.01c-.42,1.02-.63,2.7-.63,5.03v20.95c1.76,.28,3.84,.42,6.24,.42Z"/>
    <path class="cls-1" d="M559.16,100.74c-2.22,2.26-3.83,6.1-4.81,11.53,0,.14-.2,.21-.58,.21s-.58-.07-.58-.21c.28-2.54,.6-5.85,.95-9.94,.35-4.09,.53-7.16,.53-9.2,0-.35,.19-.53,.58-.53s.58,.18,.58,.53c0,1.55,1.9,2.33,5.71,2.33,5.99,.21,13.08,.32,21.26,.32,4.16,0,8.57-.07,13.22-.21l7.19-.11c2.54,0,4.43-.17,5.66-.53,1.23-.35,2.03-1.06,2.38-2.12,.07-.28,.28-.42,.63-.42s.53,.14,.53,.42c-.21,2.05-.42,5.15-.63,9.31-.21,4.16-.32,7.55-.32,10.16,0,.14-.21,.21-.63,.21s-.63-.07-.63-.21c-.21-5.5-1.34-9.36-3.39-11.58-2.05-2.22-5.43-3.33-10.16-3.33-3.17,0-5.43,.14-6.77,.42-1.34,.28-2.26,.88-2.75,1.8-.49,.92-.74,2.47-.74,4.66v48.77c0,2.19,.25,3.77,.74,4.76,.49,.99,1.44,1.66,2.86,2.01,1.41,.35,3.63,.53,6.67,.53,.21,0,.32,.21,.32,.63s-.11,.63-.32,.63c-2.33,0-4.2-.04-5.61-.11l-8.25-.11-7.93,.11c-1.41,.07-3.35,.11-5.82,.11-.14,0-.21-.21-.21-.63s.07-.63,.21-.63c3.03,0,5.25-.18,6.67-.53,1.41-.35,2.38-1.04,2.91-2.06s.79-2.59,.79-4.71v-48.98c0-2.19-.25-3.72-.74-4.6-.49-.88-1.41-1.44-2.75-1.69-1.34-.25-3.6-.37-6.77-.37-4.44,0-7.78,1.13-10,3.39Z"/>
  </g>
  <g>
    <path class="cls-1" d="M255.85,215.28v-13.82h2.31v13.5c0,2.98,.5,5.2,1.5,6.66,1,1.46,2.52,2.19,4.55,2.19,1.35,0,2.65-.3,3.9-.9s2.35-1.44,3.3-2.53c.95-1.09,1.66-2.36,2.12-3.8v-15.11h2.31v20.91c0,.37,.08,.65,.25,.83,.17,.19,.41,.29,.72,.32v1.89c-.31,.03-.55,.05-.72,.05s-.32-.02-.44-.05c-.52-.06-.95-.28-1.29-.67-.34-.38-.52-.85-.55-1.41l-.05-3.59c-1.05,1.91-2.49,3.4-4.32,4.49-1.83,1.09-3.81,1.63-5.93,1.63-2.52,0-4.43-.89-5.72-2.67-1.29-1.78-1.94-4.42-1.94-7.92Z"/>
    <path class="cls-1" d="M320.39,225.42h-2.31v-13.33c0-3.07-.44-5.31-1.32-6.74-.88-1.42-2.27-2.14-4.18-2.14-1.35,0-2.69,.32-3.99,.96-1.31,.64-2.45,1.52-3.42,2.64-.97,1.12-1.67,2.38-2.1,3.79v14.81h-2.31v-23.96h2.17v5.75c.65-1.23,1.51-2.29,2.58-3.2,1.08-.9,2.28-1.62,3.6-2.14,1.32-.52,2.69-.78,4.11-.78,1.32,0,2.44,.24,3.35,.71,.91,.48,1.65,1.16,2.22,2.05,.57,.89,.98,1.99,1.22,3.31,.25,1.32,.37,2.82,.37,4.51v13.75Z"/>
    <path class="cls-1" d="M344.95,195.97v-4.25h2.31v4.25h-2.31Zm0,29.45v-24.01h2.31v24.01h-2.31Z"/>
    <path class="cls-1" d="M379.48,225.42l-10.02-23.96h2.45l8.82,21.52,8.86-21.52h2.31l-10.02,23.96h-2.4Z"/>
    <path class="cls-1" d="M423.43,225.88c-1.69,0-3.26-.33-4.71-.99-1.45-.66-2.7-1.56-3.76-2.71-1.06-1.15-1.89-2.48-2.49-4-.6-1.52-.9-3.12-.9-4.81,0-2.27,.51-4.32,1.52-6.16,1.02-1.84,2.42-3.32,4.2-4.44,1.78-1.12,3.79-1.68,6-1.68s4.29,.57,6.05,1.7c1.75,1.13,3.15,2.63,4.18,4.49,1.03,1.86,1.55,3.89,1.55,6.09v.55c0,.18-.02,.34-.05,.46h-21.05c.12,1.81,.63,3.45,1.52,4.92,.89,1.47,2.04,2.63,3.44,3.47,1.4,.84,2.93,1.26,4.59,1.26s3.23-.43,4.71-1.29c1.48-.86,2.51-1.97,3.09-3.32l2.03,.55c-.46,1.14-1.19,2.15-2.19,3.05-1,.89-2.17,1.59-3.51,2.1-1.34,.51-2.75,.76-4.22,.76Zm-9.56-13.29h18.97c-.12-1.87-.62-3.52-1.48-4.96-.86-1.44-1.99-2.57-3.39-3.4-1.4-.83-2.95-1.24-4.64-1.24s-3.23,.41-4.62,1.24c-1.38,.83-2.51,1.96-3.37,3.4-.86,1.44-1.35,3.09-1.48,4.96Z"/>
    <path class="cls-1" d="M469.08,203.49c-2.15,.06-4.04,.7-5.65,1.92-1.62,1.22-2.75,2.89-3.39,5.01v15h-2.31v-23.96h2.22v5.86c.83-1.69,1.94-3.07,3.32-4.13,1.38-1.06,2.85-1.67,4.39-1.82,.31-.03,.58-.05,.83-.05h.6v2.17Z"/>
    <path class="cls-1" d="M498.63,225.88c-1.91,0-3.68-.32-5.31-.97-1.63-.65-3.06-1.63-4.29-2.96l1.06-1.62c1.32,1.26,2.66,2.18,4.02,2.75,1.35,.57,2.83,.85,4.43,.85,2.06,0,3.73-.43,5.01-1.29,1.28-.86,1.92-2.05,1.92-3.58,0-1.04-.3-1.85-.9-2.41-.6-.57-1.46-1.03-2.59-1.38-1.12-.35-2.49-.73-4.09-1.13-1.63-.43-3.01-.87-4.13-1.33-1.12-.46-1.96-1.06-2.52-1.79-.55-.74-.83-1.73-.83-2.99,0-1.56,.39-2.86,1.18-3.89,.78-1.03,1.85-1.79,3.19-2.3,1.34-.5,2.82-.76,4.46-.76,1.88,0,3.52,.31,4.92,.92,1.4,.62,2.47,1.43,3.21,2.45l-1.25,1.48c-.77-.98-1.77-1.72-3-2.19-1.23-.48-2.58-.72-4.06-.72-1.11,0-2.15,.15-3.14,.46-.99,.31-1.78,.8-2.38,1.49-.6,.69-.9,1.62-.9,2.78,0,.92,.22,1.64,.67,2.16,.45,.52,1.12,.94,2.01,1.26,.89,.32,2,.67,3.32,1.03,1.88,.46,3.49,.94,4.85,1.43,1.35,.49,2.4,1.13,3.14,1.91,.74,.78,1.11,1.88,1.11,3.29,0,2.18-.83,3.89-2.49,5.15-1.66,1.26-3.86,1.88-6.6,1.88Z"/>
    <path class="cls-1" d="M530.76,195.97v-4.25h2.31v4.25h-2.31Zm0,29.45v-24.01h2.31v24.01h-2.31Z"/>
    <path class="cls-1" d="M568.61,224.45c-.15,.06-.46,.22-.92,.46-.46,.25-1.05,.47-1.75,.67-.71,.2-1.49,.3-2.35,.3s-1.61-.16-2.33-.49c-.72-.32-1.3-.81-1.73-1.46-.43-.65-.65-1.44-.65-2.37v-18.21h-3.37v-1.89h3.37v-8.22h2.31v8.22h5.59v1.89h-5.59v17.66c.06,.9,.38,1.57,.97,2.02,.58,.45,1.26,.67,2.03,.67,.95,0,1.78-.16,2.49-.49,.71-.32,1.12-.53,1.25-.62l.69,1.85Z"/>
    <path class="cls-1" d="M591.88,233.54c.49,.03,.93,.04,1.32,.02,.38-.02,.67-.08,.85-.21,.28-.09,.56-.33,.85-.71,.29-.38,.68-1.14,1.18-2.26,.49-1.12,1.18-2.77,2.08-4.95l-10.71-23.97h2.45l9.51,21.53,8.82-21.53h2.35l-13.16,31.53c-.18,.49-.44,.93-.76,1.31-.32,.38-.72,.69-1.18,.92-.46,.23-1.02,.36-1.66,.39-.28,.03-.57,.05-.88,.07-.31,.01-.66,0-1.06-.02v-2.12Z"/>
  </g>
</svg>