<svg id="Слой_1" data-name="Слой 1" xmlns="http://www.w3.org/2000/svg" xmlns:xlink="http://www.w3.org/1999/xlink" viewBox="0 0 612.42 237.91">
  <defs>
    <style>
      .cls-1 {
        fill: none;
      }

      .cls-2 {
        clip-path: url(#clip-path);
      }

      .cls-3 {
        fill: #9d1229;
      }

      .cls-4 {
        fill: #efefef;
      }
    </style>
    <clipPath id="clip-path">
      <path class="cls-1" d="M2.25,2.79V173c0,33.55,18.8,50.56,55.88,50.56,21.42,0,35.9,7.54,42.13,11.6,6.23-4.06,20.71-11.6,42.13-11.6,37.08,0,55.88-17,55.88-50.56V2.79Z"/>
    </clipPath>
  </defs>
  <g>
    <g>
      <g class="cls-2">
        <g>
          <rect class="cls-3" x="0.63" y="0.04" width="99.69" height="118.96"/>
          <rect class="cls-4" x="0.57" y="118.96" width="99.69" height="118.96"/>
          <rect class="cls-4" x="100.26" width="99.69" height="118.96"/>
          <rect class="cls-3" x="100.26" y="118.96" width="99.69" height="118.96"/>
        </g>
      </g>
      <path class="cls-3" d="M77.37,142a3.9,3.9,0,0,1-2.45.91c-4.62.27-19,.27-19,.27s-1.17-8.49,6.66-6.65c-.13,0-1.21-6.37-1.2-6.37-2.3,0-8,.37-7.73,8.39,0,1.19.2,4.09.2,4.09s-1.26-1.27-2.84-2.73c-4.1-3.81-11-2.32-14.11,1.59-3.3,4.14-1.15,13.22-1.15,13.22s-14.62,22.45,6.36,42.89c6,5.82,13.47,9.08,13.47,9.81,0-2.45-.08-3.44,0-5.74.35-.7,17.36-10.56,15.51-21.06a7.24,7.24,0,0,1,.46-3.91L59.05,186.94l-3.4-3.4c.05-4.48.12-9.87.14-10.86s0-2.12.05-3.18c5.63-.17,9.73-2,12.73-.25a7.3,7.3,0,0,1,1.3,1s.57-4.52-1.22-7.08c-2.79-4-11.38-1.2-12.84-1.17V150.17a37.28,37.28,0,0,1,4.69.69c8.23,1.87,9.69,3.84,9.69,3.84a13.88,13.88,0,0,1,0-2.89c.26-2.84,3.87-6.79,5.94-8.2C77.58,142.6,77.37,142,77.37,142Zm-23.26,8.2v11.9S49.4,161.52,49,160c-2.19.9-1.21,3.33-1.21,3.33l-3-6.27a7.75,7.75,0,0,1,5.31-6.41A15.64,15.64,0,0,1,54.11,150.17Zm0,27s-3-6.26-3.91-7.64h3.91C54,169.59,54.11,177.14,54.11,177.14ZM43.93,155c-1.3-3.56-1.56-4.27-1.72-4.72a16.7,16.7,0,0,1,3.34-3,17.2,17.2,0,0,1,5.2-2.39S43.49,148.39,43.93,155Zm4.18-15.81c1.86.5,3.24,2,5.32,3.87-.83.36-3.45,1.23-4.73,1.69a21.33,21.33,0,0,0-6.86,4.17S40.55,137.12,48.11,139.15Zm-3.63,51.71c-14.89-11.79-11.8-23.67-8-33.83,1.31,2.57,12.55,23.3,12.86,28.1C49.6,188.42,47.21,193,44.48,190.86ZM49.73,195l-3.8-2.64a8.64,8.64,0,0,0,5-.81,9.46,9.46,0,0,0,1.24-.76l1.93,1.92c0,2.46,0,5.2,0,5.28C53.72,197.7,51.67,196.29,49.73,195Zm12.62-9.6c2.81.1,4.9,6.14-1.25,11.1a54.93,54.93,0,0,1-5.54,4.22c0-1.44,0-4.7,0-7.06l5.09-5.1-1-1C60.81,186.48,61.94,185.59,62.35,185.35Z"/>
      <path class="cls-4" d="M193.77,7.29V173c0,31-16.8,46.06-51.38,46.06-20,0-34.29,6.21-42.13,10.82C92.42,225.23,78.13,219,58.13,219,23.55,219,6.75,204,6.75,173V7.29h187m4.5-4.5H2.25V173c0,33.55,18.8,50.56,55.88,50.56,21.42,0,35.9,7.54,42.13,11.6,6.23-4.06,20.71-11.6,42.13-11.6,37.08,0,55.88-17,55.88-50.56V2.79Z"/>
      <path class="cls-4" d="M180,146.62s-.53-.38-2.47,1.8c-3.13,3.51-15.61-2.06-26.17-5.61-.12-1.23-.21-4.78,2.64-6.09a5.79,5.79,0,0,1,4.08-.13l-1.21-6.38a7.21,7.21,0,0,0-6.19,2.42c-2.4,2.8-1.92,7.44-1.57,9.45-5.19-1.63-9.68-2.52-12-1.23-1.84,1.09-3.31,3.38-4.28,5.17-3.42,6.9-.36,10.93,7.23,8.59l1.72-.45c-7.63,6.54-13.48,15.13-14.24,25.19-.88,11.85,7.33,16.51,16.23,22.82,4.81,3.4,7.23,5.22,7.23,5.22s0-5.09,0-12.26l4.4-4.4L151,186.34c0-14.27,0-31.32,0-35.8,4.26,1,16.29,6.09,20.51,6.12-.86,2.38.28,5.49,3.35,4.79C167.35,160,180,146.62,180,146.62Zm-38.65,7.09c-2.56,1.14-9.79,2.86-9.26-3.14.59-6.57,11.82-2,16.49-.75C145.89,150.85,144.14,152.71,141.31,153.71Zm-9.58,20A27.68,27.68,0,0,1,139,157.87c-2.18,5.07-.74,9.74,1.54,15a67.35,67.35,0,0,1,3.61,10.58c.72,3.58-.63,8-5.06,7.5A25.24,25.24,0,0,1,131.73,173.69Zm17.91,12.69-4.35,4.35,4.28,4.28c0,1.34,0,2.39,0,3.09a37.23,37.23,0,0,1-9.77-6.51c10.91-1.74,10.33-11.88,8.31-18.27-2.25-7.1-5.17-10.11-4.44-15,.32-2.11,1.77-5.09,5.9-8.33C149.8,156,149.73,174,149.64,186.38Z"/>
      <path class="cls-4" d="M70.72,47.67C69.11,42.35,73.2,36.21,74.91,34a.16.16,0,0,0-.22-.24c-2,1.34-7,4.21-11.73,3.67-7.88-.89-10,4.52-10,4.52s0-1.82.16-3.48c.32-3.33,1.17-8,3.36-9a5.75,5.75,0,0,1,4.08-.14L59.4,22.9a7.23,7.23,0,0,0-6.19,2.41C51,28,51.41,37.66,51.44,39.11c0,.15,0,.61,0,.61.69,18.11.57,32.81.54,35.41l-4,4,4,4,.05,4.74c-1.53-2.15-5.49-3.34-9.3-4.14-4.29-.89-10.55-2.45-10.55-2.45s1.71-1.41,3.56-3.3c6.74-6.85,14.59-15.58,15-25.09.2-9.13-6.31-22.41-16.72-22-.73,3.16-6.91,6.66-9.13,9.15-.6.68-.92,2.49.08,1.88,2.23-5.18,9.72-3.48,12.84-.16,10.49,11.13,3.18,25-.39,30.56-2.8,4.38-6.82,8.5-7.38,8.37-4.5-1-6.17-2.53-6.17-2.53s-1.91,5.9,5.71,8.26c8,2.49,9.39,3,17.07,5,3.36.77,6.75,3.85,6.75,3.85A7.38,7.38,0,0,1,53.52,93c1.35-4.17,21.87-4.59,25.26-14.8C83.7,63.34,72.39,53.18,70.72,47.67ZM67.17,82.93c-2.77,3.09-13.69,8-13.69,8L53.38,83l3.84-3.84-4.08-4.08c0-2.18,0-11.1,0-14.11,0-3.51-.1-7.53,0-11,.06-2.27-.48-5.61,2.37-5.65,3.2,0,6.77-.06,10-.16-1.09,1.14-2.5,2.3-3.68,3.43C62.45,50.31,77.36,71.56,67.17,82.93Z"/>
      <path class="cls-3" d="M163.42,50.3a90.87,90.87,0,0,0-12.06-.81s-.1-1.74,0-6.39l.14.57s-.06-.6-.12-1.55v0a25,25,0,0,1,13.15,3.57c.89.53.62.84.93,1.12a.33.33,0,0,0,.55-.3,10.07,10.07,0,0,1,3-8.87,16.67,16.67,0,0,0,2.82-3.84,10.52,10.52,0,0,1-4.13.88c-1.43.12-6.8.16-14.29.31a11.91,11.91,0,0,1-2-.14c.27-3,1-5.75,2.63-6.4a5.49,5.49,0,0,1,3.46-.12l-1-5.39a6.13,6.13,0,0,0-5.24,2c-1.51,1.77-1.67,5.78-1.53,8.9l-.41-.41c-2.34-2.34-5.94-7.32-13.19-1-7.05,6.18-2.74,20,5.4,22.54a32.21,32.21,0,0,0,8.35,1.22V67.51s0-8-15.27-5.19c-5.52,1-11.47,2.85-12.2-2-2.32,4.09.07,8.43,3.35,8.68,8.19.63,19.11-5.38,23.34,3.13a6.14,6.14,0,0,1,.27.64L145.12,77l4.79,4.79a23.3,23.3,0,0,0-.07,3.92c-6.35-3-13.69-10.83-21.06-6.35a7.62,7.62,0,0,0-3.17,3.51,6.12,6.12,0,0,0,.43,4.87,7.45,7.45,0,0,0,4.71,3.36l.34-.7A5.45,5.45,0,0,1,126.73,88c-1.34-2.24,1.74-5.6,6.53-5,6.54.89,17.36,12.14,17.36,12.14s20-12.19,24.17-26.51C176.85,61.61,172.15,51.73,163.42,50.3ZM141.2,49.22a7.92,7.92,0,0,1-5.54-2.32,9.56,9.56,0,0,1-2.36-7.27c.27-8.84,12-12.87,15.58-4.3C137.19,38.06,141.2,49.22,141.2,49.22Zm8.64.27-8-.27s-2.72-8.34,8-7.1Zm18.62,20.83c-.64,12.62-16.27,22.71-17.23,23.14v-5c0-.59,0-5.57,0-6.27q0-.18,0-.48L156,77l-4.62-4.62c0-2,.06-3.93,0-5.55-.06-3.3-.07-7.35,0-10.62.6-.11,9.33-1.57,14.25,4.27C168.77,64.22,168.54,68.8,168.46,70.32Z"/>
    </g>
    <g>
      <path class="cls-4" d="M323.29,69.55c0,.42-.11.63-.32.63-2.18,0-3.91,0-5.18-.1l-7.3-.11-7.72.11c-1.27.07-3,.1-5.08.1-.21,0-.32-.21-.32-.63s.11-.64.32-.64a24.32,24.32,0,0,0,6-.53,3.73,3.73,0,0,0,2.59-2.06,12.09,12.09,0,0,0,.69-4.71V36.86H266.37V61.61a12.09,12.09,0,0,0,.69,4.71,3.73,3.73,0,0,0,2.59,2.06,24.32,24.32,0,0,0,6,.53c.14,0,.21.21.21.64s-.07.63-.21.63c-2.18,0-3.91,0-5.18-.1L262.88,70l-7.3.11c-1.27.07-3,.1-5.29.1q-.21,0-.21-.63c0-.43.07-.64.21-.64a24.45,24.45,0,0,0,6-.53,3.76,3.76,0,0,0,2.64-2.06,12.09,12.09,0,0,0,.69-4.71v-49A11.62,11.62,0,0,0,258.91,8a3.93,3.93,0,0,0-2.59-2.07,22.3,22.3,0,0,0-5.92-.58q-.21,0-.21-.63c0-.43.07-.64.21-.64l5.39.11q4.46.21,7.09.21,3.08,0,7.72-.21l5.08-.11c.14,0,.21.21.21.64s-.07.63-.21.63a20.45,20.45,0,0,0-6,.64,4.06,4.06,0,0,0-2.65,2.16,12.16,12.16,0,0,0-.69,4.71v21.8H307V12.84a12.16,12.16,0,0,0-.69-4.71A4,4,0,0,0,303.72,6a20.46,20.46,0,0,0-6-.64c-.21,0-.32-.21-.32-.63s.11-.64.32-.64l5.08.11q4.65.21,7.72.21c1.9,0,4.34-.07,7.3-.21L323,4.06c.21,0,.32.21.32.64s-.11.63-.32.63a22.3,22.3,0,0,0-5.92.58A3.91,3.91,0,0,0,314.46,8a11.62,11.62,0,0,0-.69,4.65v49a12.09,12.09,0,0,0,.69,4.71,3.71,3.71,0,0,0,2.59,2.06,23.68,23.68,0,0,0,5.92.53C323.18,68.91,323.29,69.12,323.29,69.55Z"/>
      <path class="cls-4" d="M401.26,69.55q0,.63-.42.63c-1.34,0-3.43-.07-6.25-.21s-4.86-.21-6.13-.21q-2.32,0-5.93.21c-2.25.14-4,.21-5.18.21q-.42,0-.42-.63c0-.43.14-.64.42-.64a16,16,0,0,0,5.71-.74,2.58,2.58,0,0,0,1.8-2.54,12.93,12.93,0,0,0-1.37-4.55L371.32,35.16h-20l-9.09,21.59a16.32,16.32,0,0,0-1.48,5.92q0,6.24,10.36,6.24c.36,0,.53.21.53.64s-.17.63-.53.63c-1.27,0-3.1-.07-5.5-.21q-4-.21-7-.21c-1.84,0-3.95.07-6.35.21-2.11.14-3.88.21-5.29.21-.35,0-.53-.21-.53-.63s.18-.64.53-.64a10.5,10.5,0,0,0,5-1.11,11.42,11.42,0,0,0,3.91-3.91,51.67,51.67,0,0,0,4.07-8.1L362.33,3.11a.82.82,0,0,1,.74-.32c.35,0,.56.11.63.32l25,52.58q3.6,7.83,6.14,10.53a8,8,0,0,0,6,2.69C401.12,68.91,401.26,69.12,401.26,69.55Zm-49-36.61h18l-9.52-20.1Z"/>
      <path class="cls-4" d="M422.84,66.32a3.54,3.54,0,0,0,2.49,2.06,23,23,0,0,0,5.87.53c.21,0,.32.21.32.64s-.11.63-.32.63c-2.12,0-3.81,0-5.08-.1L418.61,70l-7.3.11c-1.27.07-3,.1-5.18.1-.22,0-.32-.21-.32-.63s.1-.64.32-.64a23.07,23.07,0,0,0,5.87-.53,3.73,3.73,0,0,0,2.54-2.06,12.32,12.32,0,0,0,.68-4.71v-49A11.84,11.84,0,0,0,414.54,8,3.93,3.93,0,0,0,412,5.91a21.72,21.72,0,0,0-5.87-.58c-.22,0-.32-.21-.32-.63s.1-.64.32-.64l5.18.11c3,.14,5.4.21,7.3.21,2.12,0,4.65-.07,7.62-.21l5-.11c.21,0,.32.21.32.64s-.11.63-.32.63a19,19,0,0,0-5.77.64,4,4,0,0,0-2.54,2.16,12.19,12.19,0,0,0-.68,4.71V61.61A13.14,13.14,0,0,0,422.84,66.32Z"/>
      <path class="cls-4" d="M508.75,69.55c0,.42-.08.63-.22.63H494.89q-2.65,0-9.9-9a305.17,305.17,0,0,1-17.61-25.23,20.53,20.53,0,0,1-5.71.74c-1.34,0-2.93-.07-4.76-.22V61.61a13,13,0,0,0,.63,4.76,3.55,3.55,0,0,0,2.49,2,23,23,0,0,0,5.87.53c.21,0,.32.21.32.64s-.11.63-.32.63c-2.19,0-3.92,0-5.19-.1l-7.3-.11-7.19.11c-1.27.07-3.07.1-5.39.1-.15,0-.22-.21-.22-.63s.07-.64.22-.64a21.88,21.88,0,0,0,5.92-.58,4.09,4.09,0,0,0,2.64-2.06,10.87,10.87,0,0,0,.75-4.66v-49A11.62,11.62,0,0,0,449.45,8a3.93,3.93,0,0,0-2.54-2.07A21.72,21.72,0,0,0,441,5.33c-.21,0-.32-.21-.32-.63s.11-.64.32-.64l5.18.11q4.44.21,7.19.21c1.27,0,2.47,0,3.6-.11s2.12-.14,3-.21q3.39-.31,6.14-.32,8.56,0,13.22,3.5A11.45,11.45,0,0,1,484,17a17.12,17.12,0,0,1-3,9.57,21.53,21.53,0,0,1-7.83,7.14q9,13.44,15.13,21t10.89,10.9a16.29,16.29,0,0,0,9.31,3.33C508.67,68.91,508.75,69.12,508.75,69.55Zm-45.6-35.34c4.86,0,8.36-1,10.47-3.12s3.18-5.55,3.18-10.42q0-15.35-12.91-15.34a14.38,14.38,0,0,0-4.29.48,3.31,3.31,0,0,0-2.06,2,14.33,14.33,0,0,0-.63,5v21A40.28,40.28,0,0,0,463.15,34.21Z"/>
      <path class="cls-4" d="M297.26,145.6a1.59,1.59,0,0,1,.59.11c.17.07.26.17.26.31a99.55,99.55,0,0,0-.95,14,1.68,1.68,0,0,1-.37,1.21,1.84,1.84,0,0,1-1.32.37H251.14q-.21,0-.21-.63t.21-.63a23.49,23.49,0,0,0,5.87-.53,3.74,3.74,0,0,0,2.54-2.07,12.07,12.07,0,0,0,.69-4.7V104a11.69,11.69,0,0,0-.69-4.65A3.93,3.93,0,0,0,257,97.3a21.66,21.66,0,0,0-5.87-.58q-.21,0-.21-.63c0-.43.07-.64.21-.64h42.53a.84.84,0,0,1,.95,1l.21,13c0,.21-.18.33-.53.37s-.56-.05-.63-.27q-.32-5.59-3.39-8.72a10.9,10.9,0,0,0-8.14-3.13h-6.46a18.53,18.53,0,0,0-5.45.59,3.9,3.9,0,0,0-2.43,2,10.24,10.24,0,0,0-.69,4.28V126H280c3.39,0,5.8-.57,7.25-1.7s2.17-3,2.17-5.71q0-.21.63-.21c.42,0,.64.07.64.21l-.11,8.57c0,2.05,0,3.6.11,4.66l.1,5.07c0,.15-.21.22-.63.22s-.64-.07-.64-.22q0-4.65-2.27-6.66t-7.57-2H267.11v24.33a10.86,10.86,0,0,0,.64,4.34,3.54,3.54,0,0,0,2.33,1.9,18.9,18.9,0,0,0,5.29.53h8.46a11.17,11.17,0,0,0,8.46-3.59,19.24,19.24,0,0,0,4.55-9.95Q296.84,145.6,297.26,145.6Z"/>
      <path class="cls-4" d="M370.79,160.94q0,.63-.21.63c-1.84,0-3.28,0-4.34-.1l-5.82-.11-8.14.11c-1.27.07-3,.1-5.19.1q-.21,0-.21-.63t.21-.63a14.37,14.37,0,0,0,4.13-.43c.85-.28,1.27-.74,1.27-1.37a4.41,4.41,0,0,0-.95-2.33l-16.08-24.33L322,150.78q-2.53,3.6-2.54,5.82,0,3.71,6.24,3.71c.21,0,.32.21.32.63s-.11.63-.32.63c-2.11,0-3.74,0-4.86-.1l-7.3-.11-4.45.11c-.77.07-2.08.1-3.91.1-.21,0-.32-.21-.32-.63s.11-.63.32-.63q7.29,0,14.39-9.63l14.91-20.42-17-25.82a19.92,19.92,0,0,0-5.45-6,11.47,11.47,0,0,0-6.4-1.75q-.21,0-.21-.63c0-.43.07-.64.21-.64l4,.11c1.83.14,3.18.21,4,.21q3.6,0,8.68-.21l5.5-.11c.21,0,.32.21.32.64s-.11.63-.32.63a14,14,0,0,0-4.07.43c-.89.28-1.33.77-1.33,1.48a4.85,4.85,0,0,0,.95,2.32l15.66,23.6L351.43,107c1.9-2.68,2.86-4.86,2.86-6.55q0-3.71-5.93-3.71c-.21,0-.31-.21-.31-.63s.1-.64.31-.64l4.76.11c2.68.14,5.12.21,7.3.21,1.27,0,2.75-.07,4.45-.21l3.91-.11c.21,0,.32.21.32.64s-.11.63-.32.63a12.93,12.93,0,0,0-7.3,2.65,33.55,33.55,0,0,0-7.62,7.83L340,126.13l17.67,26.66a18.23,18.23,0,0,0,5.66,5.82,14.22,14.22,0,0,0,7.25,1.7Q370.79,160.31,370.79,160.94Z"/>
      <path class="cls-4" d="M393.59,157.5a5.2,5.2,0,0,0,3.49,2.17,38.06,38.06,0,0,0,8.2.64c.21,0,.32.21.32.63s-.11.63-.32.63q-4.33,0-6.77-.1l-9.21-.11-7.08.11c-1.34.07-3.14.1-5.4.1q-.21,0-.21-.63t.21-.63a23.49,23.49,0,0,0,5.87-.53,3.55,3.55,0,0,0,2.49-2.07,13.12,13.12,0,0,0,.63-4.7V104a12.7,12.7,0,0,0-.63-4.65,3.72,3.72,0,0,0-2.49-2.07,21.66,21.66,0,0,0-5.87-.58q-.21,0-.21-.63c0-.43.07-.64.21-.64l5.29.11q4.44.21,7.09.21c1.76,0,3.74-.11,5.92-.32.85,0,2.19,0,4-.16s3.42-.15,4.76-.15q9.74,0,15.61,4.33t5.87,13.23a19.54,19.54,0,0,1-3.44,11.74,20.91,20.91,0,0,1-8.83,7.09A27.82,27.82,0,0,1,402,133.86a20.5,20.5,0,0,1-5.08-.53c-.21,0-.32-.18-.32-.53a1.55,1.55,0,0,1,.16-.64c.11-.21.23-.28.37-.21a15.36,15.36,0,0,0,3.81.43,16.54,16.54,0,0,0,11.8-4.55q4.81-4.56,4.81-13.12,0-8.35-4.55-13.17a15.3,15.3,0,0,0-11.64-4.82,24.67,24.67,0,0,0-5.5.43,3.49,3.49,0,0,0-2.43,1.95,12.87,12.87,0,0,0-.74,5.13v48.35A10.13,10.13,0,0,0,393.59,157.5Z"/>
      <path class="cls-4" d="M480.5,145.6a1.58,1.58,0,0,1,.58.11c.18.07.27.17.27.31a98,98,0,0,0-1,14,1.64,1.64,0,0,1-.37,1.21,1.81,1.81,0,0,1-1.32.37H434.37q-.21,0-.21-.63t.21-.63a23.49,23.49,0,0,0,5.87-.53,3.72,3.72,0,0,0,2.54-2.07,12.07,12.07,0,0,0,.69-4.7V104a11.69,11.69,0,0,0-.69-4.65,3.91,3.91,0,0,0-2.54-2.07,21.66,21.66,0,0,0-5.87-.58q-.21,0-.21-.63c0-.43.07-.64.21-.64H476.9a.84.84,0,0,1,1,1l.22,13c0,.21-.18.33-.53.37s-.57-.05-.64-.27q-.31-5.59-3.38-8.72a10.93,10.93,0,0,0-8.15-3.13h-6.45a18.49,18.49,0,0,0-5.45.59,3.88,3.88,0,0,0-2.43,2,10.24,10.24,0,0,0-.69,4.28V126h12.91c3.38,0,5.8-.57,7.24-1.7s2.17-3,2.17-5.71c0-.14.21-.21.64-.21s.63.07.63.21l-.11,8.57c0,2.05,0,3.6.11,4.66l.11,5.07c0,.15-.22.22-.64.22s-.63-.07-.63-.22q0-4.65-2.28-6.66t-7.56-2H450.35v24.33a11.08,11.08,0,0,0,.63,4.34,3.57,3.57,0,0,0,2.33,1.9,19,19,0,0,0,5.29.53h8.46a11.17,11.17,0,0,0,8.47-3.59,19.32,19.32,0,0,0,4.55-9.95Q480.08,145.6,480.5,145.6Z"/>
      <path class="cls-4" d="M559.1,160.94q0,.63-.21.63H545.24q-2.64,0-9.89-9a305.17,305.17,0,0,1-17.61-25.23A20.53,20.53,0,0,1,512,128c-1.35,0-2.93-.07-4.77-.21V153a13.08,13.08,0,0,0,.64,4.76,3.6,3.6,0,0,0,2.49,2,23.49,23.49,0,0,0,5.87.53c.21,0,.31.21.31.63s-.1.63-.31.63c-2.19,0-3.92,0-5.19-.1l-7.3-.11-7.19.11c-1.27.07-3.07.1-5.4.1q-.21,0-.21-.63t.21-.63a21.88,21.88,0,0,0,5.93-.59,4.06,4.06,0,0,0,2.64-2.06,10.87,10.87,0,0,0,.74-4.65V104a11.91,11.91,0,0,0-.68-4.65,3.93,3.93,0,0,0-2.54-2.07,21.77,21.77,0,0,0-5.87-.58c-.22,0-.32-.21-.32-.63s.1-.64.32-.64l5.18.11q4.44.21,7.19.21c1.27,0,2.47,0,3.6-.11s2.12-.14,3-.21c2.26-.21,4.3-.31,6.14-.31q8.56,0,13.22,3.49a11.45,11.45,0,0,1,4.66,9.73,17.12,17.12,0,0,1-3,9.57,21.53,21.53,0,0,1-7.83,7.14q9,13.44,15.13,21T549.58,157a16.31,16.31,0,0,0,9.31,3.34Q559.1,160.31,559.1,160.94ZM513.51,125.6q7.29,0,10.47-3.12t3.17-10.42q0-15.33-12.9-15.34a14.33,14.33,0,0,0-4.29.48,3.33,3.33,0,0,0-2.06,2,14.32,14.32,0,0,0-.64,5v21A40.51,40.51,0,0,0,513.51,125.6Z"/>
      <path class="cls-4" d="M559.16,100.74q-3.33,3.39-4.82,11.53c0,.15-.19.22-.58.22s-.58-.07-.58-.22c.28-2.53.6-5.85,1-9.94s.53-7.16.53-9.2c0-.36.19-.53.58-.53s.58.17.58.53q0,2.33,5.72,2.32,9,.31,21.26.32,6.24,0,13.23-.21l7.19-.11a21.88,21.88,0,0,0,5.66-.53,3.23,3.23,0,0,0,2.38-2.11.57.57,0,0,1,.64-.43c.35,0,.52.15.52.43-.21,2-.42,5.15-.63,9.31s-.32,7.55-.32,10.15c0,.15-.21.22-.63.22s-.64-.07-.64-.22q-.32-8.25-3.38-11.58t-10.16-3.33a37.56,37.56,0,0,0-6.77.42,3.76,3.76,0,0,0-2.75,1.8,10.6,10.6,0,0,0-.74,4.65V153a11.39,11.39,0,0,0,.74,4.76,4.08,4.08,0,0,0,2.86,2,30.27,30.27,0,0,0,6.66.53c.21,0,.32.21.32.63s-.11.63-.32.63c-2.33,0-4.2,0-5.61-.1l-8.25-.11-7.93.11c-1.41.07-3.35.1-5.82.1q-.21,0-.21-.63t.21-.63a30.27,30.27,0,0,0,6.66-.53,4.21,4.21,0,0,0,2.91-2.07,10.62,10.62,0,0,0,.8-4.7V104a10.23,10.23,0,0,0-.74-4.6,3.73,3.73,0,0,0-2.75-1.69,42.3,42.3,0,0,0-6.78-.37Q562.49,97.36,559.16,100.74Z"/>
    </g>
    <g>
      <path class="cls-4" d="M255.85,215.28V201.46h2.31V215q0,4.47,1.5,6.66a5.16,5.16,0,0,0,4.55,2.18,9,9,0,0,0,3.9-.89,10.22,10.22,0,0,0,3.3-2.54,10.57,10.57,0,0,0,2.12-3.8V201.46h2.31v20.91a1.23,1.23,0,0,0,.25.83,1.06,1.06,0,0,0,.72.33v1.89c-.31,0-.55.05-.72.05a1.81,1.81,0,0,1-.43-.05,2,2,0,0,1-1.3-.67,2.27,2.27,0,0,1-.55-1.4l-.05-3.6a11.66,11.66,0,0,1-4.31,4.5,11.39,11.39,0,0,1-5.93,1.63,6.62,6.62,0,0,1-5.73-2.67Q255.86,220.54,255.85,215.28Z"/>
      <path class="cls-4" d="M320.39,225.42h-2.31V212.09c0-3.07-.44-5.31-1.31-6.74a4.56,4.56,0,0,0-4.18-2.14,9,9,0,0,0-4,1,10.77,10.77,0,0,0-3.41,2.64,10.33,10.33,0,0,0-2.1,3.79v14.81h-2.31v-24h2.17v5.75a10.77,10.77,0,0,1,2.58-3.2,13,13,0,0,1,3.61-2.14,11.1,11.1,0,0,1,4.1-.78,7.22,7.22,0,0,1,3.35.71,5.82,5.82,0,0,1,2.22,2,9.29,9.29,0,0,1,1.22,3.31,24.4,24.4,0,0,1,.37,4.51Z"/>
      <path class="cls-4" d="M345,196v-4.25h2.31V196Zm0,29.45v-24h2.31v24Z"/>
      <path class="cls-4" d="M379.48,225.42l-10-24h2.45L380.72,223l8.87-21.52h2.31l-10,24Z"/>
      <path class="cls-4" d="M423.43,225.88a11.17,11.17,0,0,1-4.71-1,11.56,11.56,0,0,1-3.76-2.71,12.69,12.69,0,0,1-2.5-4,13,13,0,0,1-.9-4.81,12.48,12.48,0,0,1,1.53-6.16,11.93,11.93,0,0,1,4.2-4.44,11.58,11.58,0,0,1,12,0,12.49,12.49,0,0,1,4.17,4.49,12.34,12.34,0,0,1,1.55,6.09v.56a2,2,0,0,1-.05.46H414a10.73,10.73,0,0,0,1.53,4.91,9.94,9.94,0,0,0,3.44,3.47,8.76,8.76,0,0,0,4.59,1.26,9.23,9.23,0,0,0,4.71-1.29,7.13,7.13,0,0,0,3.09-3.32l2,.55a8.15,8.15,0,0,1-2.19,3.05,11.23,11.23,0,0,1-3.51,2.1A11.77,11.77,0,0,1,423.43,225.88Zm-9.56-13.29h19a10.91,10.91,0,0,0-1.47-5,9.71,9.71,0,0,0-3.4-3.4,9,9,0,0,0-4.64-1.24,8.87,8.87,0,0,0-4.61,1.24,9.63,9.63,0,0,0-3.37,3.4A10.92,10.92,0,0,0,413.87,212.59Z"/>
      <path class="cls-4" d="M469.08,203.49a9.46,9.46,0,0,0-9.05,6.93v15h-2.3v-24h2.21v5.86a11.44,11.44,0,0,1,3.33-4.13,8.48,8.48,0,0,1,4.38-1.82c.31,0,.59-.05.83-.05h.6Z"/>
      <path class="cls-4" d="M498.63,225.88a14.2,14.2,0,0,1-5.31-1A11.66,11.66,0,0,1,489,222l1.07-1.62a13.52,13.52,0,0,0,4,2.75,11.32,11.32,0,0,0,4.43.85,8.88,8.88,0,0,0,5-1.28,4.1,4.1,0,0,0,1.92-3.59,3.16,3.16,0,0,0-.9-2.41,6.5,6.5,0,0,0-2.59-1.38c-1.12-.35-2.48-.73-4.08-1.13a33.75,33.75,0,0,1-4.13-1.33,5.8,5.8,0,0,1-2.52-1.79,4.91,4.91,0,0,1-.83-3,6.19,6.19,0,0,1,1.18-3.89,7,7,0,0,1,3.18-2.3,12.42,12.42,0,0,1,4.46-.76,12.22,12.22,0,0,1,4.91.92,7.68,7.68,0,0,1,3.21,2.45l-1.25,1.48a6.73,6.73,0,0,0-3-2.19A11.06,11.06,0,0,0,499,203a10.42,10.42,0,0,0-3.14.46,5.08,5.08,0,0,0-2.37,1.49,4.06,4.06,0,0,0-.91,2.79,3.24,3.24,0,0,0,.67,2.16,4.7,4.7,0,0,0,2,1.26c.89.32,2,.67,3.33,1a48.19,48.19,0,0,1,4.84,1.42,8,8,0,0,1,3.14,1.91,4.6,4.6,0,0,1,1.11,3.29,6.12,6.12,0,0,1-2.49,5.15A10.72,10.72,0,0,1,498.63,225.88Z"/>
      <path class="cls-4" d="M530.76,196v-4.25h2.3V196Zm0,29.45v-24h2.3v24Z"/>
      <path class="cls-4" d="M568.61,224.45c-.15.06-.46.22-.92.46a8.91,8.91,0,0,1-1.76.67,8.63,8.63,0,0,1-2.35.3,5.53,5.53,0,0,1-2.33-.49,3.92,3.92,0,0,1-1.73-1.46,4.12,4.12,0,0,1-.65-2.37V203.35H555.5v-1.89h3.37v-8.22h2.31v8.22h5.58v1.89h-5.58V221a2.62,2.62,0,0,0,1,2,3.22,3.22,0,0,0,2,.67,6,6,0,0,0,2.49-.48,10.45,10.45,0,0,0,1.25-.63Z"/>
      <path class="cls-4" d="M591.88,233.54c.49,0,.93,0,1.31,0a1.8,1.8,0,0,0,.86-.21,2,2,0,0,0,.85-.71,13.63,13.63,0,0,0,1.18-2.26c.49-1.12,1.18-2.78,2.07-5l-10.71-24h2.45L599.4,223l8.82-21.53h2.35L597.42,233a4.45,4.45,0,0,1-.77,1.32,3.65,3.65,0,0,1-1.17.92,4.19,4.19,0,0,1-1.67.39c-.27,0-.57.06-.87.07a7.74,7.74,0,0,1-1.06,0Z"/>
    </g>
  </g>
</svg>
