<svg id="Слой_1" data-name="Слой 1" xmlns="http://www.w3.org/2000/svg" xmlns:xlink="http://www.w3.org/1999/xlink" viewBox="0 0 474.33 401.35">
  <defs>
    <style>
      .cls-1 {
        fill: none;
      }

      .cls-2 {
        clip-path: url(#clip-path);
      }

      .cls-3 {
        fill: #9d1229;
      }

      .cls-4 {
        fill: #efefef;
      }
    </style>
    <clipPath id="clip-path">
      <path class="cls-1" d="M135.18,2.91V180c0,34.91,19.57,52.61,58.15,52.61,22.29,0,37.35,7.85,43.84,12.07,6.48-4.22,21.54-12.07,43.83-12.07,38.59,0,58.15-17.7,58.15-52.61V2.91Z"/>
    </clipPath>
  </defs>
  <g>
    <g>
      <g class="cls-2">
        <g>
          <rect class="cls-3" x="133.5" y="0.04" width="103.73" height="123.78"/>
          <rect class="cls-4" x="133.44" y="123.78" width="103.73" height="123.78"/>
          <rect class="cls-4" x="237.17" width="103.73" height="123.78"/>
          <rect class="cls-3" x="237.17" y="123.78" width="103.73" height="123.78"/>
        </g>
      </g>
      <path class="cls-3" d="M213.35,147.72a4,4,0,0,1-2.55.95C206,149,191,149,191,149s-1.22-8.83,6.93-6.92c-.13,0-1.25-6.63-1.25-6.63-2.39,0-8.36.39-8.05,8.73.05,1.24.22,4.26.22,4.26s-1.32-1.32-3-2.84c-4.27-4-11.45-2.41-14.68,1.65-3.43,4.31-1.2,13.76-1.2,13.76s-15.21,23.35,6.62,44.63c6.21,6,14,9.44,14,10.21,0-2.56-.07-3.59,0-6,.37-.73,18.07-11,16.15-21.91a7.54,7.54,0,0,1,.47-4.07l-13,10.68L190.74,191c.07-4.65.14-10.26.15-11.29s0-2.21.05-3.31c5.86-.18,10.13-2.05,13.26-.26a7.88,7.88,0,0,1,1.35,1s.59-4.71-1.27-7.37c-2.91-4.17-11.85-1.25-13.37-1.22,0-2.86,0-12.26,0-12.26a40.53,40.53,0,0,1,4.89.71c8.56,1.95,10.08,4,10.08,4a14.53,14.53,0,0,1,0-3c.28-3,4-7.07,6.19-8.54C213.56,148.38,213.35,147.72,213.35,147.72Zm-24.2,8.54v12.37s-4.91-.56-5.36-2.16c-2.28.94-1.26,3.47-1.26,3.47l-3.12-6.52a8,8,0,0,1,5.52-6.67A15.79,15.79,0,0,1,189.15,156.26Zm0,28.05s-3.15-6.51-4.07-7.94h4.07C189.06,176.47,189.15,184.31,189.15,184.31Zm-10.59-23.07-1.8-4.91a17.94,17.94,0,0,1,8.89-5.58S178.1,154.4,178.56,161.24Zm4.35-16.45c1.93.52,3.36,2.14,5.52,4-.85.38-3.58,1.28-4.91,1.76a22.15,22.15,0,0,0-7.14,4.34S175,142.68,182.91,144.79Zm-3.79,53.8c-15.48-12.26-12.27-24.62-8.28-35.2,1.36,2.67,13.06,24.25,13.39,29.24C184.45,196.05,182,200.84,179.12,198.59Zm5.46,4.26c-1.32-.92-2.64-1.83-3.94-2.75a9,9,0,0,0,5.21-.84,10.23,10.23,0,0,0,1.29-.79l2,2c0,2.56,0,5.41,0,5.5C188.74,205.71,186.61,204.25,184.58,202.85Zm13.14-10c2.92.11,5.09,6.39-1.3,11.55a57.51,57.51,0,0,1-5.76,4.39c0-1.49,0-4.89,0-7.35l5.29-5.3-1.08-1.08C196.12,194,197.29,193.11,197.72,192.86Z"/>
      <path class="cls-4" d="M334.47,7.58V180c0,32.25-17.49,47.93-53.47,47.93-20.81,0-35.68,6.46-43.83,11.25-8.16-4.79-23-11.25-43.84-11.25-36,0-53.47-15.68-53.47-47.93V7.58H334.47m4.68-4.67h-204V180c0,34.91,19.57,52.61,58.15,52.61,22.29,0,37.35,7.85,43.84,12.07,6.48-4.22,21.54-12.07,43.83-12.07,38.59,0,58.15-17.7,58.15-52.61V2.91Z"/>
      <path class="cls-4" d="M320.09,152.56s-.55-.39-2.56,1.87c-3.26,3.66-16.25-2.14-27.24-5.83-.12-1.29-.21-5,2.75-6.34a6,6,0,0,1,4.25-.14L296,135.49a7.53,7.53,0,0,0-6.44,2.51c-2.5,2.92-2,7.75-1.63,9.84-5.41-1.69-10.07-2.63-12.47-1.28-1.91,1.13-3.44,3.51-4.45,5.38-3.56,7.18-.38,11.37,7.52,8.94l1.79-.47c-7.94,6.8-14,15.74-14.81,26.21-.92,12.33,7.62,17.18,16.88,23.74,5,3.54,7.53,5.44,7.53,5.44s0-5.3,0-12.76l4.58-4.58L290,193.9c0-14.85,0-32.59,0-37.26,4.43,1,16.95,6.34,21.34,6.37-.9,2.48.28,5.71,3.48,5C307,166.48,320.09,152.56,320.09,152.56Zm-40.21,7.38c-2.66,1.19-10.19,3-9.63-3.27.61-6.83,12.3-2,17.16-.78C284.65,157,282.82,158.9,279.88,159.94Zm-10,20.79a28.85,28.85,0,0,1,7.52-16.47c-2.26,5.28-.76,10.14,1.6,15.62a69.46,69.46,0,0,1,3.77,11c.75,3.72-.66,8.32-5.27,7.8A26.31,26.31,0,0,1,269.91,180.73Zm18.64,13.2L284,198.46l4.45,4.45c0,1.4,0,2.49,0,3.22a38.72,38.72,0,0,1-10.16-6.78c11.35-1.8,10.75-12.35,8.64-19-2.33-7.38-5.37-10.52-4.61-15.59.33-2.2,1.84-5.3,6.13-8.67C288.71,162.33,288.64,181,288.55,193.93Z"/>
      <path class="cls-4" d="M206.43,49.6c-1.67-5.53,2.58-11.92,4.36-14.27a.17.17,0,0,0-.23-.24c-2.11,1.39-7.29,4.37-12.2,3.82C190.15,38,188,43.61,188,43.61s0-1.9.16-3.62c.33-3.47,1.22-8.35,3.49-9.39a6,6,0,0,1,4.25-.14l-1.26-6.63a7.49,7.49,0,0,0-6.44,2.51c-2.34,2.74-1.87,12.85-1.85,14.35,0,.16,0,.64,0,.64.72,18.84.59,34.14.56,36.85l-4.17,4.17L187,86.54l.06,4.93c-1.6-2.24-5.72-3.48-9.68-4.3-4.46-.94-11-2.56-11-2.56s1.78-1.46,3.7-3.42c7-7.13,15.18-16.22,15.62-26.11.21-9.5-6.56-23.32-17.4-22.89-.76,3.29-7.19,6.93-9.5,9.53-.63.7-.95,2.58.08,2,2.33-5.4,10.12-3.63,13.37-.18,10.91,11.58,3.31,26-.41,31.8-2.91,4.56-7.09,8.85-7.68,8.72-4.68-1.07-6.42-2.64-6.42-2.64s-2,6.13,5.94,8.59c8.36,2.6,9.78,3.07,17.76,5.2,3.51.79,7,4,7,4a7.63,7.63,0,0,1,.08-2.43c1.41-4.35,22.76-4.78,26.29-15.41C219.94,65.9,208.17,55.33,206.43,49.6Zm-3.69,36.69c-2.89,3.22-14.25,8.28-14.25,8.28l-.11-8.23,4-4-4.25-4.25c0-2.27,0-11.55,0-14.68,0-3.65-.1-7.84,0-11.49.06-2.36-.5-5.83,2.46-5.87,3.33-.05,7-.07,10.39-.17-1.14,1.19-2.61,2.39-3.83,3.57C197.83,52.35,213.34,74.46,202.74,86.29Z"/>
      <path class="cls-3" d="M302.88,52.33a95.84,95.84,0,0,0-12.54-.83s-.1-1.82,0-6.65l.15.59s-.07-.62-.13-1.61v-.06A26,26,0,0,1,304,47.49c.93.55.65.87,1,1.17a.35.35,0,0,0,.57-.32,10.48,10.48,0,0,1,3.12-9.23,17.75,17.75,0,0,0,2.94-4,11,11,0,0,1-4.3.92c-1.49.12-7.08.16-14.87.32a13.84,13.84,0,0,1-2.08-.15c.28-3.12,1-6,2.74-6.66a5.65,5.65,0,0,1,3.59-.12l-1.06-5.61a6.35,6.35,0,0,0-5.44,2.12c-1.58,1.84-1.74,6-1.6,9.26l-.43-.43c-2.44-2.43-6.18-7.61-13.72-1-7.34,6.44-2.85,20.86,5.61,23.45a33.17,33.17,0,0,0,8.7,1.27V70.24s0-8.27-15.9-5.39c-5.74,1-11.93,3-12.69-2.07-2.41,4.25.08,8.77,3.49,9,8.52.66,19.89-5.6,24.28,3.25a6.76,6.76,0,0,1,.29.67l-4.39,4.39,5,5a24.09,24.09,0,0,0-.07,4.08c-6.61-3.11-14.25-11.27-21.92-6.61a7.94,7.94,0,0,0-3.29,3.65A6.35,6.35,0,0,0,264,91.3a7.73,7.73,0,0,0,4.9,3.49l.36-.72a5.68,5.68,0,0,1-4.54-2.49c-1.39-2.33,1.81-5.83,6.8-5.15,6.8.92,18.06,12.63,18.06,12.63s20.83-12.69,25.15-27.58C316.86,64.1,312,53.82,302.88,52.33Zm-23.12-1.11A8.26,8.26,0,0,1,274,48.8a10,10,0,0,1-2.46-7.57c.29-9.2,12.49-13.39,16.22-4.47C275.59,39.6,279.76,51.22,279.76,51.22Zm9,.28-8.33-.28s-2.84-8.68,8.33-7.4Zm19.37,21.67c-.66,13.13-16.92,23.63-17.93,24.07V92.08c0-.61,0-5.79,0-6.52a4.82,4.82,0,0,1,0-.49l4.95-4.95-4.81-4.81c0-2,.06-4.09,0-5.77-.06-3.43-.08-7.65,0-11.05.62-.11,9.71-1.63,14.83,4.44C308.45,66.82,308.21,71.59,308.13,73.17Z"/>
    </g>
    <g>
      <path class="cls-4" d="M55.52,349.53c0,.31-.08.46-.23.46-1.58,0-2.83,0-3.75-.07l-5.29-.08-5.59.08c-.91.05-2.14.07-3.67.07-.15,0-.23-.15-.23-.46s.08-.46.23-.46a17.63,17.63,0,0,0,4.36-.38,2.69,2.69,0,0,0,1.88-1.49,8.83,8.83,0,0,0,.5-3.41V325.87H14.32v17.92a8.83,8.83,0,0,0,.5,3.41,2.69,2.69,0,0,0,1.87,1.49,17.73,17.73,0,0,0,4.37.38c.1,0,.15.16.15.46s-.05.46-.15.46c-1.58,0-2.83,0-3.75-.07l-5.52-.08-5.28.08c-.92.05-2.2.07-3.83.07-.1,0-.15-.15-.15-.46s.05-.46.15-.46A17.79,17.79,0,0,0,7,348.69a2.7,2.7,0,0,0,1.91-1.49,8.83,8.83,0,0,0,.5-3.41V308.33a8.54,8.54,0,0,0-.5-3.37,2.85,2.85,0,0,0-1.87-1.49,16,16,0,0,0-4.29-.42c-.11,0-.16-.15-.16-.46s0-.46.16-.46l3.9.08q3.23.15,5.13.15c1.48,0,3.35-.05,5.59-.15l3.68-.08c.1,0,.15.15.15.46s-.05.46-.15.46a15,15,0,0,0-4.33.46,3,3,0,0,0-1.91,1.57,8.83,8.83,0,0,0-.5,3.41v15.77H43.73V308.49a8.83,8.83,0,0,0-.5-3.41,3,3,0,0,0-1.88-1.57,14.84,14.84,0,0,0-4.36-.46c-.15,0-.23-.15-.23-.46s.08-.46.23-.46l3.67.08c2.25.1,4.11.15,5.59.15s3.14-.05,5.29-.15l3.75-.08c.15,0,.23.15.23.46s-.08.46-.23.46a16,16,0,0,0-4.29.42A2.83,2.83,0,0,0,49.13,305a8.36,8.36,0,0,0-.5,3.37v35.46a8.64,8.64,0,0,0,.5,3.41A2.67,2.67,0,0,0,51,348.69a17.26,17.26,0,0,0,4.29.38C55.44,349.07,55.52,349.23,55.52,349.53Z"/>
      <path class="cls-4" d="M112,349.53c0,.31-.1.46-.31.46-1,0-2.47-.05-4.51-.15s-3.53-.15-4.45-.15q-1.68,0-4.29.15Q96,350,94.65,350c-.2,0-.3-.15-.3-.46s.1-.46.3-.46a11.67,11.67,0,0,0,4.14-.53,1.87,1.87,0,0,0,1.3-1.84,9.14,9.14,0,0,0-1-3.29l-8.8-18.76H75.81l-6.58,15.62a11.69,11.69,0,0,0-1.07,4.29q0,4.51,7.5,4.51c.26,0,.38.16.38.46s-.12.46-.38.46c-.92,0-2.25-.05-4-.15-1.94-.1-3.63-.15-5.06-.15s-2.86.05-4.59.15c-1.53.1-2.81.15-3.83.15-.25,0-.38-.15-.38-.46s.13-.46.38-.46a7.56,7.56,0,0,0,3.64-.8,8.35,8.35,0,0,0,2.83-2.83,37.29,37.29,0,0,0,3-5.86l16.16-38.14a.6.6,0,0,1,.53-.23c.26,0,.41.08.46.23l18.08,38.06q2.59,5.67,4.44,7.62a5.79,5.79,0,0,0,4.36,1.95C111.86,349.07,112,349.23,112,349.53ZM76.5,323h13l-6.89-14.55Z"/>
      <path class="cls-4" d="M127.58,347.2a2.57,2.57,0,0,0,1.8,1.49,16.73,16.73,0,0,0,4.25.38c.15,0,.23.16.23.46s-.08.46-.23.46c-1.53,0-2.75,0-3.67-.07l-5.44-.08-5.29.08c-.91.05-2.17.07-3.75.07-.15,0-.23-.15-.23-.46s.08-.46.23-.46a16.73,16.73,0,0,0,4.25-.38,2.68,2.68,0,0,0,1.84-1.49,8.83,8.83,0,0,0,.5-3.41V308.33a8.54,8.54,0,0,0-.5-3.37,2.84,2.84,0,0,0-1.84-1.49,15.49,15.49,0,0,0-4.25-.42c-.15,0-.23-.15-.23-.46s.08-.46.23-.46l3.75.08c2.15.1,3.91.15,5.29.15,1.53,0,3.37-.05,5.51-.15l3.6-.08c.15,0,.23.15.23.46s-.08.46-.23.46a13.71,13.71,0,0,0-4.17.46,2.92,2.92,0,0,0-1.84,1.57,8.83,8.83,0,0,0-.5,3.41v35.3A9.62,9.62,0,0,0,127.58,347.2Z"/>
      <path class="cls-4" d="M189.76,349.53c0,.31,0,.46-.15.46h-9.88q-1.9,0-7.16-6.54a220.72,220.72,0,0,1-12.75-18.27,14.6,14.6,0,0,1-4.13.54c-1,0-2.12-.05-3.45-.16v18.23a9.38,9.38,0,0,0,.46,3.45,2.57,2.57,0,0,0,1.8,1.45,16.73,16.73,0,0,0,4.25.38c.15,0,.23.16.23.46s-.08.46-.23.46c-1.58,0-2.83,0-3.75-.07l-5.29-.08-5.2.08c-.92.05-2.23.07-3.91.07-.1,0-.15-.15-.15-.46s.05-.46.15-.46a16,16,0,0,0,4.29-.42,3,3,0,0,0,1.91-1.49,7.88,7.88,0,0,0,.54-3.37V308.33a8.54,8.54,0,0,0-.5-3.37,2.82,2.82,0,0,0-1.84-1.49,15.49,15.49,0,0,0-4.25-.42c-.15,0-.23-.15-.23-.46s.08-.46.23-.46l3.76.08c2.14.1,3.87.15,5.2.15.92,0,1.79,0,2.61-.08l2.14-.15c1.63-.15,3.11-.23,4.44-.23q6.21,0,9.58,2.53a8.3,8.3,0,0,1,3.36,7,12.37,12.37,0,0,1-2.14,6.93,15.51,15.51,0,0,1-5.67,5.17q6.51,9.74,10.95,15.2a41.71,41.71,0,0,0,7.89,7.89,11.77,11.77,0,0,0,6.74,2.41C189.71,349.07,189.76,349.23,189.76,349.53Zm-33-25.57c3.52,0,6.05-.76,7.58-2.26s2.3-4,2.3-7.55q0-11.1-9.35-11.1a10.5,10.5,0,0,0-3.1.34,2.42,2.42,0,0,0-1.49,1.46,10.24,10.24,0,0,0-.46,3.64v15.16A29.5,29.5,0,0,0,156.76,324Z"/>
      <path class="cls-4" d="M243.45,338.43a1.16,1.16,0,0,1,.42.08c.12.05.19.12.19.23a71.26,71.26,0,0,0-.69,10.11,1.22,1.22,0,0,1-.27.88,1.4,1.4,0,0,1-1,.26H210.06c-.11,0-.16-.15-.16-.46s0-.46.16-.46a16.78,16.78,0,0,0,4.25-.38,2.7,2.7,0,0,0,1.84-1.49,8.87,8.87,0,0,0,.49-3.41V308.33a8.57,8.57,0,0,0-.49-3.37,2.87,2.87,0,0,0-1.84-1.49,15.54,15.54,0,0,0-4.25-.42c-.11,0-.16-.15-.16-.46s0-.46.16-.46h30.78a.61.61,0,0,1,.69.69l.15,9.42c0,.15-.12.24-.38.27s-.41,0-.46-.19a9.4,9.4,0,0,0-2.45-6.32,7.87,7.87,0,0,0-5.9-2.26h-4.67a13.51,13.51,0,0,0-3.94.42,2.83,2.83,0,0,0-1.76,1.46,7.43,7.43,0,0,0-.5,3.1v15.54H231q3.67,0,5.25-1.22c1-.82,1.57-2.2,1.57-4.14,0-.1.15-.15.46-.15s.46.05.46.15l-.08,6.2c0,1.49,0,2.61.08,3.37l.07,3.68c0,.1-.15.15-.46.15s-.45-.05-.45-.15c0-2.25-.55-3.85-1.65-4.82s-2.92-1.46-5.48-1.46h-9.11v17.61a7.88,7.88,0,0,0,.46,3.14,2.57,2.57,0,0,0,1.68,1.38,13.74,13.74,0,0,0,3.83.39h6.13a8.07,8.07,0,0,0,6.13-2.61,13.87,13.87,0,0,0,3.29-7.2C243.14,338.48,243.24,338.43,243.45,338.43Z"/>
      <path class="cls-4" d="M296.67,349.53c0,.31-.05.46-.16.46-1.32,0-2.37,0-3.13-.07l-4.22-.08-5.89.08c-.92.05-2.17.07-3.76.07-.1,0-.15-.15-.15-.46s.05-.46.15-.46a10.59,10.59,0,0,0,3-.3c.61-.21.92-.54.92-1a3.14,3.14,0,0,0-.69-1.68l-11.64-17.62-9.73,13.71a8.15,8.15,0,0,0-1.83,4.21q0,2.69,4.51,2.68c.16,0,.23.16.23.46s-.07.46-.23.46c-1.53,0-2.7,0-3.52-.07l-5.28-.08-3.22.08c-.56.05-1.5.07-2.83.07-.15,0-.23-.15-.23-.46s.08-.46.23-.46q5.28,0,10.41-7l10.8-14.78-12.33-18.69a14.63,14.63,0,0,0-3.94-4.33,8.37,8.37,0,0,0-4.64-1.26c-.1,0-.15-.15-.15-.46s0-.46.15-.46l2.91.08q2,.15,2.91.15,2.61,0,6.28-.15l4-.08c.15,0,.23.15.23.46s-.08.46-.23.46a10.2,10.2,0,0,0-2.95.31c-.64.2-1,.56-1,1.07a3.47,3.47,0,0,0,.69,1.68l11.33,17.08,9-12.71q2.07-2.91,2.07-4.75,0-2.69-4.29-2.68c-.15,0-.23-.15-.23-.46s.08-.46.23-.46l3.45.08q2.91.15,5.28.15c.92,0,2-.05,3.22-.15l2.83-.08c.16,0,.23.15.23.46s-.07.46-.23.46a9.38,9.38,0,0,0-5.28,1.91,24.3,24.3,0,0,0-5.51,5.67l-10,13.71,12.79,19.3a13.21,13.21,0,0,0,4.1,4.21,10.24,10.24,0,0,0,5.24,1.22C296.62,349.07,296.67,349.23,296.67,349.53Z"/>
      <path class="cls-4" d="M313.17,347.05a3.76,3.76,0,0,0,2.53,1.56,27.18,27.18,0,0,0,5.93.46c.16,0,.23.16.23.46s-.07.46-.23.46c-2.09,0-3.72,0-4.9-.07l-6.66-.08-5.13.08c-1,.05-2.27.07-3.91.07-.1,0-.15-.15-.15-.46s.05-.46.15-.46a16.73,16.73,0,0,0,4.25-.38,2.53,2.53,0,0,0,1.8-1.49,9.39,9.39,0,0,0,.46-3.41V308.33a9.08,9.08,0,0,0-.46-3.37,2.68,2.68,0,0,0-1.8-1.49,15.49,15.49,0,0,0-4.25-.42c-.1,0-.15-.15-.15-.46s.05-.46.15-.46l3.83.08q3.22.15,5.13.15c1.28,0,2.71-.08,4.29-.23.61,0,1.58,0,2.91-.11s2.48-.12,3.45-.12q7,0,11.29,3.14c2.84,2.1,4.25,5.28,4.25,9.57a14.11,14.11,0,0,1-2.49,8.5,15.12,15.12,0,0,1-6.39,5.13,20,20,0,0,1-8,1.69,15.07,15.07,0,0,1-3.68-.38c-.15,0-.23-.13-.23-.39a1,1,0,0,1,.12-.46q.11-.22.27-.15a11,11,0,0,0,2.75.31,12,12,0,0,0,8.54-3.3q3.48-3.29,3.49-9.49,0-6-3.3-9.54a11.07,11.07,0,0,0-8.42-3.48,17.76,17.76,0,0,0-4,.31,2.5,2.5,0,0,0-1.76,1.41,9.19,9.19,0,0,0-.54,3.72v35A7.42,7.42,0,0,0,313.17,347.05Z"/>
      <path class="cls-4" d="M376.08,338.43a1.16,1.16,0,0,1,.42.08c.13.05.19.12.19.23a71.26,71.26,0,0,0-.69,10.11,1.22,1.22,0,0,1-.26.88,1.4,1.4,0,0,1-1,.26H342.69c-.1,0-.15-.15-.15-.46s0-.46.15-.46a16.73,16.73,0,0,0,4.25-.38,2.66,2.66,0,0,0,1.84-1.49,8.83,8.83,0,0,0,.5-3.41V308.33a8.54,8.54,0,0,0-.5-3.37,2.82,2.82,0,0,0-1.84-1.49,15.49,15.49,0,0,0-4.25-.42c-.1,0-.15-.15-.15-.46s0-.46.15-.46h30.79a.61.61,0,0,1,.69.69l.15,9.42c0,.15-.13.24-.38.27s-.41,0-.46-.19A9.45,9.45,0,0,0,371,306a7.89,7.89,0,0,0-5.9-2.26h-4.67a13.47,13.47,0,0,0-3.94.42,2.85,2.85,0,0,0-1.77,1.46,7.45,7.45,0,0,0-.49,3.1v15.54h9.34q3.67,0,5.24-1.22c1.05-.82,1.57-2.2,1.57-4.14,0-.1.16-.15.46-.15s.46.05.46.15l-.07,6.2c0,1.49,0,2.61.07,3.37l.08,3.68c0,.1-.15.15-.46.15s-.46-.05-.46-.15c0-2.25-.55-3.85-1.65-4.82s-2.92-1.46-5.47-1.46h-9.11v17.61a7.88,7.88,0,0,0,.46,3.14A2.52,2.52,0,0,0,356.4,348a13.69,13.69,0,0,0,3.83.39h6.13a8,8,0,0,0,6.12-2.61,13.87,13.87,0,0,0,3.3-7.2Q375.78,338.43,376.08,338.43Z"/>
      <path class="cls-4" d="M433,349.53c0,.31-.05.46-.15.46H423q-1.92,0-7.16-6.54A220.72,220.72,0,0,1,403,325.18a14.73,14.73,0,0,1-4.14.54c-1,0-2.12-.05-3.44-.16v18.23a9.65,9.65,0,0,0,.45,3.45,2.6,2.6,0,0,0,1.8,1.45,16.78,16.78,0,0,0,4.25.38c.16,0,.23.16.23.46s-.07.46-.23.46c-1.58,0-2.83,0-3.75-.07l-5.28-.08-5.21.08c-.92.05-2.22.07-3.91.07-.1,0-.15-.15-.15-.46s0-.46.15-.46a16,16,0,0,0,4.29-.42,3,3,0,0,0,1.92-1.49,8.07,8.07,0,0,0,.53-3.37V308.33a8.57,8.57,0,0,0-.49-3.37,2.87,2.87,0,0,0-1.84-1.49,15.54,15.54,0,0,0-4.25-.42c-.16,0-.23-.15-.23-.46s.07-.46.23-.46l3.75.08c2.14.1,3.88.15,5.21.15.92,0,1.78,0,2.6-.08l2.15-.15c1.63-.15,3.11-.23,4.44-.23q6.19,0,9.57,2.53a8.28,8.28,0,0,1,3.37,7,12.45,12.45,0,0,1-2.14,6.93,15.51,15.51,0,0,1-5.67,5.17q6.51,9.74,10.95,15.2a41.71,41.71,0,0,0,7.89,7.89,11.73,11.73,0,0,0,6.74,2.41C432.93,349.07,433,349.23,433,349.53ZM400,324c3.53,0,6-.76,7.58-2.26s2.3-4,2.3-7.55q0-11.1-9.34-11.1a10.46,10.46,0,0,0-3.1.34,2.43,2.43,0,0,0-1.5,1.46,10.54,10.54,0,0,0-.45,3.64v15.16A29.36,29.36,0,0,0,400,324Z"/>
      <path class="cls-4" d="M433,306c-1.61,1.63-2.77,4.42-3.49,8.35q0,.15-.42.15t-.42-.15c.21-1.84.43-4.24.69-7.2s.38-5.18.38-6.66c0-.26.14-.39.43-.39s.42.13.42.39c0,1.12,1.37,1.68,4.13,1.68q6.51.22,15.39.23,4.53,0,9.58-.15l5.2-.08a16.38,16.38,0,0,0,4.1-.38,2.36,2.36,0,0,0,1.72-1.53.41.41,0,0,1,.46-.31c.26,0,.39.1.39.31-.16,1.48-.31,3.72-.46,6.74s-.23,5.46-.23,7.35c0,.1-.16.15-.46.15s-.46,0-.46-.15c-.15-4-1-6.78-2.45-8.39s-3.93-2.41-7.35-2.41a26.26,26.26,0,0,0-4.9.31,2.71,2.71,0,0,0-2,1.3,7.73,7.73,0,0,0-.53,3.37v35.3a8.37,8.37,0,0,0,.53,3.45,2.94,2.94,0,0,0,2.07,1.45,21.6,21.6,0,0,0,4.83.38c.15,0,.23.16.23.46s-.08.46-.23.46c-1.69,0-3,0-4.06-.07l-6-.08-5.74.08c-1,.05-2.42.07-4.21.07-.1,0-.15-.15-.15-.46s.05-.46.15-.46a21.56,21.56,0,0,0,4.82-.38,3,3,0,0,0,2.11-1.49,7.8,7.8,0,0,0,.57-3.41V308.33a7.49,7.49,0,0,0-.53-3.33,2.67,2.67,0,0,0-2-1.22,30.59,30.59,0,0,0-4.9-.27Q435.43,303.51,433,306Z"/>
      <path class="cls-4" d="M114.12,386.63v-10h1.66v9.72a8.57,8.57,0,0,0,1.08,4.8,3.71,3.71,0,0,0,3.28,1.58,6.46,6.46,0,0,0,2.81-.65,7.45,7.45,0,0,0,2.38-1.82,7.92,7.92,0,0,0,1.53-2.74V376.67h1.66v15.07a.88.88,0,0,0,.18.6.81.81,0,0,0,.52.23v1.36l-.52,0a2,2,0,0,1-1.24-.52,1.55,1.55,0,0,1-.4-1l0-2.59a8.42,8.42,0,0,1-3.11,3.24,8.25,8.25,0,0,1-4.27,1.18,4.79,4.79,0,0,1-4.13-1.93A9.7,9.7,0,0,1,114.12,386.63Z"/>
      <path class="cls-4" d="M160.62,393.93H159v-9.6a9.5,9.5,0,0,0-1-4.86,3.26,3.26,0,0,0-3-1.54,6.43,6.43,0,0,0-2.88.7,7.68,7.68,0,0,0-2.46,1.9,7.49,7.49,0,0,0-1.51,2.73v10.67h-1.66V376.67h1.56v4.14a7.79,7.79,0,0,1,1.86-2.3,9.24,9.24,0,0,1,2.6-1.55,8.1,8.1,0,0,1,3-.56,5.18,5.18,0,0,1,2.41.51,4.28,4.28,0,0,1,1.6,1.48,6.68,6.68,0,0,1,.88,2.38,17.76,17.76,0,0,1,.26,3.25Z"/>
      <path class="cls-4" d="M178.32,372.71v-3.06H180v3.06Zm0,21.22v-17.3H180v17.3Z"/>
      <path class="cls-4" d="M203.21,393.93,196,376.67h1.76l6.36,15.5,6.38-15.5h1.67l-7.22,17.26Z"/>
      <path class="cls-4" d="M234.88,394.27a8,8,0,0,1-3.39-.72,8.28,8.28,0,0,1-2.72-1.95,9.19,9.19,0,0,1-1.79-2.89,9.33,9.33,0,0,1-.65-3.46,9,9,0,0,1,1.1-4.44,8.67,8.67,0,0,1,3-3.2,8,8,0,0,1,4.33-1.21,7.85,7.85,0,0,1,4.36,1.23,9,9,0,0,1,4.12,7.62v.4a1.55,1.55,0,0,1,0,.33H228.06a7.63,7.63,0,0,0,1.1,3.54,7.15,7.15,0,0,0,2.48,2.5,6.25,6.25,0,0,0,3.31.91,6.66,6.66,0,0,0,3.39-.93,5.16,5.16,0,0,0,2.23-2.39l1.46.4a5.84,5.84,0,0,1-1.58,2.19,7.94,7.94,0,0,1-2.53,1.52A8.62,8.62,0,0,1,234.88,394.27ZM228,384.68h13.68a7.9,7.9,0,0,0-1.07-3.57,6.82,6.82,0,0,0-2.44-2.45,6.45,6.45,0,0,0-3.35-.9,6.29,6.29,0,0,0-3.32.9,6.87,6.87,0,0,0-2.43,2.45A7.9,7.9,0,0,0,228,384.68Z"/>
      <path class="cls-4" d="M267.78,378.13a7,7,0,0,0-4.07,1.38,6.89,6.89,0,0,0-2.45,3.61v10.81H259.6V376.67h1.59v4.22a8.33,8.33,0,0,1,2.4-3,6.18,6.18,0,0,1,3.16-1.31l.6,0h.43Z"/>
      <path class="cls-4" d="M289.07,394.27a10.38,10.38,0,0,1-3.82-.7,8.53,8.53,0,0,1-3.1-2.13l.77-1.17a9.7,9.7,0,0,0,2.89,2,8.19,8.19,0,0,0,3.2.62,6.36,6.36,0,0,0,3.61-.93,2.94,2.94,0,0,0,1.38-2.58,2.29,2.29,0,0,0-.65-1.74,4.72,4.72,0,0,0-1.86-1c-.81-.26-1.8-.53-2.95-.82a25.11,25.11,0,0,1-3-1,4.16,4.16,0,0,1-1.81-1.29,3.49,3.49,0,0,1-.6-2.15,4.49,4.49,0,0,1,.85-2.81,5,5,0,0,1,2.3-1.65,8.86,8.86,0,0,1,3.21-.55,8.63,8.63,0,0,1,3.54.67,5.47,5.47,0,0,1,2.31,1.76l-.9,1.06a5,5,0,0,0-2.16-1.58,8.12,8.12,0,0,0-2.93-.51,7.58,7.58,0,0,0-2.26.33,3.6,3.6,0,0,0-1.71,1.08,2.89,2.89,0,0,0-.65,2,2.35,2.35,0,0,0,.48,1.56,3.35,3.35,0,0,0,1.45.91c.64.23,1.44.48,2.39.74,1.36.34,2.52.68,3.5,1a5.77,5.77,0,0,1,2.26,1.38,3.31,3.31,0,0,1,.8,2.37,4.41,4.41,0,0,1-1.8,3.71A7.73,7.73,0,0,1,289.07,394.27Z"/>
      <path class="cls-4" d="M312.23,372.71v-3.06h1.66v3.06Zm0,21.22v-17.3h1.66v17.3Z"/>
      <path class="cls-4" d="M339.51,393.23l-.67.34a6.55,6.55,0,0,1-1.26.48,6.42,6.42,0,0,1-1.7.22,4,4,0,0,1-1.68-.36,2.85,2.85,0,0,1-1.25-1.05,3,3,0,0,1-.46-1.71V378h-2.43v-1.36h2.43v-5.93h1.66v5.93h4V378h-4v12.73a1.93,1.93,0,0,0,.7,1.46,2.35,2.35,0,0,0,1.46.48,4.19,4.19,0,0,0,1.8-.35,6.72,6.72,0,0,0,.9-.45Z"/>
      <path class="cls-4" d="M356.27,399.79a7.67,7.67,0,0,0,1,0,1.32,1.32,0,0,0,.62-.14,1.4,1.4,0,0,0,.61-.52,8.9,8.9,0,0,0,.85-1.63q.54-1.22,1.5-3.57l-7.72-17.27h1.76l6.86,15.51,6.35-15.51h1.7l-9.48,22.72a3.43,3.43,0,0,1-.55.95,2.63,2.63,0,0,1-.85.66,3,3,0,0,1-1.2.29l-.63,0a7,7,0,0,1-.77,0Z"/>
    </g>
  </g>
</svg>
