<svg id="Слой_1" data-name="Слой 1" xmlns="http://www.w3.org/2000/svg" viewBox="0 0 300 300">
  <defs>
    <style>
      .cls-1 {
        fill: #0a0a0a;
      }
    </style>
  </defs>
  <g>
    <g>
      <path class="cls-1" d="M182.44,31.33c0,.12-.06.17-.12.16-.6-.11-1.07-.21-1.41-.29l-2-.41-2.13-.37c-.35,0-.82-.12-1.4-.23-.06,0-.07-.07,0-.19s.06-.17.12-.16a7.06,7.06,0,0,0,1.68.17,1.08,1.08,0,0,0,.82-.43,3.43,3.43,0,0,0,.43-1.26l1.27-6.8-11.16-2.08-1.27,6.79a3.43,3.43,0,0,0-.05,1.33,1,1,0,0,0,.61.7,6.92,6.92,0,0,0,1.63.45s0,.07,0,.19-.05.17-.09.16c-.6-.11-1.07-.21-1.42-.29l-2.09-.42-2-.35c-.36,0-.84-.12-1.46-.24,0,0-.05-.07,0-.19s.06-.17.1-.16a6.71,6.71,0,0,0,1.66.16,1,1,0,0,0,.83-.43,3.34,3.34,0,0,0,.44-1.26l2.51-13.44a3.38,3.38,0,0,0,.05-1.32,1.15,1.15,0,0,0-.61-.7,6.23,6.23,0,0,0-1.59-.46s0-.07,0-.18.05-.17.09-.17l1.48.31c.81.19,1.45.33,1.93.42s1.28.22,2.14.34l1.39.23s.05.07,0,.19,0,.16-.09.16a6.19,6.19,0,0,0-1.68-.14,1.16,1.16,0,0,0-.83.47,3.3,3.3,0,0,0-.43,1.25l-1.12,6,11.15,2.08,1.12-6a3.24,3.24,0,0,0,.05-1.33,1.14,1.14,0,0,0-.59-.73,6,6,0,0,0-1.63-.48c-.06,0-.08-.08-.05-.19s.06-.17.11-.16l1.39.29c.85.2,1.55.35,2.11.45s1.2.21,2,.32l1.43.24c.06,0,.07.07.05.19s-.06.17-.12.16a6.14,6.14,0,0,0-1.65-.15,1.1,1.1,0,0,0-.82.43,3.24,3.24,0,0,0-.43,1.25l-2.52,13.44a3.64,3.64,0,0,0,0,1.33,1.05,1.05,0,0,0,.61.7,6.88,6.88,0,0,0,1.6.45C182.45,31.15,182.47,31.22,182.44,31.33Z"/>
      <path class="cls-1" d="M203.23,39.06c0,.11-.1.15-.17.12-.35-.13-.89-.35-1.61-.67l-1.58-.66c-.41-.15-.93-.33-1.57-.53s-1.06-.34-1.38-.46c-.07,0-.09-.1,0-.21s.09-.15.17-.12a4.44,4.44,0,0,0,1.56.37.71.71,0,0,0,.72-.48,3.48,3.48,0,0,0,.09-1.33l-.61-8-5.22-2-4.51,4.74a4.49,4.49,0,0,0-1,1.4c-.42,1.09.28,2,2.08,2.66.1,0,.12.1.08.21s-.11.15-.2.12q-.49-.2-1.41-.6c-.69-.3-1.29-.55-1.81-.75s-1-.37-1.68-.57-1-.33-1.4-.47c-.09,0-.12-.1-.08-.21s.11-.15.21-.12a2.83,2.83,0,0,0,1.42.21,3.22,3.22,0,0,0,1.41-.64,13.64,13.64,0,0,0,1.86-1.71l11-11.55a.21.21,0,0,1,.22,0c.1,0,.14.08.14.14l1.32,16.21a12.1,12.1,0,0,0,.56,3.35,2.27,2.27,0,0,0,1.31,1.3C203.26,38.88,203.27,39,203.23,39.06Zm-9.17-14.4,4.69,1.77-.5-6.19Z"/>
      <path class="cls-1" d="M209.08,41.52a1,1,0,0,0,.34.83,6.53,6.53,0,0,0,1.38.9s0,.1,0,.2-.11.14-.16.12c-.53-.28-.94-.51-1.24-.7l-1.84-1-1.81-.92c-.33-.15-.76-.37-1.3-.66,0,0,0-.09,0-.2s.11-.14.16-.11a6.67,6.67,0,0,0,1.52.64,1.05,1.05,0,0,0,.89-.18,3.38,3.38,0,0,0,.79-1.07l6.41-12.08a3.19,3.19,0,0,0,.44-1.24,1.06,1.06,0,0,0-.35-.84,6.18,6.18,0,0,0-1.38-.92c-.05,0,0-.09,0-.19s.11-.15.16-.12l1.27.71c.71.42,1.3.75,1.77,1s1.15.6,1.91.95l1.24.62s0,.1,0,.2-.11.15-.16.12a5.25,5.25,0,0,0-1.5-.6,1.11,1.11,0,0,0-.91.2,3.23,3.23,0,0,0-.79,1.07l-6.39,12A3.89,3.89,0,0,0,209.08,41.52Z"/>
      <path class="cls-1" d="M229,55.59c-.06.1-.11.14-.15.11l-3.11-2.19c-.41-.28-.68-1.5-.81-3.65a84.73,84.73,0,0,1,0-8.6,5.75,5.75,0,0,1-1.43-.74c-.3-.22-.65-.49-1.05-.82l-4,5.76a3.66,3.66,0,0,0-.62,1.19,1,1,0,0,0,.25.86,6.15,6.15,0,0,0,1.26,1.06s0,.1,0,.2-.12.13-.17.09c-.5-.35-.89-.63-1.17-.85l-1.65-1.2-1.66-1.13c-.3-.19-.72-.47-1.25-.84,0,0,0-.09,0-.18s.12-.14.15-.11a6.58,6.58,0,0,0,1.45.82,1.21,1.21,0,0,0,.94,0,3.07,3.07,0,0,0,.91-1l7.86-11.19a3.26,3.26,0,0,0,.59-1.18,1.07,1.07,0,0,0-.25-.88,6.15,6.15,0,0,0-1.24-1.07s0-.1,0-.2.13-.13.18-.09l1.17.85c.65.51,1.19.91,1.61,1.21s.57.39.84.55l.71.43c.55.31,1,.62,1.45.91a6,6,0,0,1,2.46,2.92,3.21,3.21,0,0,1-.49,3,4.82,4.82,0,0,1-2.22,1.72,6.05,6.05,0,0,1-2.93.37q-.1,4.52.08,7.23a16.33,16.33,0,0,0,.75,4.24A4.43,4.43,0,0,0,229,55.41S229,55.49,229,55.59ZM224.2,40.2a4.13,4.13,0,0,0,2.9,1,4,4,0,0,0,2.4-1.88C231.14,37,231,35.1,229,33.72a4,4,0,0,0-1.06-.58.91.91,0,0,0-.79.13,3.83,3.83,0,0,0-.95,1l-3.36,4.79A11.31,11.31,0,0,0,224.2,40.2Z"/>
      <path class="cls-1" d="M246.88,67.78a.42.42,0,0,1,.09.14s0,.08,0,.11a28.18,28.18,0,0,0-3,2.48.49.49,0,0,1-.32.15.48.48,0,0,1-.32-.2l-8.46-9s0-.08.09-.16.14-.11.17-.08a7.32,7.32,0,0,0,1.22,1.1,1.07,1.07,0,0,0,.91.12,3.32,3.32,0,0,0,1.09-.76l10-9.35a3.37,3.37,0,0,0,.82-1,1.15,1.15,0,0,0-.06-.92,6.22,6.22,0,0,0-1-1.3s0-.09.09-.17.15-.1.17-.08l8.12,8.68a.23.23,0,0,1,0,.37l-2.61,2.53s-.1,0-.17,0-.1-.12-.07-.18a3.6,3.6,0,0,0,1.13-2.35,3,3,0,0,0-.92-2.26l-1.23-1.32a5.5,5.5,0,0,0-1.15-1,1.12,1.12,0,0,0-.88-.11,2.89,2.89,0,0,0-1,.68l-4.39,4.1,2.47,2.63a3.32,3.32,0,0,0,1.72,1.15,1.89,1.89,0,0,0,1.58-.64s.09,0,.17.09.11.14.08.17l-1.77,1.61c-.42.39-.73.69-.93.91l-1,1s-.08,0-.16-.09-.11-.14-.08-.17a2.41,2.41,0,0,0,.93-1.73,3.2,3.2,0,0,0-1-1.93l-2.41-2.57-5,4.64a3,3,0,0,0-.76,1,1,1,0,0,0,.05.84,5.14,5.14,0,0,0,.9,1.18l1.62,1.72a3.1,3.1,0,0,0,2.35,1,5.27,5.27,0,0,0,2.89-1S246.82,67.72,246.88,67.78Z"/>
      <path class="cls-1" d="M256,87.61c-.1.06-.16.08-.18,0-.29-.42-.51-.76-.67-1l-.9-1.35-1.32-1.85c-.22-.28-.5-.67-.85-1.17,0,0,0-.08.11-.15s.16-.09.18-.05a4.09,4.09,0,0,0,.76.88.41.41,0,0,0,.51.07,1.21,1.21,0,0,0,.39-.59l3-7.56-6.49-.07a3.14,3.14,0,0,0-1.73.34c-.57.39-.52,1.07.14,2,0,0,0,.11-.1.18s-.16.07-.19,0q-.51-.74-.75-1.14l-1.14-1.69-.73-1c-.14-.17-.36-.46-.65-.89,0,0,0-.1.1-.17s.16-.08.19,0q1.17,1.68,4.5,1.77l7.06.18,3.21-8a5.53,5.53,0,0,0,.51-2.21,3.26,3.26,0,0,0-.62-1.74s0-.08.11-.15.16-.09.18-.05l.62.94c.26.44.46.76.59,1,.38.55.86,1.2,1.43,2l.9,1.25s0,.1-.1.17-.16.08-.19,0a3.94,3.94,0,0,0-.75-.87.44.44,0,0,0-.55-.07,1.42,1.42,0,0,0-.38.59l-2.92,7.35,6,0a3.49,3.49,0,0,0,2-.39c.56-.39.53-1-.1-1.94,0,0,0-.11.1-.18s.16-.07.2,0l.73,1.11q.58,1,1.11,1.71c.2.29.46.62.76,1l.65.88s0,.11-.1.17-.16.08-.2,0a3.57,3.57,0,0,0-1.76-1.25,9.44,9.44,0,0,0-3-.5L259,75l-3.31,8.3a5.07,5.07,0,0,0-.43,2.22,3.9,3.9,0,0,0,.76,1.94S256.05,87.54,256,87.61Z"/>
      <path class="cls-1" d="M259.75,93.17a1.48,1.48,0,0,0-.1,1.15,10,10,0,0,0,.86,2.13s0,.1-.13.16-.17,0-.19,0c-.36-.73-.63-1.3-.82-1.71l-1.11-2.32-.91-1.76c-.19-.32-.42-.77-.7-1.33,0,0,0-.08.13-.14s.17-.06.19,0a6.34,6.34,0,0,0,.86,1.4,1,1,0,0,0,.83.37,4,4,0,0,0,1.25-.43l12.25-6.09a3.55,3.55,0,0,0,1.09-.73,1.08,1.08,0,0,0,.21-.88,5.86,5.86,0,0,0-.59-1.54s0-.08.13-.13.17-.06.19,0l.63,1.34c.33.75.61,1.35.83,1.8s.49.92.81,1.44c.11.21.29.54.54,1s.47.84.63,1.18a7.19,7.19,0,0,1,.86,4.44,4.31,4.31,0,0,1-2.58,3.11,5.43,5.43,0,0,1-3.36.6,5.8,5.8,0,0,1-2.87-1.33,7.87,7.87,0,0,1-2-2.49,6,6,0,0,1-.5-1.34s0-.1.1-.14a.34.34,0,0,1,.18,0c.06,0,.09,0,.09.07a4.75,4.75,0,0,0,.37,1,4.64,4.64,0,0,0,2.6,2.39,4.85,4.85,0,0,0,3.89-.43,5.12,5.12,0,0,0,2.72-2.77,4.25,4.25,0,0,0-.24-3.51,6.82,6.82,0,0,0-.79-1.33,1,1,0,0,0-.79-.36,3.47,3.47,0,0,0-1.37.45l-12.1,6A2.93,2.93,0,0,0,259.75,93.17Z"/>
      <path class="cls-1" d="M272.15,115a.51.51,0,0,1,0,.17.13.13,0,0,1-.07.1,26.69,26.69,0,0,0-3.77,1,.51.51,0,0,1-.36,0,.59.59,0,0,1-.22-.32l-4-11.72s0-.07.14-.11.18,0,.19,0a6.48,6.48,0,0,0,.67,1.5,1,1,0,0,0,.77.49,3.4,3.4,0,0,0,1.31-.24l12.95-4.42a3.26,3.26,0,0,0,1.17-.61,1.07,1.07,0,0,0,.31-.85,6.07,6.07,0,0,0-.37-1.61s0-.07.14-.11.18,0,.19,0l3.84,11.24a.24.24,0,0,1-.17.34l-3.41,1.23c-.06,0-.11,0-.15-.11s0-.15,0-.19a3.63,3.63,0,0,0,2-1.68,3,3,0,0,0,.09-2.44l-.58-1.71a5,5,0,0,0-.65-1.38,1.05,1.05,0,0,0-.74-.46,2.81,2.81,0,0,0-1.2.2l-5.68,1.94,1.17,3.41a3.31,3.31,0,0,0,1.1,1.76,1.9,1.9,0,0,0,1.7.06s.08,0,.12.15,0,.17,0,.19l-2.28.74-1.22.45-1.33.48s-.07,0-.11-.15,0-.17,0-.18a2.37,2.37,0,0,0,1.55-1.2,3.14,3.14,0,0,0-.15-2.18L274,105.46l-6.43,2.19a3.1,3.1,0,0,0-1.08.56,1,1,0,0,0-.3.79,5.39,5.39,0,0,0,.34,1.45l.76,2.23A3.15,3.15,0,0,0,269,114.6a5.31,5.31,0,0,0,3,.3S272.13,114.92,272.15,115Z"/>
      <path class="cls-1" d="M272.52,138.21c-.12,0-.18,0-.19,0l-.68-3.75c-.09-.48.57-1.54,2-3.17s3.43-3.66,6-6.11a5.85,5.85,0,0,1-.48-1.53c-.07-.36-.13-.81-.18-1.32l-6.92,1.27a3.81,3.81,0,0,0-1.28.41,1,1,0,0,0-.43.79,7,7,0,0,0,.15,1.63c0,.06,0,.1-.16.12s-.18,0-.19,0c-.11-.6-.18-1.08-.23-1.43l-.34-2-.38-2c-.09-.35-.19-.84-.31-1.48,0,0,.05-.07.17-.09s.18,0,.18,0a6.23,6.23,0,0,0,.46,1.59,1.19,1.19,0,0,0,.7.63,3.29,3.29,0,0,0,1.32,0l13.46-2.46a3.44,3.44,0,0,0,1.24-.42,1.13,1.13,0,0,0,.44-.81,6,6,0,0,0-.14-1.64c0-.06,0-.1.16-.12s.18,0,.19.06l.23,1.43c.11.82.21,1.48.31,2s.13.68.21,1,.14.57.2.8c.18.61.3,1.17.4,1.67a6.07,6.07,0,0,1-.3,3.81,3.19,3.19,0,0,1-2.44,1.77,4.72,4.72,0,0,1-2.78-.34,5.87,5.87,0,0,1-2.35-1.79q-3.24,3.15-5,5.21a16.37,16.37,0,0,0-2.45,3.54,4.58,4.58,0,0,0-.45,2.73S272.63,138.19,272.52,138.21Zm7.42-14.3a4.07,4.07,0,0,0,1.38,2.72,4,4,0,0,0,3,.35q4.21-.78,3.57-4.32a3.94,3.94,0,0,0-.35-1.15.92.92,0,0,0-.65-.47,4,4,0,0,0-1.41.08l-5.76,1A11.19,11.19,0,0,0,279.94,123.91Z"/>
      <path class="cls-1" d="M289.09,137.85a6.12,6.12,0,0,0-3.27-1.21s-.06,0-.07-.16,0-.16.06-.17l2.78.16c1.15.05,2,.07,2.58,0,.1,0,.15.05.15.16s0,.16-.14.17c-.43,0-.63.55-.58,1.62q0,2.5.15,5.93c0,1.17.11,2.4.2,3.69l.12,2a5.52,5.52,0,0,0,.21,1.57.9.9,0,0,0,.61.64.17.17,0,0,1,.13.18c0,.09,0,.14-.11.15-.58,0-1.45-.06-2.61-.07s-2.11,0-2.84,0c0,0-.06-.06-.06-.17s0-.18.05-.18a5.13,5.13,0,0,0,3.2-1.08,3.75,3.75,0,0,0,.81-2.87,9.1,9.1,0,0,0-.2-1.88,1,1,0,0,0-.53-.75,3,3,0,0,0-1.31-.16l-13.61.55a3.27,3.27,0,0,0-1.32.26,1.12,1.12,0,0,0-.52.82,8.16,8.16,0,0,0-.08,1.87c0,.06-.05.09-.17.09s-.18,0-.18-.08q0-1,0-1.56l-.07-2.31-.12-2.21q0-.58-.09-1.62s0-.07.17-.07.18,0,.18.05a8.51,8.51,0,0,0,.22,1.86,1.19,1.19,0,0,0,.62.79,3,3,0,0,0,1.32.16l13.67-.55a2.71,2.71,0,0,0,1.27-.26,1,1,0,0,0,.44-.78,10.71,10.71,0,0,0,0-1.9A3.74,3.74,0,0,0,289.09,137.85Z"/>
      <path class="cls-1" d="M287.56,179.22c0-.05.07-.07.19-.05s.17.06.16.12l-.26,1.24q-.25,1-.36,1.65c-.06.33-.13.81-.21,1.43l-.19,1.23s-.07,0-.19,0-.17-.06-.16-.09c.28-1.55-.52-2.51-2.42-2.85l-8.25-1.52a7.21,7.21,0,0,1-4.88-2.82,6.82,6.82,0,0,1-.95-5.34,8.11,8.11,0,0,1,1.53-3.61,6.13,6.13,0,0,1,2.86-2.06,7.29,7.29,0,0,1,3.8-.21l9.31,1.71a3.53,3.53,0,0,0,1.31,0,1,1,0,0,0,.69-.57A5.8,5.8,0,0,0,290,166s.07,0,.19,0,.17.05.16.09l-.29,1.42c-.18.8-.33,1.46-.42,2s-.21,1.22-.31,2l-.23,1.4c0,.06-.08.08-.19.06s-.17-.06-.16-.12a5.66,5.66,0,0,0,.12-1.63,1.09,1.09,0,0,0-.47-.81,3.92,3.92,0,0,0-1.26-.41l-8.23-1.51a7.94,7.94,0,0,0-5.5.6,5.49,5.49,0,0,0-2.61,4,5.26,5.26,0,0,0,.89,4.37,6.78,6.78,0,0,0,4.29,2.29l8.28,1.52C286.14,181.58,287.25,180.91,287.56,179.22Z"/>
      <path class="cls-1" d="M278.42,208.49c-.11,0-.15-.09-.13-.15a2.2,2.2,0,0,0,0-1.92,3.54,3.54,0,0,0-1.89-1.3l-14.6-5.41s0-.07,0-.17.05-.16.1-.18l20.16-7,.36-.15-12.3-4.56a3.56,3.56,0,0,0-2.25-.25,2.19,2.19,0,0,0-1.24,1.42c0,.06-.08.06-.19,0s-.16-.08-.14-.14c.17-.46.31-.81.42-1l.54-1.38.5-1.42a12.06,12.06,0,0,1,.39-1.15s.07,0,.19,0,.15.08.14.12a2.17,2.17,0,0,0,0,1.92,3.55,3.55,0,0,0,1.88,1.26l13,4.8a3.42,3.42,0,0,0,1.8-1.82c0-.05.09-.06.2,0s.16.09.14.15l-.41,1c-.1.22-.22.52-.37.91s-.26.74-.34,1-.14.47-.2.62a.46.46,0,0,1-.21.28,2.82,2.82,0,0,1-.55.17,10.75,10.75,0,0,0-1.16.32l-17.06,5.81,11.5,4.26a3.73,3.73,0,0,0,2.26.29,2.06,2.06,0,0,0,1.24-1.39s.07,0,.18,0,.16.08.15.12l-.43,1.07c-.24.54-.43,1-.56,1.34s-.27.79-.45,1.4l-.4,1.15C278.6,208.52,278.53,208.53,278.42,208.49Z"/>
      <path class="cls-1" d="M258.75,208.66a1,1,0,0,0-.84.35,6.32,6.32,0,0,0-.89,1.38c0,.05-.1.05-.2,0s-.14-.11-.11-.16c.27-.52.5-.93.68-1.24l1-1.84.92-1.82c.15-.32.37-.76.65-1.3,0-.05.1-.05.2,0s.15.11.12.16a6.86,6.86,0,0,0-.64,1.52,1.07,1.07,0,0,0,.18.9,3.75,3.75,0,0,0,1.08.78L273,213.75a3.25,3.25,0,0,0,1.24.44,1.14,1.14,0,0,0,.84-.36,5.89,5.89,0,0,0,.91-1.38s.09,0,.19,0,.15.11.12.16l-.7,1.27c-.42.71-.76,1.3-1,1.77s-.59,1.16-.94,1.91l-.62,1.25c0,.05-.09.05-.2,0s-.14-.11-.12-.16a5.48,5.48,0,0,0,.6-1.51,1.14,1.14,0,0,0-.21-.9,3.38,3.38,0,0,0-1.07-.79L260,209.11A3.78,3.78,0,0,0,258.75,208.66Z"/>
      <path class="cls-1" d="M259.9,238.55c-.09-.07-.13-.13-.09-.18a2.92,2.92,0,0,0,.56-1.73,3.91,3.91,0,0,0-.78-2l-9.35-14.15c-.05-.06,0-.17.09-.34a.39.39,0,0,1,.29-.19L267.94,223a4.32,4.32,0,0,0,1.94.06,2.16,2.16,0,0,0,1.22-.92c0-.05.09,0,.19,0s.13.12.1.17l-.66.91c-.35.43-.62.78-.81,1.06-.45.64-.92,1.35-1.4,2.12l-.67,1c0,.05-.1,0-.2,0s-.13-.12-.09-.17a3.17,3.17,0,0,0,.59-1.27.84.84,0,0,0-.4-.83,2.54,2.54,0,0,0-.92-.32l-14.64-2.64,7.91,12a3,3,0,0,0,.67.75,1,1,0,0,0,1.07.06,3.93,3.93,0,0,0,1.24-1.27s.1,0,.19,0,.13.13.1.18l-.75,1c-.41.53-.78,1-1.09,1.47s-.49.73-.75,1.18l-.68,1C260.07,238.62,260,238.61,259.9,238.55Z"/>
      <path class="cls-1" d="M238.22,241.5a.38.38,0,0,1-.13.09.13.13,0,0,1-.12,0,26.23,26.23,0,0,0-2.66-2.87.53.53,0,0,1-.18-.31.54.54,0,0,1,.18-.34l8.49-9s.08,0,.17.07.12.14.09.17a5.77,5.77,0,0,0-1,1.3,1.05,1.05,0,0,0-.07.91,3.47,3.47,0,0,0,.83,1l10,9.37a3.3,3.3,0,0,0,1.08.76,1.09,1.09,0,0,0,.9-.13,5.64,5.64,0,0,0,1.25-1.08s.08,0,.17.08.11.13.09.16l-8.15,8.65a.23.23,0,0,1-.37,0L246,247.93s0-.1,0-.18.11-.11.17-.08a3.64,3.64,0,0,0,2.42,1,3,3,0,0,0,2.2-1.06l1.23-1.31a5.2,5.2,0,0,0,.93-1.22,1.14,1.14,0,0,0,.06-.88,3.16,3.16,0,0,0-.74-1L248,239.11l-2.47,2.62a3.28,3.28,0,0,0-1,1.8,1.92,1.92,0,0,0,.74,1.54s0,.08-.08.17-.13.11-.16.09l-1.72-1.67c-.42-.39-.74-.68-1-.87l-1.05-.95s0-.08.08-.17.13-.11.16-.08a2.39,2.39,0,0,0,1.79.81,3.22,3.22,0,0,0,1.86-1.15l2.41-2.56-5-4.66a2.94,2.94,0,0,0-1-.7,1,1,0,0,0-.84.1,5.88,5.88,0,0,0-1.12,1L238,236.13a3.13,3.13,0,0,0-.89,2.41,5.42,5.42,0,0,0,1.15,2.83S238.27,241.44,238.22,241.5Z"/>
      <path class="cls-1" d="M217.85,252.68q-.1-.15-.06-.18l3-2.36c.39-.3,1.63-.21,3.74.28s4.84,1.32,8.22,2.49a5.81,5.81,0,0,1,1.13-1.15c.29-.23.65-.49,1.08-.77l-4.35-5.53a3.62,3.62,0,0,0-1-.93,1,1,0,0,0-.9,0,6.4,6.4,0,0,0-1.38.89s-.1,0-.18-.08-.08-.16,0-.19c.47-.38.86-.67,1.15-.88l1.62-1.23,1.56-1.27c.27-.24.66-.55,1.17-1,0,0,.08,0,.15.11s.1.15.07.17a6.52,6.52,0,0,0-1.21,1.15,1.21,1.21,0,0,0-.22.91,3.09,3.09,0,0,0,.64,1.15L240.55,255a3.22,3.22,0,0,0,.95.91,1.1,1.1,0,0,0,.91,0,5.83,5.83,0,0,0,1.39-.89s.11,0,.18.09.09.15,0,.19l-1.15.87q-1,.72-1.62,1.2c-.28.22-.53.43-.77.64l-.61.56c-.46.44-.89.81-1.29,1.13a6,6,0,0,1-3.51,1.52,3.2,3.2,0,0,1-2.7-1.33,4.76,4.76,0,0,1-1-2.61,6,6,0,0,1,.49-2.92q-4.29-1.4-6.95-2a16.26,16.26,0,0,0-4.28-.51,4.45,4.45,0,0,0-2.61.88S217.92,252.77,217.85,252.68Zm16.11-.13a4.1,4.1,0,0,0-1.76,2.5,4,4,0,0,0,1.11,2.83q2.64,3.38,5.48,1.14a4.58,4.58,0,0,0,.86-.84,1,1,0,0,0,.1-.8,3.73,3.73,0,0,0-.73-1.21l-3.62-4.6A12,12,0,0,0,234,252.55Z"/>
      <path class="cls-1" d="M220.46,265.72a5.19,5.19,0,0,0-1.89-.55c-.66-.07-1.55-.11-2.68-.13s-2.14-.05-2.84-.12a5.64,5.64,0,0,1-2.06-.63,4.27,4.27,0,0,1-1.68-1.67,4.81,4.81,0,0,1-.69-2.58,4.93,4.93,0,0,1,.89-2.62,7.37,7.37,0,0,1,2.51-2.23,8.44,8.44,0,0,1,4.11-1.21.41.41,0,0,1,.27.08,1.37,1.37,0,0,1,.25.27L219,257.6c.05.06,0,.13,0,.2s-.16.08-.21,0a8.42,8.42,0,0,0-3.37-2.28,4.21,4.21,0,0,0-3.72.4,3.89,3.89,0,0,0-1.75,2,3.1,3.1,0,0,0,.43,2.74,4.34,4.34,0,0,0,1.67,1.7,5.66,5.66,0,0,0,2,.66,24.26,24.26,0,0,0,2.73.14,22.75,22.75,0,0,1,2.67.15,5.33,5.33,0,0,1,2,.66,4.18,4.18,0,0,1,1.6,1.63,4.11,4.11,0,0,1,.6,2.57,4.74,4.74,0,0,1-1,2.38,7,7,0,0,1-2.05,1.8,9.18,9.18,0,0,1-3.34,1.13.55.55,0,0,1-.64-.21l-1.89-2.83c0-.07,0-.13.07-.18a.15.15,0,0,1,.21,0,6.11,6.11,0,0,0,2.53,1.82,3.58,3.58,0,0,0,3.24-.37,3.06,3.06,0,0,0,1.65-2.08,3.88,3.88,0,0,0-2-3.91Z"/>
      <path class="cls-1" d="M200.32,262.83a1,1,0,0,0-.88-.23,6.08,6.08,0,0,0-1.55.55s-.11,0-.15-.13-.05-.17,0-.2l1.3-.56,1.92-.85,1.85-.87c.31-.17.75-.38,1.3-.63,0,0,.11,0,.16.12s0,.18,0,.2a6.15,6.15,0,0,0-1.43.82,1,1,0,0,0-.41.82,3.46,3.46,0,0,0,.38,1.27l5.69,12.44a3.25,3.25,0,0,0,.71,1.11,1.11,1.11,0,0,0,.89.22,6,6,0,0,0,1.56-.53s.1,0,.15.13,0,.17,0,.19l-1.33.58c-.77.3-1.39.57-1.88.79s-1.17.56-1.9.94l-1.25.61c-.06,0-.11,0-.16-.13s-.05-.17,0-.2a5.44,5.44,0,0,0,1.39-.83,1.14,1.14,0,0,0,.39-.84,3.44,3.44,0,0,0-.37-1.28L201,264A3.74,3.74,0,0,0,200.32,262.83Z"/>
      <path class="cls-1" d="M198.85,280.78a6.25,6.25,0,0,0,.29-3.48s0-.07.14-.11.16,0,.17,0q.21,1.05.6,2.73c.25,1.11.47,1.95.64,2.49a.13.13,0,0,1-.11.19.14.14,0,0,1-.2-.09c-.13-.41-.7-.46-1.72-.13-1.6.45-3.5,1-5.68,1.73-1.1.36-2.27.75-3.49,1.19l-1.91.64a7,7,0,0,0-1.46.62.9.9,0,0,0-.45.77c0,.08,0,.14-.13.17s-.15,0-.18-.07c-.12-.56-.32-1.41-.62-2.53s-.56-2-.79-2.73c0,0,0-.07.15-.11s.18,0,.19,0a5.08,5.08,0,0,0,1.89,2.8,3.7,3.7,0,0,0,3,0,10.11,10.11,0,0,0,1.77-.69,1.1,1.1,0,0,0,.58-.71,3.08,3.08,0,0,0-.2-1.3l-4.17-13a3.13,3.13,0,0,0-.61-1.2,1.11,1.11,0,0,0-.93-.29,8.12,8.12,0,0,0-1.82.43c-.05,0-.1,0-.13-.15s0-.17,0-.19q.91-.3,1.5-.45l2.2-.68,2.1-.71c.37-.14.88-.31,1.54-.52,0,0,.07,0,.11.15s0,.17,0,.19a8.23,8.23,0,0,0-1.73.71,1.17,1.17,0,0,0-.6.79,3,3,0,0,0,.19,1.32l4.19,13a2.83,2.83,0,0,0,.59,1.16,1,1,0,0,0,.88.21,12.57,12.57,0,0,0,1.83-.48A3.76,3.76,0,0,0,198.85,280.78Z"/>
      <path class="cls-1" d="M163.08,290.47c0-.12,0-.18,0-.19a3.71,3.71,0,0,0,2-1.11,7.26,7.26,0,0,0,1.58-2.43l3-6.63-1.06-6.62a3.69,3.69,0,0,0-.38-1.29,1,1,0,0,0-.78-.45,6.67,6.67,0,0,0-1.64.12c-.06,0-.1-.05-.12-.16s0-.18.07-.19c.6-.1,1.06-.16,1.4-.2l2-.29,2-.36c.35-.07.83-.16,1.43-.25.06,0,.09,0,.12.16s0,.18-.07.19a6.74,6.74,0,0,0-1.59.4,1,1,0,0,0-.61.68,3.31,3.31,0,0,0,0,1.33l1,6.16,6,6.31a6.08,6.08,0,0,0,1.83,1.53,3,3,0,0,0,1.78.23c.05,0,.09,0,.11.16s0,.18-.06.19c-.23,0-.59.07-1.06.11l-1,.13c-.67.11-1.5.26-2.51.47l-1.57.28s-.06-.06-.08-.17,0-.18,0-.18c1-.17,1.48-.45,1.42-.86a1.32,1.32,0,0,0-.41-.68l-5.8-6.14-2.69,6a3.41,3.41,0,0,0-.36,1.82c.11.7.69,1,1.74.8,0,0,.07.05.08.17s0,.18,0,.18l-1.38.19c-.75.08-1.43.17-2,.27-.33.05-.73.14-1.19.25l-1.07.2S163.1,290.58,163.08,290.47Z"/>
    </g>
    <path class="cls-1" d="M150,300C67.29,300,0,232.71,0,150S67.29,0,150,0,300,67.29,300,150,232.71,300,150,300ZM150,2.06C68.43,2.06,2.06,68.43,2.06,150S68.43,297.94,150,297.94,297.94,231.57,297.94,150,231.57,2.06,150,2.06Z"/>
    <path class="cls-1" d="M183.28,126.12c-12.94-2.12-31.37-2.1-31.37-2.1s-.26-4.53,0-16.62l.37,1.47s-.16-1.55-.32-4v-.14A65.1,65.1,0,0,1,186.14,114c2.31,1.39,1.61,2.18,2.42,2.92a.86.86,0,0,0,1.43-.78c-.74-4.31-1.1-14,7.79-23.09,5.52-6,7.35-10,7.35-10a27.83,27.83,0,0,1-10.75,2.28c-3.73.32-17.71.41-37.19.8a31.85,31.85,0,0,1-5.21-.37c.72-7.78,2.58-15,6.86-16.66a14.25,14.25,0,0,1,9-.29l-2.66-14a15.9,15.9,0,0,0-13.62,5.31c-3.93,4.6-4.35,15-4,23.16l-1.07-1.08c-6.1-6.07-15.46-19-34.32-2.5-18.37,16.1-7.13,52.16,14,58.66A83.73,83.73,0,0,0,148,141.53v29.38s0-20.69-39.75-13.49c-14.36,2.6-29.84,7.41-31.76-5.18-6,10.64.2,21.94,8.73,22.59,21.33,1.65,49.75-14,60.74,8.14a15.13,15.13,0,0,1,.71,1.68l-11,11,12.48,12.48c-.25,4.76-.52,8.64-.18,10.2-16.52-7.77-35.63-28.19-54.81-16.54a19.87,19.87,0,0,0-8.24,9.15A15.9,15.9,0,0,0,86,223.58c4.16,7.26,12.27,8.74,12.27,8.74l.88-1.81c-6.81-.58-10-4.17-11.34-6.23-3.49-5.83,4.51-14.58,17-12.88C121.81,213.71,150,243,150,243s52.1-31.73,62.9-69C218.23,155.56,206,129.84,183.28,126.12Zm-57.83-2.79s-8.62.23-14.42-6c-5-5.38-6.37-11.7-6.14-18.94.73-23,31.25-33.5,40.57-11.18C115,94.27,125.45,123.33,125.45,123.33ZM148,124l-20.83-.69s-7.1-21.7,20.83-18.5Zm48.46,54.22c-1.66,32.85-42.33,59.1-44.85,60.21V225.54c-.06-1.54.09-14.49,0-16.3,0-.32-.06-.74-.08-1.25l12.37-12.37-12-12c.09-5.14.15-10.23.07-14.44-.15-8.58-.19-19.13,0-27.63,1.55-.28,24.28-4.09,37.09,11.09C197.21,162.35,196.61,174.28,196.41,178.24Z"/>
    <path class="cls-1" d="M150,266.93A116.94,116.94,0,1,1,266.93,150,117.07,117.07,0,0,1,150,266.93Zm0-231.81A114.88,114.88,0,1,0,264.87,150,115,115,0,0,0,150,35.12Z"/>
    <g>
      <path class="cls-1" d="M123.22,285.34l2.69-13.77a7.59,7.59,0,0,0-5.25,1.06,6.53,6.53,0,0,0-2.75,4.45,6.66,6.66,0,0,0,5.31,8.26Z"/>
      <polygon class="cls-1" points="106.7 274.37 102 272.6 102.51 278.79 106.7 274.37"/>
      <path class="cls-1" d="M39.94,221.47a13.41,13.41,0,0,0,1.66,2l6-3.93a1.9,1.9,0,0,0,1-1.27,3.37,3.37,0,0,0-.79-2.06A4.61,4.61,0,0,0,45,213.9a4.68,4.68,0,0,0-3.4,1A5.17,5.17,0,0,0,39,218,4.73,4.73,0,0,0,39.94,221.47Z"/>
      <path class="cls-1" d="M130.37,284.58a6.67,6.67,0,0,0,2.61-4.35,7.22,7.22,0,0,0-.76-5.16,7.08,7.08,0,0,0-4.43-3.14l-2.68,13.78A7.48,7.48,0,0,0,130.37,284.58Z"/>
      <path class="cls-1" d="M150,34.08V1A149,149,0,0,0,150,299V265.92a115.92,115.92,0,0,1,0-231.84Zm-40.39-20.4,1.07-.21c.2,0,.47-.07.81-.15l.88-.22a5.34,5.34,0,0,1,.55-.16.85.85,0,0,1,.69.14,6.75,6.75,0,0,1,1,1.07L124,26.29l3.12-15.72c.11-.53.35-.83.71-.92l.43-.06a6.91,6.91,0,0,0,.74-.13l1.35-.33c.21-.07.52-.14.94-.24.06,0,.1,0,.13.16s0,.17-.05.19a3.9,3.9,0,0,0-2,.87,1.78,1.78,0,0,0-.25,1.7l3.53,13.24a3.74,3.74,0,0,0,.5,1.25,1,1,0,0,0,.8.39,6.07,6.07,0,0,0,1.62-.2s.1,0,.12.15,0,.18,0,.2c-.59.13-1.07.22-1.42.28l-2,.41-1.84.44c-.31.08-.74.19-1.3.31,0,0-.07-.05-.09-.16s0-.18,0-.19a4.79,4.79,0,0,0,1.42-.48,1,1,0,0,0,.51-.7,3.09,3.09,0,0,0-.18-1.29l-3.41-13-3.22,16.72a.25.25,0,0,1-.2.17.39.39,0,0,1-.29-.06L113.27,15.74,115.69,28a3.36,3.36,0,0,0,1,2.05,2.52,2.52,0,0,0,2.08.2s.07.05.09.16,0,.18,0,.19c-.54.12-1,.2-1.24.25l-1.57.31-1.49.36c-.27.08-.65.17-1.15.28,0,0-.07,0-.1-.16s0-.17,0-.18a2.21,2.21,0,0,0,1.61-1A3.54,3.54,0,0,0,115,28.1L112.3,14.65a2.87,2.87,0,0,0-2.62-.63s-.07,0-.09-.16S109.57,13.68,109.61,13.68Zm-18,7.14,11-4.46a.24.24,0,0,1,.34.15l1.42,3.35c0,.05,0,.1-.1.15s-.15,0-.19,0a3.66,3.66,0,0,0-1.79-1.91,3.05,3.05,0,0,0-2.44,0l-1.67.67a5.3,5.3,0,0,0-1.35.72,1.08,1.08,0,0,0-.41.78,2.66,2.66,0,0,0,.27,1.18l2.25,5.56,3.34-1.35a3.45,3.45,0,0,0,1.7-1.2,1.92,1.92,0,0,0,0-1.7s0-.08.14-.13.17,0,.19,0l.87,2.23c.21.53.38.93.51,1.19l.56,1.31s0,.08-.14.12-.17.05-.18,0A2.42,2.42,0,0,0,104.57,26a3.23,3.23,0,0,0-2.17.28l-3.26,1.32,2.55,6.3a3,3,0,0,0,.62,1.05,1,1,0,0,0,.8.25,5.7,5.7,0,0,0,1.43-.42l2.19-.88a3.12,3.12,0,0,0,1.81-1.82,5.41,5.41,0,0,0,.14-3s0-.07.08-.1l.16,0c.06,0,.09,0,.11.06a27.13,27.13,0,0,0,1.21,3.71.38.38,0,0,1-.27.59L98.5,37.94s-.08,0-.13-.14,0-.18,0-.19a6.41,6.41,0,0,0,1.47-.75,1,1,0,0,0,.44-.8,3.41,3.41,0,0,0-.32-1.29L94.82,22.09A3.17,3.17,0,0,0,94.15,21a1.14,1.14,0,0,0-.87-.27,6.06,6.06,0,0,0-1.58.47s-.08,0-.12-.14S91.53,20.84,91.57,20.82ZM72.63,30.35c.09-.05.16,0,.21,0,.22.38.79.29,1.71-.24,1.48-.79,3.2-1.76,5.18-2.91,1-.59,2.06-1.22,3.16-1.91l1.72-1a5.82,5.82,0,0,0,1.29-.93.91.91,0,0,0,.28-.84.17.17,0,0,1,.1-.2q.12-.06.18,0c.24.53.62,1.31,1.16,2.34s1,1.87,1.35,2.5c0,0,0,.08-.13.14s-.16.07-.18,0a5.12,5.12,0,0,0-2.44-2.32,3.69,3.69,0,0,0-2.92.63,9.52,9.52,0,0,0-1.58,1,1.07,1.07,0,0,0-.41.82,3,3,0,0,0,.47,1.23l6.86,11.77a3,3,0,0,0,.84,1,1.16,1.16,0,0,0,1,.09,8,8,0,0,0,1.68-.81s.1,0,.16.11.07.17,0,.2c-.56.32-1,.58-1.37.76l-2,1.13L87,44.22c-.33.22-.79.5-1.39.85,0,0-.08,0-.14-.13s-.07-.16,0-.18A8.58,8.58,0,0,0,87,43.7a1.18,1.18,0,0,0,.41-.91A3,3,0,0,0,87,41.54L80.07,29.72a2.76,2.76,0,0,0-.83-1,1,1,0,0,0-.9,0,11.14,11.14,0,0,0-1.68.86,3.72,3.72,0,0,0-1.94,2.22,6.1,6.1,0,0,0,.46,3.46s0,.08-.11.13-.15.07-.17,0c-.29-.65-.68-1.49-1.17-2.53s-.88-1.8-1.17-2.3C72.51,30.48,72.54,30.41,72.63,30.35ZM10.71,129.19a9.1,9.1,0,0,1,1.17-3.33c.14-.28.32-.4.56-.37l3.39.25c.08,0,.11.07.1.17s-.06.15-.14.15a6,6,0,0,0-3,.88,3.55,3.55,0,0,0-1.7,2.78,3,3,0,0,0,.61,2.57A3.58,3.58,0,0,0,14,133.42a3.58,3.58,0,0,0,2.07-.29,5.27,5.27,0,0,0,1.6-1.15c.45-.47,1-1.15,1.75-2s1.36-1.65,1.85-2.16A5.57,5.57,0,0,1,23,126.56a4.07,4.07,0,0,1,2.35-.29,4.71,4.71,0,0,1,2.45,1,4.85,4.85,0,0,1,1.52,2.32,7.45,7.45,0,0,1,.22,3.35,8.67,8.67,0,0,1-1.59,4,.42.42,0,0,1-.23.16,1.23,1.23,0,0,1-.36,0l-4-.16c-.08,0-.12,0-.13-.15s0-.17.12-.18a8.36,8.36,0,0,0,3.87-1.25,4.2,4.2,0,0,0,2-3.17,3.86,3.86,0,0,0-.47-2.58,3.09,3.09,0,0,0-2.42-1.36,4.36,4.36,0,0,0-2.36.27,5.86,5.86,0,0,0-1.79,1.2,25.34,25.34,0,0,0-1.79,2.07,25.22,25.22,0,0,1-1.77,2A5.28,5.28,0,0,1,16.8,135a4.25,4.25,0,0,1-2.27.26,4.15,4.15,0,0,1-2.39-1.12,4.72,4.72,0,0,1-1.28-2.23A6.89,6.89,0,0,1,10.71,129.19ZM26,116.56a.45.45,0,0,1,.35-.06.48.48,0,0,1,.31.23l3,6.16s0,0,0,.06a.14.14,0,0,1-.1.1c-.06,0-.1,0-.13,0l-3.51-4.63-5.37,2.35s-.08,0-.12-.11,0-.13,0-.13Zm-4.45-.38,5.56-4a.47.47,0,0,1,.36-.06.46.46,0,0,1,.3.23l3,6.16s0,0,0,.06a.14.14,0,0,1-.1.1.12.12,0,0,1-.14,0L27,114.07l-5.36,2.35s-.08,0-.12-.11S21.5,116.19,21.56,116.18Zm1,30.89a.52.52,0,0,1-.35.11.5.5,0,0,1-.33-.13l-4.3-5.31c-.06,0-.06-.09,0-.16s.1-.08.14,0l4.51,3.69,4.65-3.52h0a.19.19,0,0,1,.15.08.09.09,0,0,1,0,.13Zm4.42-.66-4.5,5.15a.53.53,0,0,1-.36.11.44.44,0,0,1-.32-.13l-4.3-5.31s0,0,0-.06a.13.13,0,0,1,.07-.11s.09-.05.11,0l4.51,3.69,4.65-3.52s.09,0,.16.08S27,146.39,27,146.41ZM12.26,180.76c0-.11,0-.17.12-.19.42-.07.55-.63.36-1.68-.23-1.66-.54-3.61-.93-5.87-.2-1.14-.43-2.35-.69-3.62l-.38-2a6.4,6.4,0,0,0-.41-1.53.9.9,0,0,0-.7-.55c-.08,0-.13-.06-.15-.16s0-.15.09-.16c.58,0,1.44-.13,2.59-.28s2.1-.27,2.81-.4c0,0,.07,0,.09.17s0,.18,0,.18a5.1,5.1,0,0,0-3,1.49,3.72,3.72,0,0,0-.43,3A10.55,10.55,0,0,0,12,171a1.05,1.05,0,0,0,.63.67,3.07,3.07,0,0,0,1.32,0l13.41-2.34a3.11,3.11,0,0,0,1.28-.44,1.11,1.11,0,0,0,.41-.88,8.1,8.1,0,0,0-.17-1.86c0-.05,0-.09.16-.11s.18,0,.19.05c.11.64.19,1.16.24,1.55l.37,2.27.41,2.18c.08.39.19.92.3,1.6,0,0,0,.07-.16.09s-.18,0-.18,0a8.39,8.39,0,0,0-.47-1.81,1.17,1.17,0,0,0-.71-.7,2.94,2.94,0,0,0-1.33,0l-13.48,2.35A2.9,2.9,0,0,0,13,174a1,1,0,0,0-.33.84,12.48,12.48,0,0,0,.22,1.88,3.79,3.79,0,0,0,1.41,2.59,6.2,6.2,0,0,0,3.41.77s.07.05.08.15,0,.17,0,.17L15,180.6c-1.14.1-2,.2-2.56.29C12.34,180.91,12.28,180.87,12.26,180.76Zm108.88,90.77a12.23,12.23,0,0,1,4.84-.34l.24-1.25a2,2,0,0,0,0-1.09,1.45,1.45,0,0,0-.8-.73,9.13,9.13,0,0,0-2-.56c-.06,0-.08-.08-.06-.19s.07-.17.12-.16c.7.13,1.25.25,1.65.35l2.49.52,2.38.43c.43.06,1,.16,1.72.3.06,0,.08.08,0,.19s-.06.17-.12.16a9.55,9.55,0,0,0-2-.22,1.53,1.53,0,0,0-1,.37,1.83,1.83,0,0,0-.45,1l-.23,1.19a11.61,11.61,0,0,1,4.47,2,7.63,7.63,0,0,1,2.53,3.19,6.6,6.6,0,0,1,.35,3.76,6.13,6.13,0,0,1-1.94,3.5,8.06,8.06,0,0,1-3.67,1.86,13.82,13.82,0,0,1-4.57.24l-.15.75a2.34,2.34,0,0,0,0,1.25,1.38,1.38,0,0,0,.79.72,10.75,10.75,0,0,0,2,.54c.06,0,.08.07.06.17s-.06.16-.12.15q-1.08-.21-1.71-.36l-2.37-.5-2.53-.46c-.41-.06-1-.16-1.63-.29-.06,0-.08-.07,0-.17s.06-.16.11-.15a9.45,9.45,0,0,0,2,.24,1.47,1.47,0,0,0,1-.39,2.37,2.37,0,0,0,.48-1.17l.13-.64a11.51,11.51,0,0,1-4.58-2.05,7.81,7.81,0,0,1-2.54-3.24,6.4,6.4,0,0,1-.35-3.63,5.93,5.93,0,0,1,1.8-3.26A8.62,8.62,0,0,1,121.14,271.53ZM97.51,260c0-.12.1-.16.17-.13.35.13.89.36,1.61.67s1.26.54,1.59.66.93.33,1.57.53,1.06.34,1.37.46c.07,0,.09.09.05.2s-.1.16-.17.13a4.53,4.53,0,0,0-1.57-.37.72.72,0,0,0-.72.48,3.48,3.48,0,0,0-.09,1.33l.63,8,5.22,2,4.51-4.74a4.75,4.75,0,0,0,1-1.41c.41-1.08-.29-2-2.1-2.65-.09,0-.12-.11-.07-.22s.11-.14.2-.11c.33.13.8.32,1.41.6s1.29.55,1.81.74,1,.37,1.68.57,1,.33,1.4.47c.09,0,.12.1.08.21s-.11.15-.2.12a3,3,0,0,0-1.43-.21,3.22,3.22,0,0,0-1.41.64,15.24,15.24,0,0,0-1.86,1.72l-11,11.56a.23.23,0,0,1-.23,0c-.09,0-.13-.08-.13-.14l-1.34-16.2a12.49,12.49,0,0,0-.57-3.36,2.27,2.27,0,0,0-1.31-1.3C97.48,260.15,97.47,260.09,97.51,260Zm-13.44,2.68a5.24,5.24,0,0,1-.41-1.38c-.1-.55-.19-1.42-.29-2.62l-.08-.76c-.14-1.58-.29-2.82-.44-3.7a6.92,6.92,0,0,0-.75-2.3,4.09,4.09,0,0,0-1.51-1.58s0-.08,0-.18.11-.15.14-.13L84,251.88a1.27,1.27,0,0,1,.52.56A6.61,6.61,0,0,1,84.8,254c.09.78.23,2.24.4,4.37.14,1.68.27,2.85.38,3.53a4,4,0,0,0,.57,1.65,4.11,4.11,0,0,0,1.42,1.22,1.55,1.55,0,0,0,.34.16l3.46-5.95a3.49,3.49,0,0,0,.5-1.23,1.06,1.06,0,0,0-.33-.86,6.72,6.72,0,0,0-1.37-1s0-.08,0-.18.11-.15.14-.13c.53.31.94.56,1.24.75l1.82,1.1,1.76,1q.47.24,1.29.72s0,.08,0,.18-.11.15-.14.13a7,7,0,0,0-1.51-.71,1,1,0,0,0-.91.14,3.48,3.48,0,0,0-.83,1l-6.87,11.82a3.41,3.41,0,0,0-.5,1.22,1,1,0,0,0,.32.85,5.9,5.9,0,0,0,1.35,1s0,.09,0,.19-.1.14-.14.12l-1.23-.75c-.7-.45-1.27-.81-1.71-1.06s-1.13-.63-1.9-1l-1.24-.68s0-.08,0-.19.11-.14.14-.12a5.8,5.8,0,0,0,1.52.68,1.16,1.16,0,0,0,.93-.16,3.33,3.33,0,0,0,.83-1l3.13-5.39c-.94-.5-1.52-.82-1.74-.95l-.49-.28-5.6,2.52a5.82,5.82,0,0,0-2.42,1.53.59.59,0,0,0,0,.67,2.89,2.89,0,0,0,.9.73s0,.08,0,.18-.1.14-.14.13l-1.08-.67c-.63-.41-1.23-.78-1.79-1.1s-1.18-.67-1.82-1l-.93-.51c-.05,0-.05-.1,0-.2s.12-.14.17-.11a5,5,0,0,0,2.73.72,10.46,10.46,0,0,0,3.48-.94l6-2.38A2.91,2.91,0,0,1,84.07,262.66ZM72.33,245.3a4.09,4.09,0,0,1,1.81-.47,2.45,2.45,0,0,1,1.54.6,2.74,2.74,0,0,1,.9,1.25,1.26,1.26,0,0,1-.22,1.25,1.18,1.18,0,0,1-1.73.15,1,1,0,0,1-.42-.7,2.62,2.62,0,0,1,.11-.88,2.35,2.35,0,0,0,.09-.56.41.41,0,0,0-.16-.34c-.31-.25-.82-.17-1.55.23l-2.18,1.08L68,260.28a6.55,6.55,0,0,0-.13,2,2.09,2.09,0,0,0,.8,1.24s0,.08-.06.17-.13.13-.16.1l-.9-.77c-.43-.4-.81-.73-1.13-1-.57-.46-1.18-.94-1.85-1.43l-.94-.72s0-.1.05-.2.13-.12.18-.08c1,.81,1.69,1,2.1.46a1.94,1.94,0,0,0,.32-.81L68.38,248l-9.73,4.8a2.52,2.52,0,0,0-.76.57.87.87,0,0,0-.11,1A4.09,4.09,0,0,0,59,255.64s0,.1,0,.19-.13.12-.18.09l-.92-.79c-.49-.45-1-.85-1.38-1.2-.26-.21-.59-.45-1-.72l-.91-.7s0-.09.06-.18.13-.12.16-.1a2.34,2.34,0,0,0,1.51.49,4.32,4.32,0,0,0,1.93-.51Zm-19-21.1c.09-.08.15-.1.19-.06.41.46.73.82.95,1.1l1.34,1.54,1.42,1.54c.25.25.58.61,1,1.06,0,.05,0,.11-.08.19s-.15.09-.19.05a6.86,6.86,0,0,0-1.22-1.15,1.08,1.08,0,0,0-.91-.14,3.6,3.6,0,0,0-1.1.73l-10.1,9.05a4.74,4.74,0,0,0-.92,1,.66.66,0,0,0,0,.67,10,10,0,0,0,1.06,1.31l1,1.12a4.59,4.59,0,0,0,1,.9,1.1,1.1,0,0,0,.91.06,4.39,4.39,0,0,0,1.27-.86,40.89,40.89,0,0,1,5.38-4,20.62,20.62,0,0,1,6.15-2.73c2-.5,3.56-.15,4.64,1.06a1.79,1.79,0,0,1,.5,1,.92.92,0,0,1-.35.85c-.47.42-1,.31-1.55-.32l-.41-.46c-.75-.84-1.94-1.08-3.56-.72a18,18,0,0,0-5.26,2.21,32.66,32.66,0,0,0-5.07,3.68,2.88,2.88,0,0,0-1.09,1.78,3.24,3.24,0,0,0,1.08,2.16s0,.1-.07.18-.15.1-.19,0l-9.42-10.52s0-.1.07-.18.15-.1.19-.05a6.21,6.21,0,0,0,1.23,1.12,1.13,1.13,0,0,0,.91.16,3.25,3.25,0,0,0,1.1-.73l10.19-9.12a3.46,3.46,0,0,0,.85-1,1,1,0,0,0-.06-.92,6.59,6.59,0,0,0-1-1.33S53.25,224.28,53.34,224.2Zm-7.76-11a6.65,6.65,0,0,1,2.29,2.2c.28.43.6,1,.94,1.58.13.24.31.54.52.91s.47.76.75,1.19l1.1,1.61c.22.3.51.72.87,1.27,0,0,0,.08-.12.14s-.16.09-.18.05a6.87,6.87,0,0,0-1.07-1.29,1.06,1.06,0,0,0-.86-.3,3.14,3.14,0,0,0-1.2.54l-11.43,7.52a3.24,3.24,0,0,0-1,.87,1.05,1.05,0,0,0-.08.91,7.49,7.49,0,0,0,.75,1.46s0,.11-.1.18-.16.07-.19,0l-.76-1.2q-.6-1-1-1.71c-.32-.48-.73-1.07-1.24-1.77l-.82-1.2s0-.08.12-.14.16-.08.18,0a7.54,7.54,0,0,0,1.07,1.31,1.06,1.06,0,0,0,.88.29A3.6,3.6,0,0,0,36.2,227l4.93-3.25A18.1,18.1,0,0,1,39,221.17a7.44,7.44,0,0,1-1.46-4.27,4.25,4.25,0,0,1,2.25-3.35,5.77,5.77,0,0,1,2.91-1A5.09,5.09,0,0,1,45.58,213.2Zm-6.15-11.68a9.12,9.12,0,0,0-.69-1.73s0-.11.12-.16.17,0,.19,0c.29.58.51,1.06.67,1.42l1,2.08,1,2c.19.35.44.83.75,1.45,0,0,0,.08-.14.13s-.16.06-.18,0a8.22,8.22,0,0,0-1-1.6,1.13,1.13,0,0,0-.87-.47A2.92,2.92,0,0,0,39,205l-12.27,6.05a2.84,2.84,0,0,0-1.06.76,1,1,0,0,0-.08.9,12.08,12.08,0,0,0,.74,1.74,3.73,3.73,0,0,0,2.08,2.08,6.1,6.1,0,0,0,3.49-.22s.07,0,.12.12.06.16,0,.18q-1,.36-2.61,1c-1.07.41-1.86.75-2.37,1-.09,0-.15,0-.2-.08s0-.17.06-.21c.39-.19.35-.76-.12-1.72-.69-1.53-1.54-3.31-2.55-5.36-.52-1.05-1.08-2.14-1.69-3.29l-.92-1.79a6.35,6.35,0,0,0-.83-1.35.9.9,0,0,0-.82-.34c-.08,0-.14,0-.19-.1s0-.15,0-.19c.54-.2,1.35-.53,2.41-1s1.93-.85,2.59-1.17c0,0,.07,0,.13.13s.06.17,0,.18a5.12,5.12,0,0,0-2.48,2.28,3.75,3.75,0,0,0,.42,3,10.93,10.93,0,0,0,.94,1.64,1.07,1.07,0,0,0,.79.47,3,3,0,0,0,1.26-.39l12.22-6a3.35,3.35,0,0,0,1.1-.77A1.19,1.19,0,0,0,39.43,201.52Zm-3.2-8.29s0,.08-.15.12-.17,0-.18,0a6.89,6.89,0,0,0-.65-1.52,1.07,1.07,0,0,0-.77-.49,3.3,3.3,0,0,0-1.31.22l-13,4.25a3.26,3.26,0,0,0-1.18.59,1.11,1.11,0,0,0-.33.85,5.89,5.89,0,0,0,.36,1.61s0,.08-.15.11-.18,0-.19,0L15,187.68a.23.23,0,0,1,.17-.33l3.44-1.19s.1,0,.14.11,0,.16,0,.19a3.64,3.64,0,0,0-2,1.66,3.07,3.07,0,0,0-.12,2.43l.56,1.71a4.79,4.79,0,0,0,.63,1.4,1.07,1.07,0,0,0,.74.47,2.79,2.79,0,0,0,1.2-.19l5.7-1.86-1.12-3.43a3.24,3.24,0,0,0-1.08-1.77,1.86,1.86,0,0,0-1.7-.08s-.08,0-.11-.15,0-.18,0-.19l2.28-.72c.54-.17.95-.32,1.23-.43l1.34-.47s.07,0,.11.15,0,.18,0,.19a2.39,2.39,0,0,0-1.58,1.18,3.18,3.18,0,0,0,.13,2.18L26,191.89l6.46-2.11a3.35,3.35,0,0,0,1.1-.55,1,1,0,0,0,.3-.78,5.49,5.49,0,0,0-.32-1.45l-.73-2.25a3.12,3.12,0,0,0-1.69-1.93,5.32,5.32,0,0,0-3-.35s-.07,0-.09-.09a.33.33,0,0,1,0-.17.08.08,0,0,1,.06-.09,28.46,28.46,0,0,0,3.79-1,.43.43,0,0,1,.35,0,.52.52,0,0,1,.22.32Zm8-94.6A1.11,1.11,0,0,1,44,99q-.14.14-.24.09L20.09,87.92c-.12-.06-.1-.27.07-.63s.3-.47.42-.41L44.24,98c.07,0,.1.11.09.23A1.39,1.39,0,0,1,44.21,98.63Zm9.33-25a7.42,7.42,0,0,1-1.43,3,8.51,8.51,0,0,1-3.3,2.74.47.47,0,0,1-.28,0,1.44,1.44,0,0,1-.33-.15l-3.46-2.08c-.08,0-.09-.09,0-.19s.11-.14.18-.11a8.49,8.49,0,0,0,4,.77,4.2,4.2,0,0,0,3.27-1.84A3.91,3.91,0,0,0,53,73.39,3.11,3.11,0,0,0,51.49,71a4.31,4.31,0,0,0-2.2-.9,5.68,5.68,0,0,0-2.15.2c-.67.2-1.52.52-2.56,1a24,24,0,0,1-2.51.92,5.53,5.53,0,0,1-2.08.18,4.33,4.33,0,0,1-2.11-.87,4.05,4.05,0,0,1-1.57-2.13,4.76,4.76,0,0,1-.05-2.57,7,7,0,0,1,1.17-2.46A9.07,9.07,0,0,1,40.06,62a.54.54,0,0,1,.67-.06l2.85,1.86c.06,0,.07.11,0,.19a.17.17,0,0,1-.2.07,6,6,0,0,0-3-.67A3.57,3.57,0,0,0,37.51,65a3,3,0,0,0-.69,2.56,3.87,3.87,0,0,0,3.38,2.81,5.37,5.37,0,0,0,2-.24c.62-.2,1.46-.51,2.51-.94s2-.8,2.65-1a5.68,5.68,0,0,1,2.15-.24,4.33,4.33,0,0,1,2.2.87,4.84,4.84,0,0,1,1.64,2.1A4.91,4.91,0,0,1,53.54,73.67ZM65.25,61c-.42.44-.76.77-1,1l-1.46,1.46L61.38,65c-.23.27-.56.63-1,1.06,0,0-.1,0-.19-.06s-.1-.14-.06-.19a6.5,6.5,0,0,0,1-1.27,1.06,1.06,0,0,0,.09-.91,3.53,3.53,0,0,0-.81-1.06L56,58.18l-8.57-1.49A6.12,6.12,0,0,0,45,56.56a3,3,0,0,0-1.56.88s-.1,0-.18-.06-.11-.15-.07-.19.43-.41.78-.72l.75-.72c.46-.48,1-1.1,1.73-1.87l1.09-1.16s.08,0,.17.08.11.14.08.17c-.71.73-.92,1.24-.62,1.53a1.3,1.3,0,0,0,.73.3l8.32,1.46L54.8,49.82a3.46,3.46,0,0,0-.8-1.68c-.5-.49-1.13-.36-1.87.4,0,0-.08,0-.17-.08s-.11-.14-.08-.17l1-1c.55-.51,1-1,1.49-1.44.23-.24.5-.54.8-.91l.74-.8s.09,0,.17.08.11.14.09.16a3.73,3.73,0,0,0-.95,2.09,7.66,7.66,0,0,0,.18,2.9L57,56.48l4.81,4.68a3.81,3.81,0,0,0,1.07.8,1,1,0,0,0,.89-.11A6.79,6.79,0,0,0,65,60.78s.1,0,.19.06S65.29,61,65.25,61Zm2.38-9.52c.07-.08.14-.1.21,0a8.26,8.26,0,0,0,3.64,1.8,4.22,4.22,0,0,0,3.63-.89,3.86,3.86,0,0,0,1.47-2.18,3.09,3.09,0,0,0-.79-2.66,4.39,4.39,0,0,0-1.89-1.45,5.71,5.71,0,0,0-2.12-.39,26.26,26.26,0,0,0-2.72.24q-1.65.19-2.67.21a5.54,5.54,0,0,1-2-.38,4.34,4.34,0,0,1-1.8-1.4,4.11,4.11,0,0,1-.95-2.47,4.77,4.77,0,0,1,.64-2.49A7,7,0,0,1,64,37.33a8.84,8.84,0,0,1,3.16-1.57.53.53,0,0,1,.66.12l2.26,2.55c0,.06,0,.12,0,.18s-.15.07-.21,0a6.15,6.15,0,0,0-2.76-1.47,3.59,3.59,0,0,0-3.16.81,3,3,0,0,0-1.35,2.28,3.9,3.9,0,0,0,2.51,3.61,5.5,5.5,0,0,0,2,.29q1,0,2.67-.24c1.18-.15,2.13-.24,2.83-.26a5.66,5.66,0,0,1,2.13.34,4.26,4.26,0,0,1,1.89,1.43,4.73,4.73,0,0,1,.5,5.18,7.41,7.41,0,0,1-2.18,2.55A8.53,8.53,0,0,1,71,54.91a.5.5,0,0,1-.28,0,1.5,1.5,0,0,1-.27-.23L67.62,51.7C67.55,51.65,67.56,51.58,67.63,51.5Z"/>
    </g>
  </g>
</svg>
