<svg id="Слой_1" data-name="Слой 1" xmlns="http://www.w3.org/2000/svg" viewBox="0 0 300 300">
  <defs>
    <style>
      .cls-1 {
        fill: #efefef;
      }
    </style>
  </defs>
  <g>
    <path class="cls-1" d="M150,266.94A116.94,116.94,0,1,1,266.93,150,117.07,117.07,0,0,1,150,266.94Zm0-231.81A114.87,114.87,0,1,0,264.87,150,115,115,0,0,0,150,35.13Z"/>
    <g>
      <path class="cls-1" d="M182.39,31.32c0,.12-.06.17-.12.16-.59-.12-1.07-.21-1.41-.3l-2-.4-2.13-.37c-.35,0-.82-.12-1.4-.23-.06,0-.08-.07-.05-.19s.06-.17.12-.16a7.06,7.06,0,0,0,1.68.17,1,1,0,0,0,.82-.44,3.48,3.48,0,0,0,.43-1.25l1.27-6.8-11.16-2.08-1.27,6.8a3.59,3.59,0,0,0,0,1.32,1,1,0,0,0,.61.7,6.41,6.41,0,0,0,1.62.46s.05.06,0,.18,0,.17-.09.16c-.6-.11-1.07-.21-1.42-.29l-2.08-.42-2-.34c-.36-.05-.84-.13-1.46-.25q-.06,0,0-.18c0-.12.06-.17.09-.16a7.32,7.32,0,0,0,1.67.16,1.06,1.06,0,0,0,.84-.44,3.51,3.51,0,0,0,.42-1.25l2.51-13.45a3.15,3.15,0,0,0,.05-1.31,1.05,1.05,0,0,0-.6-.7,6.26,6.26,0,0,0-1.6-.47s0-.06,0-.18.06-.17.1-.16l1.47.3c.81.19,1.45.33,1.94.42s1.27.22,2.13.34l1.4.23s0,.07,0,.19,0,.17-.09.16a5.64,5.64,0,0,0-1.67-.13,1.14,1.14,0,0,0-.84.46,3.36,3.36,0,0,0-.43,1.26l-1.12,6,11.16,2.08,1.12-6a3.64,3.64,0,0,0,0-1.33,1.16,1.16,0,0,0-.6-.73,5.86,5.86,0,0,0-1.63-.48c-.05,0-.07-.08-.05-.19s.06-.17.12-.16l1.39.29c.84.19,1.55.35,2.11.45s1.19.2,2,.32l1.43.23c.06,0,.08.08.06.19s-.07.17-.13.16a6,6,0,0,0-1.65-.14,1.09,1.09,0,0,0-.82.43,3.24,3.24,0,0,0-.43,1.24l-2.5,13.45a3.24,3.24,0,0,0-.05,1.33,1,1,0,0,0,.6.7,6.88,6.88,0,0,0,1.6.45C182.4,31.14,182.42,31.2,182.39,31.32Z"/>
      <path class="cls-1" d="M203.23,39.06c0,.11-.1.15-.17.12-.36-.13-.89-.35-1.61-.67s-1.25-.54-1.59-.66-.92-.33-1.56-.53-1.07-.34-1.38-.46c-.07,0-.09-.1,0-.21s.1-.15.18-.12a4.44,4.44,0,0,0,1.56.37.71.71,0,0,0,.72-.48,3.48,3.48,0,0,0,.09-1.33l-.61-8-5.22-2-4.51,4.74a4.37,4.37,0,0,0-1,1.4c-.42,1.09.28,2,2.08,2.66.1,0,.12.1.08.21s-.11.15-.2.12l-1.42-.6q-1-.45-1.8-.75t-1.68-.57c-.57-.17-1-.33-1.4-.47-.09,0-.12-.11-.08-.22s.11-.14.2-.11a2.87,2.87,0,0,0,1.43.21,3.14,3.14,0,0,0,1.4-.64,13.61,13.61,0,0,0,1.87-1.71l11-11.55a.21.21,0,0,1,.23,0c.09,0,.13.08.13.14l1.32,16.2a12.11,12.11,0,0,0,.56,3.36,2.24,2.24,0,0,0,1.31,1.3C203.26,38.88,203.27,39,203.23,39.06Zm-9.18-14.41,4.7,1.78-.5-6.19Z"/>
      <path class="cls-1" d="M209.08,41.52a1,1,0,0,0,.34.83,6.53,6.53,0,0,0,1.38.9s0,.09,0,.2-.11.14-.16.12c-.53-.28-.94-.51-1.24-.7l-1.84-1-1.81-.93c-.33-.15-.76-.36-1.3-.65,0,0,0-.09,0-.2s.11-.14.17-.11a6.83,6.83,0,0,0,1.51.64,1.07,1.07,0,0,0,.9-.18,3.38,3.38,0,0,0,.79-1.07l6.41-12.08a3.36,3.36,0,0,0,.44-1.24,1.06,1.06,0,0,0-.35-.84,5.85,5.85,0,0,0-1.38-.92c-.05,0-.05-.09,0-.19s.11-.15.16-.12l1.26.7c.72.43,1.31.76,1.78,1s1.15.6,1.9.95l1.24.62c.06,0,.06.1,0,.2s-.11.14-.16.12a5.29,5.29,0,0,0-1.51-.6,1.13,1.13,0,0,0-.91.2,3.38,3.38,0,0,0-.78,1.07l-6.39,12A3.59,3.59,0,0,0,209.08,41.52Z"/>
      <path class="cls-1" d="M228.91,55.56c-.06.1-.11.13-.15.11l-3.12-2.18q-.6-.43-.81-3.66c-.13-2.16-.13-5,0-8.6a5.38,5.38,0,0,1-1.42-.74c-.31-.22-.66-.49-1.06-.81l-4,5.75a3.8,3.8,0,0,0-.61,1.19,1,1,0,0,0,.24.86,6.77,6.77,0,0,0,1.26,1.06c.05,0,0,.1,0,.2s-.13.13-.17.09c-.5-.35-.89-.63-1.17-.85l-1.65-1.2-1.66-1.13c-.31-.19-.72-.47-1.26-.84t.06-.18c.07-.09.12-.13.15-.11a6.16,6.16,0,0,0,1.45.82,1.14,1.14,0,0,0,.93-.05,3.14,3.14,0,0,0,.92-.94l7.86-11.2a3.38,3.38,0,0,0,.58-1.18,1.07,1.07,0,0,0-.25-.88A6,6,0,0,0,223.73,30s0-.1,0-.2.13-.13.18-.09l1.17.85c.65.51,1.19.91,1.61,1.21s.57.38.84.55l.71.43a16.08,16.08,0,0,1,1.45.91,6,6,0,0,1,2.46,2.92,3.18,3.18,0,0,1-.49,3,4.77,4.77,0,0,1-2.22,1.71,5.93,5.93,0,0,1-2.93.38q-.1,4.52.09,7.23a16.39,16.39,0,0,0,.74,4.24,4.5,4.5,0,0,0,1.6,2.25S229,55.46,228.91,55.56Zm-4.75-15.39a4.09,4.09,0,0,0,2.89,1,4,4,0,0,0,2.4-1.88q2.46-3.51-.49-5.58a3.88,3.88,0,0,0-1.06-.57.94.94,0,0,0-.79.12,4.07,4.07,0,0,0-1,1.05l-3.36,4.79A11.49,11.49,0,0,0,224.16,40.17Z"/>
      <path class="cls-1" d="M246.87,67.78a.31.31,0,0,1,.09.14s0,.09,0,.11a28.28,28.28,0,0,0-3,2.47.47.47,0,0,1-.32.16.5.5,0,0,1-.33-.2l-8.45-9s0-.08.08-.16.15-.11.17-.08a7.3,7.3,0,0,0,1.23,1.1,1.07,1.07,0,0,0,.91.12,3.32,3.32,0,0,0,1.09-.76l10-9.35a3.37,3.37,0,0,0,.82-1,1.09,1.09,0,0,0-.07-.91,5.56,5.56,0,0,0-1-1.31s0-.09.09-.17.14-.1.17-.08l8.12,8.68a.24.24,0,0,1,0,.37l-2.61,2.53s-.1,0-.18,0-.09-.12-.06-.18a3.6,3.6,0,0,0,1.13-2.35,3,3,0,0,0-.92-2.26l-1.23-1.32a5.49,5.49,0,0,0-1.16-1,1.09,1.09,0,0,0-.87-.11,3,3,0,0,0-1,.68l-4.38,4.09,2.47,2.64a3.32,3.32,0,0,0,1.72,1.15,1.89,1.89,0,0,0,1.58-.64s.09,0,.17.09.1.14.07.16l-1.76,1.62c-.42.39-.73.69-.93.91l-1,1s-.08,0-.16-.09-.11-.14-.08-.17a2.41,2.41,0,0,0,.93-1.73,3.17,3.17,0,0,0-1-1.93l-2.4-2.57-5,4.64a3.28,3.28,0,0,0-.77,1,1,1,0,0,0,.06.84,5.36,5.36,0,0,0,.9,1.18l1.62,1.72a3.08,3.08,0,0,0,2.34,1,5.3,5.3,0,0,0,2.9-1S246.82,67.72,246.87,67.78Z"/>
      <path class="cls-1" d="M256,87.61c-.1.06-.16.08-.18,0-.29-.42-.51-.76-.67-1l-.9-1.35-1.32-1.85c-.22-.28-.5-.67-.85-1.17,0,0,0-.08.11-.15s.16-.09.18-.06a4,4,0,0,0,.76.89.42.42,0,0,0,.52.07,1.28,1.28,0,0,0,.38-.59l3-7.56-6.48-.07a3.07,3.07,0,0,0-1.74.34c-.57.39-.52,1.07.14,2,0,0,0,.11-.09.18s-.17.07-.2,0c-.34-.48-.59-.86-.75-1.13l-1.14-1.69-.73-1c-.14-.17-.36-.46-.65-.89,0,0,0-.1.1-.17s.16-.08.19,0q1.17,1.68,4.5,1.77l7.06.18,3.22-8a5.66,5.66,0,0,0,.5-2.21,3.15,3.15,0,0,0-.62-1.74s0-.08.11-.15.16-.09.18-.05l.62.94c.26.44.46.76.59,1,.38.55.86,1.21,1.43,2l.9,1.25s0,.1-.1.17-.16.07-.19,0a3.94,3.94,0,0,0-.75-.87.44.44,0,0,0-.55-.07,1.42,1.42,0,0,0-.38.59l-2.92,7.35,6,0a3.49,3.49,0,0,0,2-.39c.57-.39.53-1-.09-1.94q-.06-.08.09-.18c.1-.07.16-.07.2,0l.73,1.11c.39.64.77,1.21,1.11,1.71.21.29.46.62.76,1l.65.88s0,.11-.1.17-.16.08-.19,0a3.65,3.65,0,0,0-1.77-1.25,9.44,9.44,0,0,0-3-.5L259,75l-3.31,8.3a5.07,5.07,0,0,0-.43,2.22,3.9,3.9,0,0,0,.76,1.94S256.05,87.54,256,87.61Z"/>
      <path class="cls-1" d="M259.75,93.17a1.48,1.48,0,0,0-.11,1.15,11.19,11.19,0,0,0,.86,2.13s0,.1-.11.15-.18.06-.21,0c-.35-.72-.63-1.29-.81-1.7l-1.11-2.32-.91-1.76c-.19-.32-.42-.77-.7-1.33,0,0,0-.08.13-.14s.17-.06.19,0a6.34,6.34,0,0,0,.86,1.4,1,1,0,0,0,.82.37,4,4,0,0,0,1.26-.43l12.25-6.09a3.55,3.55,0,0,0,1.09-.73,1,1,0,0,0,.2-.88,5.42,5.42,0,0,0-.58-1.54s0-.08.13-.13.17-.06.19,0l.63,1.34c.33.75.61,1.36.83,1.8a16,16,0,0,0,.81,1.44c.11.21.29.54.54,1s.47.84.63,1.18a7.19,7.19,0,0,1,.86,4.44,4.29,4.29,0,0,1-2.58,3.11,5.46,5.46,0,0,1-3.37.6,5.88,5.88,0,0,1-2.87-1.33,8,8,0,0,1-2-2.49,6,6,0,0,1-.5-1.34s0-.1.09-.14a.41.41,0,0,1,.19,0c.06,0,.09,0,.09.07a4.25,4.25,0,0,0,.37,1,4.64,4.64,0,0,0,2.6,2.39,4.82,4.82,0,0,0,3.88-.43,5.11,5.11,0,0,0,2.73-2.77,4.25,4.25,0,0,0-.24-3.51,6.82,6.82,0,0,0-.79-1.33,1,1,0,0,0-.79-.36,3.5,3.5,0,0,0-1.38.45l-12.09,6A2.93,2.93,0,0,0,259.75,93.17Z"/>
      <path class="cls-1" d="M272.15,115a.5.5,0,0,1,0,.17.1.1,0,0,1-.06.1,27.18,27.18,0,0,0-3.78,1,.48.48,0,0,1-.35,0,.55.55,0,0,1-.22-.32l-4-11.72s0-.07.15-.11.18,0,.19,0a6.48,6.48,0,0,0,.67,1.5,1,1,0,0,0,.77.49,3.6,3.6,0,0,0,1.31-.24l12.95-4.42a3.35,3.35,0,0,0,1.17-.61,1.1,1.1,0,0,0,.31-.85,5.79,5.79,0,0,0-.38-1.61s0-.07.15-.11.18,0,.19,0l3.84,11.24a.24.24,0,0,1-.17.34l-3.42,1.23c-.05,0-.1,0-.14-.11s0-.15,0-.19a3.66,3.66,0,0,0,2-1.68,3.06,3.06,0,0,0,.09-2.44l-.58-1.71a5,5,0,0,0-.65-1.38,1.14,1.14,0,0,0-.75-.47,3,3,0,0,0-1.19.21l-5.68,1.94,1.17,3.41a3.31,3.31,0,0,0,1.1,1.76,1.9,1.9,0,0,0,1.7.06s.08,0,.12.15,0,.17,0,.19l-2.28.74c-.54.19-1,.34-1.22.45l-1.33.48s-.08,0-.12-.14,0-.18,0-.19a2.37,2.37,0,0,0,1.56-1.2,3.14,3.14,0,0,0-.15-2.18L274,105.46l-6.43,2.2a3.1,3.1,0,0,0-1.09.55,1,1,0,0,0-.29.79,5.39,5.39,0,0,0,.34,1.45l.76,2.23A3.16,3.16,0,0,0,269,114.6a5.34,5.34,0,0,0,3,.3S272.12,114.92,272.15,115Z"/>
      <path class="cls-1" d="M272.52,138.21c-.12,0-.18,0-.19,0l-.68-3.75c-.09-.48.57-1.54,2-3.17s3.43-3.66,6-6.11a6.25,6.25,0,0,1-.49-1.53q-.09-.56-.18-1.32l-6.91,1.27a3.59,3.59,0,0,0-1.28.41,1,1,0,0,0-.43.78,7,7,0,0,0,.15,1.64c0,.06,0,.1-.16.12s-.18,0-.19,0c-.11-.6-.18-1.08-.23-1.43l-.34-2-.39-2c-.08-.35-.18-.84-.3-1.48,0,0,.05-.07.17-.09s.17,0,.18,0a6.36,6.36,0,0,0,.46,1.59,1.16,1.16,0,0,0,.7.63,3.29,3.29,0,0,0,1.32,0l13.45-2.46a3.51,3.51,0,0,0,1.25-.42,1.13,1.13,0,0,0,.44-.81,6,6,0,0,0-.14-1.64c0-.06.05-.1.16-.12s.18,0,.19.06l.23,1.43q.17,1.23.3,2,.11.52.21,1l.21.8c.17.61.3,1.17.4,1.67a6.07,6.07,0,0,1-.3,3.81,3.21,3.21,0,0,1-2.44,1.77,4.8,4.8,0,0,1-2.78-.34,6,6,0,0,1-2.35-1.79c-2.16,2.1-3.83,3.83-5,5.21a16,16,0,0,0-2.45,3.54,4.58,4.58,0,0,0-.45,2.73S272.64,138.19,272.52,138.21Zm7.42-14.3a4.07,4.07,0,0,0,1.38,2.72,4,4,0,0,0,3,.35q4.21-.78,3.57-4.32a3.94,3.94,0,0,0-.35-1.15.92.92,0,0,0-.65-.47,3.86,3.86,0,0,0-1.42.08l-5.75,1A11.19,11.19,0,0,0,279.94,123.91Z"/>
      <path class="cls-1" d="M289.09,137.85a6.12,6.12,0,0,0-3.27-1.21s-.06-.06-.07-.16,0-.17.06-.17l2.78.16c1.15.05,2,.07,2.58,0,.1,0,.15.05.15.16s0,.16-.14.17c-.43,0-.63.55-.58,1.62,0,1.67.06,3.65.15,5.93.05,1.17.11,2.39.2,3.69l.12,2a5.52,5.52,0,0,0,.21,1.57.9.9,0,0,0,.61.64.16.16,0,0,1,.13.17c0,.1,0,.15-.11.16-.58,0-1.45-.06-2.61-.07s-2.11,0-2.83,0c-.05,0-.07-.06-.07-.17s0-.18.05-.18a5.13,5.13,0,0,0,3.2-1.08,3.75,3.75,0,0,0,.81-2.87,10.35,10.35,0,0,0-.19-1.89,1.06,1.06,0,0,0-.54-.74,2.92,2.92,0,0,0-1.3-.16l-13.61.55a3.19,3.19,0,0,0-1.32.26,1.1,1.1,0,0,0-.53.82,8.16,8.16,0,0,0-.08,1.87c0,.06-.05.09-.17.09s-.18,0-.18-.08q0-1,0-1.56l-.07-2.31-.12-2.21q0-.58-.09-1.62s.06-.06.18-.07.17,0,.17.05a8.37,8.37,0,0,0,.23,1.86,1.16,1.16,0,0,0,.6.79,3,3,0,0,0,1.33.16l13.67-.55a2.71,2.71,0,0,0,1.27-.26,1,1,0,0,0,.44-.78,10.71,10.71,0,0,0,0-1.9A3.72,3.72,0,0,0,289.09,137.85Z"/>
      <path class="cls-1" d="M287.56,179.22c0-.05.07-.07.19-.05s.17.06.16.12l-.26,1.24q-.25,1-.36,1.65c-.06.33-.13.81-.21,1.43l-.19,1.23s-.07,0-.19,0-.17-.06-.16-.09c.28-1.55-.52-2.5-2.42-2.85l-8.26-1.52a7.21,7.21,0,0,1-4.87-2.82,6.86,6.86,0,0,1-1-5.34,8.24,8.24,0,0,1,1.54-3.61,6.13,6.13,0,0,1,2.86-2.06,7.32,7.32,0,0,1,3.81-.21l9.3,1.71a3.82,3.82,0,0,0,1.31.06,1.08,1.08,0,0,0,.69-.58A5.8,5.8,0,0,0,290,166s.07,0,.19,0,.17.05.16.09l-.29,1.42c-.18.8-.33,1.46-.42,2s-.2,1.23-.32,2.05l-.22,1.4s-.07.07-.19,0-.17-.06-.16-.12a5.66,5.66,0,0,0,.12-1.63,1.09,1.09,0,0,0-.47-.81,3.92,3.92,0,0,0-1.26-.41l-8.22-1.51a8,8,0,0,0-5.51.6,5.49,5.49,0,0,0-2.61,4,5.26,5.26,0,0,0,.89,4.37,6.78,6.78,0,0,0,4.29,2.29l8.28,1.52Q287.1,181.76,287.56,179.22Z"/>
      <path class="cls-1" d="M278.43,208.49c-.11,0-.16-.09-.14-.15a2.2,2.2,0,0,0,0-1.92,3.55,3.55,0,0,0-1.88-1.3l-14.61-5.41s0-.07,0-.17.05-.16.1-.18l20.16-7,.37-.15-12.31-4.55a3.51,3.51,0,0,0-2.25-.26,2.21,2.21,0,0,0-1.24,1.42c0,.06-.08.06-.19,0s-.16-.09-.14-.14c.17-.46.31-.81.42-1l.54-1.38.5-1.42a12.06,12.06,0,0,1,.39-1.15s.07,0,.19,0,.16.08.14.11a2.22,2.22,0,0,0,0,1.93,3.61,3.61,0,0,0,1.88,1.26l13,4.8a3.42,3.42,0,0,0,1.8-1.82c0-.05.09-.06.2,0s.16.09.14.15l-.41,1c-.1.22-.22.52-.37.91s-.26.74-.34,1-.14.47-.19.62a.47.47,0,0,1-.22.28,2.82,2.82,0,0,1-.55.17,10.75,10.75,0,0,0-1.16.32l-17.06,5.81,11.5,4.26a3.73,3.73,0,0,0,2.26.29,2.06,2.06,0,0,0,1.24-1.39s.07,0,.18,0,.16.08.15.12l-.43,1.07c-.24.54-.43,1-.56,1.33s-.27.8-.45,1.41l-.4,1.15C278.6,208.52,278.54,208.53,278.43,208.49Z"/>
      <path class="cls-1" d="M258.75,208.66a1,1,0,0,0-.84.35,6.44,6.44,0,0,0-.89,1.38c0,.05-.1.05-.2,0s-.14-.11-.11-.16c.27-.52.5-.94.68-1.24l1-1.84.93-1.82c.14-.32.36-.76.64-1.3,0-.05.1-.05.2,0s.15.11.12.16a6.86,6.86,0,0,0-.64,1.52,1,1,0,0,0,.19.9,3.54,3.54,0,0,0,1.07.78L273,213.75a3.3,3.3,0,0,0,1.24.44,1.14,1.14,0,0,0,.84-.36,6.22,6.22,0,0,0,.91-1.38s.09,0,.19,0,.15.1.12.16l-.7,1.27c-.42.71-.76,1.3-1,1.77s-.59,1.16-.94,1.91l-.62,1.25c0,.05-.09.05-.2,0s-.14-.11-.11-.16a5.72,5.72,0,0,0,.59-1.51,1.14,1.14,0,0,0-.21-.9,3.38,3.38,0,0,0-1.07-.79L260,209.11A3.7,3.7,0,0,0,258.75,208.66Z"/>
      <path class="cls-1" d="M259.91,238.55c-.1-.07-.13-.13-.1-.18a2.92,2.92,0,0,0,.56-1.73,4,4,0,0,0-.77-2l-9.36-14.15c-.05-.06,0-.17.09-.34a.4.4,0,0,1,.28-.19L267.94,223a4.32,4.32,0,0,0,1.94.06,2.16,2.16,0,0,0,1.22-.92c0-.05.1,0,.19,0s.13.12.1.17l-.66.91q-.53.65-.81,1.05c-.45.65-.92,1.36-1.4,2.13l-.67,1c0,.05-.1,0-.19,0s-.13-.12-.1-.17a3.23,3.23,0,0,0,.59-1.27.83.83,0,0,0-.39-.83,2.68,2.68,0,0,0-.93-.32l-14.64-2.64,7.91,12a3,3,0,0,0,.67.75,1,1,0,0,0,1.07.06,3.93,3.93,0,0,0,1.24-1.27s.1,0,.19,0,.13.13.1.18l-.75,1c-.41.53-.78,1-1.09,1.47s-.49.73-.75,1.18l-.68,1C260.07,238.62,260,238.61,259.91,238.55Z"/>
      <path class="cls-1" d="M238.22,241.49a.41.41,0,0,1-.14.1.11.11,0,0,1-.11,0,27.17,27.17,0,0,0-2.66-2.87.53.53,0,0,1-.18-.31.54.54,0,0,1,.18-.34l8.49-9s.08,0,.17.08.11.13.09.16a6,6,0,0,0-1,1.3,1.05,1.05,0,0,0-.07.91,3.47,3.47,0,0,0,.83,1l10,9.37a3.3,3.3,0,0,0,1.08.76,1.09,1.09,0,0,0,.9-.13,5.43,5.43,0,0,0,1.24-1.08s.09,0,.18.08.11.13.08.17l-8.14,8.64a.22.22,0,0,1-.37,0L246,247.93s0-.1,0-.18.11-.11.17-.08a3.64,3.64,0,0,0,2.42,1,3.06,3.06,0,0,0,2.2-1.06l1.23-1.31a5.2,5.2,0,0,0,.93-1.22,1.09,1.09,0,0,0,0-.88,2.86,2.86,0,0,0-.74-1L248,239.11l-2.47,2.63a3.32,3.32,0,0,0-1.05,1.79,2,2,0,0,0,.75,1.54s0,.08-.08.17-.13.11-.16.08l-1.72-1.66c-.42-.39-.74-.68-1-.87l-1.06-.95s0-.08.08-.17.14-.11.17-.09a2.37,2.37,0,0,0,1.79.82,3.22,3.22,0,0,0,1.86-1.15l2.4-2.56L242.57,234a3.09,3.09,0,0,0-1-.7,1,1,0,0,0-.84.1,5.28,5.28,0,0,0-1.12,1L238,236.13a3.13,3.13,0,0,0-.89,2.41,5.35,5.35,0,0,0,1.16,2.83S238.27,241.44,238.22,241.49Z"/>
      <path class="cls-1" d="M217.85,252.68q-.1-.15-.06-.18l3-2.36c.39-.3,1.63-.21,3.74.28s4.84,1.32,8.22,2.49a5.52,5.52,0,0,1,1.13-1.14A11.88,11.88,0,0,1,235,251l-4.35-5.53a3.62,3.62,0,0,0-1-.93,1,1,0,0,0-.89,0,6.18,6.18,0,0,0-1.39.89s-.1,0-.17-.08-.09-.16,0-.19c.48-.38.86-.67,1.15-.88l1.62-1.23,1.56-1.27c.27-.24.65-.55,1.17-1,0,0,.08,0,.15.11s.1.15.07.17a6.52,6.52,0,0,0-1.21,1.15,1.21,1.21,0,0,0-.22.91,3,3,0,0,0,.65,1.15L240.55,255a3.22,3.22,0,0,0,.95.91,1.13,1.13,0,0,0,.92,0,6,6,0,0,0,1.39-.89s.1,0,.17.09.09.16,0,.19l-1.15.87c-.68.49-1.21.88-1.62,1.2s-.53.43-.77.64l-.61.56a15.11,15.11,0,0,1-1.3,1.13,6.06,6.06,0,0,1-3.5,1.52,3.2,3.2,0,0,1-2.7-1.33,4.79,4.79,0,0,1-1-2.61,6,6,0,0,1,.49-2.92q-4.29-1.4-6.95-2a16.26,16.26,0,0,0-4.28-.51,4.45,4.45,0,0,0-2.61.88S217.92,252.77,217.85,252.68Zm16.11-.13a4.13,4.13,0,0,0-1.76,2.5,4,4,0,0,0,1.1,2.83q2.65,3.38,5.49,1.14a4.28,4.28,0,0,0,.86-.84.93.93,0,0,0,.1-.8,3.84,3.84,0,0,0-.72-1.21l-3.63-4.6A12,12,0,0,0,234,252.55Z"/>
      <path class="cls-1" d="M220.51,265.69a5.5,5.5,0,0,0-1.9-.55c-.65-.06-1.55-.1-2.68-.13s-2.14-.05-2.84-.12a5.44,5.44,0,0,1-2.06-.62,4.27,4.27,0,0,1-1.68-1.67,4.69,4.69,0,0,1,.2-5.2,7.44,7.44,0,0,1,2.5-2.24,8.58,8.58,0,0,1,4.12-1.21.41.41,0,0,1,.27.08,1.73,1.73,0,0,1,.24.27l2.37,3.28c0,.06,0,.12-.05.19s-.15.08-.2,0a8.57,8.57,0,0,0-3.37-2.27,4.27,4.27,0,0,0-3.73.39,3.89,3.89,0,0,0-1.74,2,3.1,3.1,0,0,0,.43,2.74,4.24,4.24,0,0,0,1.67,1.69,5.49,5.49,0,0,0,2.05.67,24.62,24.62,0,0,0,2.73.13c1.11,0,2,.07,2.67.15a5.27,5.27,0,0,1,2,.66,4.25,4.25,0,0,1,1.6,1.63,4.08,4.08,0,0,1,.6,2.58,4.78,4.78,0,0,1-1,2.38,6.82,6.82,0,0,1-2.05,1.79,8.89,8.89,0,0,1-3.34,1.14.53.53,0,0,1-.63-.21l-1.9-2.83c0-.07,0-.13.07-.18a.16.16,0,0,1,.21,0,6,6,0,0,0,2.54,1.82,3.55,3.55,0,0,0,3.24-.37,3,3,0,0,0,1.64-2.07,3.53,3.53,0,0,0-.5-2.47A3.64,3.64,0,0,0,220.51,265.69Z"/>
      <path class="cls-1" d="M200.31,262.83a1,1,0,0,0-.87-.23,6.08,6.08,0,0,0-1.55.55s-.11,0-.16-.13,0-.17,0-.2c.54-.24,1-.43,1.3-.56l1.92-.85,1.84-.87c.32-.17.75-.38,1.31-.63,0,0,.11,0,.15.13s.05.17,0,.19a6.54,6.54,0,0,0-1.43.82,1,1,0,0,0-.41.82,3.6,3.6,0,0,0,.37,1.27l5.69,12.45a3.45,3.45,0,0,0,.72,1.1,1.12,1.12,0,0,0,.88.23,6.27,6.27,0,0,0,1.56-.54c.06,0,.11,0,.16.13s0,.17,0,.19l-1.33.58c-.77.31-1.4.57-1.88.79s-1.17.56-1.91.94l-1.25.61s-.1,0-.15-.13-.05-.17,0-.2a5.17,5.17,0,0,0,1.38-.83,1.12,1.12,0,0,0,.4-.84,3.49,3.49,0,0,0-.38-1.28L201,264A3.49,3.49,0,0,0,200.31,262.83Z"/>
      <path class="cls-1" d="M198.84,280.78a6.15,6.15,0,0,0,.3-3.48s0-.07.14-.1.15,0,.17,0c.14.69.34,1.6.59,2.72s.47,1.95.65,2.49c0,.1,0,.16-.11.19a.13.13,0,0,1-.2-.09c-.13-.41-.71-.45-1.72-.13q-2.41.69-5.68,1.73c-1.1.36-2.27.75-3.5,1.19l-1.9.64a6.22,6.22,0,0,0-1.46.63.88.88,0,0,0-.45.76.17.17,0,0,1-.14.17c-.09,0-.15,0-.17-.07-.12-.56-.33-1.4-.63-2.53s-.56-2-.78-2.72q0-.06.15-.12c.11,0,.17,0,.18,0a5.1,5.1,0,0,0,1.9,2.79,3.69,3.69,0,0,0,3,0,12.55,12.55,0,0,0,1.77-.69,1,1,0,0,0,.57-.72,2.8,2.8,0,0,0-.2-1.3l-4.16-13a3.13,3.13,0,0,0-.61-1.2,1.11,1.11,0,0,0-.93-.29,8.73,8.73,0,0,0-1.82.43c-.05,0-.1,0-.14-.14s0-.18,0-.2q.93-.3,1.5-.45l2.21-.68,2.1-.7c.37-.14.88-.32,1.54-.53,0,0,.07,0,.11.15s0,.18,0,.19a8.67,8.67,0,0,0-1.72.71,1.14,1.14,0,0,0-.6.8,3.07,3.07,0,0,0,.19,1.32l4.19,13a2.71,2.71,0,0,0,.59,1.16,1,1,0,0,0,.87.21,10.84,10.84,0,0,0,1.84-.47A3.72,3.72,0,0,0,198.84,280.78Z"/>
      <path class="cls-1" d="M163.08,290.47c0-.12,0-.18,0-.19a3.71,3.71,0,0,0,2-1.11,7.47,7.47,0,0,0,1.58-2.42l3-6.64-1.06-6.62a3.92,3.92,0,0,0-.38-1.29,1,1,0,0,0-.78-.44,6.09,6.09,0,0,0-1.64.11c-.06,0-.1,0-.12-.16s0-.18.06-.19c.61-.1,1.07-.16,1.41-.19l2-.3,2-.35c.35-.08.82-.17,1.43-.26.06,0,.09,0,.11.16s0,.18-.06.19a6.61,6.61,0,0,0-1.59.4,1,1,0,0,0-.61.69,3.26,3.26,0,0,0,0,1.32l1,6.16,6,6.31a6.29,6.29,0,0,0,1.83,1.54,3,3,0,0,0,1.78.22c.05,0,.09,0,.11.16s0,.18-.06.19c-.23,0-.59.07-1.06.11l-1,.14c-.66.1-1.49.25-2.5.46l-1.57.28s-.06-.05-.08-.17,0-.18,0-.18c1-.17,1.48-.45,1.42-.86a1.36,1.36,0,0,0-.41-.68l-5.8-6.14-2.69,6a3.41,3.41,0,0,0-.36,1.82c.11.7.69,1,1.74.8,0,0,.07.05.09.17s0,.18,0,.18l-1.38.19c-.75.08-1.43.17-2,.27-.33.05-.73.14-1.19.25l-1.08.2S163.1,290.59,163.08,290.47Z"/>
    </g>
    <path class="cls-1" d="M150,300C67.29,300,0,232.71,0,150S67.29,0,150,0,300,67.29,300,150,232.71,300,150,300ZM150,2.06C68.43,2.06,2.06,68.43,2.06,150S68.43,297.94,150,297.94,297.94,231.57,297.94,150,231.57,2.06,150,2.06Z"/>
    <g>
      <path class="cls-1" d="M127.93,286.21l2.21-13.86a7.63,7.63,0,0,0-5.21,1.25,6.53,6.53,0,0,0-2.59,4.54,7.06,7.06,0,0,0,.93,5.13A7.18,7.18,0,0,0,127.93,286.21Z"/>
      <path class="cls-1" d="M42.51,225.23a12.78,12.78,0,0,0,1.72,1.93L50.07,223a1.93,1.93,0,0,0,.92-1.31,3.34,3.34,0,0,0-.86-2,4.68,4.68,0,0,0-2.87-2.19,4.73,4.73,0,0,0-3.37,1.1,5.18,5.18,0,0,0-2.42,3.17A4.69,4.69,0,0,0,42.51,225.23Z"/>
      <path class="cls-1" d="M150,34.08V1A149,149,0,0,0,150,299V265.92a115.92,115.92,0,0,1,0-231.84ZM105.07,15.15l1.06-.25c.2,0,.47-.09.81-.17s.63-.18.87-.26l.55-.17a.82.82,0,0,1,.68.12,6,6,0,0,1,1,1l9.83,11.82,2.6-15.82c.09-.53.31-.84.67-.94l.43-.08a7.34,7.34,0,0,0,.73-.15l1.34-.38c.21-.07.52-.16.94-.27.06,0,.1,0,.13.15s0,.18,0,.2a3.87,3.87,0,0,0-1.94.93,1.77,1.77,0,0,0-.19,1.71l4,13.11a3.6,3.6,0,0,0,.54,1.23,1,1,0,0,0,.81.37,5.92,5.92,0,0,0,1.62-.26s.1,0,.12.15,0,.18,0,.2q-.88.22-1.41.33l-2,.48-1.82.49q-.45.15-1.29.36s-.07,0-.1-.15,0-.18,0-.19a4.88,4.88,0,0,0,1.4-.53,1,1,0,0,0,.49-.72,3.41,3.41,0,0,0-.22-1.28l-3.85-12.89-2.65,16.81a.25.25,0,0,1-.2.17.34.34,0,0,1-.29-.05L108.8,17.09l2.82,12.11a3.32,3.32,0,0,0,1.07,2,2.52,2.52,0,0,0,2.08.14s.07,0,.1.15,0,.18,0,.19c-.54.14-1,.23-1.24.29l-1.55.36-1.49.41c-.26.09-.64.2-1.13.33,0,0-.07-.05-.1-.16s0-.18,0-.19a2.17,2.17,0,0,0,1.57-1.09,3.64,3.64,0,0,0,0-2.27L107.79,16a2.86,2.86,0,0,0-2.64-.54s-.07,0-.1-.16S105,15.16,105.07,15.15ZM87.3,22.88l10.86-4.82a.23.23,0,0,1,.35.13l1.53,3.3c0,.06,0,.11-.1.16s-.15.05-.19,0a3.63,3.63,0,0,0-1.85-1.84,3,3,0,0,0-2.43.13l-1.65.73a5.45,5.45,0,0,0-1.33.76,1.13,1.13,0,0,0-.39.79,2.9,2.9,0,0,0,.31,1.17l2.44,5.49,3.29-1.47a3.3,3.3,0,0,0,1.66-1.25,1.91,1.91,0,0,0-.1-1.71s0-.08.14-.12.17-.06.19,0l.94,2.2c.24.52.42.91.56,1.17l.6,1.29s0,.08-.14.12-.17.06-.18,0a2.4,2.4,0,0,0-1.34-1.44,3.17,3.17,0,0,0-2.16.34L95.1,29.44l2.76,6.21a3.05,3.05,0,0,0,.65,1,1,1,0,0,0,.81.22,5.16,5.16,0,0,0,1.41-.47l2.16-1a3.12,3.12,0,0,0,1.76-1.87,5.44,5.44,0,0,0,0-3.06s0-.07.08-.1a.53.53,0,0,1,.16,0,.12.12,0,0,1,.11.05,27.24,27.24,0,0,0,1.34,3.67.48.48,0,0,1,0,.36.49.49,0,0,1-.29.24l-11.32,5s-.07,0-.12-.14-.06-.17,0-.18a6.56,6.56,0,0,0,1.44-.81,1,1,0,0,0,.41-.81,3.43,3.43,0,0,0-.36-1.28L90.6,24a3.25,3.25,0,0,0-.71-1.11,1.09,1.09,0,0,0-.88-.24,6,6,0,0,0-1.56.52s-.08,0-.13-.14S87.27,22.9,87.3,22.88ZM68.7,33.05a.13.13,0,0,1,.21,0c.23.37.8.27,1.7-.3q2.17-1.26,5.07-3.08c1-.62,2-1.29,3.1-2l1.69-1.09a6.21,6.21,0,0,0,1.26-1,.9.9,0,0,0,.25-.85.15.15,0,0,1,.08-.19c.09-.06.15-.05.19,0,.25.51.67,1.28,1.23,2.29s1,1.84,1.44,2.45c0,0,0,.08-.12.15s-.16.08-.18,0A5.15,5.15,0,0,0,82.1,27.3a3.73,3.73,0,0,0-2.9.72,11.28,11.28,0,0,0-1.54,1.11,1,1,0,0,0-.38.83,3,3,0,0,0,.51,1.22L85,42.71a3,3,0,0,0,.88,1,1.11,1.11,0,0,0,1,.05,8.74,8.74,0,0,0,1.66-.87s.1,0,.17.11.07.16,0,.19c-.55.35-1,.62-1.34.81l-2,1.2-1.86,1.21c-.33.22-.78.52-1.37.89,0,0-.08,0-.14-.12S82,47,82,47a8.69,8.69,0,0,0,1.49-1.11,1.16,1.16,0,0,0,.38-.92,2.81,2.81,0,0,0-.51-1.23L76.11,32.16a3,3,0,0,0-.86-1,1,1,0,0,0-.9,0,11.6,11.6,0,0,0-1.66.92,3.75,3.75,0,0,0-1.86,2.29,6.17,6.17,0,0,0,.57,3.44s0,.08-.1.13-.15.07-.17,0c-.31-.64-.73-1.47-1.25-2.49s-.94-1.77-1.24-2.26Q68.55,33.14,68.7,33.05ZM8.8,142.32c0-.11.06-.16.16-.15.43.05.7-.46.81-1.52q.35-2.49.69-5.9c.12-1.16.23-2.38.32-3.68l.17-2a6.07,6.07,0,0,0,0-1.59.93.93,0,0,0-.52-.72.16.16,0,0,1-.1-.19c0-.1.05-.14.13-.13.56.11,1.42.26,2.57.44s2.09.3,2.81.37c0,0,.05.07,0,.19s0,.17-.07.17a5,5,0,0,0-3.32.61A3.69,3.69,0,0,0,11.3,131a10.55,10.55,0,0,0-.08,1.89,1,1,0,0,0,.42.81,2.84,2.84,0,0,0,1.28.34l13.55,1.38a3,3,0,0,0,1.34-.07,1.11,1.11,0,0,0,.64-.73,8.54,8.54,0,0,0,.34-1.84c0-.06.06-.08.18-.07s.17.05.17.11c-.07.64-.13,1.16-.19,1.55l-.26,2.29-.2,2.21c0,.39-.06.93-.13,1.62,0,0-.07.05-.19,0s-.17,0-.17-.08a8,8,0,0,0,0-1.86,1.15,1.15,0,0,0-.48-.87,2.93,2.93,0,0,0-1.29-.36l-13.61-1.38a2.78,2.78,0,0,0-1.3.07,1,1,0,0,0-.55.72,12.8,12.8,0,0,0-.29,1.87,3.75,3.75,0,0,0,.65,2.87,6.22,6.22,0,0,0,3.07,1.67s.06.06,0,.16,0,.16-.07.16l-2.74-.55c-1.12-.21-2-.35-2.54-.4C8.83,142.49,8.79,142.43,8.8,142.32ZM25,120.77a.46.46,0,0,1,.35-.08.48.48,0,0,1,.31.23l3.17,6s0,0,0,.07-.05.07-.1.1a.17.17,0,0,1-.14,0L25,122.63l-5.28,2.53s-.09,0-.13-.11,0-.12,0-.13Zm-4.46-.23L26,116.38a.45.45,0,0,1,.35-.07.47.47,0,0,1,.31.22l3.17,6.06s0,0,0,.06,0,.07-.1.1a.12.12,0,0,1-.14,0l-3.66-4.5-5.28,2.52s-.09,0-.13-.1S20.48,120.55,20.54,120.54Zm-3,30.1c.05,0,.08,0,.1,0l4.64,3.53,4.52-3.67s.1,0,.17.07.07.11,0,.13L22.62,156a.45.45,0,0,1-.35.12.49.49,0,0,1-.33-.11l-4.48-5.16s0,0,0-.06A.15.15,0,0,1,17.5,150.64Zm-.11-4.31c-.06,0-.06-.1,0-.17s.11-.08.14,0l4.64,3.53L26.69,146h0a.21.21,0,0,1,.15.07.1.1,0,0,1,0,.14l-4.32,5.3a.46.46,0,0,1-.35.12.49.49,0,0,1-.33-.11Zm-3.77,39.3c-.1,0-.16,0-.18-.13a.14.14,0,0,1,.11-.19c.43-.09.53-.65.31-1.69-.28-1.65-.66-3.6-1.13-5.83-.24-1.14-.51-2.34-.82-3.61l-.44-2a6.16,6.16,0,0,0-.47-1.51.9.9,0,0,0-.72-.53q-.12,0-.15-.15c0-.1,0-.15.09-.17q.85-.09,2.58-.36c1.15-.18,2.08-.35,2.79-.5,0,0,.07.05.1.16s0,.18,0,.19a5,5,0,0,0-3,1.59,3.69,3.69,0,0,0-.32,3,10.76,10.76,0,0,0,.5,1.82,1,1,0,0,0,.65.65,3,3,0,0,0,1.31-.06l13.33-2.8a3.23,3.23,0,0,0,1.26-.48,1.15,1.15,0,0,0,.39-.9,9.13,9.13,0,0,0-.24-1.85q0-.09.15-.12c.12,0,.18,0,.2.05.13.64.23,1.15.29,1.54l.44,2.26.49,2.16q.15.57.36,1.59s0,.07-.16.09-.18,0-.18,0a8.45,8.45,0,0,0-.53-1.79,1.18,1.18,0,0,0-.73-.68,3.12,3.12,0,0,0-1.34,0l-13.38,2.82a2.85,2.85,0,0,0-1.22.46,1,1,0,0,0-.3.85,12.06,12.06,0,0,0,.28,1.88,3.76,3.76,0,0,0,1.5,2.53,6.16,6.16,0,0,0,3.43.66s.07,0,.09.14,0,.17,0,.18c-.71.06-1.63.17-2.77.31S14.18,185.51,13.62,185.63Zm111.76,86.84a12.4,12.4,0,0,1,4.82-.5l.2-1.25a2,2,0,0,0-.07-1.09,1.43,1.43,0,0,0-.83-.7,8.52,8.52,0,0,0-2-.5s-.07-.07,0-.19,0-.17.11-.16c.7.11,1.25.21,1.66.29l2.5.43,2.4.36c.43,0,1,.13,1.73.24.05,0,.08.07.06.19s-.06.17-.12.16a9.25,9.25,0,0,0-2-.15,1.56,1.56,0,0,0-1,.41,1.93,1.93,0,0,0-.41,1l-.19,1.2a11.29,11.29,0,0,1,4.54,1.83,7.62,7.62,0,0,1,2.63,3.09,6.51,6.51,0,0,1,.48,3.75,6.13,6.13,0,0,1-1.81,3.57,8.12,8.12,0,0,1-3.61,2,13.66,13.66,0,0,1-4.56.39l-.12.76a2.36,2.36,0,0,0,.05,1.25,1.38,1.38,0,0,0,.82.69,11.26,11.26,0,0,0,2,.47c.06,0,.08.07.06.17s-.05.16-.11.15c-.72-.11-1.29-.21-1.72-.3l-2.38-.41-2.55-.38c-.41,0-1-.12-1.63-.23-.06,0-.08-.07-.07-.17s.06-.16.12-.15a8.93,8.93,0,0,0,2,.16,1.37,1.37,0,0,0,1-.42,2.46,2.46,0,0,0,.45-1.19l.1-.64a11.55,11.55,0,0,1-4.65-1.89,7.82,7.82,0,0,1-2.64-3.15,6.32,6.32,0,0,1-.48-3.62,6,6,0,0,1,1.69-3.32A8.74,8.74,0,0,1,125.38,272.47Zm-24-10.73c0-.11.1-.15.17-.13.36.12.9.33,1.63.62s1.27.49,1.61.6.94.3,1.59.48,1.07.3,1.39.4c.07,0,.09.1,0,.21s-.09.16-.17.13a4.38,4.38,0,0,0-1.58-.31.72.72,0,0,0-.7.5,3.57,3.57,0,0,0,0,1.33l.9,7.95,5.29,1.79,4.33-4.9a4.49,4.49,0,0,0,.93-1.43q.55-1.65-2.19-2.58c-.09,0-.12-.1-.08-.22s.1-.15.2-.12c.33.12.81.3,1.43.55s1.31.5,1.83.68,1,.34,1.7.51l1.42.42c.09,0,.12.11.08.22s-.1.15-.2.12a2.89,2.89,0,0,0-1.42-.16,3.11,3.11,0,0,0-1.39.69,13.74,13.74,0,0,0-1.8,1.77L105.72,282.8a.23.23,0,0,1-.23,0c-.09,0-.14-.08-.14-.14l-1.9-16.15a11.63,11.63,0,0,0-.68-3.33,2.22,2.22,0,0,0-1.35-1.25C101.34,261.92,101.33,261.85,101.36,261.74ZM88,264.89a5.77,5.77,0,0,1-.46-1.37c-.11-.54-.24-1.41-.38-2.6l-.1-.76c-.2-1.58-.39-2.81-.56-3.69a7.5,7.5,0,0,0-.83-2.27,4.19,4.19,0,0,0-1.57-1.53s0-.08,0-.18.1-.15.13-.13l3.28,1.76a1.23,1.23,0,0,1,.54.54,6.19,6.19,0,0,1,.34,1.51c.12.78.31,2.23.55,4.35.2,1.67.37,2.84.5,3.52a4.27,4.27,0,0,0,.63,1.63,4.21,4.21,0,0,0,1.46,1.16,1.39,1.39,0,0,0,.35.16l3.25-6.07a3.34,3.34,0,0,0,.45-1.25,1,1,0,0,0-.35-.84,6.54,6.54,0,0,0-1.4-.92s0-.08,0-.18.1-.15.14-.13c.54.29,1,.52,1.26.71l1.86,1,1.79.92c.32.15.76.38,1.31.67,0,0,0,.08,0,.19s-.1.14-.14.13a6.49,6.49,0,0,0-1.52-.66,1,1,0,0,0-.91.17,3.38,3.38,0,0,0-.8,1.07l-6.46,12.05a3.66,3.66,0,0,0-.46,1.23,1.1,1.1,0,0,0,.36.85,6.08,6.08,0,0,0,1.38.92s0,.08,0,.19-.1.14-.14.12l-1.26-.71c-.71-.42-1.29-.75-1.74-1s-1.15-.59-1.93-1l-1.27-.65s0-.08,0-.18.1-.15.13-.13a5.58,5.58,0,0,0,1.54.62A1.13,1.13,0,0,0,88,274a3.47,3.47,0,0,0,.79-1.06l2.94-5.5-1.77-.88-.49-.27L83.93,269a5.92,5.92,0,0,0-2.38,1.62.58.58,0,0,0,.06.66,2.75,2.75,0,0,0,.92.7s0,.08,0,.18-.1.15-.14.13l-1.1-.63c-.64-.38-1.25-.73-1.82-1s-1.21-.62-1.85-.92l-1-.48c-.06,0,0-.1,0-.2s.11-.14.16-.11a5,5,0,0,0,2.75.62A10.24,10.24,0,0,0,83,268.46l5.88-2.58A3,3,0,0,1,88,264.89ZM77.49,247.41a2.42,2.42,0,0,1,1.56.55,2.61,2.61,0,0,1,.93,1.21,1.28,1.28,0,0,1-1,1.74,1.19,1.19,0,0,1-.93-.27,1,1,0,0,1-.44-.68,2.56,2.56,0,0,1,.07-.89,2.26,2.26,0,0,0,.08-.56.43.43,0,0,0-.18-.33c-.31-.24-.83-.15-1.54.27l-2.14,1.16-2.07,13.45a6.38,6.38,0,0,0-.06,2,2,2,0,0,0,.84,1.21s0,.09-.06.18-.12.13-.15.11l-.93-.74c-.44-.39-.83-.71-1.16-1-.58-.44-1.21-.89-1.9-1.36l-1-.69s0-.1,0-.2.13-.12.18-.08c1,.77,1.72.9,2.12.38a1.94,1.94,0,0,0,.29-.82l1.72-11.37-9.57,5.13a2.54,2.54,0,0,0-.74.59.9.9,0,0,0-.07,1,4.16,4.16,0,0,0,1.23,1.26c.05,0,0,.11,0,.2s-.13.12-.17.09l-.95-.76c-.51-.43-1-.82-1.42-1.15-.27-.2-.61-.43-1-.69l-.93-.67s0-.08.06-.18.12-.12.15-.1a2.33,2.33,0,0,0,1.53.43,4.33,4.33,0,0,0,1.91-.57l13.87-7.39A4,4,0,0,1,77.49,247.41ZM56,227.5c.09-.08.15-.1.19-.06.42.44.75.8,1,1.07L58.55,230,60,231.49c.26.24.6.58,1,1,0,0,0,.1-.07.18s-.15.1-.19.06a6.75,6.75,0,0,0-1.26-1.1,1,1,0,0,0-.91-.11,3.37,3.37,0,0,0-1.08.77l-9.78,9.39a4.6,4.6,0,0,0-.88,1,.66.66,0,0,0,.07.67,10.5,10.5,0,0,0,1.1,1.28l1,1.09a4.59,4.59,0,0,0,1,.85,1,1,0,0,0,.91,0,4,4,0,0,0,1.24-.9,41.56,41.56,0,0,1,5.24-4.19,20.58,20.58,0,0,1,6.06-2.94q3-.85,4.67.9a1.77,1.77,0,0,1,.53.94.92.92,0,0,1-.32.86c-.45.44-1,.35-1.56-.26l-.43-.45c-.78-.81-2-1-3.58-.6a18.3,18.3,0,0,0-5.18,2.39,32.36,32.36,0,0,0-4.94,3.86,2.91,2.91,0,0,0-1,1.81,3.23,3.23,0,0,0,1.16,2.12s0,.11-.07.19-.15.1-.19.06l-9.77-10.19s0-.11.06-.19.15-.1.19-.06a6,6,0,0,0,1.27,1.08,1.12,1.12,0,0,0,.91.13,3.24,3.24,0,0,0,1.07-.77L56.23,231a3.41,3.41,0,0,0,.82-1A1,1,0,0,0,57,229a6.88,6.88,0,0,0-1-1.29C55.89,227.64,55.91,227.58,56,227.5Zm-8.14-10.72a6.51,6.51,0,0,1,2.37,2.12c.3.42.63.93,1,1.55l.56.89c.23.35.49.74.79,1.16l1.15,1.57c.23.3.53.71.91,1.24,0,0,0,.08-.11.15s-.16.09-.18,0a7.85,7.85,0,0,0-1.11-1.26,1.1,1.1,0,0,0-.88-.26,3,3,0,0,0-1.18.58L40,232.48a3.19,3.19,0,0,0-1,.91,1,1,0,0,0,0,.9,7.48,7.48,0,0,0,.8,1.44c0,.05,0,.11-.09.17s-.16.08-.19,0l-.8-1.17c-.42-.67-.79-1.22-1.11-1.67s-.77-1.05-1.3-1.73l-.86-1.16s0-.09.11-.16.16-.08.18,0a7.12,7.12,0,0,0,1.12,1.27,1,1,0,0,0,.89.26,3.5,3.5,0,0,0,1.2-.62l4.83-3.42A16.48,16.48,0,0,1,41.6,225,7.39,7.39,0,0,1,40,220.75a4.27,4.27,0,0,1,2.13-3.43,5.9,5.9,0,0,1,2.87-1.1A5,5,0,0,1,47.85,216.78Zm-6.54-11.46a8.59,8.59,0,0,0-.76-1.71c0-.05,0-.11.12-.16s.17-.06.2,0c.3.57.54,1,.71,1.39l1.07,2,1.07,1.94c.21.34.47.81.8,1.42,0,0,0,.08-.13.13s-.17.07-.19,0a8.24,8.24,0,0,0-1-1.57,1.18,1.18,0,0,0-.89-.44,2.91,2.91,0,0,0-1.26.43l-12,6.47a2.83,2.83,0,0,0-1,.79,1,1,0,0,0-.05.9,11.1,11.1,0,0,0,.8,1.71,3.77,3.77,0,0,0,2.16,2,6.17,6.17,0,0,0,3.47-.34s.08,0,.13.11.06.16,0,.17l-2.57,1.08c-1.05.46-1.83.82-2.34,1.09-.08.05-.15,0-.2-.07s0-.17.05-.22q.57-.3-.18-1.71-1.11-2.25-2.73-5.27c-.55-1-1.15-2.1-1.8-3.23l-1-1.76a6.16,6.16,0,0,0-.88-1.32.87.87,0,0,0-.83-.3c-.08,0-.14,0-.19-.11a.12.12,0,0,1,0-.18c.54-.22,1.33-.58,2.38-1.08s1.9-.91,2.54-1.26c0,0,.08,0,.14.13s.06.17,0,.18A5.09,5.09,0,0,0,24.54,209a3.73,3.73,0,0,0,.53,2.94,10.6,10.6,0,0,0,1,1.61,1,1,0,0,0,.8.44,3,3,0,0,0,1.25-.44l12-6.44a3.24,3.24,0,0,0,1.08-.81A1.16,1.16,0,0,0,41.31,205.32Zm-3.48-8.17s0,.07-.15.11-.17,0-.18,0a6.3,6.3,0,0,0-.71-1.49,1,1,0,0,0-.78-.47,3.47,3.47,0,0,0-1.3.27l-12.85,4.7a3.35,3.35,0,0,0-1.16.62,1.11,1.11,0,0,0-.29.87,5.57,5.57,0,0,0,.41,1.59s0,.08-.15.12-.17,0-.19,0l-4.07-11.15a.23.23,0,0,1,.16-.34L20,190.68c.06,0,.1,0,.15.11s0,.15,0,.19a3.65,3.65,0,0,0-2,1.72,3.07,3.07,0,0,0,0,2.44l.62,1.69a5.45,5.45,0,0,0,.68,1.38,1.12,1.12,0,0,0,.76.44,2.91,2.91,0,0,0,1.19-.23L27,196.36,25.74,193a3.4,3.4,0,0,0-1.14-1.74,1.91,1.91,0,0,0-1.71,0s-.07,0-.12-.15,0-.17,0-.19l2.26-.79c.53-.2.94-.35,1.21-.47l1.32-.52s.08,0,.12.15,0,.17,0,.19a2.36,2.36,0,0,0-1.53,1.23,3.21,3.21,0,0,0,.2,2.18l1.21,3.3,6.38-2.33a3.24,3.24,0,0,0,1.08-.58,1,1,0,0,0,.27-.8,5.19,5.19,0,0,0-.37-1.44l-.81-2.22a3.11,3.11,0,0,0-1.75-1.87,5.42,5.42,0,0,0-3.05-.24s-.07,0-.09-.09a.51.51,0,0,1,0-.17.1.1,0,0,1,.06-.1A27.43,27.43,0,0,0,33,185.23a.46.46,0,0,1,.36,0,.49.49,0,0,1,.22.31Zm4.75-94.89a1.3,1.3,0,0,1-.21.35c-.09.09-.16.13-.24.09l-24-10.33c-.13-.06-.12-.27,0-.63s.28-.49.41-.43l24,10.34c.07,0,.1.1.09.23A1.13,1.13,0,0,1,42.58,102.26ZM51.07,77a7.45,7.45,0,0,1-1.32,3.09,8.58,8.58,0,0,1-3.21,2.85.49.49,0,0,1-.28,0,2.24,2.24,0,0,1-.34-.14l-3.52-2c-.08,0-.1-.09,0-.19s.11-.13.18-.11a8.37,8.37,0,0,0,4,.63,4.22,4.22,0,0,0,3.2-1.94,3.87,3.87,0,0,0,.74-2.52,3.12,3.12,0,0,0-1.55-2.3,4.33,4.33,0,0,0-2.23-.82,5.61,5.61,0,0,0-2.14.27,25.09,25.09,0,0,0-2.53,1,26.73,26.73,0,0,1-2.48,1,5.46,5.46,0,0,1-2.07.24,4.23,4.23,0,0,1-2.14-.79,4.11,4.11,0,0,1-1.64-2.08,4.76,4.76,0,0,1-.14-2.57,7.26,7.26,0,0,1,1.09-2.49,9,9,0,0,1,2.55-2.45.53.53,0,0,1,.66-.08l2.92,1.76c.06,0,.07.11,0,.19a.16.16,0,0,1-.19.08,6.09,6.09,0,0,0-3.07-.57,3.57,3.57,0,0,0-2.78,1.71,3.08,3.08,0,0,0-.61,2.58,3.51,3.51,0,0,0,1.5,2,3.61,3.61,0,0,0,2,.68,5.32,5.32,0,0,0,1.95-.31c.62-.22,1.44-.56,2.48-1s1.95-.86,2.62-1.1a5.53,5.53,0,0,1,2.13-.31,4.24,4.24,0,0,1,2.23.8,4.73,4.73,0,0,1,2,4.79ZM62.35,64c-.41.45-.73.8-1,1L60,66.49,58.61,68c-.22.27-.54.64-1,1.09,0,0-.1,0-.19-.06s-.11-.14-.07-.18a6.21,6.21,0,0,0,1-1.31,1.07,1.07,0,0,0,.06-.92,3.58,3.58,0,0,0-.85-1L53,61.42l-8.61-1.2a6.07,6.07,0,0,0-2.39,0,2.9,2.9,0,0,0-1.52.92s-.11,0-.19-.05-.12-.14-.08-.18.42-.43.76-.75l.72-.75c.45-.49,1-1.13,1.67-1.91l1-1.21s.08,0,.17.08.12.13.09.16q-1,1.14-.57,1.56a1.37,1.37,0,0,0,.74.28l8.36,1.17L51.53,53.1a3.51,3.51,0,0,0-.85-1.65c-.53-.48-1.15-.32-1.86.46,0,0-.08,0-.17-.07s-.12-.13-.09-.16l.95-1c.53-.53,1-1,1.44-1.49.22-.25.48-.56.77-.94l.71-.83s.09,0,.17.08.12.13.1.16a3.77,3.77,0,0,0-.88,2.13,7.5,7.5,0,0,0,.28,2.88l1.83,7,5,4.52A3.69,3.69,0,0,0,60,65a1,1,0,0,0,.88-.13,6.49,6.49,0,0,0,1.21-1.12s.11,0,.19.06S62.39,63.91,62.35,64Zm5.22-6.34a1.49,1.49,0,0,1-.29-.23L64.4,54.55c-.06,0-.06-.11,0-.2s.14-.1.21-.05A8.55,8.55,0,0,0,68.32,56a4.25,4.25,0,0,0,3.6-1,3.89,3.89,0,0,0,1.39-2.23,3.1,3.1,0,0,0-.88-2.63,4.45,4.45,0,0,0-1.93-1.39,5.7,5.7,0,0,0-2.14-.31,22.45,22.45,0,0,0-2.71.33A25.29,25.29,0,0,1,63,49a5.51,5.51,0,0,1-2.06-.32,4.21,4.21,0,0,1-1.85-1.34,4,4,0,0,1-1-2.43,4.77,4.77,0,0,1,.56-2.52,6.92,6.92,0,0,1,1.72-2.11,8.86,8.86,0,0,1,3.1-1.68.54.54,0,0,1,.66.1l2.35,2.47c0,.06,0,.13,0,.19s-.15.07-.21,0A6.13,6.13,0,0,0,63.38,40a3.58,3.58,0,0,0-3.13.91A3,3,0,0,0,59,43.28a3.5,3.5,0,0,0,.9,2.34A3.59,3.59,0,0,0,61.6,46.8a5.32,5.32,0,0,0,2,.22c.65-.05,1.53-.15,2.66-.32s2.11-.31,2.82-.36a5.63,5.63,0,0,1,2.13.27A4.22,4.22,0,0,1,73.12,48a4.75,4.75,0,0,1,1.11,2.42,4.84,4.84,0,0,1-.43,2.73,7.53,7.53,0,0,1-2.1,2.63,8.57,8.57,0,0,1-3.85,1.88A.41.41,0,0,1,67.57,57.61Z"/>
      <polygon class="cls-1" points="111.05 275.81 106.29 274.2 107.01 280.37 111.05 275.81"/>
      <path class="cls-1" d="M135.05,285.21a6.66,6.66,0,0,0,2.46-4.44,7.18,7.18,0,0,0-.94-5.13,7.07,7.07,0,0,0-4.53-3l-2.21,13.86A7.5,7.5,0,0,0,135.05,285.21Z"/>
    </g>
    <path class="cls-1" d="M220.24,97.56s-1.28-.91-6,4.39c-7.63,8.57-38.07-5-63.82-13.68-.29-3-.5-11.66,6.43-14.83a14.08,14.08,0,0,1,10-.33l-2.95-15.55a17.62,17.62,0,0,0-15.09,5.89c-5.85,6.84-4.68,18.14-3.83,23-12.65-4-23.59-6.14-29.2-3-4.49,2.65-8.08,8.23-10.44,12.61-8.35,16.82-.89,26.64,17.63,20.94l4.19-1.11c-18.61,16-32.88,36.88-34.71,61.43C90.26,206.26,110.26,217.62,132,233c11.73,8.3,17.63,12.75,17.63,12.75s0-12.43.05-29.9l10.72-10.73-10.7-10.69c0-34.8.05-76.36-.07-87.29,10.39,2.32,39.72,14.84,50,14.91-2.11,5.81.67,13.38,8.16,11.68C189.51,130.17,220.24,97.56,220.24,97.56ZM126,114.84c-6.23,2.8-23.87,7-22.57-7.65,1.43-16,28.82-4.8,40.2-1.83C137.18,107.89,132.91,112.41,126,114.84Zm-23.37,48.72c1.47-14.39,7.72-27.59,17.64-38.58-5.31,12.36-1.79,23.75,3.75,36.59,3.52,9.06,6.77,16.33,8.81,25.79,1.76,8.73-1.53,19.52-12.34,18.3C109.72,194.14,102.79,179.94,102.65,163.56Zm43.68,30.94-10.61,10.61,10.43,10.44c0,3.26-.05,5.83-.07,7.52a90.5,90.5,0,0,1-23.81-15.87c26.6-4.23,25.18-28.95,20.25-44.54-5.47-17.31-12.59-24.65-10.81-36.54.77-5.16,4.31-12.42,14.37-20.32C146.72,120.46,146.55,164.21,146.33,194.5Z"/>
  </g>
</svg>
