<?xml version="1.0" encoding="UTF-8"?>
<svg id="_Слой_1" data-name="Слой 1" xmlns="http://www.w3.org/2000/svg" viewBox="0 0 220.22 311.08">
  <defs>
    <style>
      .cls-1 {
        fill: #f2f5fa;
      }
    </style>
  </defs>
  <g>
    <path class="cls-1" d="M84.42,277.19c0,.44-.11,.66-.33,.66-2.27,0-4.06-.04-5.37-.11l-7.35-.11-6.8,.11c-1.1,.07-2.63,.11-4.6,.11-.15,0-.22-.22-.22-.66s.07-.66,.22-.66c2.56,0,4.44-.2,5.65-.6,1.21-.4,2.01-1.11,2.41-2.14,.4-1.02,.53-2.63,.38-4.82l-1.86-50.98-25.65,59.09c-.15,.29-.44,.44-.88,.44-.37,0-.7-.15-.99-.44l-26.75-58.65-.11-.22-.88,48.24c-.07,3.8,.55,6.43,1.86,7.89,1.32,1.46,3.76,2.19,7.35,2.19,.15,0,.22,.22,.22,.66s-.07,.66-.22,.66c-2.05,0-3.62-.04-4.71-.11l-5.92-.11-5.37,.11c-.95,.07-2.38,.11-4.28,.11-.15,0-.22-.22-.22-.66s.07-.66,.22-.66c3.07,0,5.24-.75,6.52-2.25,1.28-1.5,1.95-4.11,2.03-7.84l1.1-51.97c-2.27-2.56-5.23-3.84-8.88-3.84-.15,0-.22-.22-.22-.66s.07-.66,.22-.66l3.73,.11c.73,.07,1.68,.11,2.85,.11s2.15-.04,2.96-.11c.8-.07,1.43-.11,1.86-.11,1.02,0,1.83,.35,2.41,1.04,.58,.7,1.46,2.25,2.63,4.66l24.67,53.28,24.56-56.24c.36-.8,.86-1.46,1.48-1.97,.62-.51,1.22-.77,1.81-.77,.29,0,.77,.04,1.43,.11,.66,.07,1.57,.11,2.74,.11l4.93-.11c.73-.07,1.86-.11,3.4-.11,.15,0,.22,.22,.22,.66s-.07,.66-.22,.66c-3.8,0-6.49,.49-8.06,1.48-1.57,.99-2.32,2.94-2.25,5.87l2.08,50.98c.07,2.27,.35,3.91,.82,4.93,.47,1.02,1.39,1.72,2.74,2.08,1.35,.37,3.45,.55,6.3,.55,.22,0,.33,.22,.33,.66Z"/>
    <path class="cls-1" d="M136.22,244.85c3.51,3.44,5.26,7.67,5.26,12.72,0,3.95-.91,7.49-2.74,10.63-1.83,3.14-4.35,5.61-7.56,7.4-3.22,1.79-6.76,2.69-10.63,2.69-2.49,0-5.12-.11-7.89-.33-1.02-.07-2.23-.15-3.62-.22-1.39-.07-2.96-.11-4.71-.11l-7.24,.11c-1.32,.07-3.14,.11-5.48,.11-.15,0-.22-.22-.22-.66s.07-.66,.22-.66c2.92,0,5.06-.18,6.41-.55,1.35-.37,2.28-1.08,2.8-2.14,.51-1.06,.77-2.69,.77-4.88v-50.76c0-2.19-.24-3.8-.71-4.82-.48-1.02-1.39-1.74-2.74-2.14-1.35-.4-3.45-.6-6.3-.6-.22,0-.33-.22-.33-.66s.11-.66,.33-.66l5.26,.11c2.92,.15,5.33,.22,7.24,.22,1.32,0,2.56-.04,3.73-.11,1.17-.07,2.19-.15,3.07-.22,2.26-.22,4.28-.33,6.03-.33,6.07,0,10.54,1.37,13.43,4.11,2.89,2.74,4.33,6.23,4.33,10.47,0,3.58-1.13,6.71-3.4,9.37-2.27,2.67-5.3,4.73-9.1,6.19,5.7,.37,10.31,2.27,13.81,5.7Zm-26.09-33.99c-.95,.29-1.66,.99-2.14,2.08-.48,1.1-.71,2.92-.71,5.48v20.83l5.15,.11c5.77,0,9.98-1.37,12.61-4.11,2.63-2.74,3.95-6.38,3.95-10.91,0-4.09-1.15-7.44-3.45-10.03-2.3-2.59-5.94-3.89-10.91-3.89-2.05,0-3.55,.15-4.5,.44Zm20.99,61.45c2.67-2.81,4-6.81,4-12,0-5.55-1.7-10.07-5.1-13.54-3.4-3.47-7.99-5.24-13.76-5.32-2.71-.07-5.7,0-8.99,.22v27.3c0,1.97,.31,3.49,.93,4.55,.62,1.06,1.77,1.83,3.45,2.3,1.68,.48,4.13,.71,7.35,.71,5.41,0,9.45-1.41,12.11-4.22Z"/>
    <path class="cls-1" d="M220.22,277.19c0,.44-.15,.66-.44,.66-1.32,0-3.44-.07-6.36-.22-2.78-.15-4.82-.22-6.14-.22-1.53,0-3.55,.07-6.03,.22-2.34,.15-4.09,.22-5.26,.22-.29,0-.44-.22-.44-.66s.15-.66,.44-.66c3,0,5.15-.27,6.47-.82s1.97-1.48,1.97-2.8c0-1.02-.4-2.45-1.21-4.28l-13.05-27.96h-20.94l-9.87,23.68c-1.02,2.49-1.53,4.53-1.53,6.14,0,2.12,.88,3.66,2.63,4.6,1.75,.95,4.49,1.43,8.22,1.43,.37,0,.55,.22,.55,.66s-.18,.66-.55,.66c-1.32,0-3.22-.07-5.7-.22-2.78-.15-5.19-.22-7.24-.22-1.83,0-3.98,.07-6.47,.22-2.19,.15-3.98,.22-5.37,.22-.36,0-.55-.22-.55-.66s.18-.66,.55-.66c2.05,0,3.78-.37,5.21-1.1,1.43-.73,2.78-2.04,4.06-3.95,1.28-1.9,2.65-4.6,4.11-8.11l22.91-55.15c.15-.22,.38-.33,.71-.33s.53,.11,.6,.33l25.44,54.6c1.68,3.73,3.18,6.56,4.49,8.5,1.32,1.94,2.61,3.29,3.89,4.06,1.28,.77,2.76,1.15,4.44,1.15,.29,0,.44,.22,.44,.66Zm-50.1-38.59h19.19l-10.2-21.71-8.99,21.71Z"/>
    <path class="cls-1" d="M8.32,306.85h-.95v-5.49c0-1.21-.21-2.12-.63-2.73-.42-.61-1.03-.92-1.82-.92-.52,0-1.04,.13-1.56,.4-.52,.27-.97,.63-1.35,1.09-.38,.46-.65,.98-.82,1.56v6.09H.24v-13.87h.95v6.38c.41-.77,.97-1.38,1.69-1.84s1.49-.68,2.3-.68c.56,0,1.03,.1,1.43,.3,.39,.2,.72,.49,.97,.87,.25,.38,.44,.83,.56,1.36,.12,.53,.18,1.14,.18,1.82v5.66Z"/>
    <path class="cls-1" d="M12.27,304.01c0-.59,.18-1.11,.53-1.54s.84-.78,1.46-1.02c.62-.25,1.34-.37,2.15-.37,.51,0,1.03,.04,1.58,.13,.54,.09,1.03,.21,1.46,.36v-.93c0-.91-.26-1.63-.79-2.17-.53-.54-1.25-.81-2.18-.81-.49,0-1.01,.1-1.54,.3-.53,.2-1.08,.49-1.63,.87l-.4-.68c.65-.43,1.27-.76,1.87-.98,.6-.22,1.2-.33,1.8-.33,1.18,0,2.11,.35,2.79,1.04,.68,.69,1.03,1.64,1.03,2.84v4.88c0,.15,.03,.26,.1,.34,.07,.08,.17,.12,.31,.13v.78c-.11,.01-.21,.02-.28,.02h-.19c-.24-.04-.43-.14-.56-.3-.13-.16-.21-.35-.22-.55v-.78c-.46,.57-1.04,1.01-1.76,1.33-.72,.32-1.47,.48-2.25,.48-.62,0-1.18-.13-1.68-.4-.5-.27-.89-.63-1.18-1.09-.28-.46-.43-.98-.43-1.54Zm6.8,.81c.13-.16,.22-.32,.29-.47s.1-.29,.1-.42v-1.63c-.46-.18-.93-.31-1.43-.4-.49-.09-1-.13-1.52-.13-.99,0-1.79,.2-2.4,.59-.61,.39-.92,.92-.92,1.59,0,.42,.11,.8,.32,1.15s.52,.64,.9,.85c.39,.21,.83,.32,1.34,.32,.71,0,1.36-.13,1.97-.41s1.05-.62,1.36-1.05Z"/>
    <path class="cls-1" d="M25.19,294.72v-1.75h.95v1.75h-.95Zm0,12.12v-9.88h.95v9.88h-.95Z"/>
    <path class="cls-1" d="M35.7,297.82c-.89,.03-1.66,.29-2.33,.79s-1.13,1.19-1.4,2.06v6.17h-.95v-9.86h.91v2.41c.34-.7,.8-1.26,1.37-1.7,.57-.44,1.17-.69,1.8-.75,.13-.01,.24-.02,.34-.02h.25v.89Z"/>
    <path class="cls-1" d="M49.93,307.04c-.7,0-1.34-.14-1.94-.41-.6-.27-1.11-.64-1.55-1.12-.44-.47-.78-1.02-1.03-1.65-.25-.62-.37-1.28-.37-1.98,0-.93,.21-1.78,.63-2.54s.99-1.37,1.73-1.83c.73-.46,1.56-.69,2.47-.69s1.77,.23,2.49,.7c.72,.47,1.3,1.08,1.72,1.85s.64,1.6,.64,2.51v.23c0,.08,0,.14-.02,.19h-8.66c.05,.74,.26,1.42,.63,2.02,.37,.61,.84,1.08,1.42,1.43,.58,.35,1.21,.52,1.89,.52s1.33-.18,1.94-.53c.61-.35,1.03-.81,1.27-1.37l.84,.23c-.19,.47-.49,.89-.9,1.25-.41,.37-.89,.66-1.44,.87-.55,.21-1.13,.31-1.74,.31Zm-3.93-5.47h7.81c-.05-.77-.25-1.45-.61-2.04-.35-.59-.82-1.06-1.4-1.4-.58-.34-1.21-.51-1.91-.51s-1.33,.17-1.9,.51c-.57,.34-1.03,.81-1.39,1.4s-.56,1.27-.61,2.04Z"/>
    <path class="cls-1" d="M58.27,296.99l3.15,4.08,.15,.27,.15-.27,3.14-4.08h1.1l-3.84,4.95,3.82,4.91h-1.1l-3.12-4.06-.15-.25-.15,.25-3.14,4.06h-1.08l3.8-4.91-3.82-4.95h1.08Z"/>
    <path class="cls-1" d="M74.5,307.04c-.85,0-1.61-.22-2.27-.67-.67-.45-1.2-.99-1.61-1.64v6.17h-.95v-13.91h.87v1.99c.41-.63,.94-1.15,1.62-1.54,.67-.4,1.38-.6,2.13-.6,.7,0,1.33,.14,1.9,.43s1.07,.67,1.49,1.15c.42,.49,.75,1.03,.99,1.64s.35,1.24,.35,1.89c0,.91-.19,1.75-.57,2.53-.38,.78-.91,1.4-1.59,1.86-.68,.47-1.47,.7-2.37,.7Zm-.23-.86c.58,0,1.1-.12,1.57-.36,.46-.24,.86-.56,1.19-.96,.33-.4,.58-.86,.76-1.36,.18-.5,.27-1.02,.27-1.55,0-.57-.1-1.11-.3-1.62-.2-.51-.48-.96-.85-1.35-.36-.39-.78-.7-1.25-.94s-.99-.35-1.55-.35c-.34,0-.71,.07-1.09,.21s-.75,.33-1.1,.59c-.35,.25-.64,.54-.86,.86s-.37,.65-.42,.99v3.24c.23,.48,.52,.92,.88,1.31s.78,.71,1.26,.95c.48,.23,.98,.35,1.5,.35Z"/>
    <path class="cls-1" d="M87.4,307.04c-.7,0-1.34-.14-1.94-.41-.6-.27-1.11-.64-1.55-1.12-.44-.47-.78-1.02-1.03-1.65-.25-.62-.37-1.28-.37-1.98,0-.93,.21-1.78,.63-2.54s.99-1.37,1.73-1.83c.73-.46,1.56-.69,2.47-.69s1.77,.23,2.49,.7c.72,.47,1.3,1.08,1.72,1.85s.64,1.6,.64,2.51v.23c0,.08,0,.14-.02,.19h-8.66c.05,.74,.26,1.42,.63,2.02,.37,.61,.84,1.08,1.42,1.43,.58,.35,1.21,.52,1.89,.52s1.33-.18,1.94-.53c.61-.35,1.03-.81,1.27-1.37l.84,.23c-.19,.47-.49,.89-.9,1.25-.41,.37-.89,.66-1.44,.87-.55,.21-1.13,.31-1.74,.31Zm-3.93-5.47h7.81c-.05-.77-.25-1.45-.61-2.04-.35-.59-.82-1.06-1.4-1.4-.58-.34-1.21-.51-1.91-.51s-1.33,.17-1.9,.51c-.57,.34-1.03,.81-1.39,1.4s-.56,1.27-.61,2.04Z"/>
    <path class="cls-1" d="M100.85,297.82c-.89,.03-1.66,.29-2.33,.79s-1.13,1.19-1.4,2.06v6.17h-.95v-9.86h.91v2.41c.34-.7,.8-1.26,1.37-1.7,.57-.44,1.17-.69,1.8-.75,.13-.01,.24-.02,.34-.02h.25v.89Z"/>
    <path class="cls-1" d="M108.96,306.45c-.06,.03-.19,.09-.38,.19-.19,.1-.43,.19-.72,.28-.29,.08-.61,.12-.97,.12s-.66-.07-.96-.2c-.3-.13-.54-.33-.71-.6-.18-.27-.27-.59-.27-.98v-7.49h-1.39v-.78h1.39v-3.38h.95v3.38h2.3v.78h-2.3v7.27c.03,.37,.16,.65,.4,.83,.24,.19,.52,.28,.84,.28,.39,0,.73-.07,1.03-.2s.46-.22,.51-.26l.29,.76Z"/>
    <path class="cls-1" d="M119.22,302.68v-5.69h.95v5.56c0,1.23,.21,2.14,.62,2.74s1.04,.9,1.87,.9c.56,0,1.09-.12,1.61-.37,.51-.25,.97-.59,1.36-1.04,.39-.45,.68-.97,.87-1.56v-6.22h.95v8.61c0,.15,.04,.27,.1,.34,.07,.08,.17,.12,.29,.13v.78c-.13,.01-.23,.02-.29,.02s-.13,0-.18-.02c-.22-.03-.39-.12-.53-.28-.14-.16-.22-.35-.23-.58l-.02-1.48c-.43,.78-1.02,1.4-1.78,1.85-.75,.45-1.57,.67-2.44,.67-1.04,0-1.82-.37-2.36-1.1-.53-.73-.8-1.82-.8-3.26Z"/>
    <path class="cls-1" d="M140.44,306.85h-.95v-5.49c0-1.26-.18-2.19-.54-2.77-.36-.59-.93-.88-1.72-.88-.56,0-1.11,.13-1.64,.4-.54,.27-1.01,.63-1.41,1.09-.4,.46-.69,.98-.86,1.56v6.09h-.95v-9.86h.89v2.37c.27-.5,.62-.94,1.06-1.32,.44-.37,.94-.67,1.48-.88,.54-.21,1.11-.32,1.69-.32,.54,0,1,.1,1.38,.29s.68,.48,.91,.84c.23,.37,.4,.82,.5,1.36,.1,.54,.15,1.16,.15,1.86v5.66Z"/>
    <path class="cls-1" d="M145.21,294.72v-1.75h.95v1.75h-.95Zm0,12.12v-9.88h.95v9.88h-.95Z"/>
    <path class="cls-1" d="M154.08,306.85l-4.12-9.86h1.01l3.63,8.86,3.65-8.86h.95l-4.12,9.86h-.99Z"/>
    <path class="cls-1" d="M166.83,307.04c-.7,0-1.34-.14-1.94-.41-.6-.27-1.11-.64-1.55-1.12-.44-.47-.78-1.02-1.03-1.65-.25-.62-.37-1.28-.37-1.98,0-.93,.21-1.78,.63-2.54s.99-1.37,1.73-1.83c.73-.46,1.56-.69,2.47-.69s1.77,.23,2.49,.7c.72,.47,1.3,1.08,1.72,1.85s.64,1.6,.64,2.51v.23c0,.08,0,.14-.02,.19h-8.66c.05,.74,.26,1.42,.63,2.02,.37,.61,.84,1.08,1.42,1.43,.58,.35,1.21,.52,1.89,.52s1.33-.18,1.94-.53c.61-.35,1.03-.81,1.27-1.37l.84,.23c-.19,.47-.49,.89-.9,1.25-.41,.37-.89,.66-1.44,.87-.55,.21-1.13,.31-1.74,.31Zm-3.93-5.47h7.81c-.05-.77-.25-1.45-.61-2.04-.35-.59-.82-1.06-1.4-1.4-.58-.34-1.21-.51-1.91-.51s-1.33,.17-1.9,.51c-.57,.34-1.03,.81-1.39,1.4s-.56,1.27-.61,2.04Z"/>
    <path class="cls-1" d="M180.29,297.82c-.89,.03-1.66,.29-2.33,.79s-1.13,1.19-1.4,2.06v6.17h-.95v-9.86h.91v2.41c.34-.7,.8-1.26,1.37-1.7,.57-.44,1.17-.69,1.8-.75,.13-.01,.24-.02,.34-.02h.25v.89Z"/>
    <path class="cls-1" d="M187.11,307.04c-.79,0-1.51-.13-2.19-.4s-1.26-.67-1.77-1.22l.44-.67c.54,.52,1.1,.9,1.65,1.13,.56,.24,1.17,.35,1.82,.35,.85,0,1.54-.18,2.06-.53,.53-.35,.79-.84,.79-1.47,0-.43-.12-.76-.37-.99s-.6-.42-1.06-.57c-.46-.15-1.02-.3-1.68-.46-.67-.18-1.24-.36-1.7-.55s-.81-.44-1.04-.74-.34-.71-.34-1.23c0-.64,.16-1.18,.48-1.6,.32-.42,.76-.74,1.31-.95,.55-.21,1.16-.31,1.83-.31,.77,0,1.45,.13,2.02,.38,.58,.25,1.02,.59,1.32,1.01l-.51,.61c-.32-.41-.73-.71-1.23-.9-.51-.2-1.06-.29-1.67-.29-.46,0-.89,.06-1.29,.19-.41,.13-.73,.33-.98,.61-.25,.28-.37,.67-.37,1.15,0,.38,.09,.67,.28,.89,.18,.21,.46,.39,.83,.52,.37,.13,.82,.27,1.37,.42,.77,.19,1.44,.39,1.99,.59,.56,.2,.99,.46,1.29,.79,.3,.32,.46,.77,.46,1.35,0,.9-.34,1.6-1.03,2.12-.68,.52-1.59,.78-2.72,.78Z"/>
    <path class="cls-1" d="M194.99,294.72v-1.75h.95v1.75h-.95Zm0,12.12v-9.88h.95v9.88h-.95Z"/>
    <path class="cls-1" d="M205.23,306.45c-.06,.03-.19,.09-.38,.19-.19,.1-.43,.19-.72,.28-.29,.08-.61,.12-.97,.12s-.66-.07-.96-.2c-.3-.13-.54-.33-.71-.6-.18-.27-.27-.59-.27-.98v-7.49h-1.39v-.78h1.39v-3.38h.95v3.38h2.3v.78h-2.3v7.27c.03,.37,.16,.65,.4,.83,.24,.19,.52,.28,.84,.28,.39,0,.73-.07,1.03-.2s.46-.22,.51-.26l.29,.76Z"/>
    <path class="cls-1" d="M209.47,310.19c.2,.01,.38,.02,.54,0,.16,0,.28-.04,.35-.09,.11-.04,.23-.14,.35-.29,.12-.16,.28-.47,.48-.93,.2-.46,.49-1.14,.85-2.04l-4.41-9.87h1.01l3.91,8.86,3.63-8.86h.97l-5.42,12.98c-.08,.2-.18,.38-.31,.54-.13,.16-.29,.28-.48,.38-.19,.09-.42,.15-.68,.16-.11,.01-.23,.02-.36,.03-.13,0-.27,0-.44,0v-.87Z"/>
  </g>
  <path class="cls-1" d="M109.98,185.08l-.85-.61c-12.33-8.95-42.67-32.69-57.92-59.78-14.91-26.49-13.27-81.06-11.88-103.3l.09-1.45,1.45,.1c2.64,.19,5.27,.19,7.38,.19,3.69,0,7.86-.14,12.5-.4,20.42-1.18,36.67-11.73,45.4-17.4l.15-.09c.96-.62,2.01-1.31,2.92-1.87l.76-.47,.76,.47c.95,.59,2.07,1.32,3.06,1.96,8.74,5.67,24.99,16.21,45.41,17.4,4.63,.27,8.81,.4,12.41,.4,2.27,0,4.83,0,7.47-.19l1.45-.11,.09,1.45c1.39,22.24,3.03,76.83-11.87,103.3-15.25,27.09-45.59,50.83-57.93,59.78l-.85,.61ZM42.13,23c-1.36,22.81-2.63,74.99,11.6,100.27,14.64,26,43.59,48.97,56.26,58.25,12.67-9.27,41.62-32.24,56.26-58.25,14.22-25.25,12.95-77.45,11.59-100.27-2.24,.11-4.42,.11-6.23,.11-3.65,0-7.88-.14-12.57-.41-21.18-1.23-37.84-12.04-46.8-17.85-.73-.47-1.52-.99-2.26-1.46-.69,.44-1.43,.92-2.11,1.36l-.14,.09c-8.96,5.81-25.62,16.63-46.81,17.86-4.69,.27-8.92,.41-12.57,.41-1.85,0-4,0-6.23-.11Z"/>
  <path class="cls-1" d="M109.98,177.16s0,0,0,0v-57.12c1.34-1.56,2.73-3.59,4.15-6.1,1.53-2.71,2.84-5.9,3.91-9.47,0-.03,.02-.06,.03-.09l-.02,5.6c0,8.02,.79,18.81,7.65,19.93,.23,.04,.45,.06,.67,.06,.65,0,1.23-.16,1.76-.49,.35-.22,.83-.6,2.44-2.55,1.05-1.27,2.44-3.12,4.18-5.53,1.49-2.2,2.76-4.92,3.76-8.09,.21-.67,.4-1.34,.57-2.01,.1,7.83,1.16,17.55,7.65,18.61,.23,.04,.45,.06,.67,.06,.64,0,1.23-.16,1.76-.49,.35-.22,.83-.6,2.44-2.55,1.05-1.27,2.44-3.12,4.18-5.53,1.49-2.2,2.76-4.92,3.76-8.09,1.01-3.18,1.52-6.34,1.52-9.38,0-4.9-1.37-8.76-4.08-11.47-.36-.36-.85-.56-1.35-.56-.19,0-.38,.03-.57,.09-.68,.21-1.18,.78-1.31,1.48l-.22,1.21c-.11,.6,.08,1.22,.5,1.66,1.4,1.46,2.11,3.97,2.11,7.48,0,2.08-.31,4.2-.91,6.29-.6,2.05-1.39,3.82-2.36,5.25-.19,.25-.35,.43-.48,.57-.13-.51-.29-1.37-.41-2.76-.25-2.89-.38-7-.38-12.21l.06-11.27h20.91c.79-5.44,1.41-11.33,1.85-17.7,1.14-16.87,.76-33.48,.15-45.39-1.05,.01-2.04,.01-2.92,.01-3.72,0-8.02-.14-12.77-.42-22.11-1.28-39.28-12.42-48.5-18.41l-.2-.13c-.05-.03-.1-.07-.16-.1V45.69c-.93,1.45-1.73,3.37-2.43,5.88-.46,1.63-.77,3.52-.93,5.64-.68-1.8-1.5-3.53-2.45-5.19-3.32-5.78-7.91-9.9-13.65-12.26-3.81-1.55-7.64-2.34-11.4-2.34-4.52,0-8.63,1.11-12.22,3.31-3.59,2.19-6.4,5.23-8.35,9.01-1.93,3.74-2.91,7.9-2.91,12.38,0,3.76,.64,7.22,1.9,10.3,1.36,3.32,3.22,5.52,5.49,6.52,1.76,.8,3.84,1.4,6.2,1.8,2.28,.38,4.54,.59,6.72,.63,2.06,.04,3.29,.06,3.64,.06h.02c10.57,.32,12.78,3.15,12.78,5.47,0,.32-.13,1.07-1.01,2.43-.09,.14-.21,.27-.33,.4H47.41c1.79,12.26,4.71,23.61,9.36,31.86,13.64,24.23,40.36,46,53.21,55.61Zm29.11-79.53c-.68-2.04-1.73-3.77-3.15-5.19-.36-.36-.85-.56-1.35-.56-.19,0-.38,.03-.57,.09-.68,.21-1.18,.78-1.31,1.48l-.22,1.21c-.11,.6,.08,1.22,.5,1.66,1.4,1.46,2.11,3.97,2.11,7.48,0,2.08-.31,4.2-.91,6.29-.6,2.05-1.39,3.82-2.36,5.25-.19,.25-.35,.43-.48,.57-.13-.51-.29-1.37-.41-2.76-.25-2.89-.38-7-.38-12.2l.07-11.27h8.48l-.02,7.95Zm-76.42,10.46c1.14-1.69,2.73-2.97,4.79-3.85,.66-.37,1.39-.99,2.2-1.87,.15-.15,.53-.5,1.16-1.05,.62-.55,1.25-1.01,1.87-1.38,.62-.37,1.27-.59,1.93-.66h.88c.88,0,1.87,.11,2.97,.33,.59,.07,1.39,.11,2.42,.11,3.67,0,7.06-.86,10.18-2.59,3.12-1.72,5.7-3.89,7.76-6.49,2.05-2.6,3.41-5.19,4.07-7.76,.44-1.54,.66-3.19,.66-4.95,0-3.59-.77-7.28-2.31-11.06-1.54-3.78-3.71-7.15-6.49-10.12-2.79-2.97-6.02-5.08-9.68-6.33-3.89-1.32-7.67-1.98-11.33-1.98-4.4,0-8,1.01-10.78,3.03-2.79,2.02-4.18,5.01-4.18,8.97,0,2.5,.81,4.37,2.42,5.61,1.61,1.25,4.18,2.15,7.7,2.7,3.52,.55,8.95,1.05,16.29,1.49,2.93,.15,5.1,.68,6.49,1.6,1.39,.92,2.29,2.04,2.7,3.36,.4,1.32,.68,3.12,.83,5.39l.33,3.08c.22,1.61-.13,3.43-1.05,5.45-.92,2.02-2.29,3.65-4.13,4.9-1.03,.73-1.98,1.1-2.86,1.1-.66,0-.99-.18-.99-.55,0-.51,.77-.99,2.31-1.43,1.91-.51,3.3-1.45,4.18-2.81,.88-1.36,1.32-2.51,1.32-3.47,0-4.62-4.88-7.08-14.64-7.37-.37,0-1.6-.02-3.69-.06-2.09-.04-4.24-.24-6.44-.61-2.2-.37-4.11-.92-5.72-1.65-1.84-.81-3.34-2.64-4.51-5.5-1.17-2.86-1.76-6.05-1.76-9.57,0-4.18,.9-8.01,2.7-11.5,1.8-3.48,4.35-6.23,7.65-8.25,3.3-2.02,7.04-3.03,11.22-3.03,3.52,0,7.08,.73,10.67,2.2,5.35,2.2,9.59,6.02,12.71,11.45,3.12,5.43,4.68,11.56,4.68,18.38,0,2.05-.26,4.62-.77,7.7-.66,3.45-2.09,6.73-4.29,9.85-2.2,3.12-5.01,5.76-8.42,7.92-3.41,2.16-7.17,3.58-11.28,4.24,2.35,1.1,5.61,2.9,9.79,5.39,5.13,3.23,9.02,5.28,11.67,6.16,1.25,.44,2.31,.66,3.19,.66,.95-2.49,1.5-5.17,1.65-8.03l-2.75-6.27,2.64-6.05v-3.41c-.44-.07-.79-.22-1.05-.44-.26-.22-.38-.51-.38-.88,0-.22,.13-.44,.38-.66,.26-.22,.6-.37,1.05-.44l-.22-26.3c0-3.45,.33-6.34,.99-8.69,.66-2.35,1.41-4.16,2.26-5.45,.84-1.28,1.93-2.66,3.25-4.13,.51-.73,1.28-1.1,2.31-1.1,.44,0,.88,.11,1.32,.33l7.48,4.07c1.25,.73,2.24,1.1,2.97,1.1,.59,0,1.14-.22,1.65-.66l.66-.55c1.03-1.25,1.98-2.31,2.86-3.19,.59-.81,1.36-1.21,2.31-1.21,.44,0,.88,.15,1.32,.44l7.15,5.39c.88,.73,1.83,1.1,2.86,1.1,.73,0,1.32-.22,1.76-.66l1.32-1.21,.33,.77c-.88,1.84-1.32,5.69-1.32,11.56l-.22,42.26c0,5.28,.13,9.41,.39,12.38,.26,2.97,.75,4.57,1.49,4.79l.44,.11c.73,0,1.54-.59,2.42-1.76,1.1-1.61,1.98-3.56,2.64-5.83,.66-2.27,.99-4.55,.99-6.82,0-4.03-.88-6.97-2.64-8.8l.22-1.21c2.35,2.35,3.52,5.72,3.52,10.12,0,2.86-.48,5.8-1.43,8.8-.95,3.01-2.13,5.54-3.52,7.59-1.69,2.35-3.04,4.14-4.07,5.39-1.03,1.25-1.69,1.96-1.98,2.15-.29,.18-.66,.24-1.1,.17-4.04-.66-6.05-6.68-6.05-18.05l.11-48.09c0-1.47,.24-2.66,.72-3.58,.48-.92,1.17-1.93,2.09-3.03,.92-1.1,1.52-1.83,1.82-2.2-.66,.44-1.39,.66-2.2,.66-.95,0-1.8-.26-2.53-.77l-6.82-4.84c-.37-.29-.77-.44-1.21-.44-.59,0-1.06,.22-1.43,.66-1.1,1.32-1.82,2.86-2.15,4.62-.33,1.76-.5,4.88-.5,9.35l-.11,14.31h4.62c.88,0,1.56-.2,2.04-.61,.48-.4,.9-1.01,1.27-1.82h.66l-.66,3.52c-.29,1.83-.55,3.08-.77,3.74-.22,.66-.64,1.12-1.27,1.38-.62,.26-1.67,.39-3.14,.39h-2.75l-.11,17.72c0,5.28,.13,9.41,.39,12.38,.26,2.97,.75,4.57,1.49,4.79l.44,.11c.73,0,1.54-.59,2.42-1.76,1.1-1.61,1.98-3.56,2.64-5.83,.66-2.27,.99-4.55,.99-6.82,0-4.03-.88-6.97-2.64-8.8l.22-1.21c2.35,2.35,3.52,5.72,3.52,10.12,0,2.86-.48,5.8-1.43,8.8-.95,3.01-2.13,5.54-3.52,7.59-1.69,2.35-3.04,4.14-4.07,5.39-1.03,1.25-1.69,1.96-1.98,2.15-.29,.18-.66,.24-1.1,.17-4.04-.66-6.05-6.68-6.05-18.05l.11-26.74h-4.18c-.88,0-1.54,.18-1.98,.55-.44,.37-.84,.99-1.21,1.87h-.77c.07-.44,.24-1.47,.5-3.08,.26-1.61,.81-3.01,1.65-4.18,.84-1.17,2.04-1.76,3.58-1.76h2.42v-13.21c.37-2.49,2.27-6.16,5.72-11.01-.15,.07-.44,.11-.88,.11-.81,0-1.76-.29-2.86-.88l-7.15-3.52c-.44-.22-.88-.33-1.32-.33-.59,0-.99,.18-1.21,.55-1.91,2.06-2.86,6.2-2.86,12.44l.11,26.19c.37,.15,.7,.33,.99,.55,.29,.22,.44,.44,.44,.66,0,.66-.48,1.14-1.43,1.43v3.08l3.08,6.27-2.97,7.15c-.22,2.64-.73,4.99-1.54,7.04,1.39-.29,2.55-1.03,3.47-2.2,.92-1.17,1.74-2.51,2.48-4.02,.73-1.5,1.25-2.55,1.54-3.14l.55,.11c-1.03,3.45-2.27,6.48-3.74,9.08-1.47,2.61-2.88,4.66-4.24,6.16-1.36,1.5-2.44,2.37-3.25,2.59-.44,.15-.81,.22-1.1,.22-.22,0-.62-.07-1.21-.22-4.4,4.18-9.79,6.27-16.18,6.27-3.23,0-6.42-.51-9.57-1.54-3.3-1.03-5.83-2.53-7.59-4.51-1.76-1.98-2.64-3.96-2.64-5.94,0-1.32,.44-2.42,1.32-3.3s2.09-1.32,3.63-1.32c2.27,0,4.84,.92,7.7,2.75l-.11,.99c-3.08-1.91-5.65-2.86-7.7-2.86-1.25,0-2.22,.33-2.92,.99-.7,.66-1.04,1.54-1.04,2.64,0,1.76,.84,3.56,2.53,5.39,1.69,1.83,4.03,3.23,7.04,4.18,3.3,1.03,6.53,1.54,9.68,1.54,5.94,0,10.86-1.83,14.75-5.5-1.32-.37-2.75-.94-4.29-1.71-1.54-.77-3.48-1.85-5.83-3.25l-3.08-1.65-5.72-3.19c-2.79-1.61-4.94-2.73-6.44-3.36-1.5-.62-3.25-.94-5.23-.94-2.42,0-4.51,.68-6.27,2.04-1.76,1.36-2.64,3.1-2.64,5.23,0,2.27,1.1,4.55,3.3,6.82l-.55,.33c-2.57-2.35-3.85-5.1-3.85-8.25,0-1.98,.57-3.81,1.71-5.5Zm34.75-24.63l-.33-3.04c-.16-2.42-.46-4.32-.9-5.79-.54-1.75-1.7-3.23-3.47-4.39-1.7-1.12-4.13-1.74-7.43-1.91-7.24-.43-12.66-.93-16.11-1.47-3.19-.5-5.48-1.28-6.83-2.32-1.13-.87-1.68-2.21-1.68-4.1,0-3.34,1.11-5.77,3.39-7.42,2.44-1.77,5.69-2.66,9.67-2.66,3.44,0,7.05,.63,10.72,1.88,3.35,1.14,6.35,3.1,8.91,5.83,2.61,2.79,4.67,6,6.12,9.54,1.44,3.53,2.17,7.01,2.17,10.34,0,1.58-.2,3.06-.6,4.48-.59,2.3-1.84,4.67-3.72,7.05-.06,.07-.12,.14-.18,.21h-.83c.99-2.26,1.37-4.37,1.11-6.22Z"/>
</svg>