<?xml version="1.0" encoding="UTF-8"?>
<svg id="_Слой_1" data-name="Слой 1" xmlns="http://www.w3.org/2000/svg" viewBox="0 0 392.92 185.08">
  <defs>
    <style>
      .cls-1 {
        fill: #f2f5fa;
      }
    </style>
  </defs>
  <path class="cls-1" d="M71.52,185.08l-.85-.61c-12.33-8.95-42.67-32.69-57.92-59.78C-2.17,98.19-.53,43.62,.87,21.39l.09-1.45,1.45,.1c2.64,.19,5.27,.19,7.38,.19,3.69,0,7.86-.14,12.5-.4,20.42-1.18,36.67-11.73,45.4-17.4l.15-.09c.96-.62,2.01-1.31,2.92-1.87l.76-.47,.76,.47c.95,.59,2.07,1.32,3.06,1.96,8.74,5.67,24.99,16.21,45.41,17.4,4.63,.27,8.81,.4,12.41,.4,2.27,0,4.83,0,7.47-.19l1.45-.11,.09,1.45c1.39,22.24,3.03,76.83-11.87,103.3-15.25,27.09-45.59,50.83-57.93,59.78l-.85,.61ZM3.66,23c-1.36,22.81-2.63,74.99,11.6,100.27,14.64,26,43.59,48.97,56.26,58.25,12.67-9.27,41.62-32.24,56.26-58.25,14.22-25.25,12.95-77.45,11.59-100.27-2.24,.11-4.42,.11-6.23,.11-3.65,0-7.88-.14-12.57-.41-21.18-1.23-37.84-12.04-46.8-17.85-.73-.47-1.52-.99-2.26-1.46-.69,.44-1.43,.92-2.11,1.36l-.14,.09c-8.96,5.81-25.62,16.63-46.81,17.86-4.69,.27-8.92,.41-12.57,.41-1.85,0-4,0-6.23-.11Z"/>
  <g>
    <path class="cls-1" d="M251.85,92.65c0,.44-.11,.66-.33,.66-2.27,0-4.07-.04-5.38-.11l-7.36-.11-6.81,.11c-1.1,.07-2.64,.11-4.61,.11-.15,0-.22-.22-.22-.66s.07-.66,.22-.66c2.56,0,4.45-.2,5.66-.6,1.21-.4,2.01-1.12,2.42-2.14,.4-1.02,.53-2.64,.39-4.83l-1.87-51.09-25.71,59.22c-.15,.29-.44,.44-.88,.44-.37,0-.7-.15-.99-.44l-26.81-58.78-.11-.22-.88,48.34c-.07,3.81,.55,6.45,1.87,7.91,1.32,1.47,3.77,2.2,7.36,2.2,.15,0,.22,.22,.22,.66s-.07,.66-.22,.66c-2.05,0-3.63-.04-4.72-.11l-5.93-.11-5.38,.11c-.95,.07-2.38,.11-4.28,.11-.15,0-.22-.22-.22-.66s.07-.66,.22-.66c3.08,0,5.25-.75,6.54-2.25,1.28-1.5,1.96-4.12,2.03-7.86l1.1-52.08c-2.27-2.56-5.24-3.85-8.9-3.85-.15,0-.22-.22-.22-.66s.07-.66,.22-.66l3.74,.11c.73,.07,1.68,.11,2.86,.11s2.16-.04,2.97-.11c.8-.07,1.43-.11,1.87-.11,1.03,0,1.83,.35,2.42,1.04,.59,.7,1.46,2.25,2.64,4.67l24.72,53.39,24.61-56.36c.37-.81,.86-1.46,1.48-1.98,.62-.51,1.23-.77,1.81-.77,.29,0,.77,.04,1.43,.11,.66,.07,1.57,.11,2.75,.11l4.94-.11c.73-.07,1.87-.11,3.41-.11,.15,0,.22,.22,.22,.66s-.07,.66-.22,.66c-3.81,0-6.5,.49-8.07,1.48-1.58,.99-2.33,2.95-2.25,5.88l2.09,51.09c.07,2.27,.35,3.92,.82,4.94,.48,1.03,1.39,1.72,2.75,2.09,1.35,.37,3.46,.55,6.32,.55,.22,0,.33,.22,.33,.66Z"/>
    <path class="cls-1" d="M303.59,60.24c3.52,3.44,5.27,7.69,5.27,12.74,0,3.95-.92,7.51-2.75,10.66-1.83,3.15-4.36,5.62-7.58,7.42-3.22,1.8-6.78,2.69-10.66,2.69-2.49,0-5.13-.11-7.91-.33-1.03-.07-2.24-.15-3.63-.22-1.39-.07-2.97-.11-4.72-.11l-7.25,.11c-1.32,.07-3.15,.11-5.49,.11-.15,0-.22-.22-.22-.66s.07-.66,.22-.66c2.93,0,5.07-.18,6.43-.55,1.35-.37,2.29-1.08,2.8-2.14,.51-1.06,.77-2.69,.77-4.89V33.54c0-2.2-.24-3.81-.71-4.83-.48-1.02-1.39-1.74-2.75-2.14-1.36-.4-3.46-.6-6.32-.6-.22,0-.33-.22-.33-.66s.11-.66,.33-.66l5.27,.11c2.93,.15,5.35,.22,7.25,.22,1.32,0,2.56-.04,3.74-.11,1.17-.07,2.2-.15,3.08-.22,2.27-.22,4.28-.33,6.04-.33,6.08,0,10.56,1.37,13.46,4.12,2.89,2.75,4.34,6.25,4.34,10.49,0,3.59-1.14,6.72-3.41,9.39-2.27,2.67-5.31,4.74-9.12,6.21,5.71,.37,10.33,2.27,13.84,5.71Zm-26.15-34.06c-.95,.29-1.67,.99-2.14,2.09-.48,1.1-.71,2.93-.71,5.49v20.87l5.16,.11c5.78,0,10-1.37,12.63-4.12,2.64-2.75,3.95-6.39,3.95-10.93,0-4.1-1.15-7.45-3.46-10.05-2.31-2.6-5.95-3.9-10.93-3.9-2.05,0-3.55,.15-4.5,.44Zm21.04,61.58c2.67-2.82,4.01-6.83,4.01-12.03,0-5.57-1.7-10.09-5.11-13.57-3.41-3.48-8-5.25-13.79-5.33-2.71-.07-5.71,0-9.01,.22v27.36c0,1.98,.31,3.5,.93,4.56,.62,1.06,1.77,1.83,3.46,2.31,1.68,.48,4.14,.71,7.36,.71,5.42,0,9.47-1.41,12.14-4.23Z"/>
    <path class="cls-1" d="M391.04,92.65c0,.44-.15,.66-.44,.66-1.32,0-3.44-.07-6.37-.22-2.78-.15-4.83-.22-6.15-.22-1.54,0-3.55,.07-6.04,.22-2.34,.15-4.1,.22-5.27,.22-.29,0-.44-.22-.44-.66s.15-.66,.44-.66c3,0,5.16-.27,6.48-.82s1.98-1.48,1.98-2.8c0-1.03-.4-2.45-1.21-4.28l-13.07-28.02h-20.98l-9.89,23.73c-1.03,2.49-1.54,4.54-1.54,6.15,0,2.13,.88,3.66,2.64,4.61,1.76,.95,4.5,1.43,8.24,1.43,.37,0,.55,.22,.55,.66s-.18,.66-.55,.66c-1.32,0-3.22-.07-5.71-.22-2.78-.15-5.2-.22-7.25-.22-1.83,0-3.99,.07-6.48,.22-2.2,.15-3.99,.22-5.38,.22-.37,0-.55-.22-.55-.66s.18-.66,.55-.66c2.05,0,3.79-.37,5.22-1.1,1.43-.73,2.78-2.05,4.07-3.95,1.28-1.9,2.65-4.61,4.12-8.13l22.96-55.26c.15-.22,.38-.33,.71-.33s.53,.11,.6,.33l25.49,54.71c1.68,3.74,3.19,6.57,4.5,8.51,1.32,1.94,2.62,3.3,3.9,4.06,1.28,.77,2.76,1.15,4.45,1.15,.29,0,.44,.22,.44,.66Zm-50.21-38.67h19.23l-10.22-21.75-9.01,21.75Z"/>
    <path class="cls-1" d="M185.51,136.18h-1.28v-7.39c0-1.63-.28-2.86-.84-3.68-.56-.82-1.38-1.24-2.46-1.24-.7,0-1.4,.18-2.1,.53-.7,.36-1.3,.84-1.82,1.46-.51,.62-.88,1.32-1.1,2.1v8.21h-1.28v-18.68h1.28v8.58c.55-1.04,1.31-1.86,2.28-2.47s2-.92,3.1-.92c.75,0,1.39,.14,1.92,.41,.53,.27,.96,.66,1.31,1.17,.34,.51,.59,1.12,.75,1.84,.16,.71,.24,1.53,.24,2.45v7.62Z"/>
    <path class="cls-1" d="M198.02,132.36c0-.8,.24-1.49,.72-2.08s1.13-1.05,1.97-1.38c.84-.33,1.8-.5,2.89-.5,.68,0,1.39,.06,2.12,.18,.73,.12,1.39,.28,1.97,.49v-1.25c0-1.22-.35-2.2-1.06-2.93-.71-.73-1.68-1.09-2.93-1.09-.67,0-1.36,.14-2.07,.41-.72,.27-1.45,.67-2.2,1.18l-.54-.92c.87-.58,1.71-1.02,2.52-1.32,.81-.3,1.62-.45,2.42-.45,1.59,0,2.84,.47,3.76,1.4,.92,.93,1.38,2.21,1.38,3.82v6.57c0,.2,.05,.36,.14,.46,.09,.1,.23,.16,.42,.18v1.05c-.15,.02-.28,.03-.38,.03h-.26c-.32-.05-.58-.19-.75-.41-.18-.22-.28-.47-.29-.74v-1.05c-.61,.77-1.4,1.36-2.37,1.79-.96,.43-1.97,.64-3.03,.64-.84,0-1.59-.18-2.26-.54-.67-.36-1.2-.85-1.59-1.47s-.58-1.31-.58-2.08Zm9.16,1.1c.17-.22,.3-.43,.38-.64s.13-.39,.13-.56v-2.19c-.61-.24-1.25-.42-1.92-.53s-1.35-.18-2.05-.18c-1.33,0-2.41,.26-3.24,.79s-1.24,1.24-1.24,2.14c0,.56,.14,1.08,.44,1.55,.29,.48,.69,.86,1.21,1.15,.52,.29,1.12,.43,1.8,.43,.96,0,1.84-.18,2.65-.55,.81-.36,1.42-.84,1.83-1.41Z"/>
    <path class="cls-1" d="M222.61,119.86v-2.35h1.28v2.35h-1.28Zm0,16.32v-13.3h1.28v13.3h-1.28Z"/>
    <path class="cls-1" d="M243.94,124.03c-1.19,.03-2.24,.39-3.13,1.06-.9,.67-1.52,1.6-1.88,2.78v8.31h-1.28v-13.28h1.23v3.25c.46-.94,1.07-1.7,1.84-2.29,.77-.59,1.58-.92,2.43-1.01,.17-.02,.32-.03,.46-.03h.33v1.2Z"/>
    <path class="cls-1" d="M277.48,136.44c-.94,0-1.81-.18-2.61-.55-.8-.37-1.5-.87-2.09-1.5-.59-.64-1.05-1.38-1.38-2.22-.33-.84-.5-1.73-.5-2.66,0-1.26,.28-2.4,.84-3.42,.56-1.02,1.34-1.84,2.33-2.46,.99-.62,2.1-.93,3.33-.93s2.38,.31,3.35,.94,1.74,1.46,2.32,2.49c.57,1.03,.86,2.15,.86,3.38v.31c0,.1,0,.19-.03,.25h-11.67c.07,1,.35,1.91,.84,2.72,.49,.81,1.13,1.46,1.91,1.92s1.62,.7,2.55,.7,1.79-.24,2.61-.72c.82-.48,1.39-1.09,1.71-1.84l1.13,.31c-.26,.63-.66,1.19-1.21,1.69-.55,.49-1.2,.88-1.94,1.16-.74,.28-1.52,.42-2.34,.42Zm-5.3-7.37h10.52c-.07-1.04-.34-1.95-.82-2.75-.48-.8-1.1-1.43-1.88-1.88s-1.63-.69-2.57-.69-1.79,.23-2.56,.69c-.77,.46-1.39,1.09-1.87,1.88s-.75,1.71-.82,2.75Z"/>
    <path class="cls-1" d="M295.9,122.91l4.25,5.49,.2,.36,.21-.36,4.22-5.49h1.48l-5.17,6.66,5.14,6.61h-1.48l-4.2-5.46-.21-.33-.2,.33-4.22,5.46h-1.46l5.12-6.61-5.14-6.66h1.46Z"/>
    <path class="cls-1" d="M324.94,136.44c-1.14,0-2.16-.3-3.06-.9-.9-.6-1.62-1.34-2.16-2.2v8.3h-1.28v-18.73h1.18v2.68c.55-.85,1.27-1.54,2.18-2.08,.9-.54,1.86-.8,2.87-.8,.94,0,1.79,.19,2.56,.57,.77,.38,1.44,.9,2.01,1.55,.57,.65,1.01,1.39,1.33,2.21,.32,.82,.47,1.67,.47,2.55,0,1.22-.26,2.36-.77,3.4-.51,1.04-1.22,1.88-2.14,2.51-.91,.63-1.97,.94-3.19,.94Zm-.31-1.15c.78,0,1.49-.16,2.11-.48s1.16-.76,1.6-1.3c.44-.54,.78-1.15,1.02-1.83,.24-.68,.36-1.38,.36-2.09,0-.76-.14-1.49-.41-2.18-.27-.69-.65-1.29-1.14-1.82-.49-.53-1.05-.95-1.69-1.26-.64-.31-1.33-.47-2.08-.47-.46,0-.95,.09-1.47,.28s-1.01,.45-1.48,.79c-.47,.34-.86,.73-1.16,1.16-.31,.43-.49,.88-.56,1.34v4.36c.31,.65,.7,1.23,1.19,1.77,.49,.53,1.05,.96,1.7,1.27,.65,.31,1.32,.47,2.02,.47Z"/>
    <path class="cls-1" d="M349.51,136.44c-.94,0-1.81-.18-2.61-.55-.8-.37-1.5-.87-2.09-1.5-.59-.64-1.05-1.38-1.38-2.22-.33-.84-.5-1.73-.5-2.66,0-1.26,.28-2.4,.84-3.42,.56-1.02,1.34-1.84,2.33-2.46,.99-.62,2.1-.93,3.33-.93s2.38,.31,3.35,.94,1.74,1.46,2.32,2.49,.86,2.15,.86,3.38v.31c0,.1,0,.19-.03,.25h-11.67c.07,1,.35,1.91,.84,2.72,.49,.81,1.13,1.46,1.91,1.92s1.62,.7,2.55,.7,1.79-.24,2.61-.72c.82-.48,1.39-1.09,1.71-1.84l1.13,.31c-.26,.63-.66,1.19-1.21,1.69-.55,.49-1.2,.88-1.94,1.16-.74,.28-1.52,.42-2.34,.42Zm-5.3-7.37h10.52c-.07-1.04-.34-1.95-.82-2.75-.48-.8-1.1-1.43-1.88-1.88s-1.63-.69-2.57-.69-1.79,.23-2.56,.69c-.77,.46-1.39,1.09-1.87,1.88s-.75,1.71-.82,2.75Z"/>
    <path class="cls-1" d="M374.81,124.03c-1.19,.03-2.24,.39-3.13,1.06-.9,.67-1.52,1.6-1.88,2.78v8.31h-1.28v-13.28h1.23v3.25c.46-.94,1.07-1.7,1.84-2.29,.77-.59,1.58-.92,2.43-1.01,.17-.02,.32-.03,.46-.03h.33v1.2Z"/>
    <path class="cls-1" d="M392.92,135.65c-.09,.03-.26,.12-.51,.26-.26,.14-.58,.26-.97,.37-.39,.11-.83,.17-1.31,.17s-.89-.09-1.29-.27c-.4-.18-.72-.45-.96-.81-.24-.36-.36-.8-.36-1.31v-10.09h-1.87v-1.05h1.87v-4.55h1.28v4.55h3.1v1.05h-3.1v9.79c.03,.5,.21,.87,.54,1.12,.32,.25,.7,.37,1.13,.37,.53,0,.99-.09,1.38-.27,.39-.18,.62-.29,.69-.35l.38,1.02Z"/>
    <path class="cls-1" d="M174.51,161.42v-7.66h1.28v7.48c0,1.65,.28,2.88,.83,3.69,.55,.81,1.39,1.21,2.52,1.21,.75,0,1.47-.17,2.16-.5s1.3-.8,1.83-1.4c.53-.6,.92-1.31,1.18-2.11v-8.38h1.28v11.59c0,.2,.05,.36,.14,.46,.09,.1,.23,.16,.4,.18v1.05c-.17,.02-.3,.03-.4,.03s-.17,0-.24-.03c-.29-.03-.53-.16-.72-.37-.19-.21-.29-.47-.31-.78l-.03-1.99c-.58,1.06-1.38,1.89-2.39,2.49s-2.11,.91-3.29,.91c-1.4,0-2.46-.49-3.17-1.48-.72-.99-1.07-2.45-1.07-4.39Z"/>
    <path class="cls-1" d="M210.27,167.04h-1.28v-7.39c0-1.7-.24-2.94-.73-3.73-.49-.79-1.26-1.18-2.31-1.18-.75,0-1.49,.18-2.21,.53-.73,.36-1.36,.84-1.89,1.46-.54,.62-.93,1.32-1.16,2.1v8.21h-1.28v-13.28h1.2v3.19c.36-.68,.84-1.27,1.43-1.77,.6-.5,1.26-.9,2-1.19,.73-.29,1.49-.43,2.28-.43,.73,0,1.35,.13,1.85,.39,.5,.26,.91,.64,1.23,1.13,.32,.49,.54,1.1,.68,1.84,.14,.73,.2,1.56,.2,2.5v7.62Z"/>
    <path class="cls-1" d="M223.88,150.71v-2.35h1.28v2.35h-1.28Zm0,16.32v-13.3h1.28v13.3h-1.28Z"/>
    <path class="cls-1" d="M243.02,167.04l-5.55-13.28h1.36l4.89,11.93,4.91-11.93h1.28l-5.55,13.28h-1.33Z"/>
    <path class="cls-1" d="M267.38,167.29c-.94,0-1.81-.18-2.61-.55-.8-.37-1.5-.87-2.09-1.5-.59-.64-1.05-1.38-1.38-2.22-.33-.84-.5-1.73-.5-2.66,0-1.26,.28-2.4,.84-3.42,.56-1.02,1.34-1.84,2.33-2.46,.99-.62,2.1-.93,3.33-.93s2.38,.31,3.35,.94c.97,.63,1.74,1.46,2.32,2.49s.86,2.15,.86,3.38v.31c0,.1,0,.19-.03,.25h-11.67c.07,1,.35,1.91,.84,2.72,.49,.81,1.13,1.46,1.91,1.92s1.62,.7,2.55,.7,1.79-.24,2.61-.72c.82-.48,1.39-1.09,1.71-1.84l1.13,.31c-.26,.63-.66,1.19-1.21,1.69-.55,.49-1.2,.88-1.94,1.16-.74,.28-1.52,.42-2.34,.42Zm-5.3-7.37h10.52c-.07-1.04-.34-1.95-.82-2.75s-1.1-1.43-1.88-1.88-1.63-.69-2.57-.69-1.79,.23-2.56,.69c-.77,.46-1.39,1.09-1.87,1.88s-.75,1.71-.82,2.75Z"/>
    <path class="cls-1" d="M292.68,154.88c-1.19,.03-2.24,.39-3.13,1.06-.9,.67-1.52,1.6-1.88,2.78v8.31h-1.28v-13.28h1.23v3.25c.46-.94,1.07-1.7,1.84-2.29,.77-.59,1.58-.92,2.43-1.01,.17-.02,.32-.03,.46-.03h.33v1.2Z"/>
    <path class="cls-1" d="M309.06,167.29c-1.06,0-2.04-.18-2.94-.54-.9-.36-1.7-.9-2.38-1.64l.59-.9c.73,.7,1.47,1.21,2.23,1.52,.75,.32,1.57,.47,2.46,.47,1.14,0,2.07-.24,2.78-.71,.71-.48,1.06-1.14,1.06-1.99,0-.58-.17-1.02-.5-1.34-.33-.31-.81-.57-1.43-.76-.62-.2-1.38-.4-2.26-.62-.9-.24-1.67-.48-2.29-.74s-1.09-.59-1.39-.99-.46-.96-.46-1.66c0-.87,.22-1.58,.65-2.15s1.02-.99,1.77-1.27c.74-.28,1.57-.42,2.47-.42,1.04,0,1.95,.17,2.72,.51,.78,.34,1.37,.79,1.78,1.36l-.69,.82c-.43-.55-.98-.95-1.66-1.22-.68-.26-1.43-.4-2.25-.4-.61,0-1.19,.09-1.74,.26-.55,.17-.98,.45-1.32,.83-.33,.38-.5,.9-.5,1.54,0,.51,.12,.91,.37,1.2,.25,.29,.62,.52,1.11,.7,.49,.18,1.11,.37,1.84,.57,1.04,.25,1.94,.52,2.69,.79s1.33,.62,1.74,1.06,.61,1.04,.61,1.82c0,1.21-.46,2.16-1.38,2.85-.92,.7-2.14,1.04-3.66,1.04Z"/>
    <path class="cls-1" d="M326.86,150.71v-2.35h1.28v2.35h-1.28Zm0,16.32v-13.3h1.28v13.3h-1.28Z"/>
    <path class="cls-1" d="M347.84,166.5c-.09,.03-.26,.12-.51,.26-.26,.14-.58,.26-.97,.37-.39,.11-.83,.17-1.31,.17s-.89-.09-1.29-.27c-.4-.18-.72-.45-.96-.81-.24-.36-.36-.8-.36-1.31v-10.09h-1.87v-1.05h1.87v-4.55h1.28v4.55h3.1v1.05h-3.1v9.79c.03,.5,.21,.87,.54,1.12,.32,.25,.7,.37,1.13,.37,.53,0,.99-.09,1.38-.27,.39-.18,.62-.29,.69-.35l.38,1.02Z"/>
    <path class="cls-1" d="M360.74,171.54c.27,.02,.52,.02,.73,.01,.21,0,.37-.05,.47-.12,.15-.05,.31-.18,.47-.4,.16-.21,.38-.63,.65-1.25,.27-.62,.66-1.54,1.15-2.75l-5.94-13.29h1.36l5.27,11.93,4.89-11.93h1.31l-7.29,17.48c-.1,.27-.24,.52-.42,.73-.18,.21-.4,.38-.65,.51-.26,.13-.56,.2-.92,.22-.15,.02-.32,.03-.49,.04-.17,0-.37,0-.59-.01v-1.18Z"/>
  </g>
  <path class="cls-1" d="M71.52,177.16s0,0,0,0v-57.12c1.34-1.56,2.73-3.59,4.15-6.1,1.53-2.71,2.84-5.9,3.91-9.47,0-.03,.02-.06,.03-.09l-.02,5.6c0,8.02,.79,18.81,7.65,19.93,.23,.04,.45,.06,.67,.06,.65,0,1.23-.16,1.76-.49,.35-.22,.83-.6,2.44-2.55,1.05-1.27,2.44-3.12,4.18-5.53,1.49-2.2,2.76-4.92,3.76-8.09,.21-.67,.4-1.34,.57-2.01,.1,7.83,1.16,17.55,7.65,18.61,.23,.04,.45,.06,.67,.06,.64,0,1.23-.16,1.76-.49,.35-.22,.83-.6,2.44-2.55,1.05-1.27,2.44-3.12,4.18-5.53,1.49-2.2,2.76-4.92,3.76-8.09,1.01-3.18,1.52-6.34,1.52-9.38,0-4.9-1.37-8.76-4.08-11.47-.36-.36-.85-.56-1.35-.56-.19,0-.38,.03-.57,.09-.68,.21-1.18,.78-1.31,1.48l-.22,1.21c-.11,.6,.08,1.22,.5,1.66,1.4,1.46,2.11,3.97,2.11,7.48,0,2.08-.31,4.2-.91,6.29-.6,2.05-1.39,3.82-2.36,5.25-.19,.25-.35,.43-.48,.57-.13-.51-.29-1.37-.41-2.76-.25-2.89-.38-7-.38-12.21l.06-11.27h20.91c.79-5.44,1.41-11.33,1.85-17.7,1.14-16.87,.76-33.48,.15-45.39-1.05,.01-2.04,.01-2.92,.01-3.72,0-8.02-.14-12.77-.42-22.11-1.28-39.28-12.42-48.5-18.41l-.2-.13c-.05-.03-.1-.07-.16-.1V45.69c-.93,1.45-1.73,3.37-2.43,5.88-.46,1.63-.77,3.52-.93,5.64-.68-1.8-1.5-3.53-2.45-5.19-3.32-5.78-7.91-9.9-13.65-12.26-3.81-1.55-7.64-2.34-11.4-2.34-4.52,0-8.63,1.11-12.22,3.31-3.59,2.19-6.4,5.23-8.35,9.01-1.93,3.74-2.91,7.9-2.91,12.38,0,3.76,.64,7.22,1.9,10.3,1.36,3.32,3.22,5.52,5.49,6.52,1.76,.8,3.84,1.4,6.2,1.8,2.28,.38,4.54,.59,6.72,.63,2.06,.04,3.29,.06,3.64,.06h.02c10.57,.32,12.78,3.15,12.78,5.47,0,.32-.13,1.07-1.01,2.43-.09,.14-.21,.27-.33,.4H8.95c1.79,12.26,4.71,23.61,9.36,31.86,13.64,24.23,40.36,46,53.21,55.61Zm29.11-79.53c-.68-2.04-1.73-3.77-3.15-5.19-.36-.36-.85-.56-1.35-.56-.19,0-.38,.03-.57,.09-.68,.21-1.18,.78-1.31,1.48l-.22,1.21c-.11,.6,.08,1.22,.5,1.66,1.4,1.46,2.11,3.97,2.11,7.48,0,2.08-.31,4.2-.91,6.29-.6,2.05-1.39,3.82-2.36,5.25-.19,.25-.35,.43-.48,.57-.13-.51-.29-1.37-.41-2.76-.25-2.89-.38-7-.38-12.2l.07-11.27h8.48l-.02,7.95Zm-76.42,10.46c1.14-1.69,2.73-2.97,4.79-3.85,.66-.37,1.39-.99,2.2-1.87,.15-.15,.53-.5,1.16-1.05,.62-.55,1.25-1.01,1.87-1.38,.62-.37,1.27-.59,1.93-.66h.88c.88,0,1.87,.11,2.97,.33,.59,.07,1.39,.11,2.42,.11,3.67,0,7.06-.86,10.18-2.59,3.12-1.72,5.7-3.89,7.76-6.49,2.05-2.6,3.41-5.19,4.07-7.76,.44-1.54,.66-3.19,.66-4.95,0-3.59-.77-7.28-2.31-11.06-1.54-3.78-3.71-7.15-6.49-10.12-2.79-2.97-6.02-5.08-9.68-6.33-3.89-1.32-7.67-1.98-11.33-1.98-4.4,0-8,1.01-10.78,3.03-2.79,2.02-4.18,5.01-4.18,8.97,0,2.5,.81,4.37,2.42,5.61,1.61,1.25,4.18,2.15,7.7,2.7,3.52,.55,8.95,1.05,16.29,1.49,2.93,.15,5.1,.68,6.49,1.6,1.39,.92,2.29,2.04,2.7,3.36,.4,1.32,.68,3.12,.83,5.39l.33,3.08c.22,1.61-.13,3.43-1.05,5.45-.92,2.02-2.29,3.65-4.13,4.9-1.03,.73-1.98,1.1-2.86,1.1-.66,0-.99-.18-.99-.55,0-.51,.77-.99,2.31-1.43,1.91-.51,3.3-1.45,4.18-2.81,.88-1.36,1.32-2.51,1.32-3.47,0-4.62-4.88-7.08-14.64-7.37-.37,0-1.6-.02-3.69-.06-2.09-.04-4.24-.24-6.44-.61-2.2-.37-4.11-.92-5.72-1.65-1.84-.81-3.34-2.64-4.51-5.5-1.17-2.86-1.76-6.05-1.76-9.57,0-4.18,.9-8.01,2.7-11.5,1.8-3.48,4.35-6.23,7.65-8.25,3.3-2.02,7.04-3.03,11.22-3.03,3.52,0,7.08,.73,10.67,2.2,5.35,2.2,9.59,6.02,12.71,11.45,3.12,5.43,4.68,11.56,4.68,18.38,0,2.05-.26,4.62-.77,7.7-.66,3.45-2.09,6.73-4.29,9.85-2.2,3.12-5.01,5.76-8.42,7.92-3.41,2.16-7.17,3.58-11.28,4.24,2.35,1.1,5.61,2.9,9.79,5.39,5.13,3.23,9.02,5.28,11.67,6.16,1.25,.44,2.31,.66,3.19,.66,.95-2.49,1.5-5.17,1.65-8.03l-2.75-6.27,2.64-6.05v-3.41c-.44-.07-.79-.22-1.05-.44-.26-.22-.38-.51-.38-.88,0-.22,.13-.44,.38-.66,.26-.22,.6-.37,1.05-.44l-.22-26.3c0-3.45,.33-6.34,.99-8.69,.66-2.35,1.41-4.16,2.26-5.45,.84-1.28,1.93-2.66,3.25-4.13,.51-.73,1.28-1.1,2.31-1.1,.44,0,.88,.11,1.32,.33l7.48,4.07c1.25,.73,2.24,1.1,2.97,1.1,.59,0,1.14-.22,1.65-.66l.66-.55c1.03-1.25,1.98-2.31,2.86-3.19,.59-.81,1.36-1.21,2.31-1.21,.44,0,.88,.15,1.32,.44l7.15,5.39c.88,.73,1.83,1.1,2.86,1.1,.73,0,1.32-.22,1.76-.66l1.32-1.21,.33,.77c-.88,1.84-1.32,5.69-1.32,11.56l-.22,42.26c0,5.28,.13,9.41,.39,12.38,.26,2.97,.75,4.57,1.49,4.79l.44,.11c.73,0,1.54-.59,2.42-1.76,1.1-1.61,1.98-3.56,2.64-5.83,.66-2.27,.99-4.55,.99-6.82,0-4.03-.88-6.97-2.64-8.8l.22-1.21c2.35,2.35,3.52,5.72,3.52,10.12,0,2.86-.48,5.8-1.43,8.8-.95,3.01-2.13,5.54-3.52,7.59-1.69,2.35-3.04,4.14-4.07,5.39-1.03,1.25-1.69,1.96-1.98,2.15-.29,.18-.66,.24-1.1,.17-4.04-.66-6.05-6.68-6.05-18.05l.11-48.09c0-1.47,.24-2.66,.72-3.58,.48-.92,1.17-1.93,2.09-3.03,.92-1.1,1.52-1.83,1.82-2.2-.66,.44-1.39,.66-2.2,.66-.95,0-1.8-.26-2.53-.77l-6.82-4.84c-.37-.29-.77-.44-1.21-.44-.59,0-1.06,.22-1.43,.66-1.1,1.32-1.82,2.86-2.15,4.62-.33,1.76-.5,4.88-.5,9.35l-.11,14.31h4.62c.88,0,1.56-.2,2.04-.61,.48-.4,.9-1.01,1.27-1.82h.66l-.66,3.52c-.29,1.83-.55,3.08-.77,3.74-.22,.66-.64,1.12-1.27,1.38-.62,.26-1.67,.39-3.14,.39h-2.75l-.11,17.72c0,5.28,.13,9.41,.39,12.38,.26,2.97,.75,4.57,1.49,4.79l.44,.11c.73,0,1.54-.59,2.42-1.76,1.1-1.61,1.98-3.56,2.64-5.83,.66-2.27,.99-4.55,.99-6.82,0-4.03-.88-6.97-2.64-8.8l.22-1.21c2.35,2.35,3.52,5.72,3.52,10.12,0,2.86-.48,5.8-1.43,8.8-.95,3.01-2.13,5.54-3.52,7.59-1.69,2.35-3.04,4.14-4.07,5.39-1.03,1.25-1.69,1.96-1.98,2.15-.29,.18-.66,.24-1.1,.17-4.04-.66-6.05-6.68-6.05-18.05l.11-26.74h-4.18c-.88,0-1.54,.18-1.98,.55-.44,.37-.84,.99-1.21,1.87h-.77c.07-.44,.24-1.47,.5-3.08,.26-1.61,.81-3.01,1.65-4.18,.84-1.17,2.04-1.76,3.58-1.76h2.42v-13.21c.37-2.49,2.27-6.16,5.72-11.01-.15,.07-.44,.11-.88,.11-.81,0-1.76-.29-2.86-.88l-7.15-3.52c-.44-.22-.88-.33-1.32-.33-.59,0-.99,.18-1.21,.55-1.91,2.06-2.86,6.2-2.86,12.44l.11,26.19c.37,.15,.7,.33,.99,.55,.29,.22,.44,.44,.44,.66,0,.66-.48,1.14-1.43,1.43v3.08l3.08,6.27-2.97,7.15c-.22,2.64-.73,4.99-1.54,7.04,1.39-.29,2.55-1.03,3.47-2.2,.92-1.17,1.74-2.51,2.48-4.02,.73-1.5,1.25-2.55,1.54-3.14l.55,.11c-1.03,3.45-2.27,6.48-3.74,9.08-1.47,2.61-2.88,4.66-4.24,6.16-1.36,1.5-2.44,2.37-3.25,2.59-.44,.15-.81,.22-1.1,.22-.22,0-.62-.07-1.21-.22-4.4,4.18-9.79,6.27-16.18,6.27-3.23,0-6.42-.51-9.57-1.54-3.3-1.03-5.83-2.53-7.59-4.51-1.76-1.98-2.64-3.96-2.64-5.94,0-1.32,.44-2.42,1.32-3.3s2.09-1.32,3.63-1.32c2.27,0,4.84,.92,7.7,2.75l-.11,.99c-3.08-1.91-5.65-2.86-7.7-2.86-1.25,0-2.22,.33-2.92,.99-.7,.66-1.04,1.54-1.04,2.64,0,1.76,.84,3.56,2.53,5.39,1.69,1.83,4.03,3.23,7.04,4.18,3.3,1.03,6.53,1.54,9.68,1.54,5.94,0,10.86-1.83,14.75-5.5-1.32-.37-2.75-.94-4.29-1.71-1.54-.77-3.48-1.85-5.83-3.25l-3.08-1.65-5.72-3.19c-2.79-1.61-4.94-2.73-6.44-3.36-1.5-.62-3.25-.94-5.23-.94-2.42,0-4.51,.68-6.27,2.04-1.76,1.36-2.64,3.1-2.64,5.23,0,2.27,1.1,4.55,3.3,6.82l-.55,.33c-2.57-2.35-3.85-5.1-3.85-8.25,0-1.98,.57-3.81,1.71-5.5Zm34.75-24.63l-.33-3.04c-.16-2.42-.46-4.32-.9-5.79-.54-1.75-1.7-3.23-3.47-4.39-1.7-1.12-4.13-1.74-7.43-1.91-7.24-.43-12.66-.93-16.11-1.47-3.19-.5-5.48-1.28-6.83-2.32-1.13-.87-1.68-2.21-1.68-4.1,0-3.34,1.11-5.77,3.39-7.42,2.44-1.77,5.69-2.66,9.67-2.66,3.44,0,7.05,.63,10.72,1.88,3.35,1.14,6.35,3.1,8.91,5.83,2.61,2.79,4.67,6,6.12,9.54,1.44,3.53,2.17,7.01,2.17,10.34,0,1.58-.2,3.06-.6,4.48-.59,2.3-1.84,4.67-3.72,7.05-.06,.07-.12,.14-.18,.21h-.83c.99-2.26,1.37-4.37,1.11-6.22Z"/>
</svg>