<?xml version="1.0" encoding="UTF-8"?>
<svg id="_Слой_1" data-name="Слой 1" xmlns="http://www.w3.org/2000/svg" viewBox="0 0 193.61 251.2">
  <defs>
    <style>
      .cls-1 {
        fill: #f2f5fa;
      }
    </style>
  </defs>
  <path class="cls-1" d="M96.81,251.2c17.87-13.08,58.7-45.47,79.35-82.14,20.05-35.61,18.26-109.23,16.35-141.41-3.16,.16-6.23,.16-8.78,.16-5.15,0-11.12-.19-17.73-.58-29.87-1.73-53.37-16.98-66-25.17-1.03-.67-2.15-1.39-3.19-2.06-.97,.62-2.01,1.29-2.97,1.91l-.2,.13c-12.63,8.2-36.14,23.45-66.01,25.18-6.61,.38-12.57,.58-17.73,.58-2.61,0-5.64,0-8.79-.16C-.81,59.82-2.61,133.41,17.46,169.06c20.65,36.67,61.48,69.07,79.35,82.15ZM31.51,155.1c4,0,7.07-1.46,9.4-4.46,2.42-3.12,3.69-7.49,3.8-12.98l1.5-69.01c-2.08-3.82-4.23-6.62-6.4-8.34-2.08-1.64-4.41-2.44-7.12-2.44-.91,0-2.45-.62-2.45-2.95s1.54-2.96,2.45-2.96l7.95,.17c1.6,.11,3.59,.17,6.02,.17l8.79-.17c1.07-.11,2.42-.17,3.99-.17,2.05,0,3.75,.78,4.9,2.26,.85,1.1,2.34,3.55,4.54,7.48l34.8,65.3,30.36-69.67c.8-1.86,1.66-3.17,2.63-3.99,1.09-.92,2.5-1.38,4.2-1.38,1.05,0,2.24,.06,3.62,.17,1.21,.11,2.66,.16,4.29,.16l9.84-.17c1.63-.11,3.92-.17,6.81-.17,.91,0,2.45,.62,2.45,2.96s-1.54,2.95-2.45,2.95c-4.75,0-8.16,.91-10.14,2.69-1.89,1.71-2.75,4.53-2.56,8.38l4.04,76.38c.26,4.04,.76,6.02,1.13,6.96,.41,1.04,1.1,1.7,2.19,2.07,.97,.34,2.98,.74,7.02,.74,.38,0,2.28,.14,2.28,2.95s-1.9,2.95-2.28,2.95c-3.91,0-6.91-.06-9.18-.17l-12.38-.17-12.57,.17c-2.08,.11-4.98,.17-8.78,.17-.91,0-2.45-.62-2.45-2.95s1.54-2.95,2.45-2.95c5.64,0,7.75-.85,8.51-1.36,1.36-.9,1.65-3.42,1.66-5.39l-.17-2.8-3.1-60.42-31.41,73.64c-.56,1.11-1.68,1.74-3.08,1.74s-2.53-.64-3.09-1.75L54.49,84.52l-1.18,53.22c-.1,5.58,.98,9.96,3.24,13.02,2.15,2.92,5.14,4.34,9.12,4.34,.91,0,2.45,.62,2.45,2.95s-1.54,2.95-2.45,2.95c-3.12,0-5.47-.06-7.2-.17l-9.16-.16-10.53,.17c-1.74,.11-4.15,.17-7.27,.17-.91,0-2.45-.62-2.45-2.95s1.54-2.95,2.45-2.95Z"/>
</svg>