<?xml version="1.0" encoding="UTF-8"?>
<svg id="_Слой_1" data-name="Слой 1" xmlns="http://www.w3.org/2000/svg" viewBox="0 0 201.71 261.02">
  <defs>
    <style>
      .cls-1 {
        fill: #14161a;
      }
    </style>
  </defs>
  <path class="cls-1" d="M100.86,261.02l-1.19-.86c-17.4-12.62-60.18-46.1-81.69-84.31C-3.06,138.48-.74,61.52,1.23,30.16l.13-2.05,2.05,.15c3.73,.27,7.44,.27,10.41,.27,5.21,0,11.09-.19,17.62-.57,28.8-1.67,51.72-16.54,64.03-24.53l.21-.13c1.35-.87,2.84-1.84,4.11-2.63l1.07-.67,1.07,.67c1.33,.83,2.92,1.86,4.31,2.76,12.33,8,35.24,22.87,64.04,24.54,6.54,.38,12.42,.57,17.5,.57,3.2,0,6.82,0,10.54-.27l2.05-.15,.13,2.05c1.97,31.37,4.27,108.35-16.74,145.68-21.51,38.21-64.3,71.69-81.69,84.31l-1.19,.86ZM5.16,32.44c-1.91,32.17-3.71,105.76,16.36,141.41,20.65,36.67,61.48,69.07,79.35,82.15,17.87-13.08,58.7-45.47,79.35-82.14,20.05-35.61,18.26-109.23,16.35-141.41-3.16,.16-6.23,.16-8.78,.16-5.15,0-11.12-.19-17.73-.58-29.87-1.73-53.37-16.98-66-25.17-1.03-.67-2.15-1.39-3.19-2.06-.97,.62-2.01,1.29-2.97,1.91l-.2,.13c-12.63,8.2-36.14,23.45-66.01,25.18-6.61,.38-12.57,.58-17.73,.58-2.61,0-5.64,0-8.79-.16Z"/>
  <g>
    <path class="cls-1" d="M76.07,122.5c0-3.27-3.13-7.26-18.03-7.71h-.03c-.49,0-2.23-.02-5.13-.08-3.07-.05-6.26-.35-9.47-.89-3.32-.55-6.27-1.4-8.74-2.53-3.21-1.41-5.82-4.51-7.74-9.19-1.78-4.34-2.68-9.23-2.68-14.52,0-6.31,1.38-12.18,4.1-17.45,2.75-5.33,6.71-9.61,11.77-12.7,5.07-3.09,10.86-4.66,17.24-4.66,5.29,0,10.7,1.11,16.07,3.3,8.09,3.32,14.56,9.14,19.24,17.29,1.35,2.35,2.5,4.79,3.46,7.33,.23-2.99,.67-5.65,1.31-7.95,1-3.53,2.12-6.24,3.43-8.29V9.89s0,0,0,0c-.25,.16-.5,.32-.74,.48l-.1,.07c-12.96,8.41-37.09,24.07-68.1,25.87-6.7,.39-12.75,.58-17.98,.58h-.13c-1.4,0-2.95,0-4.61-.03-.78,14.93-1.48,38.78,.07,63.03,.61,9.61,1.52,18.47,2.71,26.6h62.19c.16-.19,.33-.36,.46-.57,1.24-1.92,1.43-2.97,1.43-3.42Z"/>
    <path class="cls-1" d="M88.26,116.24c.57-1.99,.85-4.09,.85-6.31,0-4.69-1.03-9.6-3.06-14.58-2.04-5-4.94-9.52-8.63-13.45-3.61-3.84-7.83-6.61-12.56-8.22-5.18-1.76-10.27-2.65-15.12-2.65-5.6,0-10.19,1.26-13.63,3.76-3.22,2.33-4.78,5.75-4.78,10.47,0,2.66,.77,4.55,2.37,5.78,1.9,1.47,5.14,2.57,9.63,3.27,4.86,.76,12.5,1.46,22.72,2.07,4.64,.23,8.08,1.11,10.47,2.69,2.5,1.65,4.14,3.73,4.9,6.2,.63,2.07,1.05,4.74,1.27,8.16l.46,4.29c.36,2.61-.17,5.59-1.57,8.78h1.18c.08-.1,.18-.2,.26-.3,2.65-3.36,4.42-6.71,5.25-9.95Z"/>
    <path class="cls-1" d="M159.6,126.49l-.08,15.89c0,7.34,.18,13.14,.53,17.21,.17,1.96,.39,3.17,.58,3.89,.19-.2,.42-.46,.68-.8,1.37-2.02,2.49-4.51,3.33-7.41,.86-2.95,1.29-5.93,1.29-8.87,0-4.94-1-8.5-2.97-10.55-.6-.62-.86-1.5-.71-2.35l.31-1.71c.18-.99,.89-1.79,1.85-2.09,.26-.08,.54-.12,.8-.12,.7,0,1.39,.28,1.9,.79,3.82,3.82,5.75,9.26,5.75,16.18,0,4.29-.72,8.74-2.14,13.23-1.42,4.47-3.2,8.31-5.31,11.41-2.44,3.4-4.41,6.01-5.89,7.8-2.26,2.74-2.94,3.28-3.44,3.59-.75,.46-1.58,.69-2.48,.69-.3,0-.62-.03-.94-.08-9.15-1.5-10.65-15.2-10.78-26.25-.24,.94-.51,1.88-.81,2.83-1.42,4.47-3.2,8.31-5.31,11.41-2.45,3.4-4.41,6.01-5.89,7.8-2.26,2.74-2.94,3.28-3.44,3.59-.74,.46-1.57,.69-2.48,.69-.3,0-.62-.03-.94-.08-9.67-1.58-10.79-16.8-10.79-28.11l.03-7.9s-.02,.09-.04,.13c-1.5,5.04-3.36,9.53-5.51,13.36-1.99,3.54-3.96,6.41-5.85,8.61v81.37c18.71-13.94,56.29-44.6,75.61-78.92,6-10.66,10.43-25.84,13.26-45.26h-30.13Z"/>
    <path class="cls-1" d="M129.87,142.38c0,7.34,.18,13.13,.53,17.21,.17,1.96,.39,3.17,.58,3.89,.19-.2,.42-.46,.68-.8,1.37-2.02,2.49-4.51,3.33-7.41,.86-2.95,1.29-5.93,1.29-8.87,0-4.94-1-8.5-2.97-10.55-.6-.62-.86-1.5-.71-2.35l.31-1.71c.18-.99,.89-1.79,1.85-2.09,.26-.08,.53-.12,.8-.12,.7,0,1.39,.28,1.9,.79,2,2,3.49,4.45,4.44,7.32l.03-11.21h-11.96l-.1,15.89Z"/>
  </g>
  <path class="cls-1" d="M165.21,132.27c3.31,3.31,4.97,8.07,4.97,14.28,0,4.04-.67,8.18-2.02,12.42-1.35,4.24-3,7.81-4.97,10.71-2.38,3.31-4.29,5.84-5.74,7.6-1.45,1.76-2.38,2.77-2.79,3.03-.41,.26-.93,.33-1.55,.23-5.69-.93-8.54-9.41-8.54-25.45l.16-67.82c0-2.07,.33-3.75,1.01-5.04,.67-1.29,1.65-2.72,2.95-4.27,1.29-1.55,2.15-2.59,2.56-3.1-.93,.62-1.97,.93-3.1,.93-1.35,0-2.54-.36-3.57-1.09l-9.62-6.83c-.52-.41-1.09-.62-1.71-.62-.83,0-1.5,.31-2.02,.93-1.55,1.86-2.56,4.04-3.03,6.52-.47,2.48-.7,6.88-.7,13.19l-.16,20.18h6.52c1.24,0,2.2-.28,2.87-.85,.67-.57,1.27-1.42,1.78-2.56h.93l-.93,4.97c-.41,2.59-.78,4.35-1.09,5.28-.31,.93-.91,1.58-1.78,1.94-.88,.36-2.35,.54-4.42,.54h-3.88l-.16,24.99c0,7.45,.18,13.27,.54,17.46,.36,4.19,1.06,6.44,2.09,6.75l.62,.16c1.03,0,2.17-.83,3.41-2.48,1.55-2.27,2.79-5.02,3.72-8.23,.93-3.21,1.4-6.41,1.4-9.62,0-5.69-1.24-9.83-3.72-12.42l.31-1.71c3.31,3.31,4.97,8.07,4.97,14.28,0,4.04-.67,8.18-2.02,12.42-1.35,4.24-3,7.81-4.97,10.71-2.38,3.31-4.29,5.84-5.74,7.6-1.45,1.76-2.38,2.77-2.79,3.03-.41,.26-.93,.33-1.55,.23-5.69-.93-8.54-9.41-8.54-25.45l.16-37.71h-5.9c-1.24,0-2.17,.26-2.79,.78-.62,.52-1.19,1.4-1.71,2.64h-1.09c.1-.62,.33-2.07,.7-4.35,.36-2.27,1.14-4.24,2.33-5.9,1.19-1.65,2.87-2.48,5.04-2.48h3.41v-18.62c.52-3.52,3.21-8.69,8.07-15.52-.21,.1-.62,.16-1.24,.16-1.14,0-2.48-.41-4.04-1.24l-10.09-4.97c-.62-.31-1.24-.47-1.86-.47-.83,0-1.4,.26-1.71,.78-2.69,2.9-4.04,8.75-4.04,17.54l.16,36.94c.52,.21,.98,.47,1.4,.78,.41,.31,.62,.62,.62,.93,0,.93-.67,1.6-2.02,2.02v4.35l4.35,8.85-4.19,10.09c-.31,3.72-1.04,7.04-2.17,9.93,1.96-.41,3.59-1.45,4.89-3.1,1.29-1.65,2.46-3.54,3.49-5.67,1.03-2.12,1.76-3.59,2.17-4.42l.78,.16c-1.45,4.87-3.21,9.13-5.28,12.8-2.07,3.67-4.06,6.57-5.98,8.69-1.92,2.12-3.44,3.34-4.58,3.65-.62,.21-1.14,.31-1.55,.31-.31,0-.88-.1-1.71-.31-6.21,5.9-13.81,8.85-22.81,8.85-4.55,0-9.06-.73-13.5-2.17-4.66-1.45-8.23-3.57-10.71-6.36-2.48-2.79-3.72-5.59-3.72-8.38,0-1.86,.62-3.41,1.86-4.66,1.24-1.24,2.95-1.86,5.12-1.86,3.21,0,6.83,1.3,10.86,3.88l-.16,1.4c-4.35-2.69-7.97-4.04-10.86-4.04-1.76,0-3.13,.47-4.11,1.4-.98,.93-1.47,2.17-1.47,3.72,0,2.48,1.19,5.02,3.57,7.6,2.38,2.58,5.69,4.55,9.93,5.9,4.66,1.45,9.21,2.17,13.66,2.17,8.38,0,15.31-2.59,20.8-7.76-1.86-.52-3.88-1.32-6.05-2.41-2.17-1.09-4.92-2.61-8.23-4.58l-4.35-2.33-8.07-4.5c-3.93-2.27-6.96-3.85-9.08-4.73-2.12-.88-4.58-1.32-7.37-1.32-3.41,0-6.36,.96-8.85,2.87-2.48,1.92-3.72,4.37-3.72,7.37,0,3.21,1.55,6.42,4.66,9.62l-.78,.47c-3.62-3.31-5.43-7.19-5.43-11.64,0-2.79,.8-5.38,2.4-7.76,1.6-2.38,3.85-4.19,6.75-5.43,.93-.52,1.96-1.4,3.1-2.64,.21-.21,.75-.7,1.63-1.47,.88-.78,1.76-1.42,2.64-1.94,.88-.52,1.78-.83,2.72-.93h1.24c1.24,0,2.64,.16,4.19,.47,.83,.1,1.96,.16,3.41,.16,5.17,0,9.96-1.21,14.36-3.65,4.4-2.43,8.04-5.48,10.94-9.16,2.9-3.67,4.81-7.32,5.74-10.94,.62-2.17,.93-4.5,.93-6.98,0-5.07-1.09-10.27-3.26-15.6-2.17-5.33-5.23-10.09-9.16-14.28-3.93-4.19-8.48-7.16-13.66-8.92-5.49-1.86-10.81-2.79-15.99-2.79-6.21,0-11.28,1.42-15.21,4.27-3.93,2.85-5.9,7.06-5.9,12.65,0,3.52,1.14,6.16,3.41,7.92,2.27,1.76,5.9,3.03,10.86,3.8,4.97,.78,12.62,1.48,22.97,2.1,4.14,.21,7.19,.96,9.16,2.25,1.96,1.29,3.23,2.87,3.8,4.73,.57,1.86,.96,4.4,1.16,7.6l.47,4.35c.31,2.28-.18,4.84-1.47,7.68-1.3,2.85-3.24,5.15-5.82,6.91-1.45,1.04-2.79,1.55-4.04,1.55-.93,0-1.4-.26-1.4-.78,0-.72,1.09-1.4,3.26-2.02,2.69-.72,4.66-2.04,5.9-3.96,1.24-1.91,1.86-3.54,1.86-4.89,0-6.52-6.88-9.98-20.64-10.4-.52,0-2.25-.02-5.2-.08-2.95-.05-5.97-.33-9.08-.85-3.1-.52-5.8-1.29-8.07-2.33-2.59-1.14-4.71-3.72-6.36-7.76-1.66-4.04-2.48-8.54-2.48-13.5,0-5.9,1.27-11.3,3.8-16.22,2.53-4.91,6.13-8.79,10.79-11.64,4.66-2.84,9.93-4.27,15.83-4.27,4.97,0,9.98,1.04,15.05,3.1,7.55,3.1,13.53,8.49,17.93,16.14,4.4,7.66,6.6,16.3,6.6,25.92,0,2.9-.36,6.52-1.09,10.86-.93,4.86-2.95,9.49-6.05,13.89-3.1,4.4-7.06,8.12-11.87,11.17-4.81,3.05-10.11,5.04-15.91,5.97,3.31,1.55,7.92,4.09,13.81,7.6,7.24,4.55,12.73,7.45,16.45,8.69,1.76,.62,3.26,.93,4.5,.93,1.34-3.52,2.12-7.29,2.33-11.33l-3.88-8.85,3.72-8.54v-4.81c-.62-.1-1.11-.31-1.48-.62-.36-.31-.54-.72-.54-1.24,0-.31,.18-.62,.54-.93,.36-.31,.85-.52,1.48-.62l-.31-37.09c0-4.86,.47-8.95,1.4-12.26,.93-3.31,1.99-5.87,3.18-7.68,1.19-1.81,2.72-3.75,4.58-5.82,.72-1.03,1.81-1.55,3.26-1.55,.62,0,1.24,.16,1.86,.47l10.55,5.74c1.76,1.04,3.16,1.55,4.19,1.55,.83,0,1.6-.31,2.33-.93l.93-.78c1.45-1.76,2.79-3.26,4.04-4.5,.83-1.14,1.91-1.71,3.26-1.71,.62,0,1.24,.21,1.86,.62l10.09,7.6c1.24,1.04,2.59,1.55,4.04,1.55,1.03,0,1.86-.31,2.48-.93l1.86-1.71,.47,1.09c-1.24,2.59-1.86,8.02-1.86,16.3l-.31,59.6c0,7.45,.18,13.27,.54,17.46,.36,4.19,1.06,6.44,2.09,6.75l.62,.16c1.03,0,2.17-.83,3.41-2.48,1.55-2.27,2.79-5.02,3.72-8.23,.93-3.21,1.4-6.41,1.4-9.62,0-5.69-1.24-9.83-3.72-12.42l.31-1.71Z"/>
</svg>