<?xml version="1.0" encoding="UTF-8"?>
<svg id="_Слой_1" data-name="Слой 1" xmlns="http://www.w3.org/2000/svg" viewBox="0 0 201.71 261.02">
  <defs>
    <style>
      .cls-1 {
        fill: #f2f5fa;
      }
    </style>
  </defs>
  <path class="cls-1" d="M100.86,261.02l-1.19-.86c-17.4-12.62-60.18-46.1-81.69-84.31C-3.06,138.48-.74,61.52,1.23,30.16l.13-2.05,2.05,.15c3.73,.27,7.44,.27,10.41,.27,5.21,0,11.09-.19,17.62-.57,28.8-1.67,51.72-16.54,64.03-24.53l.21-.13c1.35-.87,2.84-1.84,4.11-2.63l1.07-.67,1.07,.67c1.33,.83,2.92,1.86,4.31,2.76,12.33,8,35.24,22.87,64.04,24.54,6.54,.38,12.42,.57,17.5,.57,3.2,0,6.82,0,10.54-.27l2.05-.15,.13,2.05c1.97,31.37,4.27,108.35-16.74,145.68-21.51,38.21-64.3,71.69-81.69,84.31l-1.19,.86ZM5.16,32.44c-1.91,32.17-3.71,105.76,16.36,141.41,20.65,36.67,61.48,69.07,79.35,82.15,17.87-13.08,58.7-45.47,79.35-82.14,20.05-35.61,18.26-109.23,16.35-141.41-3.16,.16-6.23,.16-8.78,.16-5.15,0-11.12-.19-17.73-.58-29.87-1.73-53.37-16.98-66-25.17-1.03-.67-2.15-1.39-3.19-2.06-.97,.62-2.01,1.29-2.97,1.91l-.2,.13c-12.63,8.2-36.14,23.45-66.01,25.18-6.61,.38-12.57,.58-17.73,.58-2.61,0-5.64,0-8.79-.16Z"/>
  <path class="cls-1" d="M100.86,249.85s0,0,0,0v-80.56c1.89-2.2,3.86-5.07,5.85-8.61,2.15-3.83,4.01-8.32,5.51-13.36,.01-.04,.03-.09,.04-.13l-.03,7.9c0,11.31,1.12,26.53,10.79,28.11,.32,.05,.63,.08,.94,.08,.91,0,1.74-.23,2.48-.69,.5-.31,1.18-.85,3.44-3.59,1.48-1.8,3.45-4.4,5.89-7.8,2.1-3.1,3.89-6.94,5.31-11.41,.3-.94,.57-1.89,.81-2.83,.13,11.05,1.63,24.75,10.78,26.25,.32,.05,.63,.08,.94,.08,.91,0,1.74-.23,2.48-.69,.5-.31,1.17-.85,3.44-3.59,1.48-1.8,3.45-4.4,5.89-7.8,2.1-3.1,3.89-6.94,5.31-11.41,1.42-4.49,2.14-8.94,2.14-13.23,0-6.92-1.94-12.36-5.75-16.18-.51-.51-1.2-.79-1.9-.79-.27,0-.54,.04-.8,.12-.96,.3-1.67,1.1-1.85,2.09l-.31,1.71c-.15,.85,.11,1.72,.71,2.35,1.97,2.06,2.97,5.61,2.97,10.55,0,2.94-.43,5.93-1.29,8.87-.84,2.9-1.96,5.39-3.33,7.41-.26,.35-.49,.61-.68,.8-.19-.72-.41-1.93-.58-3.89-.35-4.08-.53-9.87-.53-17.21l.08-15.89h29.49c1.12-7.67,1.99-15.98,2.6-24.96,1.61-23.79,1.07-47.21,.2-64.01-1.48,.02-2.87,.02-4.12,.02-5.25,0-11.31-.2-18.02-.59-31.18-1.81-55.39-17.52-68.4-25.96l-.28-.18c-.07-.05-.15-.1-.22-.14v53.78c-1.31,2.04-2.44,4.75-3.43,8.29-.65,2.31-1.09,4.97-1.31,7.95-.96-2.53-2.11-4.98-3.46-7.33-4.68-8.15-11.16-13.97-19.24-17.29-5.37-2.19-10.78-3.3-16.07-3.3-6.37,0-12.17,1.57-17.24,4.66-5.06,3.1-9.02,7.37-11.77,12.7-2.72,5.27-4.1,11.15-4.1,17.45,0,5.3,.9,10.18,2.68,14.52,1.92,4.68,4.53,7.78,7.74,9.19,2.48,1.13,5.42,1.98,8.74,2.53,3.21,.54,6.4,.84,9.47,.89,2.91,.05,4.64,.08,5.13,.08h.03c14.9,.45,18.03,4.44,18.03,7.71,0,.46-.19,1.51-1.43,3.42-.13,.2-.3,.38-.46,.57H12.62c2.53,17.28,6.65,33.3,13.2,44.94,19.24,34.17,56.92,64.88,75.04,78.43Zm41.05-112.16c-.96-2.87-2.44-5.32-4.44-7.32-.51-.51-1.2-.79-1.9-.79-.27,0-.54,.04-.8,.12-.96,.3-1.67,1.1-1.85,2.09l-.31,1.71c-.15,.85,.11,1.72,.71,2.35,1.97,2.06,2.97,5.61,2.97,10.55,0,2.94-.43,5.93-1.29,8.87-.84,2.9-1.96,5.39-3.33,7.41-.26,.35-.49,.61-.68,.8-.19-.72-.41-1.93-.58-3.89-.35-4.08-.53-9.87-.53-17.21l.1-15.89h11.96l-.03,11.21Zm-107.77,14.76c1.6-2.38,3.85-4.19,6.75-5.43,.93-.52,1.96-1.4,3.1-2.64,.21-.21,.75-.7,1.63-1.47,.88-.78,1.76-1.42,2.64-1.94,.88-.52,1.78-.83,2.72-.93h1.24c1.24,0,2.64,.16,4.19,.47,.83,.1,1.96,.15,3.41,.15,5.17,0,9.96-1.21,14.36-3.65,4.4-2.43,8.04-5.48,10.94-9.16,2.9-3.67,4.81-7.32,5.74-10.94,.62-2.17,.93-4.5,.93-6.98,0-5.07-1.09-10.27-3.26-15.6-2.17-5.33-5.23-10.09-9.16-14.28-3.93-4.19-8.48-7.16-13.66-8.92-5.48-1.86-10.81-2.79-15.99-2.79-6.21,0-11.28,1.42-15.21,4.27-3.93,2.85-5.9,7.06-5.9,12.65,0,3.52,1.14,6.16,3.41,7.92,2.27,1.76,5.9,3.03,10.86,3.8,4.97,.78,12.62,1.48,22.97,2.1,4.14,.21,7.19,.96,9.16,2.25,1.96,1.29,3.23,2.87,3.8,4.73,.57,1.86,.96,4.4,1.17,7.6l.47,4.35c.31,2.28-.18,4.84-1.47,7.68-1.3,2.85-3.24,5.15-5.82,6.91-1.45,1.04-2.79,1.55-4.04,1.55-.93,0-1.4-.26-1.4-.78,0-.72,1.09-1.4,3.26-2.02,2.69-.72,4.66-2.04,5.9-3.96,1.24-1.91,1.86-3.54,1.86-4.89,0-6.52-6.88-9.98-20.64-10.4-.52,0-2.25-.02-5.2-.08-2.95-.05-5.97-.33-9.08-.85-3.1-.52-5.8-1.29-8.07-2.33-2.59-1.14-4.71-3.72-6.36-7.76-1.66-4.04-2.48-8.54-2.48-13.5,0-5.9,1.27-11.3,3.8-16.22,2.53-4.91,6.13-8.79,10.79-11.64,4.66-2.84,9.93-4.27,15.83-4.27,4.97,0,9.98,1.04,15.05,3.1,7.55,3.1,13.53,8.49,17.93,16.14,4.4,7.66,6.6,16.3,6.6,25.92,0,2.9-.36,6.52-1.09,10.86-.93,4.86-2.95,9.49-6.05,13.89-3.1,4.4-7.06,8.12-11.87,11.17-4.81,3.05-10.12,5.04-15.91,5.97,3.31,1.55,7.91,4.09,13.81,7.6,7.24,4.55,12.73,7.45,16.45,8.69,1.76,.62,3.26,.93,4.5,.93,1.34-3.52,2.12-7.29,2.33-11.33l-3.88-8.85,3.73-8.54v-4.81c-.62-.1-1.11-.31-1.48-.62-.36-.31-.54-.72-.54-1.24,0-.31,.18-.62,.54-.93,.36-.31,.85-.52,1.48-.62l-.31-37.09c0-4.86,.47-8.95,1.4-12.26,.93-3.31,1.99-5.87,3.18-7.68,1.19-1.81,2.72-3.75,4.58-5.82,.72-1.03,1.81-1.55,3.26-1.55,.62,0,1.24,.16,1.86,.47l10.55,5.74c1.76,1.04,3.16,1.55,4.19,1.55,.83,0,1.6-.31,2.33-.93l.93-.78c1.45-1.76,2.79-3.26,4.04-4.5,.83-1.14,1.91-1.71,3.26-1.71,.62,0,1.24,.21,1.86,.62l10.09,7.6c1.24,1.04,2.59,1.55,4.04,1.55,1.03,0,1.86-.31,2.48-.93l1.86-1.71,.46,1.09c-1.24,2.59-1.86,8.02-1.86,16.3l-.31,59.6c0,7.45,.18,13.27,.54,17.46,.36,4.19,1.06,6.44,2.09,6.75l.62,.15c1.03,0,2.17-.83,3.41-2.48,1.55-2.27,2.79-5.02,3.72-8.23,.93-3.21,1.4-6.41,1.4-9.62,0-5.69-1.24-9.83-3.73-12.42l.31-1.71c3.31,3.31,4.97,8.07,4.97,14.28,0,4.04-.67,8.18-2.02,12.42-1.35,4.24-3,7.81-4.97,10.71-2.38,3.31-4.29,5.84-5.74,7.6-1.45,1.76-2.38,2.77-2.79,3.03-.41,.26-.93,.33-1.55,.23-5.69-.93-8.54-9.41-8.54-25.45l.15-67.82c0-2.07,.33-3.75,1.01-5.04,.67-1.29,1.65-2.72,2.95-4.27,1.29-1.55,2.15-2.59,2.56-3.1-.93,.62-1.97,.93-3.1,.93-1.35,0-2.54-.36-3.57-1.09l-9.62-6.83c-.52-.41-1.09-.62-1.71-.62-.83,0-1.5,.31-2.02,.93-1.55,1.86-2.56,4.04-3.03,6.52-.47,2.48-.7,6.88-.7,13.19l-.16,20.18h6.52c1.24,0,2.2-.28,2.87-.85,.67-.57,1.27-1.42,1.78-2.56h.93l-.93,4.97c-.41,2.59-.78,4.35-1.09,5.28-.31,.93-.91,1.58-1.78,1.94-.88,.36-2.36,.54-4.42,.54h-3.88l-.15,24.99c0,7.45,.18,13.27,.54,17.46,.36,4.19,1.06,6.44,2.09,6.75l.62,.15c1.03,0,2.17-.83,3.41-2.48,1.55-2.27,2.79-5.02,3.72-8.23,.93-3.21,1.4-6.41,1.4-9.62,0-5.69-1.24-9.83-3.72-12.42l.31-1.71c3.31,3.31,4.97,8.07,4.97,14.28,0,4.04-.67,8.18-2.02,12.42-1.35,4.24-3,7.81-4.97,10.71-2.38,3.31-4.29,5.84-5.74,7.6-1.45,1.76-2.38,2.77-2.79,3.03-.41,.26-.93,.33-1.55,.23-5.69-.93-8.54-9.41-8.54-25.45l.15-37.71h-5.9c-1.24,0-2.17,.26-2.79,.78-.62,.52-1.19,1.4-1.71,2.64h-1.09c.1-.62,.33-2.07,.7-4.35,.36-2.27,1.14-4.24,2.33-5.9,1.19-1.65,2.87-2.48,5.04-2.48h3.41v-18.62c.52-3.52,3.21-8.69,8.07-15.52-.21,.1-.62,.16-1.24,.16-1.14,0-2.48-.41-4.04-1.24l-10.09-4.97c-.62-.31-1.24-.47-1.86-.47-.83,0-1.4,.26-1.71,.78-2.69,2.9-4.04,8.75-4.04,17.54l.16,36.94c.52,.21,.98,.47,1.4,.78,.41,.31,.62,.62,.62,.93,0,.93-.67,1.6-2.02,2.02v4.35l4.35,8.85-4.19,10.09c-.31,3.72-1.04,7.04-2.17,9.93,1.97-.41,3.59-1.45,4.89-3.1,1.29-1.65,2.46-3.54,3.49-5.67,1.03-2.12,1.76-3.59,2.17-4.42l.78,.16c-1.45,4.86-3.21,9.13-5.28,12.8-2.07,3.67-4.06,6.57-5.98,8.69-1.92,2.12-3.44,3.34-4.58,3.65-.62,.21-1.14,.31-1.55,.31-.31,0-.88-.1-1.71-.31-6.21,5.9-13.81,8.85-22.81,8.85-4.55,0-9.05-.73-13.5-2.17-4.66-1.45-8.23-3.57-10.71-6.36-2.48-2.79-3.72-5.59-3.72-8.38,0-1.86,.62-3.41,1.86-4.66,1.24-1.24,2.95-1.86,5.12-1.86,3.21,0,6.83,1.3,10.86,3.88l-.16,1.4c-4.35-2.69-7.97-4.04-10.86-4.04-1.76,0-3.13,.47-4.11,1.4-.98,.93-1.47,2.17-1.47,3.72,0,2.48,1.19,5.02,3.57,7.6,2.38,2.58,5.69,4.55,9.93,5.9,4.66,1.45,9.21,2.17,13.66,2.17,8.38,0,15.31-2.59,20.8-7.76-1.86-.52-3.88-1.32-6.05-2.41-2.17-1.09-4.91-2.61-8.22-4.58l-4.35-2.33-8.07-4.5c-3.93-2.27-6.96-3.85-9.08-4.73-2.12-.88-4.58-1.32-7.37-1.32-3.41,0-6.36,.96-8.85,2.87-2.48,1.92-3.72,4.37-3.72,7.37,0,3.21,1.55,6.42,4.66,9.62l-.78,.47c-3.62-3.31-5.43-7.19-5.43-11.64,0-2.79,.8-5.38,2.41-7.76Zm49.01-34.74l-.46-4.29c-.23-3.42-.64-6.09-1.27-8.16-.75-2.47-2.4-4.55-4.9-6.2-2.4-1.57-5.83-2.45-10.47-2.69-10.21-.61-17.86-1.31-22.72-2.07-4.49-.7-7.73-1.8-9.63-3.27-1.59-1.23-2.37-3.12-2.37-5.78,0-4.71,1.56-8.14,4.78-10.47,3.44-2.49,8.03-3.76,13.63-3.76,4.85,0,9.94,.89,15.12,2.65,4.73,1.61,8.95,4.37,12.56,8.22,3.69,3.93,6.59,8.46,8.63,13.45,2.03,4.98,3.06,9.89,3.06,14.58,0,2.22-.28,4.32-.85,6.31-.83,3.24-2.6,6.58-5.25,9.95-.08,.1-.17,.2-.26,.3h-1.18c1.4-3.19,1.93-6.16,1.57-8.78Z"/>
</svg>