<svg id="Слой_1" data-name="Слой 1" xmlns="http://www.w3.org/2000/svg" viewBox="0 0 300 300">
  <defs>
    <style>
      .cls-1 {
        fill: #efefef;
      }
    </style>
  </defs>
  <g>
    <path class="cls-1" d="M150,266.94A116.94,116.94,0,1,1,266.94,150,117.07,117.07,0,0,1,150,266.94Zm0-231.81A114.87,114.87,0,1,0,264.87,150,115,115,0,0,0,150,35.13Z"/>
    <g>
      <path class="cls-1" d="M182.4,31.32c0,.12-.06.17-.12.16-.6-.11-1.08-.21-1.42-.3l-2-.4-2.12-.36-1.4-.23c-.06,0-.08-.08-.06-.2s.06-.16.12-.15a7,7,0,0,0,1.68.16,1.06,1.06,0,0,0,.82-.43,3.43,3.43,0,0,0,.43-1.26l1.27-6.8-11.15-2.08-1.27,6.8a3.47,3.47,0,0,0-.06,1.33,1.06,1.06,0,0,0,.61.69,6.51,6.51,0,0,0,1.63.46s0,.07,0,.18-.06.17-.09.17c-.6-.11-1.08-.21-1.42-.3l-2.09-.42-2-.34-1.46-.24s0-.07,0-.19,0-.17.09-.16a6.75,6.75,0,0,0,1.67.16,1.05,1.05,0,0,0,.83-.43,3.43,3.43,0,0,0,.43-1.26l2.51-13.45a3.33,3.33,0,0,0,0-1.31,1.1,1.1,0,0,0-.61-.7,6,6,0,0,0-1.59-.46s-.05-.07,0-.19,0-.17.09-.16l1.48.31c.8.18,1.45.32,1.93.41s1.27.22,2.13.34l1.4.23s0,.07,0,.19-.05.17-.09.16a6.1,6.1,0,0,0-1.68-.13,1.1,1.1,0,0,0-.83.46,3.25,3.25,0,0,0-.43,1.26l-1.12,6,11.15,2.08,1.12-6a3.43,3.43,0,0,0,0-1.33,1.12,1.12,0,0,0-.6-.73,5.88,5.88,0,0,0-1.62-.48c-.06,0-.08-.08-.06-.19s.07-.17.12-.16l1.39.29c.85.2,1.55.35,2.11.45s1.2.21,2,.32l1.43.24c.05,0,.07.07.05.19s-.06.16-.12.15a6.52,6.52,0,0,0-1.66-.14,1.1,1.1,0,0,0-.81.43,3.3,3.3,0,0,0-.43,1.25l-2.51,13.45a3.19,3.19,0,0,0-.05,1.32,1,1,0,0,0,.6.7,7,7,0,0,0,1.6.45C182.4,31.14,182.42,31.21,182.4,31.32Z"/>
      <path class="cls-1" d="M203.23,39.06c0,.11-.1.15-.17.12-.35-.13-.89-.35-1.61-.67l-1.58-.66c-.41-.15-.93-.33-1.57-.53s-1.06-.34-1.38-.46c-.07,0-.09-.1,0-.21s.09-.15.17-.12a4.44,4.44,0,0,0,1.56.37.74.74,0,0,0,.73-.48,4,4,0,0,0,.09-1.33l-.62-8-5.22-2-4.51,4.74a4.49,4.49,0,0,0-1,1.4c-.42,1.09.28,2,2.08,2.66.1,0,.12.1.08.22s-.11.14-.2.11q-.49-.2-1.41-.6c-.69-.3-1.29-.55-1.81-.75s-1-.37-1.68-.57-1-.33-1.4-.47c-.09,0-.12-.1-.07-.21s.1-.15.2-.12a2.83,2.83,0,0,0,1.42.21,3.22,3.22,0,0,0,1.41-.64,13.07,13.07,0,0,0,1.86-1.71l11-11.55a.23.23,0,0,1,.23,0c.09,0,.13.08.13.14l1.32,16.21a11.64,11.64,0,0,0,.57,3.35,2.22,2.22,0,0,0,1.3,1.3C203.26,38.88,203.28,39,203.23,39.06Zm-9.17-14.4,4.69,1.77-.49-6.19Z"/>
      <path class="cls-1" d="M209.08,41.52a1,1,0,0,0,.34.83,6.53,6.53,0,0,0,1.38.9c.06,0,0,.1,0,.2s-.11.14-.16.12c-.53-.28-.94-.51-1.24-.7l-1.84-1-1.81-.93c-.33-.15-.76-.37-1.3-.66,0,0,0-.09,0-.2s.11-.14.16-.11a6.86,6.86,0,0,0,1.52.64,1,1,0,0,0,.89-.18,3.38,3.38,0,0,0,.79-1.07l6.41-12.08a3.19,3.19,0,0,0,.44-1.24,1.08,1.08,0,0,0-.35-.84,6.31,6.31,0,0,0-1.37-.92c-.06,0,0-.09,0-.19s.11-.15.16-.12l1.27.71c.71.42,1.3.75,1.77,1s1.16.6,1.91.95l1.24.63s0,.09,0,.19-.1.15-.16.12a5.45,5.45,0,0,0-1.5-.6,1.11,1.11,0,0,0-.91.2,3.23,3.23,0,0,0-.79,1.07l-6.39,12A3.89,3.89,0,0,0,209.08,41.52Z"/>
      <path class="cls-1" d="M228.92,55.56c-.07.1-.12.14-.15.11l-3.12-2.18q-.61-.43-.81-3.66c-.14-2.15-.13-5,0-8.59a5.93,5.93,0,0,1-1.42-.75q-.47-.33-1.05-.81l-4,5.75a3.66,3.66,0,0,0-.62,1.19,1,1,0,0,0,.25.86,6.31,6.31,0,0,0,1.25,1.06c.05,0,0,.1,0,.2s-.12.13-.17.1c-.5-.36-.89-.64-1.17-.86l-1.65-1.2-1.66-1.13c-.3-.18-.72-.46-1.25-.84,0,0,0-.08.05-.17s.12-.14.15-.12a6,6,0,0,0,1.45.82,1.13,1.13,0,0,0,.94-.05,3.13,3.13,0,0,0,.91-.94l7.86-11.2a3.43,3.43,0,0,0,.58-1.17,1.08,1.08,0,0,0-.24-.89A6.28,6.28,0,0,0,223.74,30c-.05,0,0-.1,0-.2s.12-.12.17-.09l1.17.86c.65.5,1.19.9,1.61,1.2s.57.39.84.55l.71.43c.55.31,1,.62,1.45.91a6.1,6.1,0,0,1,2.47,2.92,3.21,3.21,0,0,1-.5,3,4.73,4.73,0,0,1-2.21,1.71,6,6,0,0,1-2.94.38q-.09,4.52.09,7.23a16.33,16.33,0,0,0,.75,4.24A4.49,4.49,0,0,0,229,55.38S229,55.47,228.92,55.56Zm-4.76-15.39a4.12,4.12,0,0,0,2.9,1,4,4,0,0,0,2.39-1.88c1.64-2.34,1.48-4.19-.49-5.57a4,4,0,0,0-1.06-.58.91.91,0,0,0-.79.13,3.83,3.83,0,0,0-1,1l-3.36,4.79A10.57,10.57,0,0,0,224.16,40.17Z"/>
      <path class="cls-1" d="M246.88,67.78a.42.42,0,0,1,.09.14.09.09,0,0,1,0,.11,28.18,28.18,0,0,0-3,2.48.49.49,0,0,1-.31.15.5.5,0,0,1-.33-.2l-8.46-9s0-.08.09-.16.14-.11.17-.08a6.89,6.89,0,0,0,1.22,1.1,1.07,1.07,0,0,0,.91.12,3.22,3.22,0,0,0,1.09-.76l10-9.35a3.22,3.22,0,0,0,.82-1,1.12,1.12,0,0,0-.06-.91,5.86,5.86,0,0,0-1-1.31s0-.09.08-.17.15-.1.17-.08l8.12,8.68a.23.23,0,0,1,0,.37l-2.62,2.53s-.1,0-.17,0-.1-.12-.07-.18a3.6,3.6,0,0,0,1.13-2.35,3,3,0,0,0-.92-2.26l-1.23-1.32a5.5,5.5,0,0,0-1.15-1,1.12,1.12,0,0,0-.88-.11,2.89,2.89,0,0,0-1,.68l-4.38,4.1,2.46,2.63a3.3,3.3,0,0,0,1.73,1.15,1.91,1.91,0,0,0,1.58-.64s.08,0,.16.09.11.14.08.17l-1.77,1.61c-.42.39-.73.69-.93.91l-1,1s-.09,0-.17-.09-.1-.14-.08-.17a2.34,2.34,0,0,0,.93-1.73,3.2,3.2,0,0,0-1-1.93l-2.41-2.57-5,4.64a3,3,0,0,0-.76,1,1,1,0,0,0,.05.84,5.45,5.45,0,0,0,.9,1.18l1.62,1.73a3.12,3.12,0,0,0,2.35,1,5.33,5.33,0,0,0,2.9-1S246.82,67.72,246.88,67.78Z"/>
      <path class="cls-1" d="M256,87.61c-.1.06-.16.08-.18,0-.29-.42-.51-.76-.66-1l-.91-1.35-1.32-1.86c-.22-.28-.5-.67-.85-1.17,0,0,0-.08.11-.15s.16-.09.18-.05a4.39,4.39,0,0,0,.76.88.41.41,0,0,0,.51.07,1.21,1.21,0,0,0,.39-.59l3-7.56-6.48-.07a3.16,3.16,0,0,0-1.74.34c-.57.39-.52,1.07.14,2,0,0,0,.11-.1.18s-.16.07-.19,0q-.51-.74-.75-1.14l-1.14-1.69-.73-1c-.14-.17-.36-.46-.65-.88,0,0,0-.11.1-.18s.16-.08.19,0q1.17,1.68,4.5,1.77l7.06.18,3.22-8a5.66,5.66,0,0,0,.5-2.2,3.24,3.24,0,0,0-.62-1.75s0-.08.11-.15.16-.09.18-.05l.62.94c.26.44.46.76.59,1,.38.55.86,1.2,1.43,2l.9,1.25s0,.1-.1.17-.16.08-.19,0a3.94,3.94,0,0,0-.75-.87.44.44,0,0,0-.55-.07,1.42,1.42,0,0,0-.38.59l-2.92,7.35,6,0a3.42,3.42,0,0,0,2-.38c.57-.4.53-1-.09-2q-.06-.08.09-.18c.1-.06.16-.07.2,0l.73,1.12c.4.63.77,1.2,1.11,1.7.21.29.46.62.76,1l.65.88s0,.11-.1.17-.16.08-.19,0a3.61,3.61,0,0,0-1.77-1.25,9.39,9.39,0,0,0-3-.5L259,75l-3.31,8.3a5.07,5.07,0,0,0-.43,2.22,4,4,0,0,0,.76,1.94S256.05,87.54,256,87.61Z"/>
      <path class="cls-1" d="M259.75,93.17a1.53,1.53,0,0,0-.11,1.15,10.74,10.74,0,0,0,.87,2.13s0,.1-.12.16-.18,0-.2,0c-.36-.73-.63-1.3-.82-1.71l-1.11-2.32-.91-1.76c-.19-.32-.42-.77-.7-1.33,0,0,0-.08.14-.14s.16-.06.18,0a6.34,6.34,0,0,0,.86,1.4,1,1,0,0,0,.83.37,3.92,3.92,0,0,0,1.25-.43l12.26-6.09a3.47,3.47,0,0,0,1.08-.73,1,1,0,0,0,.21-.88,5.86,5.86,0,0,0-.59-1.54s0-.08.14-.13.16-.06.18,0l.63,1.34c.33.76.61,1.36.83,1.8a16.3,16.3,0,0,0,.82,1.44c.1.21.28.54.54,1s.46.84.63,1.18a7.17,7.17,0,0,1,.85,4.44,4.27,4.27,0,0,1-2.58,3.11,5.42,5.42,0,0,1-3.36.6,5.8,5.8,0,0,1-2.87-1.33,7.87,7.87,0,0,1-2-2.49,5.52,5.52,0,0,1-.49-1.33q0-.09.09-.15a.34.34,0,0,1,.18,0c.06,0,.1,0,.09.07a5.37,5.37,0,0,0,.37,1,4.63,4.63,0,0,0,2.61,2.39,4.83,4.83,0,0,0,3.88-.43,5.18,5.18,0,0,0,2.73-2.77,4.29,4.29,0,0,0-.25-3.51,6.82,6.82,0,0,0-.79-1.33,1,1,0,0,0-.79-.36,3.47,3.47,0,0,0-1.37.45l-12.1,6A3,3,0,0,0,259.75,93.17Z"/>
      <path class="cls-1" d="M272.15,115a.33.33,0,0,1,0,.17.1.1,0,0,1-.06.1,28.12,28.12,0,0,0-3.77,1,.51.51,0,0,1-.36,0,.54.54,0,0,1-.21-.32l-4-11.72s0-.07.14-.11.18,0,.19,0a6.48,6.48,0,0,0,.67,1.5,1,1,0,0,0,.77.49,3.37,3.37,0,0,0,1.31-.24l12.95-4.42a3.26,3.26,0,0,0,1.17-.61,1.11,1.11,0,0,0,.32-.85,6.19,6.19,0,0,0-.38-1.61s0-.07.15-.11.17,0,.18,0l3.84,11.24a.24.24,0,0,1-.17.34l-3.42,1.23c-.05,0-.1,0-.14-.11s0-.15,0-.19a3.59,3.59,0,0,0,2-1.68,3,3,0,0,0,.09-2.44l-.58-1.7a4.9,4.9,0,0,0-.65-1.39,1.05,1.05,0,0,0-.74-.46,2.81,2.81,0,0,0-1.2.2l-5.68,1.94,1.17,3.41a3.31,3.31,0,0,0,1.1,1.76,1.92,1.92,0,0,0,1.71.06s.07,0,.11.15,0,.17,0,.19l-2.28.74-1.22.45-1.33.49s-.07,0-.11-.15,0-.18,0-.19a2.35,2.35,0,0,0,1.55-1.2,3.14,3.14,0,0,0-.15-2.18L274,105.46l-6.44,2.19a3.1,3.1,0,0,0-1.08.56,1,1,0,0,0-.3.79,5.39,5.39,0,0,0,.34,1.45l.76,2.23A3.15,3.15,0,0,0,269,114.6a5.33,5.33,0,0,0,3,.3S272.13,114.92,272.15,115Z"/>
      <path class="cls-1" d="M272.52,138.21c-.11,0-.18,0-.18,0l-.69-3.75c-.09-.48.57-1.54,2-3.17a85.82,85.82,0,0,1,6.05-6.11,5.5,5.5,0,0,1-.49-1.53c-.07-.37-.13-.81-.19-1.32l-6.91,1.27a3.59,3.59,0,0,0-1.28.41,1,1,0,0,0-.42.78,6.38,6.38,0,0,0,.14,1.64c0,.06,0,.1-.15.12s-.19,0-.2,0c-.1-.6-.18-1.08-.22-1.43l-.34-2-.39-2c-.09-.35-.19-.84-.3-1.48,0,0,0-.07.16-.09s.18,0,.19,0a6,6,0,0,0,.45,1.59,1.19,1.19,0,0,0,.7.63,3.29,3.29,0,0,0,1.32,0l13.46-2.46a3.44,3.44,0,0,0,1.24-.42,1.13,1.13,0,0,0,.44-.81,6.32,6.32,0,0,0-.13-1.64c0-.06,0-.1.15-.12s.18,0,.19.06l.23,1.43c.11.82.22,1.48.31,2q.09.52.21,1c.07.3.14.57.2.8a15.84,15.84,0,0,1,.4,1.67,6,6,0,0,1-.3,3.81,3.19,3.19,0,0,1-2.44,1.77,4.81,4.81,0,0,1-2.78-.34,6,6,0,0,1-2.35-1.79c-2.16,2.1-3.83,3.83-5,5.21a16.37,16.37,0,0,0-2.45,3.54,4.58,4.58,0,0,0-.45,2.73S272.64,138.19,272.52,138.21Zm7.42-14.3a4.07,4.07,0,0,0,1.38,2.72,4,4,0,0,0,3,.35q4.21-.78,3.57-4.32a4,4,0,0,0-.34-1.15,1,1,0,0,0-.66-.47,4,4,0,0,0-1.41.08l-5.76,1A11.19,11.19,0,0,0,279.94,123.91Z"/>
      <path class="cls-1" d="M289.09,137.85a6.12,6.12,0,0,0-3.27-1.21s-.06,0-.06-.16,0-.16.05-.17c.71.05,1.64.11,2.78.16s2,.07,2.58,0c.1,0,.15.05.15.16a.14.14,0,0,1-.14.17c-.43,0-.63.55-.58,1.62q0,2.5.15,5.93c0,1.17.11,2.4.2,3.69l.12,2a5.52,5.52,0,0,0,.21,1.57.9.9,0,0,0,.61.64.17.17,0,0,1,.13.18c0,.09,0,.15-.11.15-.58,0-1.45-.06-2.61-.07s-2.11,0-2.84,0c0,0-.06-.06-.06-.17s0-.18.05-.18a5.07,5.07,0,0,0,3.2-1.08,3.73,3.73,0,0,0,.81-2.87,10.11,10.11,0,0,0-.19-1.88,1.08,1.08,0,0,0-.54-.75,3,3,0,0,0-1.31-.16l-13.6.55a3.28,3.28,0,0,0-1.33.26,1.18,1.18,0,0,0-.53.82,8.43,8.43,0,0,0-.06,1.87q0,.09-.18.09c-.12,0-.18,0-.18-.08q0-1,0-1.56l-.07-2.31-.12-2.21q0-.58-.09-1.62s.06-.06.17-.07.18,0,.18.05a9.18,9.18,0,0,0,.22,1.86,1.19,1.19,0,0,0,.62.79,3,3,0,0,0,1.32.16l13.67-.55a2.88,2.88,0,0,0,1.27-.25,1,1,0,0,0,.44-.79,10.71,10.71,0,0,0,0-1.9A3.74,3.74,0,0,0,289.09,137.85Z"/>
      <path class="cls-1" d="M287.56,179.22c0-.05.08-.07.19-.05s.17.06.16.12l-.26,1.24q-.24,1-.36,1.65c-.06.33-.13.81-.2,1.43l-.2,1.23s-.07,0-.18,0-.17-.06-.17-.09q.43-2.33-2.42-2.85l-8.25-1.52a7.23,7.23,0,0,1-4.88-2.82,6.86,6.86,0,0,1-.95-5.34,8.11,8.11,0,0,1,1.53-3.61,6.18,6.18,0,0,1,2.86-2.06,7.32,7.32,0,0,1,3.81-.21l9.3,1.71a3.83,3.83,0,0,0,1.31.06,1.06,1.06,0,0,0,.69-.58A6.1,6.1,0,0,0,290,166s.07,0,.18,0,.17.05.17.09l-.3,1.42c-.18.8-.32,1.46-.41,2s-.21,1.23-.32,2.05l-.23,1.4c0,.06-.07.07-.19,0s-.17-.06-.16-.12a5.3,5.3,0,0,0,.12-1.63,1.07,1.07,0,0,0-.46-.8,3.8,3.8,0,0,0-1.27-.42l-8.22-1.51a8,8,0,0,0-5.5.6,5.5,5.5,0,0,0-2.62,4,5.23,5.23,0,0,0,.9,4.37,6.73,6.73,0,0,0,4.28,2.29l8.28,1.52Q287.1,181.76,287.56,179.22Z"/>
      <path class="cls-1" d="M278.43,208.49c-.11,0-.16-.09-.14-.15a2.2,2.2,0,0,0,0-1.92,3.47,3.47,0,0,0-1.88-1.3l-14.61-5.41s0-.07,0-.17.05-.16.1-.18l20.16-7,.37-.14-12.31-4.56a3.43,3.43,0,0,0-2.25-.25,2.13,2.13,0,0,0-1.23,1.41c0,.06-.09.07-.2,0s-.16-.08-.14-.14c.18-.46.32-.81.42-1l.54-1.38.5-1.42c.08-.27.21-.65.39-1.15,0,0,.08,0,.19,0s.16.08.14.12a2.2,2.2,0,0,0,0,1.92,3.6,3.6,0,0,0,1.88,1.26l13,4.8A3.49,3.49,0,0,0,285.1,190c0-.06.08-.07.19,0s.16.09.14.15l-.41,1c-.1.22-.22.52-.37.91s-.26.74-.34,1a4.56,4.56,0,0,1-.2.62.45.45,0,0,1-.21.29,4.23,4.23,0,0,1-.55.16c-.41.1-.8.2-1.16.32l-17.06,5.82,11.5,4.25a3.66,3.66,0,0,0,2.26.29,2.06,2.06,0,0,0,1.24-1.39s.07,0,.19,0,.16.08.14.12l-.43,1.07c-.24.54-.43,1-.55,1.34s-.28.8-.47,1.4l-.39,1.15C278.6,208.52,278.54,208.53,278.43,208.49Z"/>
      <path class="cls-1" d="M258.75,208.66a1,1,0,0,0-.84.35,7,7,0,0,0-.89,1.38c0,.05-.09.05-.2,0s-.14-.11-.11-.17c.27-.52.5-.93.68-1.24l1-1.84.92-1.82c.15-.32.36-.75.65-1.29,0-.06.09-.05.19,0s.15.11.12.16a6.27,6.27,0,0,0-.63,1.52,1,1,0,0,0,.18.9,3.54,3.54,0,0,0,1.07.78L273,213.76a3.25,3.25,0,0,0,1.24.43,1.07,1.07,0,0,0,.84-.36,5.78,5.78,0,0,0,.91-1.37c0-.06.09-.05.2,0s.14.11.11.16l-.7,1.27c-.42.71-.75,1.31-1,1.78s-.59,1.16-.94,1.91l-.62,1.24c0,.05-.09.05-.2,0s-.14-.11-.11-.16a5.51,5.51,0,0,0,.59-1.51,1.09,1.09,0,0,0-.21-.91,3.23,3.23,0,0,0-1.07-.78L260,209.12A3.62,3.62,0,0,0,258.75,208.66Z"/>
      <path class="cls-1" d="M259.91,238.55c-.1-.07-.13-.13-.1-.18a2.9,2.9,0,0,0,.56-1.73,4,4,0,0,0-.77-2l-9.35-14.15q-.09-.09.09-.33a.35.35,0,0,1,.28-.2L267.94,223a4.48,4.48,0,0,0,1.95.05,2.17,2.17,0,0,0,1.21-.92c0-.05.1,0,.2,0s.12.13.09.17l-.66.91c-.35.43-.62.78-.81,1.06-.45.65-.92,1.35-1.4,2.12l-.67,1c0,.05-.1,0-.19,0s-.13-.12-.1-.17a3,3,0,0,0,.59-1.26.84.84,0,0,0-.39-.84,2.68,2.68,0,0,0-.93-.32l-14.64-2.64,7.91,12a3.25,3.25,0,0,0,.67.75,1,1,0,0,0,1.07.06,4,4,0,0,0,1.24-1.26s.1,0,.2,0,.13.13.09.18l-.75,1c-.41.53-.78,1-1.09,1.48s-.48.73-.74,1.17l-.69,1S260,238.62,259.91,238.55Z"/>
      <path class="cls-1" d="M238.22,241.5a.42.42,0,0,1-.14.09.11.11,0,0,1-.11,0,27.17,27.17,0,0,0-2.66-2.87.46.46,0,0,1-.17-.31.48.48,0,0,1,.17-.34l8.49-9s.08,0,.17.08.12.13.09.16a7,7,0,0,0-1,1.3,1,1,0,0,0-.06.91,3.4,3.4,0,0,0,.82,1l10,9.38a3.4,3.4,0,0,0,1.08.75,1.12,1.12,0,0,0,.91-.13,5.65,5.65,0,0,0,1.24-1.08s.08,0,.17.08.11.14.09.17l-8.14,8.64a.24.24,0,0,1-.38,0L246,247.93s0-.1,0-.18.12-.11.17-.08a3.64,3.64,0,0,0,2.43,1,3,3,0,0,0,2.19-1.06l1.23-1.31a4.93,4.93,0,0,0,.93-1.22,1.14,1.14,0,0,0,.06-.88,3.16,3.16,0,0,0-.74-1L248,239.11l-2.47,2.63a3.29,3.29,0,0,0-1,1.79,1.92,1.92,0,0,0,.74,1.54s0,.08-.08.17-.13.11-.16.09l-1.72-1.67c-.42-.39-.74-.68-1-.87l-1.05-.95s0-.08.08-.17.13-.11.16-.08a2.39,2.39,0,0,0,1.79.81,3.22,3.22,0,0,0,1.86-1.15l2.41-2.56-5-4.66a3,3,0,0,0-1-.7,1,1,0,0,0-.83.1,5.58,5.58,0,0,0-1.13,1L238,236.13a3.08,3.08,0,0,0-.88,2.41,5.25,5.25,0,0,0,1.15,2.83S238.27,241.44,238.22,241.5Z"/>
      <path class="cls-1" d="M217.86,252.68c-.08-.09-.1-.15-.07-.18l3-2.36c.39-.3,1.63-.21,3.73.28s4.84,1.32,8.23,2.49a5.46,5.46,0,0,1,1.12-1.14c.29-.24.66-.49,1.08-.78l-4.35-5.53a3.47,3.47,0,0,0-1-.93,1,1,0,0,0-.89,0,6.4,6.4,0,0,0-1.38.89c-.05,0-.11,0-.18-.08s-.09-.16,0-.19c.48-.38.86-.67,1.16-.87l1.62-1.24,1.56-1.27c.26-.23.65-.55,1.16-.95,0,0,.09,0,.16.1s.09.15.06.17a6.39,6.39,0,0,0-1.2,1.15,1.17,1.17,0,0,0-.22.91,2.88,2.88,0,0,0,.64,1.15L240.55,255a3.12,3.12,0,0,0,1,.91,1.07,1.07,0,0,0,.91,0,6.05,6.05,0,0,0,1.39-.88s.1,0,.18.08.08.16,0,.19l-1.16.87c-.67.49-1.21.88-1.61,1.2s-.54.44-.78.65l-.61.55a16.78,16.78,0,0,1-1.29,1.13,6,6,0,0,1-3.51,1.52,3.2,3.2,0,0,1-2.7-1.33,4.75,4.75,0,0,1-1-2.61,5.9,5.9,0,0,1,.48-2.92q-4.29-1.4-6.95-2a16.24,16.24,0,0,0-4.27-.51,4.58,4.58,0,0,0-2.62.88S217.93,252.77,217.86,252.68Zm16.11-.12a4,4,0,0,0-1.76,2.49,4,4,0,0,0,1.1,2.84q2.66,3.36,5.48,1.13a4,4,0,0,0,.86-.84.93.93,0,0,0,.11-.8,4.13,4.13,0,0,0-.73-1.21l-3.62-4.6A9.85,9.85,0,0,0,234,252.56Z"/>
      <path class="cls-1" d="M220.51,265.69a5.18,5.18,0,0,0-1.9-.55c-.65-.06-1.54-.11-2.68-.13s-2.13-.05-2.84-.12a5.62,5.62,0,0,1-2.06-.62,4.23,4.23,0,0,1-1.68-1.68,4.72,4.72,0,0,1,.2-5.19,7.39,7.39,0,0,1,2.51-2.24,8.58,8.58,0,0,1,4.11-1.21.47.47,0,0,1,.28.08l.24.27,2.36,3.28c.06.06,0,.12,0,.19s-.16.08-.21,0a8.5,8.5,0,0,0-3.37-2.27,4.24,4.24,0,0,0-3.72.39,3.85,3.85,0,0,0-1.74,2,3.06,3.06,0,0,0,.42,2.74,4.31,4.31,0,0,0,1.67,1.69,5.49,5.49,0,0,0,2.05.67c.7.08,1.61.12,2.73.13s2,.07,2.68.15a5.28,5.28,0,0,1,2,.66,4.18,4.18,0,0,1,1.6,1.63,4.06,4.06,0,0,1,.6,2.57,4.74,4.74,0,0,1-1,2.38,6.81,6.81,0,0,1-2,1.8,9,9,0,0,1-3.34,1.13.52.52,0,0,1-.64-.21l-1.9-2.82c0-.07,0-.13.07-.18s.16-.05.21,0a6.06,6.06,0,0,0,2.54,1.82,3.55,3.55,0,0,0,3.24-.37,3,3,0,0,0,1.64-2.08,3.51,3.51,0,0,0-.49-2.46A3.6,3.6,0,0,0,220.51,265.69Z"/>
      <path class="cls-1" d="M200.32,262.83a1,1,0,0,0-.87-.23,6,6,0,0,0-1.56.55s-.1,0-.15-.13-.05-.17,0-.2c.54-.24,1-.43,1.31-.56l1.92-.85,1.84-.87c.31-.17.75-.38,1.3-.63.06,0,.11,0,.16.12s0,.18,0,.2a6.54,6.54,0,0,0-1.43.82,1,1,0,0,0-.4.82,3.22,3.22,0,0,0,.37,1.27l5.69,12.44a3.25,3.25,0,0,0,.71,1.11,1.15,1.15,0,0,0,.89.23,6.41,6.41,0,0,0,1.56-.54s.1,0,.15.13,0,.17,0,.19l-1.33.58c-.77.31-1.39.57-1.87.79s-1.18.56-1.91.94l-1.25.61c-.06,0-.11,0-.16-.13s-.05-.17,0-.2a5.44,5.44,0,0,0,1.39-.83,1.14,1.14,0,0,0,.39-.84,3.44,3.44,0,0,0-.37-1.28L201,264A3.74,3.74,0,0,0,200.32,262.83Z"/>
      <path class="cls-1" d="M198.85,280.78a6.25,6.25,0,0,0,.29-3.48s0-.07.14-.11.16,0,.17,0q.21,1.05.6,2.73c.26,1.12.47,1.95.64,2.49a.13.13,0,0,1-.11.19c-.1,0-.17,0-.19-.09-.14-.41-.71-.46-1.73-.13q-2.41.67-5.67,1.73c-1.11.36-2.28.75-3.5,1.19l-1.91.64a6.42,6.42,0,0,0-1.46.63.93.93,0,0,0-.45.76c0,.08,0,.14-.13.17s-.15,0-.18-.07c-.12-.56-.32-1.4-.63-2.53s-.56-2-.78-2.73c0,0,0-.07.15-.11s.18,0,.19,0a5.13,5.13,0,0,0,1.89,2.8,3.72,3.72,0,0,0,3,0,10.26,10.26,0,0,0,1.76-.69,1.07,1.07,0,0,0,.58-.71,3.08,3.08,0,0,0-.2-1.3l-4.17-13a3.13,3.13,0,0,0-.61-1.2,1.11,1.11,0,0,0-.93-.29,8.12,8.12,0,0,0-1.82.43c-.05,0-.09,0-.13-.14s0-.18,0-.2c.61-.2,1.12-.35,1.5-.45l2.2-.68,2.1-.71c.37-.13.88-.31,1.54-.52,0,0,.07,0,.11.15s0,.17,0,.19a8.23,8.23,0,0,0-1.73.71,1.21,1.21,0,0,0-.6.79,3.19,3.19,0,0,0,.19,1.32l4.19,13a2.83,2.83,0,0,0,.59,1.16,1,1,0,0,0,.88.21,10.36,10.36,0,0,0,1.83-.48A3.76,3.76,0,0,0,198.85,280.78Z"/>
      <path class="cls-1" d="M163.08,290.47c0-.12,0-.18,0-.19a3.71,3.71,0,0,0,2-1.11,7.41,7.41,0,0,0,1.58-2.43l3-6.63-1.06-6.62a3.49,3.49,0,0,0-.38-1.29,1,1,0,0,0-.78-.44,6.09,6.09,0,0,0-1.64.11c-.06,0-.1,0-.12-.16s0-.18.06-.19c.61-.1,1.08-.16,1.41-.2l2-.29,2-.36c.35-.07.83-.16,1.43-.25.06,0,.1,0,.11.16s0,.18-.06.19a6.74,6.74,0,0,0-1.59.4,1,1,0,0,0-.61.68,3.5,3.5,0,0,0,0,1.33l1,6.16,6,6.31a6.29,6.29,0,0,0,1.83,1.54,3,3,0,0,0,1.77.22c.06,0,.1,0,.12.16s0,.18-.06.19c-.23,0-.59.07-1.06.11l-1,.13c-.66.11-1.49.26-2.5.46l-1.56.29s-.07-.05-.09-.17,0-.18,0-.18c1-.17,1.48-.45,1.42-.86a1.36,1.36,0,0,0-.41-.68l-5.8-6.14-2.69,6a3.51,3.51,0,0,0-.36,1.82c.11.7.69,1,1.74.8,0,0,.07.05.09.17s0,.18,0,.18l-1.38.19c-.75.08-1.43.17-2,.27-.33.05-.73.14-1.19.25l-1.07.2S163.1,290.58,163.08,290.47Z"/>
    </g>
    <path class="cls-1" d="M150,300C67.29,300,0,232.71,0,150S67.29,0,150,0,300,67.29,300,150,232.71,300,150,300ZM150,2.06C68.43,2.06,2.06,68.43,2.06,150S68.43,297.94,150,297.94,297.94,231.57,297.94,150,231.57,2.06,150,2.06Z"/>
    <g>
      <path class="cls-1" d="M42.52,225.25a12.89,12.89,0,0,0,1.73,1.93l5.84-4.13a1.93,1.93,0,0,0,.92-1.31,3.47,3.47,0,0,0-.86-2,4.68,4.68,0,0,0-2.87-2.19,4.77,4.77,0,0,0-3.37,1.1,5.2,5.2,0,0,0-2.43,3.17A4.73,4.73,0,0,0,42.52,225.25Z"/>
      <polygon class="cls-1" points="111.06 275.83 106.3 274.22 107.02 280.39 111.06 275.83"/>
      <path class="cls-1" d="M128,286.23l2.21-13.86a7.62,7.62,0,0,0-5.21,1.25,6.52,6.52,0,0,0-2.6,4.54,6.66,6.66,0,0,0,5.6,8.07Z"/>
      <path class="cls-1" d="M135.06,285.23a6.66,6.66,0,0,0,2.46-4.44,7.18,7.18,0,0,0-.93-5.13,7.09,7.09,0,0,0-4.54-3l-2.21,13.86A7.49,7.49,0,0,0,135.06,285.23Z"/>
      <path class="cls-1" d="M11.34,135.92a2.27,2.27,0,0,0,1.27.49l13.19,1.67a3.11,3.11,0,0,0,1.41-.08,1.54,1.54,0,0,0,.87-.84,6.25,6.25,0,0,0,.5-1.92,8.82,8.82,0,0,0-.46-4.29,6.91,6.91,0,0,0-2.54-3.19,9.92,9.92,0,0,0-4.49-1.6,11,11,0,0,0-4.76.39,7.74,7.74,0,0,0-3.63,2.34,7.22,7.22,0,0,0-1.72,4,9.63,9.63,0,0,0-.1,2A1.6,1.6,0,0,0,11.34,135.92Z"/>
      <path class="cls-1" d="M150,34.08V1A149,149,0,0,0,150,299V265.92a115.92,115.92,0,0,1,0-231.84Zm-38.4-21,1.07-.19c.2,0,.47-.07.82-.14s.64-.14.88-.21a4.42,4.42,0,0,1,.55-.14.78.78,0,0,1,.68.14,6,6,0,0,1,1,1.09L125.81,26l3.36-15.68c.11-.53.35-.83.72-.91l.42,0a6.61,6.61,0,0,0,.75-.13l1.35-.3c.21-.07.53-.14,1-.23.06,0,.1,0,.12.16s0,.18,0,.19a4,4,0,0,0-2,.84,1.74,1.74,0,0,0-.27,1.7l3.33,13.28a3.58,3.58,0,0,0,.48,1.26,1,1,0,0,0,.8.41,6.36,6.36,0,0,0,1.62-.18c.06,0,.1,0,.12.16s0,.18-.05.19c-.6.12-1.07.21-1.42.26l-2,.38-1.84.41-1.3.3s-.07-.05-.09-.17,0-.17,0-.18a5.42,5.42,0,0,0,1.43-.46,1,1,0,0,0,.52-.7,3.36,3.36,0,0,0-.16-1.29L129.4,12.15,126,28.81a.27.27,0,0,1-.21.17.35.35,0,0,1-.29-.07L115.23,15.24l2.24,12.24a3.33,3.33,0,0,0,1,2.06,2.52,2.52,0,0,0,2.07.24s.07,0,.1.16,0,.18,0,.19c-.54.11-1,.18-1.25.22l-1.57.29-1.5.34c-.27.08-.65.17-1.15.27,0,0-.07-.05-.1-.16s0-.18,0-.19a2.2,2.2,0,0,0,1.62-1,3.55,3.55,0,0,0,.12-2.27l-2.49-13.48a2.87,2.87,0,0,0-2.61-.68s-.07,0-.1-.16S111.56,13.13,111.6,13.12ZM93.49,20l11.07-4.3a.23.23,0,0,1,.34.16l1.37,3.36c0,.06,0,.11-.1.15s-.15.05-.19,0a3.62,3.62,0,0,0-1.76-1.93,3,3,0,0,0-2.44,0l-1.68.65a5.17,5.17,0,0,0-1.36.7,1.11,1.11,0,0,0-.43.77,3,3,0,0,0,.25,1.19l2.17,5.59L104.09,25a3.29,3.29,0,0,0,1.72-1.17,1.9,1.9,0,0,0,0-1.7s0-.08.14-.12.17-.05.19,0l.84,2.24c.2.53.37.93.49,1.2l.55,1.31s0,.08-.15.12-.17.05-.19,0a2.38,2.38,0,0,0-1.26-1.51,3.19,3.19,0,0,0-2.17.25L101,26.92l2.46,6.33a3.14,3.14,0,0,0,.6,1.07,1,1,0,0,0,.8.26,5.36,5.36,0,0,0,1.43-.4l2.2-.85a3.11,3.11,0,0,0,1.84-1.8,5.25,5.25,0,0,0,.18-3s0-.07.09-.1l.16,0c.06,0,.09,0,.1.05A29.11,29.11,0,0,0,112,32.15a.48.48,0,0,1,0,.35.47.47,0,0,1-.3.23l-11.54,4.48s-.08,0-.12-.15,0-.17,0-.18a6.55,6.55,0,0,0,1.47-.73,1.05,1.05,0,0,0,.46-.8,3.59,3.59,0,0,0-.3-1.29l-5-12.76a3.19,3.19,0,0,0-.65-1.14,1.11,1.11,0,0,0-.87-.28,5.87,5.87,0,0,0-1.59.44s-.07,0-.11-.14S93.45,20,93.49,20ZM74.38,29.27c.1-.06.17,0,.22.05.21.38.78.3,1.71-.22,1.49-.77,3.23-1.71,5.22-2.84,1-.57,2.07-1.19,3.19-1.86l1.73-1a6.77,6.77,0,0,0,1.31-.9.93.93,0,0,0,.29-.85c0-.07,0-.14.09-.19s.15,0,.19,0c.23.53.6,1.32,1.12,2.36s1,1.88,1.32,2.51c0,0,0,.08-.13.14s-.16.07-.18,0A5.08,5.08,0,0,0,88,24.17a3.68,3.68,0,0,0-2.92.58,10.21,10.21,0,0,0-1.59,1,1.1,1.1,0,0,0-.43.82,3,3,0,0,0,.46,1.23L90.24,39.7a3.22,3.22,0,0,0,.84,1.06,1.17,1.17,0,0,0,1,.1,8.49,8.49,0,0,0,1.69-.79c.05,0,.11,0,.17.11s.06.17,0,.2c-.57.32-1,.57-1.38.74l-2,1.11L88.6,43.34c-.34.21-.8.48-1.4.82,0,0-.08,0-.14-.12s-.07-.17,0-.19a7.9,7.9,0,0,0,1.55-1,1.17,1.17,0,0,0,.43-.9,3.22,3.22,0,0,0-.45-1.25L81.83,28.74a2.73,2.73,0,0,0-.81-1,1,1,0,0,0-.9,0,13.89,13.89,0,0,0-1.7.84,3.77,3.77,0,0,0-2,2.19,6.21,6.21,0,0,0,.41,3.47s0,.08-.11.13-.15.06-.17,0c-.28-.66-.66-1.51-1.13-2.55S74.6,30,74.32,29.48A.14.14,0,0,1,74.38,29.27ZM20.9,118.67l5.62-3.89a.45.45,0,0,1,.35-.06.5.5,0,0,1,.31.24l2.87,6.2s0,0,0,.06a.22.22,0,0,1-.11.1.12.12,0,0,1-.13,0l-3.45-4.67L21,118.91s-.09,0-.13-.11S20.84,118.67,20.9,118.67Zm1.18-4.33,5.62-3.89a.45.45,0,0,1,.35-.06.44.44,0,0,1,.3.23l2.88,6.2s0,0,0,.07a.13.13,0,0,1-.1.09c-.06,0-.1,0-.13,0l-3.45-4.67-5.39,2.27c-.05,0-.09,0-.13-.11S22,114.34,22.08,114.34ZM9.79,140.58c-.12,0-.17,0-.17-.08L9.84,139c.14-.82.24-1.47.31-2,.09-.74.15-1.48.19-2.21s.12-1.46.16-1.79a12,12,0,0,1,1.86-5.25A9.21,9.21,0,0,1,16,124.58a8.38,8.38,0,0,1,4.71-.73,9.53,9.53,0,0,1,4.86,2,9.07,9.07,0,0,1,2.91,4.05,10.69,10.69,0,0,1,.56,5.13c-.07.57-.18,1.22-.34,2-.05.27-.11.61-.19,1s-.14.88-.2,1.39l-.22,2c0,.35-.08.84-.16,1.47,0,0-.07.05-.18,0s-.18,0-.17-.08a6.94,6.94,0,0,0,.06-1.64,1.07,1.07,0,0,0-.48-.78,3.6,3.6,0,0,0-1.28-.36l-13.58-1.71a3.46,3.46,0,0,0-1.31,0,1,1,0,0,0-.66.62,5.88,5.88,0,0,0-.36,1.6S9.91,140.59,9.79,140.58Zm7.73,10.08c.05,0,.08,0,.1,0l4.64,3.53,4.52-3.67s.09,0,.16.07.08.11,0,.13L22.64,156a.49.49,0,0,1-.36.12A.48.48,0,0,1,22,156l-4.48-5.16s0,0,0-.06A.17.17,0,0,1,17.52,150.66Zm-.11-4.31c-.06,0-.06-.1,0-.17s.11-.08.15,0l4.64,3.53L26.71,146h0a.19.19,0,0,1,.15.08.09.09,0,0,1,0,.13l-4.32,5.3a.48.48,0,0,1-.35.12.49.49,0,0,1-.33-.11Zm-3.77,39.3c-.1,0-.16,0-.18-.13s0-.17.11-.19c.42-.09.53-.65.31-1.69-.29-1.65-.67-3.6-1.14-5.83-.24-1.14-.51-2.34-.81-3.61l-.45-2a5.75,5.75,0,0,0-.47-1.51.87.87,0,0,0-.71-.53q-.12,0-.15-.15c0-.1,0-.15.08-.17q.86-.09,2.58-.36c1.15-.18,2.08-.35,2.8-.5,0,0,.07,0,.09.16s0,.18,0,.19a5,5,0,0,0-3,1.59,3.72,3.72,0,0,0-.33,3,10.49,10.49,0,0,0,.5,1.82,1.09,1.09,0,0,0,.65.65,3.07,3.07,0,0,0,1.32-.06l13.33-2.8a3.23,3.23,0,0,0,1.26-.48,1.11,1.11,0,0,0,.38-.89,8.31,8.31,0,0,0-.23-1.86c0-.05,0-.1.15-.12s.18,0,.19.05c.13.64.23,1.15.29,1.54l.45,2.26.48,2.16c.11.38.23.91.37,1.59,0,0-.05.07-.16.09s-.18,0-.19,0a7.89,7.89,0,0,0-.53-1.79,1.16,1.16,0,0,0-.73-.68,3.07,3.07,0,0,0-1.33.05l-13.39,2.82a2.8,2.8,0,0,0-1.21.46,1,1,0,0,0-.31.85,12.42,12.42,0,0,0,.29,1.88,3.76,3.76,0,0,0,1.5,2.53,6.14,6.14,0,0,0,3.43.66s.07,0,.09.14,0,.17,0,.18c-.71.06-1.63.17-2.77.31S14.19,185.53,13.64,185.65ZM125.39,272.5a12.26,12.26,0,0,1,4.83-.51l.2-1.25a2,2,0,0,0-.07-1.09,1.43,1.43,0,0,0-.83-.7,8.66,8.66,0,0,0-2-.5c-.06,0-.08-.07-.06-.19s.06-.17.12-.16c.7.11,1.25.21,1.65.29l2.51.43,2.4.36c.43,0,1,.13,1.72.24.06,0,.08.07.06.19s-.06.17-.11.16a9.34,9.34,0,0,0-2.06-.15,1.53,1.53,0,0,0-1,.41,1.85,1.85,0,0,0-.42,1l-.19,1.2a11.23,11.23,0,0,1,4.54,1.83,7.57,7.57,0,0,1,2.64,3.09,6.68,6.68,0,0,1,.48,3.75,6.19,6.19,0,0,1-1.81,3.57,8.17,8.17,0,0,1-3.61,2,13.72,13.72,0,0,1-4.57.39l-.12.76a2.34,2.34,0,0,0,.06,1.25,1.36,1.36,0,0,0,.81.69,11.64,11.64,0,0,0,2,.47q.09,0,.06.18c0,.1,0,.15-.11.14-.72-.11-1.29-.21-1.72-.3l-2.39-.41-2.54-.38c-.41,0-1-.12-1.64-.23-.06,0-.08-.07-.06-.17s0-.16.11-.15a9,9,0,0,0,2.06.16,1.39,1.39,0,0,0,1-.42,2.37,2.37,0,0,0,.44-1.19l.11-.64a11.55,11.55,0,0,1-4.65-1.89,7.66,7.66,0,0,1-2.64-3.15,6.41,6.41,0,0,1-.49-3.62,6,6,0,0,1,1.7-3.32A8.58,8.58,0,0,1,125.39,272.5Zm-24-10.74c0-.11.09-.15.17-.13.35.12.9.33,1.63.62s1.27.49,1.6.6.94.3,1.59.48,1.07.3,1.39.4c.08,0,.09.1.06.21s-.1.15-.17.13a4.72,4.72,0,0,0-1.58-.32.73.73,0,0,0-.7.51,3.52,3.52,0,0,0-.05,1.33l.9,8,5.29,1.79,4.34-4.9a4.44,4.44,0,0,0,.92-1.43c.37-1.1-.35-2-2.18-2.58-.09,0-.12-.11-.08-.22s.1-.15.19-.12c.34.12.82.3,1.44.55s1.3.51,1.83.68,1,.34,1.7.51l1.41.42c.1,0,.13.1.09.22s-.11.15-.2.12a2.93,2.93,0,0,0-1.43-.16,3.08,3.08,0,0,0-1.38.69,13.71,13.71,0,0,0-1.81,1.77l-10.62,11.94a.21.21,0,0,1-.22,0c-.1,0-.14-.08-.14-.14l-1.9-16.14a12,12,0,0,0-.68-3.34,2.24,2.24,0,0,0-1.36-1.25C101.36,261.94,101.34,261.87,101.38,261.76ZM88,264.91a5,5,0,0,1-.46-1.37c-.11-.54-.24-1.41-.38-2.6l-.1-.76q-.3-2.37-.57-3.69a7.24,7.24,0,0,0-.83-2.27,4.1,4.1,0,0,0-1.56-1.53s0-.08,0-.18.1-.15.14-.13l3.28,1.76a1.2,1.2,0,0,1,.53.54,6.55,6.55,0,0,1,.35,1.51c.12.78.3,2.23.55,4.35.2,1.67.36,2.84.49,3.52a4.44,4.44,0,0,0,.64,1.63,4.16,4.16,0,0,0,1.45,1.16A1.59,1.59,0,0,0,92,267l3.25-6.07a3.34,3.34,0,0,0,.45-1.25,1.06,1.06,0,0,0-.35-.84,6.82,6.82,0,0,0-1.4-.92s0-.08,0-.18.1-.15.13-.13c.54.29,1,.52,1.27.71l1.86,1,1.78.92c.32.15.76.37,1.32.67,0,0,0,.08,0,.19s-.1.14-.14.13a6.52,6.52,0,0,0-1.53-.66,1.05,1.05,0,0,0-.91.17,3.38,3.38,0,0,0-.79,1.07l-6.46,12.06a3.63,3.63,0,0,0-.46,1.22,1.06,1.06,0,0,0,.35.85,6.08,6.08,0,0,0,1.38.92s0,.08,0,.19-.1.14-.13.12l-1.27-.7c-.71-.43-1.29-.76-1.74-1s-1.14-.59-1.93-1l-1.26-.65s0-.08,0-.18.1-.15.14-.13a6,6,0,0,0,1.54.63A1.14,1.14,0,0,0,88,274a3.31,3.31,0,0,0,.79-1.06l3-5.5c-1-.47-1.55-.76-1.77-.88l-.5-.27L83.94,269a5.78,5.78,0,0,0-2.37,1.62.58.58,0,0,0,.06.66,2.63,2.63,0,0,0,.92.7s0,.08,0,.18-.11.15-.14.13l-1.11-.63c-.64-.38-1.24-.73-1.82-1s-1.2-.62-1.85-.92l-.95-.48c-.05,0-.05-.09,0-.2s.11-.14.16-.11a5,5,0,0,0,2.75.62A10.56,10.56,0,0,0,83,268.49l5.87-2.59A2.92,2.92,0,0,1,88,264.91ZM77.5,247.43a2.46,2.46,0,0,1,1.56.55,2.64,2.64,0,0,1,.94,1.21,1.27,1.27,0,0,1-.17,1.26,1.29,1.29,0,0,1-.79.48,1.2,1.2,0,0,1-.94-.27,1,1,0,0,1-.44-.68,2.58,2.58,0,0,1,.08-.89,2.17,2.17,0,0,0,.07-.56.39.39,0,0,0-.17-.33c-.32-.24-.83-.15-1.55.27L74,249.63l-2.07,13.45a6.38,6.38,0,0,0-.06,2,2,2,0,0,0,.84,1.21s0,.09-.06.18-.12.13-.16.11l-.92-.74c-.45-.39-.84-.71-1.16-1-.59-.44-1.22-.89-1.9-1.36l-1-.69c-.05,0,0-.1,0-.2s.13-.12.17-.08c1,.77,1.73.9,2.12.38a1.89,1.89,0,0,0,.29-.82l1.72-11.37-9.56,5.13a2.41,2.41,0,0,0-.74.59.89.89,0,0,0-.07,1,4.28,4.28,0,0,0,1.23,1.27s0,.1,0,.19-.13.12-.18.09l-1-.76c-.5-.43-1-.82-1.42-1.15-.27-.2-.6-.43-1-.69l-.94-.67s0-.08.06-.17.13-.13.16-.11a2.3,2.3,0,0,0,1.52.43,4.37,4.37,0,0,0,1.92-.57L75.71,248A4,4,0,0,1,77.5,247.43ZM56,227.52c.08-.08.15-.1.19-.06.42.44.75.8,1,1.07L58.57,230,60,231.51c.26.24.6.59,1,1,0,0,0,.1-.07.18s-.15.11-.19.06a6.75,6.75,0,0,0-1.26-1.1,1,1,0,0,0-.91-.11,3.37,3.37,0,0,0-1.08.77l-9.79,9.39a4.75,4.75,0,0,0-.87,1,.66.66,0,0,0,.06.67,10,10,0,0,0,1.11,1.28l1,1.09a4.38,4.38,0,0,0,1,.85,1,1,0,0,0,.91,0,4,4,0,0,0,1.24-.9,40.85,40.85,0,0,1,5.24-4.19,20.65,20.65,0,0,1,6-2.94q3-.85,4.68.9a1.81,1.81,0,0,1,.53.94.92.92,0,0,1-.32.86c-.45.44-1,.35-1.56-.26l-.43-.45c-.78-.81-2-1-3.58-.6a18.3,18.3,0,0,0-5.18,2.39,32.5,32.5,0,0,0-4.94,3.86,2.82,2.82,0,0,0-1,1.81,3.16,3.16,0,0,0,1.16,2.12c0,.05,0,.11-.07.19s-.15.1-.19.06l-9.78-10.19s0-.11.07-.19.15-.1.19-.06a6.25,6.25,0,0,0,1.26,1.08,1.1,1.1,0,0,0,.92.13,3.45,3.45,0,0,0,1.07-.76L56.25,231a3.4,3.4,0,0,0,.82-1A1.07,1.07,0,0,0,57,229a6.62,6.62,0,0,0-1-1.29S55.92,227.6,56,227.52ZM47.87,216.8a6.51,6.51,0,0,1,2.37,2.12c.3.42.62.93,1,1.55l.55.89c.23.35.5.74.79,1.16l1.15,1.57c.24.3.54.71.91,1.24,0,0,0,.08-.11.15s-.15.09-.17.05a7.8,7.8,0,0,0-1.12-1.26,1.08,1.08,0,0,0-.87-.26,3.07,3.07,0,0,0-1.18.58L40,232.5a3.33,3.33,0,0,0-.95.91,1,1,0,0,0,0,.9,7,7,0,0,0,.8,1.44q0,.08-.09.18c-.1.06-.17.07-.2,0l-.8-1.18c-.42-.67-.79-1.22-1.11-1.67s-.76-1-1.29-1.73l-.86-1.16s0-.09.11-.15.15-.09.17-.06a8,8,0,0,0,1.12,1.27,1,1,0,0,0,.89.26,3.53,3.53,0,0,0,1.21-.62l4.82-3.41A18.3,18.3,0,0,1,41.61,225,7.44,7.44,0,0,1,40,220.77a4.26,4.26,0,0,1,2.14-3.42A5.79,5.79,0,0,1,45,216.24,5,5,0,0,1,47.87,216.8Zm-6.55-11.46a8.66,8.66,0,0,0-.75-1.71s0-.11.12-.16.17-.06.19,0c.31.57.55,1,.72,1.4l1.06,2,1.08,1.94c.2.34.47.81.79,1.42,0,0,0,.08-.13.13s-.16.07-.18,0a9.16,9.16,0,0,0-1-1.57,1.18,1.18,0,0,0-.89-.44,3.09,3.09,0,0,0-1.27.43l-12,6.47a2.77,2.77,0,0,0-1,.79,1.06,1.06,0,0,0-.06.9,12.53,12.53,0,0,0,.81,1.72,3.77,3.77,0,0,0,2.15,2,6.16,6.16,0,0,0,3.47-.34s.08,0,.13.11.06.16,0,.18c-.66.26-1.52.62-2.57,1.08s-1.84.81-2.34,1.08c-.09,0-.15,0-.21-.07s0-.17.06-.21c.38-.21.32-.78-.18-1.72q-1.12-2.25-2.74-5.27c-.55-1-1.15-2.1-1.8-3.23l-1-1.75a6.41,6.41,0,0,0-.88-1.33A.91.91,0,0,0,22,209a.16.16,0,0,1-.18-.1c-.05-.09,0-.15,0-.19.53-.22,1.32-.58,2.37-1.07s1.9-.92,2.55-1.27c0,0,.08,0,.13.13s.07.17,0,.18a5.1,5.1,0,0,0-2.4,2.37,3.71,3.71,0,0,0,.52,2.94,10.89,10.89,0,0,0,1,1.61,1.08,1.08,0,0,0,.81.44,3,3,0,0,0,1.24-.44l12-6.44a3.07,3.07,0,0,0,1.07-.81A1.13,1.13,0,0,0,41.32,205.34Zm-3.48-8.17s0,.07-.14.11-.17.05-.19,0a6.8,6.8,0,0,0-.7-1.49,1,1,0,0,0-.78-.47,3.52,3.52,0,0,0-1.31.27l-12.84,4.7a3.25,3.25,0,0,0-1.16.62,1.16,1.16,0,0,0-.3.87,6.35,6.35,0,0,0,.41,1.59s0,.08-.14.12-.18,0-.19,0l-4.08-11.15a.24.24,0,0,1,.16-.34L20,190.7c.05,0,.1,0,.14.11s0,.15,0,.19a3.63,3.63,0,0,0-2,1.72,3.07,3.07,0,0,0,0,2.44l.62,1.69a5.5,5.5,0,0,0,.67,1.38,1.14,1.14,0,0,0,.76.44,2.85,2.85,0,0,0,1.19-.23L27,196.38,25.75,193a3.28,3.28,0,0,0-1.14-1.74,1.89,1.89,0,0,0-1.7,0s-.08,0-.12-.15,0-.17,0-.19l2.26-.79c.54-.2.94-.35,1.21-.47l1.33-.52s.07,0,.11.15,0,.17,0,.19a2.31,2.31,0,0,0-1.53,1.23,3.2,3.2,0,0,0,.19,2.18l1.21,3.3L34,193.84a3.07,3.07,0,0,0,1.08-.58,1,1,0,0,0,.28-.8,5.58,5.58,0,0,0-.37-1.44l-.81-2.22a3.13,3.13,0,0,0-1.76-1.87,5.38,5.38,0,0,0-3-.24s-.07,0-.1-.09a.51.51,0,0,1,0-.17.14.14,0,0,1,.06-.1A27.15,27.15,0,0,0,33,185.25a.44.44,0,0,1,.35,0,.53.53,0,0,1,.23.31ZM45,97.1a1.19,1.19,0,0,1-.24.35c-.08.09-.16.12-.23.08L21,86.05c-.13-.06-.1-.27.07-.63s.31-.47.43-.41L45,96.5c.07,0,.1.11.08.23A1,1,0,0,1,45,97.1Zm9.7-24.82a7.7,7.7,0,0,1-1.47,3A8.56,8.56,0,0,1,49.86,78a.41.41,0,0,1-.28,0,1.57,1.57,0,0,1-.33-.16l-3.43-2.13c-.07,0-.08-.09,0-.19s.11-.13.18-.1a8.48,8.48,0,0,0,4,.82,4.21,4.21,0,0,0,3.29-1.78A3.86,3.86,0,0,0,54.11,72a3.12,3.12,0,0,0-1.44-2.38,4.37,4.37,0,0,0-2.19-.92,5.7,5.7,0,0,0-2.15.16,25.76,25.76,0,0,0-2.57.92c-1,.4-1.87.7-2.53.88a5.53,5.53,0,0,1-2.08.14,4.32,4.32,0,0,1-2.1-.9,4.13,4.13,0,0,1-1.54-2.15,4.77,4.77,0,0,1,0-2.57,7.06,7.06,0,0,1,1.21-2.44,8.92,8.92,0,0,1,2.66-2.32.53.53,0,0,1,.67-.05l2.83,1.89c.06.05.06.12,0,.19s-.12.11-.2.07a6.07,6.07,0,0,0-3-.71,3.56,3.56,0,0,0-2.85,1.57,3.06,3.06,0,0,0-.73,2.55,3.92,3.92,0,0,0,3.34,2.86,5.58,5.58,0,0,0,2-.22q.94-.28,2.52-.9c1.11-.44,2-.76,2.68-1a5.62,5.62,0,0,1,2.14-.2,4.23,4.23,0,0,1,2.19.9,4.76,4.76,0,0,1,1.8,4.88ZM66.56,59.83c-.43.43-.77.76-1,1l-1.49,1.44-1.42,1.47c-.24.26-.57.61-1,1q-.06.06-.18-.06c-.09-.09-.11-.15-.07-.19a6.26,6.26,0,0,0,1.06-1.27,1,1,0,0,0,.1-.9,3.32,3.32,0,0,0-.8-1.07l-4.4-4.41-8.54-1.62a6.13,6.13,0,0,0-2.39-.17,3,3,0,0,0-1.56.85s-.11,0-.19-.06-.11-.14-.06-.19.43-.4.79-.71l.75-.71c.48-.47,1.06-1.08,1.76-1.83L49,51.27s.08,0,.17.08.11.14.08.17c-.73.72-.94,1.23-.65,1.52a1.31,1.31,0,0,0,.73.32l8.29,1.57-1.35-6.45a3.46,3.46,0,0,0-.77-1.7c-.5-.5-1.13-.37-1.88.38,0,0-.08,0-.17-.09s-.11-.13-.08-.16l1-1c.56-.5,1.06-1,1.51-1.42.24-.24.51-.54.82-.9l.75-.79s.08,0,.17.08.11.14.08.17a3.65,3.65,0,0,0-1,2.08,7.35,7.35,0,0,0,.13,2.89l1.49,7.11,4.74,4.74a3.64,3.64,0,0,0,1.07.82,1,1,0,0,0,.89-.09,7,7,0,0,0,1.26-1.06s.1,0,.19.06S66.6,59.79,66.56,59.83Zm-.67-15.31a4.26,4.26,0,0,1-1.78-1.42,4.11,4.11,0,0,1-.91-2.49,4.71,4.71,0,0,1,.68-2.48,7.12,7.12,0,0,1,1.81-2,9,9,0,0,1,3.19-1.52.52.52,0,0,1,.65.13l2.22,2.58c0,.06,0,.12,0,.18a.17.17,0,0,1-.22,0A6.1,6.1,0,0,0,68.76,36a3.59,3.59,0,0,0-3.17.76A3.08,3.08,0,0,0,64.2,39a3.87,3.87,0,0,0,2.46,3.65,5.46,5.46,0,0,0,2,.31c.65,0,1.54-.08,2.67-.19s2.13-.21,2.83-.22a5.42,5.42,0,0,1,2.12.37,4.11,4.11,0,0,1,1.87,1.46,4.8,4.8,0,0,1,1,2.47,4.85,4.85,0,0,1-.56,2.71,7.4,7.4,0,0,1-2.22,2.52,8.54,8.54,0,0,1-3.94,1.7.42.42,0,0,1-.28-.05,1.65,1.65,0,0,1-.27-.24l-2.74-3c-.06-.05-.06-.12,0-.2s.14-.1.2,0a8.53,8.53,0,0,0,3.62,1.86,4.26,4.26,0,0,0,3.65-.85,3.84,3.84,0,0,0,1.49-2.15,3.07,3.07,0,0,0-.75-2.68A4.41,4.41,0,0,0,75.45,45a5.91,5.91,0,0,0-2.12-.41,24.59,24.59,0,0,0-2.72.2c-1.1.11-2,.17-2.67.17A5.33,5.33,0,0,1,65.89,44.52Z"/>
    </g>
    <path class="cls-1" d="M198.17,116.33c-4.18-13.82,6.44-29.76,10.89-35.63a.43.43,0,0,0-.58-.61C203.22,83.56,190.28,91,178,89.63c-20.49-2.32-25.86,11.73-25.86,11.73s0-4.72.41-9c.83-8.67,3.05-20.86,8.72-23.46a15.07,15.07,0,0,1,10.62-.35L168.76,52a18.76,18.76,0,0,0-16.09,6.27c-5.85,6.84-4.67,32.09-4.62,35.85,0,.4,0,1.6,0,1.6,1.8,47.05,1.49,85.25,1.41,92l-10.4,10.4,10.46,10.47.13,12.31c-4-5.58-14.28-8.68-24.17-10.74-11.14-2.33-27.42-6.38-27.42-6.38s4.45-3.66,9.26-8.56c17.51-17.8,37.9-40.48,39-65.2.52-23.73-16.38-58.24-43.44-57.14-1.91,8.2-18,17.29-23.73,23.77-1.57,1.76-2.38,6.47.2,4.9,5.81-13.47,25.27-9.05,33.38-.43C140,130,121,166,111.74,180.51c-7.28,11.4-17.72,22.11-19.18,21.77-11.69-2.66-16-6.58-16-6.58s-5,15.32,14.83,21.46c20.87,6.48,24.41,7.67,44.35,13,8.75,2,17.55,10,17.55,10s-.47-4,.21-6.07c3.52-10.85,56.83-11.95,65.64-38.48C231.89,157.05,202.51,130.65,198.17,116.33ZM188.94,208c-7.2,8-35.58,20.69-35.58,20.69l-.27-20.55,10-10-10.6-10.6c0-5.67,0-28.84,0-36.67,0-9.12-.24-19.57,0-28.69.16-5.89-1.23-14.56,6.17-14.67,8.31-.12,17.59-.16,25.93-.42-2.84,3-6.51,6-9.57,8.92C176.68,123.2,215.41,178.42,188.94,208Z"/>
  </g>
</svg>
