<svg id="Слой_1" data-name="Слой 1" xmlns="http://www.w3.org/2000/svg" xmlns:xlink="http://www.w3.org/1999/xlink" viewBox="0 0 500 233.85">
  <defs>
    <style>
      .cls-1 {
        fill: #0a0a0a;
      }

      .cls-2 {
        fill: #9d1229;
      }

      .cls-3 {
        fill: url(#Безымянный_градиент_11);
      }

      .cls-4 {
        fill: url(#Безымянный_градиент_11-2);
      }
    </style>
    <linearGradient id="Безымянный_градиент_11" data-name="Безымянный градиент 11" x1="91.73" y1="56.48" x2="137.44" y2="56.48" gradientUnits="userSpaceOnUse">
      <stop offset="0" stop-color="#9d1229" stop-opacity="0.4"/>
      <stop offset="0.05" stop-color="#9d1229" stop-opacity="0.37"/>
      <stop offset="0.44" stop-color="#9d1229" stop-opacity="0.17"/>
      <stop offset="0.77" stop-color="#9d1229" stop-opacity="0.04"/>
      <stop offset="1" stop-color="#9d1229" stop-opacity="0"/>
    </linearGradient>
    <linearGradient id="Безымянный_градиент_11-2" x1="91.73" y1="179.25" x2="137.44" y2="179.25" xlink:href="#Безымянный_градиент_11"/>
  </defs>
  <g>
    <g>
      <path class="cls-1" d="M213.78,79.63q0,.6-.3.6c-2,0-3.65,0-4.83-.1l-6.82-.1-7.2.1c-1.19.06-2.77.1-4.74.1q-.3,0-.3-.6c0-.39.1-.59.3-.59a23,23,0,0,0,5.62-.49,3.48,3.48,0,0,0,2.42-1.93,11.28,11.28,0,0,0,.64-4.39V49.12H160.66V72.23a11.28,11.28,0,0,0,.64,4.39,3.5,3.5,0,0,0,2.42,1.93,23.07,23.07,0,0,0,5.63.49c.13,0,.2.2.2.59s-.07.6-.2.6c-2,0-3.65,0-4.84-.1L157.4,80l-6.81.1c-1.19.06-2.83.1-4.94.1-.13,0-.2-.2-.2-.6s.07-.59.2-.59a23.16,23.16,0,0,0,5.58-.49,3.51,3.51,0,0,0,2.47-1.93,11.28,11.28,0,0,0,.64-4.39V26.51a10.89,10.89,0,0,0-.64-4.34,3.69,3.69,0,0,0-2.42-1.93,20.67,20.67,0,0,0-5.53-.54c-.13,0-.2-.2-.2-.59s.07-.6.2-.6l5,.1c2.76.14,5,.2,6.61.2,1.91,0,4.31-.06,7.21-.2l4.74-.1c.13,0,.2.2.2.6s-.07.59-.2.59a19.65,19.65,0,0,0-5.58.59,3.83,3.83,0,0,0-2.47,2,11.33,11.33,0,0,0-.64,4.4V47.05h37.91V26.71a11.33,11.33,0,0,0-.64-4.4,3.8,3.8,0,0,0-2.42-2,19.49,19.49,0,0,0-5.62-.59c-.2,0-.3-.2-.3-.59s.1-.6.3-.6l4.74.1c2.89.14,5.29.2,7.2.2s4-.06,6.82-.2l4.83-.1q.3,0,.3.6c0,.39-.1.59-.3.59a20.53,20.53,0,0,0-5.52.54,3.64,3.64,0,0,0-2.42,1.93,10.86,10.86,0,0,0-.65,4.34V72.23a11.24,11.24,0,0,0,.65,4.39A3.46,3.46,0,0,0,208,78.55a22.38,22.38,0,0,0,5.52.49C213.68,79,213.78,79.24,213.78,79.63Z"/>
      <path class="cls-1" d="M286.55,79.63q0,.6-.39.6-1.89,0-5.83-.2c-2.63-.13-4.54-.2-5.73-.2-1.45,0-3.29.07-5.53.2s-3.72.2-4.83.2c-.27,0-.4-.2-.4-.6s.13-.59.4-.59a15.08,15.08,0,0,0,5.33-.69A2.41,2.41,0,0,0,271.25,76,11.89,11.89,0,0,0,270,71.73L258.61,47.54H240l-8.5,20.15a15.27,15.27,0,0,0-1.38,5.53q0,5.82,9.68,5.82c.33,0,.49.2.49.59s-.16.6-.49.6c-1.19,0-2.9-.07-5.14-.2q-3.75-.19-6.51-.2c-1.72,0-3.69.07-5.93.2-2,.13-3.62.2-4.93.2-.33,0-.5-.2-.5-.6s.17-.59.5-.59a9.7,9.7,0,0,0,4.69-1,10.62,10.62,0,0,0,3.65-3.65,47.71,47.71,0,0,0,3.8-7.55l20.83-49.18a.81.81,0,0,1,.7-.29c.32,0,.52.1.59.29L274.8,66.7q3.36,7.3,5.73,9.82A7.46,7.46,0,0,0,286.16,79C286.42,79,286.55,79.24,286.55,79.63ZM240.83,45.47h16.79l-8.89-18.76Z"/>
      <path class="cls-1" d="M306.69,76.62A3.32,3.32,0,0,0,309,78.55a21.84,21.84,0,0,0,5.48.49c.2,0,.3.2.3.59s-.1.6-.3.6c-2,0-3.55,0-4.74-.1l-7-.1-6.81.1c-1.18.06-2.8.1-4.84.1-.2,0-.29-.2-.29-.6s.09-.59.29-.59a21.84,21.84,0,0,0,5.48-.49,3.47,3.47,0,0,0,2.37-1.93,11.28,11.28,0,0,0,.64-4.39V26.51a10.89,10.89,0,0,0-.64-4.34,3.66,3.66,0,0,0-2.37-1.93,20,20,0,0,0-5.48-.54c-.2,0-.29-.2-.29-.59s.09-.6.29-.6l4.84.1c2.77.14,5,.2,6.81.2,2,0,4.35-.06,7.11-.2l4.64-.1q.3,0,.3.6c0,.39-.1.59-.3.59a18.09,18.09,0,0,0-5.38.59,3.81,3.81,0,0,0-2.37,2,11.33,11.33,0,0,0-.64,4.4V72.23A12.29,12.29,0,0,0,306.69,76.62Z"/>
      <path class="cls-1" d="M386.87,79.63c0,.4-.07.6-.2.6H373.93q-2.46,0-9.23-8.45a281.51,281.51,0,0,1-16.44-23.55,18.7,18.7,0,0,1-5.33.7c-1.25,0-2.73-.07-4.44-.2v23.5a12,12,0,0,0,.59,4.44,3.34,3.34,0,0,0,2.32,1.88,21.84,21.84,0,0,0,5.48.49c.2,0,.29.2.29.59s-.09.6-.29.6c-2,0-3.66,0-4.84-.1l-6.81-.1-6.72.1c-1.18.06-2.86.1-5,.1-.14,0-.2-.2-.2-.6s.06-.59.2-.59A20.67,20.67,0,0,0,329,78.5a3.84,3.84,0,0,0,2.46-1.93,10.21,10.21,0,0,0,.7-4.34V26.51a10.86,10.86,0,0,0-.65-4.34,3.61,3.61,0,0,0-2.37-1.93,20,20,0,0,0-5.48-.54c-.19,0-.29-.2-.29-.59s.1-.6.29-.6l4.84.1c2.77.14,5,.2,6.72.2,1.18,0,2.3,0,3.35-.1s2-.13,2.77-.2q3.15-.29,5.73-.29,8,0,12.34,3.26a10.72,10.72,0,0,1,4.34,9.08A16,16,0,0,1,361,39.5a20.13,20.13,0,0,1-7.31,6.66q8.4,12.54,14.12,19.6A54.11,54.11,0,0,0,378,75.93,15.2,15.2,0,0,0,386.67,79C386.8,79,386.87,79.24,386.87,79.63Zm-42.56-33q6.81,0,9.78-2.91t3-9.72q0-14.33-12.05-14.32a13.72,13.72,0,0,0-4,.44A3.11,3.11,0,0,0,339.08,22a13.21,13.21,0,0,0-.59,4.69V46.26A37.71,37.71,0,0,0,344.31,46.65Z"/>
      <path class="cls-1" d="M189.49,152.72a1.53,1.53,0,0,1,.54.1c.17.07.25.17.25.3a92.5,92.5,0,0,0-.89,13,1.57,1.57,0,0,1-.34,1.14,1.74,1.74,0,0,1-1.24.34H146.44c-.13,0-.2-.19-.2-.59s.07-.59.2-.59a21.84,21.84,0,0,0,5.48-.49,3.47,3.47,0,0,0,2.37-1.93,11.28,11.28,0,0,0,.64-4.39V113.92a10.89,10.89,0,0,0-.64-4.34,3.63,3.63,0,0,0-2.37-1.93,20,20,0,0,0-5.48-.54c-.13,0-.2-.2-.2-.6s.07-.59.2-.59h39.69a.79.79,0,0,1,.89.89l.2,12.15c0,.19-.17.31-.49.34s-.53,0-.6-.25a12.11,12.11,0,0,0-3.16-8.14,10.18,10.18,0,0,0-7.6-2.91h-6a17.51,17.51,0,0,0-5.09.54,3.67,3.67,0,0,0-2.27,1.88,9.52,9.52,0,0,0-.64,4v20.05H173.4q4.74,0,6.76-1.58t2-5.33c0-.13.2-.2.6-.2s.59.07.59.2l-.1,8c0,1.91,0,3.36.1,4.35l.1,4.74c0,.13-.2.2-.59.2s-.6-.07-.6-.2q0-4.35-2.12-6.22t-7.06-1.88H161.35v22.71a10.36,10.36,0,0,0,.59,4,3.34,3.34,0,0,0,2.18,1.78,17.87,17.87,0,0,0,4.93.49H177a10.4,10.4,0,0,0,7.9-3.36,17.9,17.9,0,0,0,4.25-9.28C189.1,152.79,189.23,152.72,189.49,152.72Z"/>
      <path class="cls-1" d="M258.11,167c0,.4-.06.59-.19.59-1.72,0-3.06,0-4.05-.09l-5.43-.1-7.61.1q-1.77.09-4.83.09c-.14,0-.2-.19-.2-.59s.06-.59.2-.59a13.12,13.12,0,0,0,3.85-.4c.79-.26,1.18-.69,1.18-1.28a4,4,0,0,0-.89-2.17l-15-22.71-12.54,17.67q-2.37,3.36-2.37,5.43c0,2.31,1.95,3.46,5.83,3.46.2,0,.3.2.3.59s-.1.59-.3.59c-2,0-3.49,0-4.54-.09l-6.81-.1-4.15.1c-.73.06-1.94.09-3.65.09-.2,0-.3-.19-.3-.59s.1-.59.3-.59q6.81,0,13.42-9l13.93-19.05-15.9-24.1a18.49,18.49,0,0,0-5.09-5.57,10.7,10.7,0,0,0-6-1.63c-.13,0-.2-.2-.2-.6s.07-.59.2-.59l3.75.1c1.71.13,3,.2,3.75.2q3.36,0,8.1-.2l5.14-.1c.19,0,.29.2.29.59s-.1.6-.29.6a13.67,13.67,0,0,0-3.81.39q-1.23.41-1.23,1.38a4.55,4.55,0,0,0,.89,2.18l14.61,22L240,116.69q2.67-3.76,2.67-6.13,0-3.45-5.53-3.45-.3,0-.3-.6c0-.39.1-.59.3-.59l4.44.1c2.5.13,4.78.2,6.82.2,1.18,0,2.56-.07,4.14-.2l3.66-.1c.19,0,.29.2.29.59s-.1.6-.29.6a12,12,0,0,0-6.82,2.47,31.17,31.17,0,0,0-7.1,7.3l-12.94,17.68,16.49,24.88a17,17,0,0,0,5.28,5.43,13.32,13.32,0,0,0,6.77,1.58C258.05,166.45,258.11,166.65,258.11,167Z"/>
      <path class="cls-1" d="M279.39,163.83a4.9,4.9,0,0,0,3.26,2,35.7,35.7,0,0,0,7.65.59c.2,0,.3.2.3.59s-.1.59-.3.59c-2.7,0-4.8,0-6.32-.09l-8.59-.1-6.61.1q-1.87.09-5,.09c-.13,0-.2-.19-.2-.59s.07-.59.2-.59a21.84,21.84,0,0,0,5.48-.49,3.3,3.3,0,0,0,2.32-1.93,12.07,12.07,0,0,0,.59-4.39V113.92a11.66,11.66,0,0,0-.59-4.34,3.45,3.45,0,0,0-2.32-1.93,20,20,0,0,0-5.48-.54c-.13,0-.2-.2-.2-.6s.07-.59.2-.59l4.94.1c2.76.13,5,.2,6.61.2s3.49-.1,5.53-.3q1.19,0,3.75-.15c1.72-.09,3.2-.14,4.45-.14q9.08,0,14.56,4T309.06,122a18.25,18.25,0,0,1-3.21,11,19.45,19.45,0,0,1-8.24,6.61,25.9,25.9,0,0,1-10.37,2.17,19,19,0,0,1-4.74-.49c-.2,0-.29-.16-.29-.49a1.32,1.32,0,0,1,.14-.6c.1-.19.22-.26.35-.19a14.84,14.84,0,0,0,3.55.39,15.41,15.41,0,0,0,11-4.24q4.5-4.24,4.5-12.25,0-7.8-4.25-12.29a14.26,14.26,0,0,0-10.86-4.49,23.92,23.92,0,0,0-5.14.39,3.32,3.32,0,0,0-2.27,1.83,11.91,11.91,0,0,0-.69,4.79v45.12A9.44,9.44,0,0,0,279.39,163.83Z"/>
      <path class="cls-1" d="M360.51,152.72a1.62,1.62,0,0,1,.54.1c.16.07.25.17.25.3a91,91,0,0,0-.89,13,1.57,1.57,0,0,1-.35,1.14,1.72,1.72,0,0,1-1.23.34H317.45c-.13,0-.19-.19-.19-.59s.06-.59.19-.59a21.79,21.79,0,0,0,5.48-.49A3.43,3.43,0,0,0,325.3,164a11.24,11.24,0,0,0,.65-4.39V113.92a10.86,10.86,0,0,0-.65-4.34,3.59,3.59,0,0,0-2.37-1.93,20,20,0,0,0-5.48-.54c-.13,0-.19-.2-.19-.6s.06-.59.19-.59h39.7a.79.79,0,0,1,.89.89l.19,12.15c0,.19-.16.31-.49.34s-.53,0-.59-.25c-.2-3.48-1.25-6.2-3.16-8.14a10.18,10.18,0,0,0-7.6-2.91h-6a17.43,17.43,0,0,0-5.08.54,3.62,3.62,0,0,0-2.27,1.88,9.49,9.49,0,0,0-.65,4v20.05h12.05q4.74,0,6.76-1.58t2-5.33c0-.13.2-.2.59-.2s.59.07.59.2l-.1,8c0,1.91,0,3.36.1,4.35l.1,4.74c0,.13-.2.2-.59.2s-.59-.07-.59-.2q0-4.35-2.13-6.22t-7.06-1.88H332.36v22.71a10.15,10.15,0,0,0,.6,4,3.32,3.32,0,0,0,2.17,1.78,18,18,0,0,0,4.94.49H348a10.36,10.36,0,0,0,7.89-3.36,17.82,17.82,0,0,0,4.25-9.28C360.11,152.79,360.24,152.72,360.51,152.72Z"/>
      <path class="cls-1" d="M433.87,167c0,.4-.07.59-.2.59H420.93q-2.46,0-9.23-8.44a284.93,284.93,0,0,1-16.44-23.55,19.07,19.07,0,0,1-5.33.69c-1.25,0-2.73-.06-4.44-.19v23.5a12,12,0,0,0,.59,4.44A3.34,3.34,0,0,0,388.4,166a21.84,21.84,0,0,0,5.48.49c.2,0,.29.2.29.59s-.09.59-.29.59c-2,0-3.66,0-4.84-.09l-6.81-.1-6.72.1c-1.18.06-2.86.09-5,.09-.14,0-.2-.19-.2-.59s.06-.59.2-.59a20.67,20.67,0,0,0,5.53-.54,3.84,3.84,0,0,0,2.46-1.93,10.21,10.21,0,0,0,.7-4.34V113.92a10.86,10.86,0,0,0-.65-4.34,3.59,3.59,0,0,0-2.37-1.93,20,20,0,0,0-5.48-.54c-.19,0-.29-.2-.29-.6s.1-.59.29-.59l4.84.1c2.77.13,5,.2,6.72.2,1.18,0,2.3,0,3.35-.1s2-.13,2.77-.2c2.1-.2,4-.29,5.73-.29q8,0,12.34,3.25a10.75,10.75,0,0,1,4.34,9.09A15.94,15.94,0,0,1,408,126.9a20.15,20.15,0,0,1-7.31,6.67q8.4,12.54,14.12,19.6A54.11,54.11,0,0,0,425,163.34a15.2,15.2,0,0,0,8.69,3.11C433.8,166.45,433.87,166.65,433.87,167Zm-42.56-33q6.81,0,9.78-2.91t3-9.73q0-14.31-12.05-14.31a13.72,13.72,0,0,0-4,.44,3.08,3.08,0,0,0-1.92,1.88,13.21,13.21,0,0,0-.59,4.69v19.55A37.71,37.71,0,0,0,391.31,134.06Z"/>
      <path class="cls-1" d="M433.92,110.86c-2.08,2.11-3.57,5.69-4.5,10.76,0,.13-.18.2-.54.2s-.54-.07-.54-.2q.39-3.56.89-9.28t.49-8.59c0-.33.18-.49.54-.49s.55.16.55.49c0,1.45,1.77,2.17,5.33,2.17q8.39.3,19.85.3,5.82,0,12.34-.2l6.71-.1a20.73,20.73,0,0,0,5.28-.49,3,3,0,0,0,2.23-2c.06-.26.26-.39.59-.39s.49.13.49.39c-.2,1.91-.39,4.81-.59,8.69s-.3,7-.3,9.48c0,.13-.19.2-.59.2s-.59-.07-.59-.2q-.3-7.7-3.16-10.81t-9.48-3.11a35.24,35.24,0,0,0-6.32.39,3.57,3.57,0,0,0-2.57,1.68,9.89,9.89,0,0,0-.69,4.35v45.52a10.54,10.54,0,0,0,.69,4.44A3.8,3.8,0,0,0,462.7,166a28.17,28.17,0,0,0,6.22.49c.2,0,.3.2.3.59s-.1.59-.3.59c-2.17,0-3.92,0-5.23-.09l-7.7-.1-7.41.1q-2,.09-5.43.09c-.13,0-.2-.19-.2-.59s.07-.59.2-.59a28.17,28.17,0,0,0,6.22-.49,3.92,3.92,0,0,0,2.72-1.93,10,10,0,0,0,.74-4.39V113.92a9.52,9.52,0,0,0-.7-4.3,3.43,3.43,0,0,0-2.56-1.57,39.6,39.6,0,0,0-6.32-.35Q437,107.7,433.92,110.86Z"/>
      <path class="cls-1" d="M154.27,214.87V202h2.14v12.55q0,4.16,1.4,6.18a4.77,4.77,0,0,0,4.22,2,8.25,8.25,0,0,0,3.63-.84,9.51,9.51,0,0,0,3.07-2.35,9.94,9.94,0,0,0,2-3.53V202h2.14v19.44a1.09,1.09,0,0,0,.24.77,1,1,0,0,0,.66.3v1.76a6.31,6.31,0,0,1-.66,0,1.68,1.68,0,0,1-.41,0,1.87,1.87,0,0,1-1.2-.62,2.07,2.07,0,0,1-.51-1.31l-.05-3.34a10.89,10.89,0,0,1-4,4.18,10.61,10.61,0,0,1-5.51,1.52,6.15,6.15,0,0,1-5.32-2.49C154.87,220.58,154.27,218.12,154.27,214.87Z"/>
      <path class="cls-1" d="M214.24,224.29h-2.15V211.9c0-2.85-.41-4.93-1.22-6.26a4.23,4.23,0,0,0-3.88-2,8.26,8.26,0,0,0-3.71.89A10,10,0,0,0,200.1,207a9.61,9.61,0,0,0-1.95,3.52v13.76H196V202h2v5.35a9.82,9.82,0,0,1,2.4-3,12.08,12.08,0,0,1,3.35-2,10.21,10.21,0,0,1,3.82-.73,6.68,6.68,0,0,1,3.11.66,5.47,5.47,0,0,1,2.06,1.91,8.55,8.55,0,0,1,1.13,3.07,22.86,22.86,0,0,1,.35,4.19Z"/>
      <path class="cls-1" d="M237.06,196.92V193h2.14v3.95Zm0,27.37V202h2.14v22.31Z"/>
      <path class="cls-1" d="M269.14,224.29,259.83,202h2.28l8.19,20,8.23-20h2.15l-9.31,22.27Z"/>
      <path class="cls-1" d="M310,224.72a10.48,10.48,0,0,1-4.38-.92,10.84,10.84,0,0,1-3.49-2.52,11.86,11.86,0,0,1-2.32-3.72,12,12,0,0,1-.84-4.47,11.66,11.66,0,0,1,1.42-5.72,11.12,11.12,0,0,1,3.9-4.13,10.29,10.29,0,0,1,5.58-1.56,10.17,10.17,0,0,1,5.62,1.58,11.68,11.68,0,0,1,3.88,4.17,11.46,11.46,0,0,1,1.44,5.67v.51a1.75,1.75,0,0,1-.05.43H301.18a10,10,0,0,0,1.42,4.56,9.34,9.34,0,0,0,3.2,3.23,8.13,8.13,0,0,0,4.26,1.17,8.55,8.55,0,0,0,4.38-1.2,6.6,6.6,0,0,0,2.87-3.09l1.89.52a7.69,7.69,0,0,1-2,2.83A10.25,10.25,0,0,1,313.9,224,11,11,0,0,1,310,224.72Zm-8.88-12.36h17.63a10.24,10.24,0,0,0-1.37-4.61,9,9,0,0,0-3.16-3.16,8.4,8.4,0,0,0-4.31-1.15,8.3,8.3,0,0,0-4.29,1.15,9,9,0,0,0-3.13,3.16A10.12,10.12,0,0,0,301.1,212.36Z"/>
      <path class="cls-1" d="M352.4,203.91a8.94,8.94,0,0,0-5.25,1.78,8.81,8.81,0,0,0-3.16,4.66v13.94h-2.14V202h2.06v5.45a10.67,10.67,0,0,1,3.09-3.84,7.92,7.92,0,0,1,4.07-1.69,7.36,7.36,0,0,1,.77,0h.56Z"/>
      <path class="cls-1" d="M379.85,224.72a13.26,13.26,0,0,1-4.93-.9,10.8,10.8,0,0,1-4-2.75l1-1.5a12.54,12.54,0,0,0,3.73,2.55,10.51,10.51,0,0,0,4.12.8,8.19,8.19,0,0,0,4.65-1.2,3.79,3.79,0,0,0,1.78-3.33,2.93,2.93,0,0,0-.84-2.24,5.89,5.89,0,0,0-2.4-1.28c-1-.33-2.31-.68-3.79-1.05a30.65,30.65,0,0,1-3.84-1.24,5.31,5.31,0,0,1-2.34-1.67,4.48,4.48,0,0,1-.77-2.78,5.78,5.78,0,0,1,1.09-3.61,6.57,6.57,0,0,1,3-2.13,11.6,11.6,0,0,1,4.14-.71,11.33,11.33,0,0,1,4.57.86,7.15,7.15,0,0,1,3,2.27l-1.16,1.38a6.27,6.27,0,0,0-2.79-2,10.4,10.4,0,0,0-3.77-.67,10,10,0,0,0-2.92.43,4.79,4.79,0,0,0-2.21,1.39,3.78,3.78,0,0,0-.83,2.58,3,3,0,0,0,.62,2,4.24,4.24,0,0,0,1.86,1.18q1.25.45,3.09,1a46.71,46.71,0,0,1,4.51,1.32,7.41,7.41,0,0,1,2.91,1.78,4.23,4.23,0,0,1,1,3.05A5.7,5.7,0,0,1,386,223,10,10,0,0,1,379.85,224.72Z"/>
      <path class="cls-1" d="M409.71,196.92V193h2.14v3.95Zm0,27.37V202h2.14v22.31Z"/>
      <path class="cls-1" d="M444.88,223.39a9.16,9.16,0,0,0-.86.43,9.18,9.18,0,0,1-1.63.62,8.3,8.3,0,0,1-2.19.28,5.23,5.23,0,0,1-2.16-.46,3.68,3.68,0,0,1-1.61-1.36,3.87,3.87,0,0,1-.6-2.2V203.78H432.7V202h3.13v-7.63H438V202h5.19v1.76H438V220.2a2.44,2.44,0,0,0,.9,1.87,3,3,0,0,0,1.89.63,5.55,5.55,0,0,0,2.32-.45,9.3,9.3,0,0,0,1.16-.58Z"/>
      <path class="cls-1" d="M466.5,231.84c.46,0,.86,0,1.22,0a1.66,1.66,0,0,0,.79-.19,1.82,1.82,0,0,0,.8-.67,12.31,12.31,0,0,0,1.09-2.1q.69-1.56,1.93-4.6L462.38,202h2.27l8.84,20,8.19-20h2.19l-12.22,29.31a4.49,4.49,0,0,1-.71,1.22,3.42,3.42,0,0,1-1.1.85,3.72,3.72,0,0,1-1.54.37c-.26,0-.53,0-.82.06a6.63,6.63,0,0,1-1,0Z"/>
    </g>
    <g>
      <polygon class="cls-2" points="0.33 110.09 7.2 109.85 6.95 52.8 33.04 45.07 33.21 101.3 42.78 100.67 42.63 42.23 78.64 31.56 78.69 107.33 91.73 106.88 91.73 5.63 0 39.48 0.33 110.09"/>
      <polygon class="cls-2" points="78.7 129.01 78.75 204.03 43.01 193.38 42.87 135.41 33.31 134.74 33.48 190.54 7.51 182.81 7.27 126.19 0.41 125.92 0.73 195.92 91.73 229.5 91.73 129.52 78.7 129.01"/>
    </g>
    <g>
      <polygon class="cls-3" points="91.73 5.63 91.73 106.88 104.77 107.33 104.82 31.56 137.44 41.23 137.44 22.5 91.73 5.63"/>
      <polygon class="cls-4" points="104.7 204.03 104.75 129.01 91.73 129.52 91.73 229.5 137.44 212.63 137.44 194.28 104.7 204.03"/>
    </g>
  </g>
</svg>
