<?xml version="1.0" encoding="UTF-8"?>
<svg id="_Слой_1" data-name="Слой 1" xmlns="http://www.w3.org/2000/svg" xmlns:xlink="http://www.w3.org/1999/xlink" viewBox="0 0 446.61 248">
  <defs>
    <style>
      .cls-1 {
        fill: #fff;
      }

      .cls-2 {
        fill: url(#_Безымянный_градиент_4-2);
      }

      .cls-3 {
        fill: url(#_Безымянный_градиент_4);
      }
    </style>
    <linearGradient id="_Безымянный_градиент_4" data-name="Безымянный градиент 4" x1="95.31" y1="52.84" x2="142.81" y2="52.84" gradientUnits="userSpaceOnUse">
      <stop offset="0" stop-color="#fff" stop-opacity=".4"/>
      <stop offset=".17" stop-color="#fff" stop-opacity=".38"/>
      <stop offset=".39" stop-color="#fff" stop-opacity=".31"/>
      <stop offset=".64" stop-color="#fff" stop-opacity=".2"/>
      <stop offset=".91" stop-color="#fff" stop-opacity=".06"/>
      <stop offset="1" stop-color="#fff" stop-opacity="0"/>
    </linearGradient>
    <linearGradient id="_Безымянный_градиент_4-2" data-name="Безымянный градиент 4" x1="95.31" y1="180.41" y2="180.41" xlink:href="#_Безымянный_градиент_4"/>
  </defs>
  <g>
    <path class="cls-1" d="M187.76,105.56c0,.37-.09,.56-.28,.56-1.93,0-3.46-.03-4.58-.09l-6.45-.09-6.82,.09c-1.12,.06-2.62,.09-4.49,.09-.19,0-.28-.19-.28-.56s.09-.56,.28-.56c2.43,0,4.21-.15,5.33-.47,1.12-.31,1.88-.92,2.29-1.82,.4-.9,.61-2.29,.61-4.16v-21.88h-35.9v21.88c0,1.87,.2,3.26,.61,4.16,.4,.9,1.17,1.51,2.29,1.82,1.12,.31,2.9,.47,5.33,.47,.12,0,.19,.19,.19,.56s-.06,.56-.19,.56c-1.93,0-3.46-.03-4.58-.09l-6.73-.09-6.45,.09c-1.12,.06-2.68,.09-4.67,.09-.13,0-.19-.19-.19-.56s.06-.56,.19-.56c2.37,0,4.13-.15,5.28-.47,1.15-.31,1.93-.92,2.34-1.82,.4-.9,.61-2.29,.61-4.16V55.27c0-1.87-.2-3.24-.61-4.11-.41-.87-1.17-1.48-2.29-1.82-1.12-.34-2.87-.51-5.23-.51-.13,0-.19-.19-.19-.56s.06-.56,.19-.56l4.77,.09c2.62,.13,4.7,.19,6.26,.19,1.81,0,4.08-.06,6.82-.19l4.49-.09c.12,0,.19,.19,.19,.56s-.06,.56-.19,.56c-2.37,0-4.13,.19-5.28,.56-1.15,.37-1.93,1.01-2.34,1.92-.41,.9-.61,2.29-.61,4.16v19.26h35.9v-19.26c0-1.87-.2-3.26-.61-4.16-.41-.9-1.17-1.54-2.29-1.92-1.12-.37-2.9-.56-5.33-.56-.19,0-.28-.19-.28-.56s.09-.56,.28-.56l4.49,.09c2.74,.13,5.02,.19,6.82,.19,1.68,0,3.83-.06,6.45-.19l4.58-.09c.19,0,.28,.19,.28,.56s-.09,.56-.28,.56c-2.37,0-4.11,.17-5.23,.51-1.12,.34-1.89,.95-2.29,1.82-.41,.87-.61,2.24-.61,4.11v43.28c0,1.87,.2,3.26,.61,4.16,.4,.9,1.17,1.51,2.29,1.82,1.12,.31,2.87,.47,5.23,.47,.19,0,.28,.19,.28,.56Z"/>
    <path class="cls-1" d="M256.66,105.56c0,.37-.13,.56-.37,.56-1.18,0-3.02-.06-5.52-.19-2.49-.12-4.3-.19-5.42-.19-1.37,0-3.12,.06-5.23,.19-2,.13-3.52,.19-4.58,.19-.25,0-.37-.19-.37-.56s.12-.56,.37-.56c2.31,0,3.99-.22,5.05-.65,1.06-.44,1.59-1.18,1.59-2.24,0-.87-.41-2.21-1.22-4.02l-10.75-22.9h-17.67l-8.04,19.07c-.87,2.12-1.31,3.86-1.31,5.23,0,3.68,3.05,5.52,9.16,5.52,.31,0,.47,.19,.47,.56s-.16,.56-.47,.56c-1.12,0-2.74-.06-4.86-.19-2.37-.12-4.43-.19-6.17-.19-1.62,0-3.49,.06-5.61,.19-1.87,.13-3.43,.19-4.67,.19-.31,0-.47-.19-.47-.56s.16-.56,.47-.56c1.74,0,3.23-.33,4.44-.98,1.22-.65,2.37-1.81,3.46-3.46,1.09-1.65,2.29-4.03,3.6-7.15l19.72-46.55c.12-.19,.34-.28,.65-.28s.5,.09,.56,.28l22.06,46.46c2.12,4.61,3.93,7.71,5.42,9.3,1.5,1.59,3.27,2.38,5.33,2.38,.25,0,.37,.19,.37,.56Zm-43.28-32.34h15.89l-8.41-17.76-7.48,17.76Z"/>
    <path class="cls-1" d="M275.73,102.71c.37,.9,1.11,1.51,2.2,1.82,1.09,.31,2.82,.47,5.19,.47,.19,0,.28,.19,.28,.56s-.09,.56-.28,.56c-1.87,0-3.37-.03-4.49-.09l-6.64-.09-6.45,.09c-1.12,.06-2.65,.09-4.58,.09-.19,0-.28-.19-.28-.56s.09-.56,.28-.56c2.37,0,4.1-.15,5.19-.47,1.09-.31,1.84-.92,2.24-1.82,.4-.9,.61-2.29,.61-4.16V55.27c0-1.87-.2-3.24-.61-4.11-.41-.87-1.15-1.48-2.24-1.82-1.09-.34-2.82-.51-5.19-.51-.19,0-.28-.19-.28-.56s.09-.56,.28-.56l4.58,.09c2.62,.13,4.77,.19,6.45,.19,1.87,0,4.11-.06,6.73-.19l4.39-.09c.19,0,.28,.19,.28,.56s-.09,.56-.28,.56c-2.31,0-4.01,.19-5.09,.56-1.09,.37-1.84,1.01-2.24,1.92-.41,.9-.61,2.29-.61,4.16v43.09c0,1.87,.19,3.26,.56,4.16Z"/>
    <path class="cls-1" d="M351.63,105.56c0,.37-.06,.56-.19,.56h-12.06c-1.56,0-4.47-2.66-8.74-7.99-4.27-5.33-9.46-12.76-15.56-22.3-1.5,.44-3.18,.65-5.05,.65-1.18,0-2.59-.06-4.21-.19v22.25c0,1.93,.19,3.33,.56,4.21,.37,.87,1.11,1.46,2.2,1.78,1.09,.31,2.82,.47,5.19,.47,.19,0,.28,.19,.28,.56s-.09,.56-.28,.56c-1.93,0-3.46-.03-4.58-.09l-6.45-.09-6.36,.09c-1.12,.06-2.71,.09-4.77,.09-.13,0-.19-.19-.19-.56s.06-.56,.19-.56c2.37,0,4.11-.17,5.23-.51,1.12-.34,1.9-.95,2.34-1.82,.44-.87,.65-2.24,.65-4.11V55.27c0-1.87-.2-3.24-.61-4.11-.41-.87-1.15-1.48-2.24-1.82-1.09-.34-2.82-.51-5.19-.51-.19,0-.28-.19-.28-.56s.09-.56,.28-.56l4.58,.09c2.62,.13,4.74,.19,6.36,.19,1.12,0,2.18-.03,3.18-.09,1-.06,1.87-.12,2.62-.19,1.99-.19,3.8-.28,5.42-.28,5.05,0,8.94,1.03,11.69,3.08,2.74,2.06,4.11,4.92,4.11,8.6,0,2.99-.87,5.81-2.62,8.46-1.75,2.65-4.05,4.75-6.92,6.31,5.3,7.92,9.75,14.1,13.37,18.56,3.61,4.46,6.82,7.67,9.63,9.63,2.8,1.96,5.55,2.94,8.23,2.94,.12,0,.19,.19,.19,.56Zm-40.29-31.22c4.3,0,7.39-.92,9.25-2.76,1.87-1.84,2.8-4.91,2.8-9.21,0-9.04-3.8-13.55-11.4-13.55-1.68,0-2.94,.14-3.79,.42-.84,.28-1.45,.87-1.82,1.78-.37,.9-.56,2.38-.56,4.44v18.51c1.56,.25,3.4,.37,5.52,.37Z"/>
    <path class="cls-1" d="M164.77,172.9c.19,0,.36,.03,.51,.09,.15,.06,.23,.16,.23,.28-.56,3.93-.84,8.04-.84,12.34,0,.5-.11,.86-.33,1.08-.22,.22-.61,.33-1.17,.33h-39.17c-.13,0-.19-.19-.19-.56s.06-.56,.19-.56c2.37,0,4.1-.15,5.19-.47,1.09-.31,1.84-.92,2.24-1.82,.4-.9,.61-2.29,.61-4.16v-43.28c0-1.87-.2-3.24-.61-4.11-.41-.87-1.15-1.48-2.24-1.82-1.09-.34-2.82-.51-5.19-.51-.13,0-.19-.19-.19-.56s.06-.56,.19-.56h37.58c.56,0,.84,.28,.84,.84l.19,11.5c0,.19-.16,.3-.47,.33-.31,.03-.5-.05-.56-.23-.19-3.3-1.18-5.87-2.99-7.71-1.81-1.84-4.21-2.76-7.2-2.76h-5.7c-2.18,0-3.79,.17-4.81,.51-1.03,.34-1.75,.93-2.15,1.78-.41,.84-.61,2.1-.61,3.79v18.98h11.4c2.99,0,5.13-.5,6.4-1.5,1.28-1,1.92-2.68,1.92-5.05,0-.12,.19-.19,.56-.19s.56,.06,.56,.19l-.09,7.57c0,1.81,.03,3.18,.09,4.11l.09,4.49c0,.13-.19,.19-.56,.19s-.56-.06-.56-.19c0-2.74-.67-4.7-2.01-5.89-1.34-1.18-3.57-1.78-6.68-1.78h-11.12v21.5c0,1.75,.19,3.02,.56,3.83,.37,.81,1.06,1.37,2.06,1.68,1,.31,2.55,.47,4.67,.47h7.48c2.99,0,5.48-1.06,7.48-3.18,1.99-2.12,3.33-5.05,4.02-8.79,0-.12,.12-.19,.37-.19Z"/>
    <path class="cls-1" d="M229.73,186.45c0,.37-.06,.56-.19,.56-1.62,0-2.9-.03-3.83-.09l-5.14-.09-7.2,.09c-1.12,.06-2.65,.09-4.58,.09-.13,0-.19-.19-.19-.56s.06-.56,.19-.56c1.68,0,2.9-.12,3.65-.37,.75-.25,1.12-.65,1.12-1.22s-.28-1.25-.84-2.06l-14.21-21.5-11.87,16.73c-1.5,2.12-2.24,3.83-2.24,5.14,0,2.18,1.84,3.27,5.52,3.27,.19,0,.28,.19,.28,.56s-.09,.56-.28,.56c-1.87,0-3.3-.03-4.3-.09l-6.45-.09-3.93,.09c-.69,.06-1.84,.09-3.46,.09-.19,0-.28-.19-.28-.56s.09-.56,.28-.56c4.3,0,8.54-2.84,12.71-8.51l13.18-18.04-15.05-22.81c-1.62-2.49-3.23-4.25-4.81-5.28-1.59-1.03-3.47-1.54-5.66-1.54-.13,0-.19-.19-.19-.56s.06-.56,.19-.56l3.55,.09c1.62,.13,2.8,.19,3.55,.19,2.12,0,4.67-.06,7.67-.19l4.86-.09c.19,0,.28,.19,.28,.56s-.09,.56-.28,.56c-1.62,0-2.82,.13-3.6,.37-.78,.25-1.17,.69-1.17,1.31,0,.5,.28,1.18,.84,2.06l13.83,20.85,10.94-15.52c1.68-2.37,2.52-4.3,2.52-5.8,0-2.18-1.75-3.27-5.23-3.27-.19,0-.28-.19-.28-.56s.09-.56,.28-.56l4.21,.09c2.37,.13,4.52,.19,6.45,.19,1.12,0,2.43-.06,3.93-.19l3.46-.09c.19,0,.28,.19,.28,.56s-.09,.56-.28,.56c-2.06,0-4.21,.78-6.45,2.34-2.24,1.56-4.49,3.86-6.73,6.92l-12.25,16.73,15.61,23.56c1.62,2.43,3.29,4.15,5,5.14,1.71,1,3.85,1.5,6.4,1.5,.12,0,.19,.19,.19,.56Z"/>
    <path class="cls-1" d="M249.88,183.42c.53,.9,1.56,1.54,3.08,1.92,1.53,.37,3.94,.56,7.25,.56,.19,0,.28,.19,.28,.56s-.09,.56-.28,.56c-2.56,0-4.55-.03-5.98-.09l-8.13-.09-6.26,.09c-1.18,.06-2.77,.09-4.77,.09-.13,0-.19-.19-.19-.56s.06-.56,.19-.56c2.37,0,4.1-.15,5.19-.47,1.09-.31,1.82-.92,2.2-1.82,.37-.9,.56-2.29,.56-4.16v-43.28c0-1.87-.19-3.24-.56-4.11-.37-.87-1.11-1.48-2.2-1.82-1.09-.34-2.82-.51-5.19-.51-.13,0-.19-.19-.19-.56s.06-.56,.19-.56l4.67,.09c2.62,.13,4.71,.19,6.26,.19s3.3-.09,5.24-.28c.75,0,1.93-.05,3.55-.14,1.62-.09,3.02-.14,4.21-.14,5.73,0,10.33,1.28,13.79,3.83,3.46,2.56,5.19,6.45,5.19,11.69,0,4.11-1.01,7.57-3.04,10.38-2.03,2.8-4.63,4.89-7.81,6.26-3.18,1.37-6.45,2.06-9.82,2.06-1.81,0-3.3-.15-4.49-.47-.19,0-.28-.15-.28-.47,0-.19,.05-.37,.14-.56s.2-.25,.33-.19c1,.25,2.12,.37,3.37,.37,4.11,0,7.59-1.34,10.42-4.02,2.83-2.68,4.25-6.54,4.25-11.59s-1.34-8.8-4.02-11.64c-2.68-2.84-6.11-4.25-10.28-4.25-2.24,0-3.86,.13-4.86,.37-1,.25-1.71,.83-2.15,1.73-.44,.9-.65,2.42-.65,4.53v42.72c0,2,.26,3.44,.79,4.35Z"/>
    <path class="cls-1" d="M326.67,172.9c.19,0,.36,.03,.51,.09,.15,.06,.23,.16,.23,.28-.56,3.93-.84,8.04-.84,12.34,0,.5-.11,.86-.33,1.08-.22,.22-.61,.33-1.17,.33h-39.17c-.13,0-.19-.19-.19-.56s.06-.56,.19-.56c2.37,0,4.1-.15,5.19-.47,1.09-.31,1.84-.92,2.24-1.82,.4-.9,.61-2.29,.61-4.16v-43.28c0-1.87-.2-3.24-.61-4.11-.41-.87-1.15-1.48-2.24-1.82-1.09-.34-2.82-.51-5.19-.51-.13,0-.19-.19-.19-.56s.06-.56,.19-.56h37.58c.56,0,.84,.28,.84,.84l.19,11.5c0,.19-.16,.3-.47,.33-.31,.03-.5-.05-.56-.23-.19-3.3-1.18-5.87-2.99-7.71-1.81-1.84-4.21-2.76-7.2-2.76h-5.7c-2.18,0-3.79,.17-4.81,.51-1.03,.34-1.75,.93-2.15,1.78-.41,.84-.61,2.1-.61,3.79v18.98h11.4c2.99,0,5.13-.5,6.4-1.5,1.28-1,1.92-2.68,1.92-5.05,0-.12,.19-.19,.56-.19s.56,.06,.56,.19l-.09,7.57c0,1.81,.03,3.18,.09,4.11l.09,4.49c0,.13-.19,.19-.56,.19s-.56-.06-.56-.19c0-2.74-.67-4.7-2.01-5.89-1.34-1.18-3.57-1.78-6.68-1.78h-11.12v21.5c0,1.75,.19,3.02,.56,3.83,.37,.81,1.06,1.37,2.06,1.68,1,.31,2.55,.47,4.67,.47h7.48c2.99,0,5.48-1.06,7.48-3.18,1.99-2.12,3.33-5.05,4.02-8.79,0-.12,.12-.19,.37-.19Z"/>
    <path class="cls-1" d="M396.13,186.45c0,.37-.06,.56-.19,.56h-12.06c-1.56,0-4.47-2.66-8.74-7.99-4.27-5.33-9.46-12.76-15.56-22.3-1.5,.44-3.18,.65-5.05,.65-1.18,0-2.59-.06-4.21-.19v22.25c0,1.93,.19,3.33,.56,4.21,.37,.87,1.11,1.46,2.2,1.78,1.09,.31,2.82,.47,5.19,.47,.19,0,.28,.19,.28,.56s-.09,.56-.28,.56c-1.93,0-3.46-.03-4.58-.09l-6.45-.09-6.36,.09c-1.12,.06-2.71,.09-4.77,.09-.13,0-.19-.19-.19-.56s.06-.56,.19-.56c2.37,0,4.11-.17,5.23-.51,1.12-.34,1.9-.95,2.34-1.82,.44-.87,.65-2.24,.65-4.11v-43.28c0-1.87-.2-3.24-.61-4.11-.41-.87-1.15-1.48-2.24-1.82-1.09-.34-2.82-.51-5.19-.51-.19,0-.28-.19-.28-.56s.09-.56,.28-.56l4.58,.09c2.62,.13,4.74,.19,6.36,.19,1.12,0,2.18-.03,3.18-.09,1-.06,1.87-.12,2.62-.19,1.99-.19,3.8-.28,5.42-.28,5.05,0,8.94,1.03,11.69,3.08,2.74,2.06,4.11,4.92,4.11,8.6,0,2.99-.87,5.81-2.62,8.46-1.75,2.65-4.05,4.75-6.92,6.31,5.3,7.92,9.75,14.1,13.37,18.56,3.61,4.46,6.82,7.67,9.63,9.63,2.8,1.96,5.55,2.94,8.23,2.94,.12,0,.19,.19,.19,.56Zm-40.29-31.22c4.3,0,7.39-.92,9.25-2.76,1.87-1.84,2.8-4.91,2.8-9.21,0-9.04-3.8-13.55-11.4-13.55-1.68,0-2.94,.14-3.79,.42-.84,.28-1.45,.87-1.82,1.78-.37,.9-.56,2.38-.56,4.44v18.51c1.56,.25,3.4,.37,5.52,.37Z"/>
    <path class="cls-1" d="M396.17,133.26c-1.96,2-3.38,5.39-4.25,10.19,0,.13-.17,.19-.51,.19s-.51-.06-.51-.19c.25-2.24,.53-5.17,.84-8.79,.31-3.61,.47-6.32,.47-8.13,0-.31,.17-.47,.51-.47s.51,.16,.51,.47c0,1.37,1.68,2.06,5.05,2.06,5.3,.19,11.56,.28,18.79,.28,3.68,0,7.57-.06,11.69-.19l6.36-.09c2.24,0,3.91-.15,5-.47,1.09-.31,1.79-.94,2.1-1.87,.06-.25,.25-.37,.56-.37s.47,.13,.47,.37c-.19,1.81-.37,4.55-.56,8.23-.19,3.68-.28,6.67-.28,8.97,0,.13-.19,.19-.56,.19s-.56-.06-.56-.19c-.19-4.86-1.18-8.27-2.99-10.24-1.81-1.96-4.8-2.94-8.97-2.94-2.8,0-4.8,.13-5.98,.37-1.18,.25-2,.78-2.43,1.59-.44,.81-.65,2.18-.65,4.11v43.09c0,1.93,.22,3.33,.65,4.21,.44,.87,1.28,1.46,2.52,1.78,1.25,.31,3.21,.47,5.89,.47,.19,0,.28,.19,.28,.56s-.09,.56-.28,.56c-2.06,0-3.71-.03-4.95-.09l-7.29-.09-7.01,.09c-1.25,.06-2.96,.09-5.14,.09-.13,0-.19-.19-.19-.56s.06-.56,.19-.56c2.68,0,4.64-.15,5.89-.47,1.25-.31,2.1-.92,2.57-1.82,.47-.9,.7-2.29,.7-4.16v-43.28c0-1.93-.22-3.29-.65-4.07-.44-.78-1.25-1.28-2.43-1.5-1.18-.22-3.18-.33-5.98-.33-3.93,0-6.87,1-8.83,2.99Z"/>
  </g>
  <g>
    <polygon class="cls-1" points=".34 108.55 7.48 108.3 7.22 49.02 34.33 40.99 34.51 99.41 44.45 98.75 44.3 38.03 81.71 26.95 81.76 105.68 95.31 105.2 95.31 0 0 35.17 .34 108.55"/>
    <polygon class="cls-1" points="81.78 128.2 81.83 206.15 44.69 195.09 44.54 134.86 34.61 134.16 34.78 192.14 7.81 184.11 7.55 125.27 .42 124.99 .76 197.72 95.31 232.62 95.31 128.73 81.78 128.2"/>
  </g>
  <g>
    <polygon class="cls-3" points="95.31 0 95.31 105.2 108.86 105.68 108.92 26.95 142.81 36.99 142.81 17.53 95.31 0"/>
    <polygon class="cls-2" points="108.8 206.15 108.85 128.2 95.31 128.73 95.31 232.62 142.81 215.09 142.81 196.02 108.8 206.15"/>
  </g>
</svg>